<svg width="32" height="32" viewBox="0 0 32 32" fill="none" xmlns="http://www.w3.org/2000/svg">
<path fill-rule="evenodd" clip-rule="evenodd" d="M16.1837 2.66699C8.7093 2.66699 2.66699 8.74443 2.66699 16.2631C2.66699 22.2732 6.53849 27.3606 11.9093 29.1612C12.5808 29.2966 12.8268 28.8686 12.8268 28.5087C12.8268 28.1935 12.8047 27.1131 12.8047 25.9874C9.04462 26.7979 8.26162 24.3666 8.26162 24.3666C7.65737 22.7909 6.76205 22.3859 6.76205 22.3859C5.53143 21.553 6.85168 21.553 6.85168 21.553C8.2168 21.6431 8.93312 22.9486 8.93312 22.9486C10.1414 25.0194 12.0884 24.4343 12.8716 24.0741C12.9834 23.1961 13.3417 22.5884 13.7221 22.2508C10.7232 21.9356 7.56799 20.7651 7.56799 15.5427C7.56799 14.057 8.10474 12.8415 8.95524 11.8962C8.82105 11.5586 8.35099 10.1627 9.08974 8.29443C9.08974 8.29443 10.231 7.93424 12.8044 9.69005C13.9062 9.39247 15.0424 9.24107 16.1837 9.23974C17.325 9.23974 18.4884 9.39749 19.5627 9.69005C22.1364 7.93424 23.2777 8.29443 23.2777 8.29443C24.0164 10.1627 23.5461 11.5586 23.4119 11.8962C24.2848 12.8415 24.7994 14.057 24.7994 15.5427C24.7994 20.7651 21.6442 21.9129 18.6229 22.2508C19.1154 22.6784 19.5404 23.4887 19.5404 24.7719C19.5404 26.5951 19.5182 28.0584 19.5182 28.5084C19.5182 28.8686 19.7644 29.2966 20.4357 29.1614C25.8065 27.3603 29.678 22.2732 29.678 16.2631C29.7002 8.74443 23.6357 2.66699 16.1837 2.66699Z" fill="white"/>
</svg>
