<svg width="32" height="32" viewBox="0 0 32 32" fill="none" xmlns="http://www.w3.org/2000/svg">
<path d="M16.0003 11.667C14.8511 11.667 13.7489 12.1235 12.9362 12.9362C12.1235 13.7489 11.667 14.8511 11.667 16.0003C11.667 17.1496 12.1235 18.2518 12.9362 19.0645C13.7489 19.8771 14.8511 20.3337 16.0003 20.3337C17.1496 20.3337 18.2518 19.8771 19.0645 19.0645C19.8771 18.2518 20.3337 17.1496 20.3337 16.0003C20.3337 14.8511 19.8771 13.7489 19.0645 12.9362C18.2518 12.1235 17.1496 11.667 16.0003 11.667Z" fill="white"/>
<path fill-rule="evenodd" clip-rule="evenodd" d="M9.02682 4.10968C13.6615 3.59625 18.3388 3.59625 22.9735 4.10968C25.5055 4.39235 27.5468 6.38568 27.8442 8.92701C28.3934 13.6266 28.3934 18.3741 27.8442 23.0737C27.5468 25.615 25.5055 27.6083 22.9748 27.8923C18.3397 28.4059 13.662 28.4059 9.02682 27.8923C6.49482 27.6083 4.45349 25.615 4.15616 23.075C3.6068 18.375 3.6068 13.627 4.15616 8.92701C4.45349 6.38568 6.49482 4.39235 9.02682 4.10968ZM22.6668 8.00035C22.3132 8.00035 21.9741 8.14082 21.724 8.39087C21.474 8.64092 21.3335 8.98006 21.3335 9.33368C21.3335 9.6873 21.474 10.0264 21.724 10.2765C21.9741 10.5265 22.3132 10.667 22.6668 10.667C23.0204 10.667 23.3596 10.5265 23.6096 10.2765C23.8597 10.0264 24.0002 9.6873 24.0002 9.33368C24.0002 8.98006 23.8597 8.64092 23.6096 8.39087C23.3596 8.14082 23.0204 8.00035 22.6668 8.00035ZM9.66682 16.0003C9.66682 14.3206 10.3341 12.7097 11.5218 11.522C12.7095 10.3343 14.3205 9.66701 16.0002 9.66701C17.6799 9.66701 19.2908 10.3343 20.4785 11.522C21.6662 12.7097 22.3335 14.3206 22.3335 16.0003C22.3335 17.6801 21.6662 19.291 20.4785 20.4787C19.2908 21.6664 17.6799 22.3337 16.0002 22.3337C14.3205 22.3337 12.7095 21.6664 11.5218 20.4787C10.3341 19.291 9.66682 17.6801 9.66682 16.0003Z" fill="white"/>
</svg>
