<svg width="442" height="411" viewBox="0 0 442 411" fill="none" xmlns="http://www.w3.org/2000/svg">
<path d="M221 66V130" stroke="#10316B" stroke-width="4"/>
<path d="M221 188V333" stroke="#10316B" stroke-width="4"/>
<path d="M116 220L325 220" stroke="#10316B" stroke-width="4"/>
<path d="M118 220V252" stroke="#10316B" stroke-width="4"/>
<path d="M323 220V252" stroke="#10316B" stroke-width="4"/>
<path d="M46 331H388" stroke="#10316B" stroke-width="4"/>
<path d="M221 333V365" stroke="#10316B" stroke-width="4"/>
<path d="M386 333V365" stroke="#10316B" stroke-width="4"/>
<path d="M48 333V365" stroke="#10316B" stroke-width="4"/>
<rect x="102" y="1" width="237" height="66" rx="17" stroke="#404040" stroke-width="2"/>
<path d="M144.64 35V43.84C144.347 43.92 143.88 44 143.24 44.08C142.6 44.16 141.973 44.2 141.36 44.2C140.747 44.2 140.2 44.1467 139.72 44.04C139.267 43.96 138.88 43.8 138.56 43.56C138.24 43.32 138 42.9867 137.84 42.56C137.68 42.1333 137.6 41.5733 137.6 40.88V19.76C137.893 19.7067 138.36 19.64 139 19.56C139.64 19.4533 140.253 19.4 140.84 19.4C141.453 19.4 141.987 19.4533 142.44 19.56C142.92 19.64 143.32 19.8 143.64 20.04C143.96 20.28 144.2 20.6133 144.36 21.04C144.52 21.4667 144.6 22.0267 144.6 22.72V29.08L152.92 19.52C154.733 19.52 156.027 19.8667 156.8 20.56C157.6 21.2267 158 22.0267 158 22.96C158 23.6533 157.827 24.3067 157.48 24.92C157.133 25.5333 156.573 26.2267 155.8 27L150.8 32C151.467 32.7467 152.16 33.52 152.88 34.32C153.627 35.12 154.347 35.9067 155.04 36.68C155.76 37.4267 156.44 38.1467 157.08 38.84C157.747 39.5333 158.32 40.1333 158.8 40.64C158.8 41.2267 158.693 41.7467 158.48 42.2C158.267 42.6533 157.973 43.04 157.6 43.36C157.253 43.68 156.853 43.92 156.4 44.08C155.947 44.24 155.467 44.32 154.96 44.32C153.867 44.32 152.973 44.0533 152.28 43.52C151.587 42.96 150.92 42.3067 150.28 41.56L144.64 35ZM171.988 44.64C170.415 44.64 168.948 44.4267 167.588 44C166.255 43.5467 165.081 42.88 164.068 42C163.081 41.12 162.295 40.0133 161.708 38.68C161.148 37.3467 160.868 35.7867 160.868 34C160.868 32.24 161.148 30.7333 161.708 29.48C162.295 28.2 163.055 27.16 163.988 26.36C164.921 25.5333 165.988 24.9333 167.188 24.56C168.388 24.16 169.615 23.96 170.868 23.96C172.281 23.96 173.561 24.1733 174.708 24.6C175.881 25.0267 176.881 25.6133 177.708 26.36C178.561 27.1067 179.215 28 179.668 29.04C180.148 30.08 180.388 31.2133 180.388 32.44C180.388 33.3467 180.135 34.04 179.628 34.52C179.121 35 178.415 35.3067 177.508 35.44L167.628 36.92C167.921 37.8 168.521 38.4667 169.428 38.92C170.335 39.3467 171.375 39.56 172.548 39.56C173.641 39.56 174.668 39.4267 175.628 39.16C176.615 38.8667 177.415 38.5333 178.028 38.16C178.455 38.4267 178.815 38.8 179.108 39.28C179.401 39.76 179.548 40.2667 179.548 40.8C179.548 42 178.988 42.8933 177.868 43.48C177.015 43.9333 176.055 44.24 174.988 44.4C173.921 44.56 172.921 44.64 171.988 44.64ZM170.868 28.92C170.228 28.92 169.668 29.0267 169.188 29.24C168.735 29.4533 168.361 29.7333 168.068 30.08C167.775 30.4 167.548 30.7733 167.388 31.2C167.255 31.6 167.175 32.0133 167.148 32.44L173.988 31.32C173.908 30.7867 173.615 30.2533 173.108 29.72C172.601 29.1867 171.855 28.92 170.868 28.92ZM191.261 37.32C191.261 38.0133 191.475 38.5067 191.901 38.8C192.355 39.0933 192.981 39.24 193.781 39.24C194.181 39.24 194.595 39.2133 195.021 39.16C195.448 39.08 195.821 38.9867 196.141 38.88C196.381 39.1733 196.581 39.5067 196.741 39.88C196.928 40.2267 197.021 40.6533 197.021 41.16C197.021 42.1733 196.635 43 195.861 43.64C195.115 44.28 193.781 44.6 191.861 44.6C189.515 44.6 187.701 44.0667 186.421 43C185.168 41.9333 184.541 40.2 184.541 37.8V20.68C184.835 20.6 185.248 20.52 185.781 20.44C186.341 20.3333 186.928 20.28 187.541 20.28C188.715 20.28 189.621 20.4933 190.261 20.92C190.928 21.32 191.261 22.1867 191.261 23.52V26.08H196.501C196.661 26.3733 196.808 26.7467 196.941 27.2C197.101 27.6267 197.181 28.1067 197.181 28.64C197.181 29.5733 196.968 30.2533 196.541 30.68C196.141 31.08 195.595 31.28 194.901 31.28H191.261V37.32ZM201.277 24.84C201.544 24.76 201.957 24.68 202.517 24.6C203.104 24.52 203.704 24.48 204.317 24.48C204.904 24.48 205.424 24.52 205.877 24.6C206.357 24.68 206.757 24.84 207.077 25.08C207.397 25.32 207.637 25.6533 207.797 26.08C207.984 26.48 208.077 27.0133 208.077 27.68V36.28C208.077 37.3733 208.344 38.16 208.877 38.64C209.41 39.0933 210.184 39.32 211.197 39.32C211.81 39.32 212.304 39.2667 212.677 39.16C213.077 39.0533 213.384 38.9467 213.597 38.84V24.84C213.864 24.76 214.277 24.68 214.837 24.6C215.424 24.52 216.024 24.48 216.637 24.48C217.224 24.48 217.744 24.52 218.197 24.6C218.677 24.68 219.077 24.84 219.397 25.08C219.717 25.32 219.957 25.6533 220.117 26.08C220.304 26.48 220.397 27.0133 220.397 27.68V39.84C220.397 41.1733 219.837 42.1733 218.717 42.84C217.784 43.4267 216.664 43.8667 215.357 44.16C214.077 44.48 212.677 44.64 211.157 44.64C209.717 44.64 208.384 44.48 207.157 44.16C205.957 43.84 204.917 43.3467 204.037 42.68C203.157 42.0133 202.477 41.16 201.997 40.12C201.517 39.0533 201.277 37.7733 201.277 36.28V24.84ZM233.678 39.68C234.131 39.68 234.625 39.64 235.158 39.56C235.718 39.4533 236.131 39.32 236.398 39.16V35.96L233.518 36.2C232.771 36.2533 232.158 36.4133 231.678 36.68C231.198 36.9467 230.958 37.3467 230.958 37.88C230.958 38.4133 231.158 38.8533 231.558 39.2C231.985 39.52 232.691 39.68 233.678 39.68ZM233.358 23.96C234.798 23.96 236.105 24.1067 237.278 24.4C238.478 24.6933 239.491 25.1467 240.318 25.76C241.171 26.3467 241.825 27.1067 242.278 28.04C242.731 28.9467 242.958 30.0267 242.958 31.28V40.24C242.958 40.9333 242.758 41.5067 242.358 41.96C241.985 42.3867 241.531 42.76 240.998 43.08C239.265 44.12 236.825 44.64 233.678 44.64C232.265 44.64 230.985 44.5067 229.838 44.24C228.718 43.9733 227.745 43.5733 226.918 43.04C226.118 42.5067 225.491 41.8267 225.038 41C224.611 40.1733 224.398 39.2133 224.398 38.12C224.398 36.28 224.945 34.8667 226.038 33.88C227.131 32.8933 228.825 32.28 231.118 32.04L236.358 31.48V31.2C236.358 30.4267 236.011 29.88 235.318 29.56C234.651 29.2133 233.678 29.04 232.398 29.04C231.385 29.04 230.398 29.1467 229.438 29.36C228.478 29.5733 227.611 29.84 226.838 30.16C226.491 29.92 226.198 29.56 225.958 29.08C225.718 28.5733 225.598 28.0533 225.598 27.52C225.598 26.8267 225.758 26.28 226.078 25.88C226.425 25.4533 226.945 25.0933 227.638 24.8C228.411 24.5067 229.318 24.2933 230.358 24.16C231.425 24.0267 232.425 23.96 233.358 23.96ZM264.204 38.8C264.497 38.8533 264.857 38.9067 265.284 38.96C265.71 38.9867 266.11 39 266.484 39C267.39 39 268.217 38.8667 268.964 38.6C269.737 38.3333 270.39 37.92 270.924 37.36C271.484 36.8 271.91 36.08 272.204 35.2C272.524 34.2933 272.684 33.2133 272.684 31.96C272.684 29.56 272.124 27.76 271.004 26.56C269.884 25.3333 268.39 24.72 266.524 24.72C266.15 24.72 265.764 24.7333 265.364 24.76C264.99 24.7867 264.604 24.8267 264.204 24.88V38.8ZM266.444 44.64C265.99 44.64 265.47 44.6267 264.884 44.6C264.297 44.5733 263.684 44.52 263.044 44.44C262.43 44.36 261.804 44.2533 261.164 44.12C260.55 44.0133 259.977 43.8533 259.444 43.64C257.977 43.08 257.244 42.1067 257.244 40.72V22.04C257.244 21.48 257.39 21.0533 257.684 20.76C258.004 20.44 258.43 20.1867 258.964 20C260.11 19.6267 261.324 19.3867 262.604 19.28C263.884 19.1467 265.03 19.08 266.044 19.08C268.124 19.08 270.004 19.3333 271.684 19.84C273.39 20.3467 274.844 21.1333 276.044 22.2C277.27 23.24 278.217 24.56 278.884 26.16C279.55 27.76 279.884 29.6533 279.884 31.84C279.884 33.9733 279.564 35.84 278.924 37.44C278.284 39.0133 277.364 40.3467 276.164 41.44C274.99 42.5067 273.577 43.3067 271.924 43.84C270.27 44.3733 268.444 44.64 266.444 44.64ZM293.764 31C294.884 31 295.738 30.7467 296.324 30.24C296.938 29.7067 297.244 28.9067 297.244 27.84C297.244 26.8267 296.924 26.0533 296.284 25.52C295.671 24.96 294.764 24.68 293.564 24.68C293.138 24.68 292.778 24.6933 292.484 24.72C292.218 24.72 291.938 24.7467 291.644 24.8V31H293.764ZM291.684 43.84C291.391 43.92 290.924 44 290.284 44.08C289.671 44.16 289.058 44.2 288.444 44.2C287.831 44.2 287.284 44.1467 286.804 44.04C286.351 43.96 285.964 43.8 285.644 43.56C285.324 43.32 285.084 42.9867 284.924 42.56C284.764 42.1333 284.684 41.5733 284.684 40.88V22.04C284.684 21.48 284.831 21.0533 285.124 20.76C285.444 20.44 285.871 20.1867 286.404 20C287.311 19.68 288.338 19.4533 289.484 19.32C290.658 19.16 291.831 19.08 293.004 19.08C296.684 19.08 299.498 19.8667 301.444 21.44C303.391 23.0133 304.364 25.1467 304.364 27.84C304.364 29.1467 304.151 30.3333 303.724 31.4C303.324 32.44 302.711 33.3467 301.884 34.12C301.084 34.8667 300.058 35.4533 298.804 35.88C297.578 36.28 296.151 36.48 294.524 36.48H291.684V43.84Z" fill="#262626"/>
<rect x="76" y="131" width="290" height="56" rx="15" stroke="#404040" stroke-width="2"/>
<path d="M118.04 155.344C118.275 155.237 118.637 155.12 119.128 154.992C119.64 154.843 120.152 154.768 120.664 154.768C121.56 154.768 122.307 154.907 122.904 155.184C123.501 155.44 123.864 155.824 123.992 156.336C124.227 157.211 124.44 158.032 124.632 158.8C124.845 159.547 125.048 160.272 125.24 160.976C125.432 161.659 125.613 162.341 125.784 163.024C125.976 163.707 126.157 164.421 126.328 165.168H126.488C126.68 163.867 126.851 162.629 127 161.456C127.149 160.261 127.288 159.099 127.416 157.968C127.544 156.816 127.672 155.685 127.8 154.576C127.928 153.445 128.056 152.304 128.184 151.152C128.973 150.704 129.816 150.48 130.712 150.48C131.501 150.48 132.184 150.651 132.76 150.992C133.336 151.333 133.624 151.909 133.624 152.72C133.624 153.189 133.571 153.861 133.464 154.736C133.379 155.589 133.251 156.549 133.08 157.616C132.931 158.683 132.749 159.803 132.536 160.976C132.323 162.149 132.099 163.269 131.864 164.336C131.629 165.403 131.384 166.373 131.128 167.248C130.893 168.101 130.669 168.763 130.456 169.232C130.136 169.531 129.613 169.776 128.888 169.968C128.163 170.16 127.416 170.256 126.648 170.256C125.645 170.256 124.792 170.128 124.088 169.872C123.405 169.595 122.989 169.211 122.84 168.72C122.563 167.867 122.264 166.853 121.944 165.68C121.624 164.507 121.283 163.216 120.92 161.808C120.621 163.195 120.312 164.549 119.992 165.872C119.672 167.195 119.384 168.315 119.128 169.232C118.808 169.531 118.328 169.776 117.688 169.968C117.048 170.16 116.344 170.256 115.576 170.256C114.616 170.256 113.741 170.128 112.952 169.872C112.184 169.595 111.683 169.211 111.448 168.72C111.256 168.336 111.043 167.771 110.808 167.024C110.595 166.256 110.371 165.392 110.136 164.432C109.901 163.451 109.656 162.395 109.4 161.264C109.165 160.133 108.941 159.003 108.728 157.872C108.536 156.741 108.355 155.643 108.184 154.576C108.013 153.488 107.885 152.496 107.8 151.6C108.099 151.323 108.515 151.067 109.048 150.832C109.581 150.597 110.157 150.48 110.776 150.48C111.587 150.48 112.248 150.661 112.76 151.024C113.293 151.365 113.624 151.952 113.752 152.784C114.093 154.96 114.371 156.773 114.584 158.224C114.819 159.675 115 160.869 115.128 161.808C115.277 162.725 115.384 163.44 115.448 163.952C115.512 164.464 115.576 164.869 115.64 165.168H115.8C115.992 164.315 116.173 163.525 116.344 162.8C116.515 162.075 116.685 161.349 116.856 160.624C117.048 159.877 117.24 159.088 117.432 158.256C117.624 157.403 117.827 156.432 118.04 155.344ZM143.585 166.544C143.948 166.544 144.342 166.512 144.769 166.448C145.217 166.363 145.548 166.256 145.761 166.128V163.568L143.457 163.76C142.86 163.803 142.369 163.931 141.985 164.144C141.601 164.357 141.409 164.677 141.409 165.104C141.409 165.531 141.569 165.883 141.889 166.16C142.23 166.416 142.796 166.544 143.585 166.544ZM143.329 153.968C144.481 153.968 145.526 154.085 146.465 154.32C147.425 154.555 148.236 154.917 148.897 155.408C149.58 155.877 150.102 156.485 150.465 157.232C150.828 157.957 151.009 158.821 151.009 159.824V166.992C151.009 167.547 150.849 168.005 150.529 168.368C150.23 168.709 149.868 169.008 149.441 169.264C148.054 170.096 146.102 170.512 143.585 170.512C142.454 170.512 141.43 170.405 140.513 170.192C139.617 169.979 138.838 169.659 138.177 169.232C137.537 168.805 137.036 168.261 136.673 167.6C136.332 166.939 136.161 166.171 136.161 165.296C136.161 163.824 136.598 162.693 137.473 161.904C138.348 161.115 139.702 160.624 141.537 160.432L145.729 159.984V159.76C145.729 159.141 145.452 158.704 144.897 158.448C144.364 158.171 143.585 158.032 142.561 158.032C141.75 158.032 140.961 158.117 140.193 158.288C139.425 158.459 138.732 158.672 138.113 158.928C137.836 158.736 137.601 158.448 137.409 158.064C137.217 157.659 137.121 157.243 137.121 156.816C137.121 156.261 137.249 155.824 137.505 155.504C137.782 155.163 138.198 154.875 138.753 154.64C139.372 154.405 140.097 154.235 140.929 154.128C141.782 154.021 142.582 153.968 143.329 153.968ZM170.175 167.184C170.069 168.187 169.77 168.955 169.279 169.488C168.81 170.021 168.117 170.288 167.199 170.288C166.517 170.288 165.909 170.128 165.375 169.808C164.842 169.467 164.266 168.901 163.647 168.112L160.479 164.144V169.968C160.245 170.011 159.893 170.064 159.423 170.128C158.975 170.213 158.517 170.256 158.047 170.256C157.578 170.256 157.151 170.224 156.767 170.16C156.405 170.096 156.095 169.968 155.839 169.776C155.583 169.584 155.381 169.328 155.231 169.008C155.103 168.667 155.039 168.229 155.039 167.696V149.168C155.274 149.104 155.615 149.04 156.063 148.976C156.533 148.891 157.002 148.848 157.471 148.848C157.941 148.848 158.357 148.88 158.719 148.944C159.103 149.008 159.423 149.136 159.679 149.328C159.935 149.52 160.127 149.787 160.255 150.128C160.405 150.448 160.479 150.875 160.479 151.408V159.856L165.983 154.224C167.093 154.224 167.978 154.469 168.639 154.96C169.322 155.451 169.663 156.069 169.663 156.816C169.663 157.136 169.61 157.435 169.503 157.712C169.397 157.968 169.226 158.235 168.991 158.512C168.778 158.789 168.49 159.088 168.127 159.408C167.786 159.707 167.381 160.059 166.911 160.464L165.055 162.064L170.175 167.184ZM173.237 150.128C173.237 149.317 173.504 148.635 174.037 148.08C174.592 147.525 175.317 147.248 176.213 147.248C177.109 147.248 177.824 147.525 178.357 148.08C178.912 148.635 179.189 149.317 179.189 150.128C179.189 150.939 178.912 151.621 178.357 152.176C177.824 152.731 177.109 153.008 176.213 153.008C175.317 153.008 174.592 152.731 174.037 152.176C173.504 151.621 173.237 150.939 173.237 150.128ZM178.933 169.968C178.699 170.011 178.347 170.064 177.877 170.128C177.429 170.213 176.971 170.256 176.501 170.256C176.032 170.256 175.605 170.224 175.221 170.16C174.859 170.096 174.549 169.968 174.293 169.776C174.037 169.584 173.835 169.328 173.685 169.008C173.557 168.667 173.493 168.229 173.493 167.696V154.672C173.728 154.629 174.069 154.576 174.517 154.512C174.987 154.427 175.456 154.384 175.925 154.384C176.395 154.384 176.811 154.416 177.173 154.48C177.557 154.544 177.877 154.672 178.133 154.864C178.389 155.056 178.581 155.323 178.709 155.664C178.859 155.984 178.933 156.411 178.933 156.944V169.968ZM188.572 169.968C188.338 170.011 187.986 170.064 187.516 170.128C187.068 170.213 186.61 170.256 186.14 170.256C185.671 170.256 185.244 170.224 184.86 170.16C184.498 170.096 184.188 169.968 183.932 169.776C183.676 169.584 183.474 169.328 183.324 169.008C183.196 168.667 183.132 168.229 183.132 167.696V149.136C183.367 149.093 183.708 149.04 184.156 148.976C184.626 148.891 185.095 148.848 185.564 148.848C186.034 148.848 186.45 148.88 186.812 148.944C187.196 149.008 187.516 149.136 187.772 149.328C188.028 149.52 188.22 149.787 188.348 150.128C188.498 150.448 188.572 150.875 188.572 151.408V169.968ZM205.739 162.8V169.872C205.505 169.936 205.131 170 204.619 170.064C204.107 170.128 203.606 170.16 203.115 170.16C202.625 170.16 202.187 170.117 201.803 170.032C201.441 169.968 201.131 169.84 200.875 169.648C200.619 169.456 200.427 169.189 200.299 168.848C200.171 168.507 200.107 168.059 200.107 167.504V150.608C200.342 150.565 200.715 150.512 201.227 150.448C201.739 150.363 202.23 150.32 202.699 150.32C203.19 150.32 203.617 150.363 203.979 150.448C204.363 150.512 204.683 150.64 204.939 150.832C205.195 151.024 205.387 151.291 205.515 151.632C205.643 151.973 205.707 152.421 205.707 152.976V158.064L212.363 150.416C213.814 150.416 214.849 150.693 215.467 151.248C216.107 151.781 216.427 152.421 216.427 153.168C216.427 153.723 216.289 154.245 216.011 154.736C215.734 155.227 215.286 155.781 214.667 156.4L210.667 160.4C211.201 160.997 211.755 161.616 212.331 162.256C212.929 162.896 213.505 163.525 214.059 164.144C214.635 164.741 215.179 165.317 215.691 165.872C216.225 166.427 216.683 166.907 217.067 167.312C217.067 167.781 216.982 168.197 216.811 168.56C216.641 168.923 216.406 169.232 216.107 169.488C215.83 169.744 215.51 169.936 215.147 170.064C214.785 170.192 214.401 170.256 213.995 170.256C213.121 170.256 212.406 170.043 211.851 169.616C211.297 169.168 210.763 168.645 210.251 168.048L205.739 162.8ZM227.618 170.512C226.359 170.512 225.186 170.341 224.098 170C223.031 169.637 222.093 169.104 221.282 168.4C220.493 167.696 219.863 166.811 219.394 165.744C218.946 164.677 218.722 163.429 218.722 162C218.722 160.592 218.946 159.387 219.394 158.384C219.863 157.36 220.471 156.528 221.218 155.888C221.965 155.227 222.818 154.747 223.778 154.448C224.738 154.128 225.719 153.968 226.722 153.968C227.853 153.968 228.877 154.139 229.794 154.48C230.733 154.821 231.533 155.291 232.194 155.888C232.877 156.485 233.399 157.2 233.762 158.032C234.146 158.864 234.338 159.771 234.338 160.752C234.338 161.477 234.135 162.032 233.73 162.416C233.325 162.8 232.759 163.045 232.034 163.152L224.13 164.336C224.365 165.04 224.845 165.573 225.57 165.936C226.295 166.277 227.127 166.448 228.066 166.448C228.941 166.448 229.762 166.341 230.53 166.128C231.319 165.893 231.959 165.627 232.45 165.328C232.791 165.541 233.079 165.84 233.314 166.224C233.549 166.608 233.666 167.013 233.666 167.44C233.666 168.4 233.218 169.115 232.322 169.584C231.639 169.947 230.871 170.192 230.018 170.32C229.165 170.448 228.365 170.512 227.618 170.512ZM226.722 157.936C226.21 157.936 225.762 158.021 225.378 158.192C225.015 158.363 224.717 158.587 224.482 158.864C224.247 159.12 224.066 159.419 223.938 159.76C223.831 160.08 223.767 160.411 223.746 160.752L229.218 159.856C229.154 159.429 228.919 159.003 228.514 158.576C228.109 158.149 227.511 157.936 226.722 157.936ZM243.036 164.656C243.036 165.211 243.207 165.605 243.548 165.84C243.911 166.075 244.412 166.192 245.052 166.192C245.372 166.192 245.703 166.171 246.044 166.128C246.386 166.064 246.684 165.989 246.94 165.904C247.132 166.139 247.292 166.405 247.42 166.704C247.57 166.981 247.644 167.323 247.644 167.728C247.644 168.539 247.335 169.2 246.716 169.712C246.119 170.224 245.052 170.48 243.516 170.48C241.639 170.48 240.188 170.053 239.164 169.2C238.162 168.347 237.66 166.96 237.66 165.04V151.344C237.895 151.28 238.226 151.216 238.652 151.152C239.1 151.067 239.57 151.024 240.06 151.024C240.999 151.024 241.724 151.195 242.236 151.536C242.77 151.856 243.036 152.549 243.036 153.616V155.664H247.228C247.356 155.899 247.474 156.197 247.58 156.56C247.708 156.901 247.772 157.285 247.772 157.712C247.772 158.459 247.602 159.003 247.26 159.344C246.94 159.664 246.503 159.824 245.948 159.824H243.036V164.656ZM251.049 154.672C251.262 154.608 251.593 154.544 252.041 154.48C252.51 154.416 252.99 154.384 253.481 154.384C253.95 154.384 254.366 154.416 254.729 154.48C255.113 154.544 255.433 154.672 255.689 154.864C255.945 155.056 256.137 155.323 256.265 155.664C256.414 155.984 256.489 156.411 256.489 156.944V163.824C256.489 164.699 256.702 165.328 257.129 165.712C257.556 166.075 258.174 166.256 258.985 166.256C259.476 166.256 259.87 166.213 260.169 166.128C260.489 166.043 260.734 165.957 260.905 165.872V154.672C261.118 154.608 261.449 154.544 261.897 154.48C262.366 154.416 262.846 154.384 263.337 154.384C263.806 154.384 264.222 154.416 264.585 154.48C264.969 154.544 265.289 154.672 265.545 154.864C265.801 155.056 265.993 155.323 266.121 155.664C266.27 155.984 266.345 156.411 266.345 156.944V166.672C266.345 167.739 265.897 168.539 265.001 169.072C264.254 169.541 263.358 169.893 262.313 170.128C261.289 170.384 260.169 170.512 258.953 170.512C257.801 170.512 256.734 170.384 255.753 170.128C254.793 169.872 253.961 169.477 253.257 168.944C252.553 168.411 252.009 167.728 251.625 166.896C251.241 166.043 251.049 165.019 251.049 163.824V154.672ZM276.97 166.544C277.333 166.544 277.727 166.512 278.154 166.448C278.602 166.363 278.933 166.256 279.146 166.128V163.568L276.842 163.76C276.245 163.803 275.754 163.931 275.37 164.144C274.986 164.357 274.794 164.677 274.794 165.104C274.794 165.531 274.954 165.883 275.274 166.16C275.615 166.416 276.181 166.544 276.97 166.544ZM276.714 153.968C277.866 153.968 278.911 154.085 279.85 154.32C280.81 154.555 281.621 154.917 282.282 155.408C282.965 155.877 283.487 156.485 283.85 157.232C284.213 157.957 284.394 158.821 284.394 159.824V166.992C284.394 167.547 284.234 168.005 283.914 168.368C283.615 168.709 283.253 169.008 282.826 169.264C281.439 170.096 279.487 170.512 276.97 170.512C275.839 170.512 274.815 170.405 273.898 170.192C273.002 169.979 272.223 169.659 271.562 169.232C270.922 168.805 270.421 168.261 270.058 167.6C269.717 166.939 269.546 166.171 269.546 165.296C269.546 163.824 269.983 162.693 270.858 161.904C271.733 161.115 273.087 160.624 274.922 160.432L279.114 159.984V159.76C279.114 159.141 278.837 158.704 278.282 158.448C277.749 158.171 276.97 158.032 275.946 158.032C275.135 158.032 274.346 158.117 273.578 158.288C272.81 158.459 272.117 158.672 271.498 158.928C271.221 158.736 270.986 158.448 270.794 158.064C270.602 157.659 270.506 157.243 270.506 156.816C270.506 156.261 270.634 155.824 270.89 155.504C271.167 155.163 271.583 154.875 272.138 154.64C272.757 154.405 273.482 154.235 274.314 154.128C275.167 154.021 275.967 153.968 276.714 153.968ZM301.39 165.84C301.625 165.883 301.913 165.925 302.254 165.968C302.596 165.989 302.916 166 303.214 166C303.94 166 304.601 165.893 305.198 165.68C305.817 165.467 306.34 165.136 306.766 164.688C307.214 164.24 307.556 163.664 307.79 162.96C308.046 162.235 308.174 161.371 308.174 160.368C308.174 158.448 307.726 157.008 306.83 156.048C305.934 155.067 304.74 154.576 303.246 154.576C302.948 154.576 302.638 154.587 302.318 154.608C302.02 154.629 301.71 154.661 301.39 154.704V165.84ZM303.182 170.512C302.82 170.512 302.404 170.501 301.934 170.48C301.465 170.459 300.974 170.416 300.462 170.352C299.972 170.288 299.47 170.203 298.958 170.096C298.468 170.011 298.009 169.883 297.582 169.712C296.409 169.264 295.822 168.485 295.822 167.376V152.432C295.822 151.984 295.94 151.643 296.174 151.408C296.43 151.152 296.772 150.949 297.198 150.8C298.116 150.501 299.086 150.309 300.11 150.224C301.134 150.117 302.052 150.064 302.862 150.064C304.526 150.064 306.03 150.267 307.374 150.672C308.74 151.077 309.902 151.707 310.862 152.56C311.844 153.392 312.601 154.448 313.134 155.728C313.668 157.008 313.934 158.523 313.934 160.272C313.934 161.979 313.678 163.472 313.166 164.752C312.654 166.011 311.918 167.077 310.958 167.952C310.02 168.805 308.889 169.445 307.566 169.872C306.244 170.299 304.782 170.512 303.182 170.512ZM325.039 159.6C325.935 159.6 326.618 159.397 327.087 158.992C327.578 158.565 327.823 157.925 327.823 157.072C327.823 156.261 327.567 155.643 327.055 155.216C326.564 154.768 325.839 154.544 324.879 154.544C324.538 154.544 324.25 154.555 324.015 154.576C323.802 154.576 323.578 154.597 323.343 154.64V159.6H325.039ZM323.375 169.872C323.14 169.936 322.767 170 322.255 170.064C321.764 170.128 321.274 170.16 320.783 170.16C320.292 170.16 319.855 170.117 319.471 170.032C319.108 169.968 318.799 169.84 318.543 169.648C318.287 169.456 318.095 169.189 317.967 168.848C317.839 168.507 317.775 168.059 317.775 167.504V152.432C317.775 151.984 317.892 151.643 318.127 151.408C318.383 151.152 318.724 150.949 319.151 150.8C319.876 150.544 320.698 150.363 321.615 150.256C322.554 150.128 323.492 150.064 324.431 150.064C327.375 150.064 329.626 150.693 331.183 151.952C332.74 153.211 333.519 154.917 333.519 157.072C333.519 158.117 333.348 159.067 333.007 159.92C332.687 160.752 332.196 161.477 331.535 162.096C330.895 162.693 330.074 163.163 329.071 163.504C328.09 163.824 326.948 163.984 325.647 163.984H323.375V169.872Z" fill="#262626"/>
<rect x="1" y="366" width="94" height="42" rx="15" stroke="#404040" stroke-width="2"/>
<path d="M21.64 392C21.864 392.064 22.152 392.112 22.504 392.144C22.856 392.16 23.192 392.168 23.512 392.168C24.152 392.168 24.68 392.04 25.096 391.784C25.528 391.512 25.744 391.096 25.744 390.536C25.744 390.008 25.568 389.632 25.216 389.408C24.864 389.184 24.328 389.072 23.608 389.072H21.64V392ZM21.64 386.144H23.392C24.08 386.144 24.576 386.016 24.88 385.76C25.2 385.504 25.36 385.128 25.36 384.632C25.36 384.2 25.176 383.856 24.808 383.6C24.456 383.344 23.92 383.216 23.2 383.216C22.96 383.216 22.68 383.224 22.36 383.24C22.056 383.256 21.816 383.28 21.64 383.312V386.144ZM23.2 395.384C22.928 395.384 22.608 395.376 22.24 395.36C21.872 395.344 21.488 395.312 21.088 395.264C20.704 395.216 20.32 395.152 19.936 395.072C19.552 395.008 19.2 394.912 18.88 394.784C18 394.448 17.56 393.864 17.56 393.032V381.824C17.56 381.488 17.648 381.232 17.824 381.056C18.016 380.864 18.272 380.712 18.592 380.6C19.136 380.408 19.816 380.272 20.632 380.192C21.448 380.096 22.288 380.048 23.152 380.048C25.2 380.048 26.776 380.392 27.88 381.08C28.984 381.768 29.536 382.832 29.536 384.272C29.536 384.992 29.328 385.616 28.912 386.144C28.496 386.656 27.936 387.032 27.232 387.272C28.032 387.496 28.696 387.904 29.224 388.496C29.768 389.088 30.04 389.832 30.04 390.728C30.04 392.312 29.448 393.488 28.264 394.256C27.096 395.008 25.408 395.384 23.2 395.384ZM37.5794 392.408C37.8514 392.408 38.1474 392.384 38.4674 392.336C38.8034 392.272 39.0514 392.192 39.2114 392.096V390.176L37.4834 390.32C37.0354 390.352 36.6674 390.448 36.3794 390.608C36.0914 390.768 35.9474 391.008 35.9474 391.328C35.9474 391.648 36.0674 391.912 36.3074 392.12C36.5634 392.312 36.9874 392.408 37.5794 392.408ZM37.3874 382.976C38.2514 382.976 39.0354 383.064 39.7394 383.24C40.4594 383.416 41.0674 383.688 41.5634 384.056C42.0754 384.408 42.4674 384.864 42.7394 385.424C43.0114 385.968 43.1474 386.616 43.1474 387.368V392.744C43.1474 393.16 43.0274 393.504 42.7874 393.776C42.5634 394.032 42.2914 394.256 41.9714 394.448C40.9314 395.072 39.4674 395.384 37.5794 395.384C36.7314 395.384 35.9634 395.304 35.2754 395.144C34.6034 394.984 34.0194 394.744 33.5234 394.424C33.0434 394.104 32.6674 393.696 32.3954 393.2C32.1394 392.704 32.0114 392.128 32.0114 391.472C32.0114 390.368 32.3394 389.52 32.9954 388.928C33.6514 388.336 34.6674 387.968 36.0434 387.824L39.1874 387.488V387.32C39.1874 386.856 38.9794 386.528 38.5634 386.336C38.1634 386.128 37.5794 386.024 36.8114 386.024C36.2034 386.024 35.6114 386.088 35.0354 386.216C34.4594 386.344 33.9394 386.504 33.4754 386.696C33.2674 386.552 33.0914 386.336 32.9474 386.048C32.8034 385.744 32.7314 385.432 32.7314 385.112C32.7314 384.696 32.8274 384.368 33.0194 384.128C33.2274 383.872 33.5394 383.656 33.9554 383.48C34.4194 383.304 34.9634 383.176 35.5874 383.096C36.2274 383.016 36.8274 382.976 37.3874 382.976ZM50.2741 394.976C50.0981 395.008 49.8341 395.048 49.4821 395.096C49.1461 395.16 48.8021 395.192 48.4501 395.192C48.0981 395.192 47.7781 395.168 47.4901 395.12C47.2181 395.072 46.9861 394.976 46.7941 394.832C46.6021 394.688 46.4501 394.496 46.3381 394.256C46.2421 394 46.1941 393.672 46.1941 393.272V379.352C46.3701 379.32 46.6261 379.28 46.9621 379.232C47.3141 379.168 47.6661 379.136 48.0181 379.136C48.3701 379.136 48.6821 379.16 48.9541 379.208C49.2421 379.256 49.4821 379.352 49.6741 379.496C49.8661 379.64 50.0101 379.84 50.1061 380.096C50.2181 380.336 50.2741 380.656 50.2741 381.056V394.976ZM59.4966 395.384C58.5526 395.384 57.6726 395.256 56.8566 395C56.0566 394.728 55.3526 394.328 54.7446 393.8C54.1526 393.272 53.6806 392.608 53.3286 391.808C52.9926 391.008 52.8246 390.072 52.8246 389C52.8246 387.944 52.9926 387.04 53.3286 386.288C53.6806 385.52 54.1366 384.896 54.6966 384.416C55.2566 383.92 55.8966 383.56 56.6166 383.336C57.3366 383.096 58.0726 382.976 58.8246 382.976C59.6726 382.976 60.4406 383.104 61.1286 383.36C61.8326 383.616 62.4326 383.968 62.9286 384.416C63.4406 384.864 63.8326 385.4 64.1046 386.024C64.3926 386.648 64.5366 387.328 64.5366 388.064C64.5366 388.608 64.3846 389.024 64.0806 389.312C63.7766 389.6 63.3526 389.784 62.8086 389.864L56.8806 390.752C57.0566 391.28 57.4166 391.68 57.9606 391.952C58.5046 392.208 59.1286 392.336 59.8326 392.336C60.4886 392.336 61.1046 392.256 61.6806 392.096C62.2726 391.92 62.7526 391.72 63.1206 391.496C63.3766 391.656 63.5926 391.88 63.7686 392.168C63.9446 392.456 64.0326 392.76 64.0326 393.08C64.0326 393.8 63.6966 394.336 63.0246 394.688C62.5126 394.96 61.9366 395.144 61.2966 395.24C60.6566 395.336 60.0566 395.384 59.4966 395.384ZM58.8246 385.952C58.4406 385.952 58.1046 386.016 57.8166 386.144C57.5446 386.272 57.3206 386.44 57.1446 386.648C56.9686 386.84 56.8326 387.064 56.7366 387.32C56.6566 387.56 56.6086 387.808 56.5926 388.064L60.6966 387.392C60.6486 387.072 60.4726 386.752 60.1686 386.432C59.8646 386.112 59.4166 385.952 58.8246 385.952ZM72.6685 382.976C73.5805 382.976 74.4045 383.096 75.1405 383.336C75.8925 383.56 76.5245 383.856 77.0365 384.224C77.3565 384.448 77.6045 384.696 77.7805 384.968C77.9725 385.24 78.0685 385.592 78.0685 386.024V394.424C78.0685 395.272 77.9085 396 77.5885 396.608C77.2685 397.232 76.8285 397.744 76.2685 398.144C75.7245 398.56 75.0765 398.864 74.3245 399.056C73.5885 399.248 72.7965 399.344 71.9485 399.344C70.4925 399.344 69.3485 399.144 68.5165 398.744C67.6845 398.36 67.2685 397.728 67.2685 396.848C67.2685 396.48 67.3405 396.152 67.4845 395.864C67.6445 395.592 67.8205 395.384 68.0125 395.24C68.4765 395.496 68.9965 395.712 69.5725 395.888C70.1645 396.064 70.7725 396.152 71.3965 396.152C72.2605 396.152 72.9485 396.008 73.4605 395.72C73.9725 395.432 74.2285 394.968 74.2285 394.328V393.944C73.5725 394.232 72.7725 394.376 71.8285 394.376C71.1085 394.376 70.4205 394.272 69.7645 394.064C69.1245 393.84 68.5565 393.504 68.0605 393.056C67.5805 392.592 67.1885 392 66.8845 391.28C66.5965 390.56 66.4525 389.704 66.4525 388.712C66.4525 387.736 66.6045 386.888 66.9085 386.168C67.2285 385.448 67.6605 384.856 68.2045 384.392C68.7645 383.912 69.4205 383.56 70.1725 383.336C70.9405 383.096 71.7725 382.976 72.6685 382.976ZM74.1565 386.456C74.0445 386.392 73.8765 386.328 73.6525 386.264C73.4445 386.2 73.1805 386.168 72.8605 386.168C72.0765 386.168 71.4845 386.392 71.0845 386.84C70.7005 387.272 70.5085 387.896 70.5085 388.712C70.5085 389.64 70.7005 390.312 71.0845 390.728C71.4845 391.128 71.9885 391.328 72.5965 391.328C73.2525 391.328 73.7725 391.176 74.1565 390.872V386.456Z" fill="#262626"/>
<rect x="176" y="366" width="94" height="42" rx="15" stroke="#404040" stroke-width="2"/>
<path d="M196.64 392C196.864 392.064 197.152 392.112 197.504 392.144C197.856 392.16 198.192 392.168 198.512 392.168C199.152 392.168 199.68 392.04 200.096 391.784C200.528 391.512 200.744 391.096 200.744 390.536C200.744 390.008 200.568 389.632 200.216 389.408C199.864 389.184 199.328 389.072 198.608 389.072H196.64V392ZM196.64 386.144H198.392C199.08 386.144 199.576 386.016 199.88 385.76C200.2 385.504 200.36 385.128 200.36 384.632C200.36 384.2 200.176 383.856 199.808 383.6C199.456 383.344 198.92 383.216 198.2 383.216C197.96 383.216 197.68 383.224 197.36 383.24C197.056 383.256 196.816 383.28 196.64 383.312V386.144ZM198.2 395.384C197.928 395.384 197.608 395.376 197.24 395.36C196.872 395.344 196.488 395.312 196.088 395.264C195.704 395.216 195.32 395.152 194.936 395.072C194.552 395.008 194.2 394.912 193.88 394.784C193 394.448 192.56 393.864 192.56 393.032V381.824C192.56 381.488 192.648 381.232 192.824 381.056C193.016 380.864 193.272 380.712 193.592 380.6C194.136 380.408 194.816 380.272 195.632 380.192C196.448 380.096 197.288 380.048 198.152 380.048C200.2 380.048 201.776 380.392 202.88 381.08C203.984 381.768 204.536 382.832 204.536 384.272C204.536 384.992 204.328 385.616 203.912 386.144C203.496 386.656 202.936 387.032 202.232 387.272C203.032 387.496 203.696 387.904 204.224 388.496C204.768 389.088 205.04 389.832 205.04 390.728C205.04 392.312 204.448 393.488 203.264 394.256C202.096 395.008 200.408 395.384 198.2 395.384ZM207.47 383.504C207.63 383.456 207.878 383.408 208.214 383.36C208.566 383.312 208.926 383.288 209.294 383.288C209.646 383.288 209.958 383.312 210.23 383.36C210.518 383.408 210.758 383.504 210.95 383.648C211.142 383.792 211.286 383.992 211.382 384.248C211.494 384.488 211.55 384.808 211.55 385.208V390.368C211.55 391.024 211.71 391.496 212.03 391.784C212.35 392.056 212.814 392.192 213.422 392.192C213.79 392.192 214.086 392.16 214.31 392.096C214.55 392.032 214.734 391.968 214.862 391.904V383.504C215.022 383.456 215.27 383.408 215.606 383.36C215.958 383.312 216.318 383.288 216.686 383.288C217.038 383.288 217.35 383.312 217.622 383.36C217.91 383.408 218.15 383.504 218.342 383.648C218.534 383.792 218.678 383.992 218.774 384.248C218.886 384.488 218.942 384.808 218.942 385.208V392.504C218.942 393.304 218.606 393.904 217.934 394.304C217.374 394.656 216.702 394.92 215.918 395.096C215.15 395.288 214.31 395.384 213.398 395.384C212.534 395.384 211.734 395.288 210.998 395.096C210.278 394.904 209.654 394.608 209.126 394.208C208.598 393.808 208.19 393.296 207.902 392.672C207.614 392.032 207.47 391.264 207.47 390.368V383.504ZM225.999 394.976C225.839 395.024 225.583 395.072 225.231 395.12C224.895 395.168 224.543 395.192 224.175 395.192C223.823 395.192 223.503 395.168 223.215 395.12C222.943 395.072 222.711 394.976 222.519 394.832C222.327 394.688 222.175 394.496 222.063 394.256C221.967 394 221.919 393.672 221.919 393.272V386.072C221.919 385.704 221.983 385.392 222.111 385.136C222.255 384.864 222.455 384.624 222.711 384.416C222.967 384.208 223.279 384.024 223.647 383.864C224.031 383.688 224.439 383.536 224.871 383.408C225.303 383.28 225.751 383.184 226.215 383.12C226.679 383.04 227.143 383 227.607 383C228.375 383 228.983 383.152 229.431 383.456C229.879 383.744 230.103 384.224 230.103 384.896C230.103 385.12 230.071 385.344 230.007 385.568C229.943 385.776 229.863 385.968 229.767 386.144C229.431 386.144 229.087 386.16 228.735 386.192C228.383 386.224 228.039 386.272 227.703 386.336C227.367 386.4 227.047 386.472 226.743 386.552C226.455 386.616 226.207 386.696 225.999 386.792V394.976ZM236.346 390.992C236.346 391.408 236.474 391.704 236.73 391.88C237.002 392.056 237.378 392.144 237.858 392.144C238.098 392.144 238.346 392.128 238.602 392.096C238.858 392.048 239.082 391.992 239.274 391.928C239.418 392.104 239.538 392.304 239.634 392.528C239.746 392.736 239.802 392.992 239.802 393.296C239.802 393.904 239.57 394.4 239.106 394.784C238.658 395.168 237.858 395.36 236.706 395.36C235.298 395.36 234.21 395.04 233.442 394.4C232.69 393.76 232.314 392.72 232.314 391.28V381.008C232.49 380.96 232.738 380.912 233.058 380.864C233.394 380.8 233.746 380.768 234.114 380.768C234.818 380.768 235.362 380.896 235.746 381.152C236.146 381.392 236.346 381.912 236.346 382.712V384.248H239.49C239.586 384.424 239.674 384.648 239.754 384.92C239.85 385.176 239.898 385.464 239.898 385.784C239.898 386.344 239.77 386.752 239.514 387.008C239.274 387.248 238.946 387.368 238.53 387.368H236.346V390.992ZM247.347 392.408C247.619 392.408 247.915 392.384 248.235 392.336C248.571 392.272 248.819 392.192 248.979 392.096V390.176L247.251 390.32C246.803 390.352 246.435 390.448 246.147 390.608C245.859 390.768 245.715 391.008 245.715 391.328C245.715 391.648 245.835 391.912 246.075 392.12C246.331 392.312 246.755 392.408 247.347 392.408ZM247.155 382.976C248.019 382.976 248.803 383.064 249.507 383.24C250.227 383.416 250.835 383.688 251.331 384.056C251.843 384.408 252.235 384.864 252.507 385.424C252.779 385.968 252.915 386.616 252.915 387.368V392.744C252.915 393.16 252.795 393.504 252.555 393.776C252.331 394.032 252.059 394.256 251.739 394.448C250.699 395.072 249.235 395.384 247.347 395.384C246.499 395.384 245.731 395.304 245.043 395.144C244.371 394.984 243.787 394.744 243.291 394.424C242.811 394.104 242.435 393.696 242.163 393.2C241.907 392.704 241.779 392.128 241.779 391.472C241.779 390.368 242.107 389.52 242.763 388.928C243.419 388.336 244.435 387.968 245.811 387.824L248.955 387.488V387.32C248.955 386.856 248.747 386.528 248.331 386.336C247.931 386.128 247.347 386.024 246.579 386.024C245.971 386.024 245.379 386.088 244.803 386.216C244.227 386.344 243.707 386.504 243.243 386.696C243.035 386.552 242.859 386.336 242.715 386.048C242.571 385.744 242.499 385.432 242.499 385.112C242.499 384.696 242.595 384.368 242.787 384.128C242.995 383.872 243.307 383.656 243.723 383.48C244.187 383.304 244.731 383.176 245.355 383.096C245.995 383.016 246.595 382.976 247.155 382.976Z" fill="#262626"/>
<rect x="44" y="253" width="148" height="42" rx="15" stroke="#404040" stroke-width="2"/>
<path d="M64.688 276.216C63.984 275.976 63.344 275.736 62.768 275.496C62.192 275.24 61.696 274.936 61.28 274.584C60.864 274.232 60.536 273.816 60.296 273.336C60.072 272.84 59.96 272.24 59.96 271.536C59.96 270.176 60.48 269.088 61.52 268.272C62.576 267.456 64.048 267.048 65.936 267.048C66.624 267.048 67.264 267.096 67.856 267.192C68.448 267.288 68.952 267.44 69.368 267.648C69.8 267.84 70.136 268.096 70.376 268.416C70.616 268.72 70.736 269.08 70.736 269.496C70.736 269.912 70.64 270.272 70.448 270.576C70.256 270.864 70.024 271.112 69.752 271.32C69.4 271.096 68.928 270.904 68.336 270.744C67.744 270.568 67.096 270.48 66.392 270.48C65.672 270.48 65.144 270.584 64.808 270.792C64.472 270.984 64.304 271.232 64.304 271.536C64.304 271.776 64.408 271.976 64.616 272.136C64.824 272.28 65.136 272.416 65.552 272.544L66.824 272.952C68.328 273.432 69.48 274.048 70.28 274.8C71.096 275.536 71.504 276.544 71.504 277.824C71.504 279.184 70.968 280.288 69.896 281.136C68.824 281.968 67.248 282.384 65.168 282.384C64.432 282.384 63.744 282.32 63.104 282.192C62.48 282.08 61.928 281.912 61.448 281.688C60.984 281.448 60.616 281.16 60.344 280.824C60.088 280.472 59.96 280.072 59.96 279.624C59.96 279.16 60.096 278.768 60.368 278.448C60.64 278.112 60.936 277.856 61.256 277.68C61.704 278.032 62.248 278.336 62.888 278.592C63.544 278.848 64.256 278.976 65.024 278.976C65.808 278.976 66.36 278.856 66.68 278.616C67 278.376 67.16 278.096 67.16 277.776C67.16 277.456 67.032 277.216 66.776 277.056C66.52 276.88 66.16 276.712 65.696 276.552L64.688 276.216ZM80.1616 282.384C79.2176 282.384 78.3376 282.256 77.5216 282C76.7216 281.728 76.0176 281.328 75.4096 280.8C74.8176 280.272 74.3456 279.608 73.9936 278.808C73.6576 278.008 73.4896 277.072 73.4896 276C73.4896 274.944 73.6576 274.04 73.9936 273.288C74.3456 272.52 74.8016 271.896 75.3616 271.416C75.9216 270.92 76.5616 270.56 77.2816 270.336C78.0016 270.096 78.7376 269.976 79.4896 269.976C80.3376 269.976 81.1056 270.104 81.7936 270.36C82.4976 270.616 83.0976 270.968 83.5936 271.416C84.1056 271.864 84.4976 272.4 84.7696 273.024C85.0576 273.648 85.2016 274.328 85.2016 275.064C85.2016 275.608 85.0496 276.024 84.7456 276.312C84.4416 276.6 84.0176 276.784 83.4736 276.864L77.5456 277.752C77.7216 278.28 78.0816 278.68 78.6256 278.952C79.1696 279.208 79.7936 279.336 80.4976 279.336C81.1536 279.336 81.7696 279.256 82.3456 279.096C82.9376 278.92 83.4176 278.72 83.7856 278.496C84.0416 278.656 84.2576 278.88 84.4336 279.168C84.6096 279.456 84.6976 279.76 84.6976 280.08C84.6976 280.8 84.3616 281.336 83.6896 281.688C83.1776 281.96 82.6016 282.144 81.9616 282.24C81.3216 282.336 80.7216 282.384 80.1616 282.384ZM79.4896 272.952C79.1056 272.952 78.7696 273.016 78.4816 273.144C78.2096 273.272 77.9856 273.44 77.8096 273.648C77.6336 273.84 77.4976 274.064 77.4016 274.32C77.3216 274.56 77.2736 274.808 77.2576 275.064L81.3616 274.392C81.3136 274.072 81.1376 273.752 80.8336 273.432C80.5296 273.112 80.0816 272.952 79.4896 272.952ZM99.0455 279.888C98.9655 280.64 98.7415 281.216 98.3735 281.616C98.0215 282.016 97.5015 282.216 96.8135 282.216C96.3015 282.216 95.8455 282.096 95.4455 281.856C95.0455 281.6 94.6135 281.176 94.1495 280.584L91.7735 277.608V281.976C91.5975 282.008 91.3335 282.048 90.9815 282.096C90.6455 282.16 90.3015 282.192 89.9495 282.192C89.5975 282.192 89.2775 282.168 88.9895 282.12C88.7175 282.072 88.4855 281.976 88.2935 281.832C88.1015 281.688 87.9495 281.496 87.8375 281.256C87.7415 281 87.6935 280.672 87.6935 280.272V266.376C87.8695 266.328 88.1255 266.28 88.4615 266.232C88.8135 266.168 89.1655 266.136 89.5175 266.136C89.8695 266.136 90.1815 266.16 90.4535 266.208C90.7415 266.256 90.9815 266.352 91.1735 266.496C91.3655 266.64 91.5095 266.84 91.6055 267.096C91.7175 267.336 91.7735 267.656 91.7735 268.056V274.392L95.9015 270.168C96.7335 270.168 97.3975 270.352 97.8935 270.72C98.4055 271.088 98.6615 271.552 98.6615 272.112C98.6615 272.352 98.6215 272.576 98.5415 272.784C98.4615 272.976 98.3335 273.176 98.1575 273.384C97.9975 273.592 97.7815 273.816 97.5095 274.056C97.2535 274.28 96.9495 274.544 96.5975 274.848L95.2055 276.048L99.0455 279.888ZM105.518 281.976C105.358 282.024 105.102 282.072 104.75 282.12C104.414 282.168 104.062 282.192 103.694 282.192C103.342 282.192 103.022 282.168 102.734 282.12C102.462 282.072 102.23 281.976 102.038 281.832C101.846 281.688 101.694 281.496 101.582 281.256C101.486 281 101.438 280.672 101.438 280.272V273.072C101.438 272.704 101.502 272.392 101.63 272.136C101.774 271.864 101.974 271.624 102.23 271.416C102.486 271.208 102.798 271.024 103.166 270.864C103.55 270.688 103.958 270.536 104.39 270.408C104.822 270.28 105.27 270.184 105.734 270.12C106.198 270.04 106.662 270 107.126 270C107.894 270 108.502 270.152 108.95 270.456C109.398 270.744 109.622 271.224 109.622 271.896C109.622 272.12 109.59 272.344 109.526 272.568C109.462 272.776 109.382 272.968 109.286 273.144C108.95 273.144 108.606 273.16 108.254 273.192C107.902 273.224 107.558 273.272 107.222 273.336C106.886 273.4 106.566 273.472 106.262 273.552C105.974 273.616 105.726 273.696 105.518 273.792V281.976ZM117.508 282.384C116.564 282.384 115.684 282.256 114.868 282C114.068 281.728 113.364 281.328 112.756 280.8C112.164 280.272 111.692 279.608 111.34 278.808C111.004 278.008 110.836 277.072 110.836 276C110.836 274.944 111.004 274.04 111.34 273.288C111.692 272.52 112.148 271.896 112.708 271.416C113.268 270.92 113.908 270.56 114.628 270.336C115.348 270.096 116.084 269.976 116.836 269.976C117.684 269.976 118.452 270.104 119.14 270.36C119.844 270.616 120.444 270.968 120.94 271.416C121.452 271.864 121.844 272.4 122.116 273.024C122.404 273.648 122.548 274.328 122.548 275.064C122.548 275.608 122.396 276.024 122.092 276.312C121.788 276.6 121.364 276.784 120.82 276.864L114.892 277.752C115.068 278.28 115.428 278.68 115.972 278.952C116.516 279.208 117.14 279.336 117.844 279.336C118.5 279.336 119.116 279.256 119.692 279.096C120.284 278.92 120.764 278.72 121.132 278.496C121.388 278.656 121.604 278.88 121.78 279.168C121.956 279.456 122.044 279.76 122.044 280.08C122.044 280.8 121.708 281.336 121.036 281.688C120.524 281.96 119.948 282.144 119.308 282.24C118.668 282.336 118.068 282.384 117.508 282.384ZM116.836 272.952C116.452 272.952 116.116 273.016 115.828 273.144C115.556 273.272 115.332 273.44 115.156 273.648C114.98 273.84 114.844 274.064 114.748 274.32C114.668 274.56 114.62 274.808 114.604 275.064L118.708 274.392C118.66 274.072 118.484 273.752 118.18 273.432C117.876 273.112 117.428 272.952 116.836 272.952ZM129.072 277.992C129.072 278.408 129.2 278.704 129.456 278.88C129.728 279.056 130.104 279.144 130.584 279.144C130.824 279.144 131.072 279.128 131.328 279.096C131.584 279.048 131.808 278.992 132 278.928C132.144 279.104 132.264 279.304 132.36 279.528C132.472 279.736 132.528 279.992 132.528 280.296C132.528 280.904 132.296 281.4 131.832 281.784C131.384 282.168 130.584 282.36 129.432 282.36C128.024 282.36 126.936 282.04 126.168 281.4C125.416 280.76 125.04 279.72 125.04 278.28V268.008C125.216 267.96 125.464 267.912 125.784 267.864C126.12 267.8 126.472 267.768 126.84 267.768C127.544 267.768 128.088 267.896 128.472 268.152C128.872 268.392 129.072 268.912 129.072 269.712V271.248H132.216C132.312 271.424 132.4 271.648 132.48 271.92C132.576 272.176 132.624 272.464 132.624 272.784C132.624 273.344 132.496 273.752 132.24 274.008C132 274.248 131.672 274.368 131.256 274.368H129.072V277.992ZM140.073 279.408C140.345 279.408 140.641 279.384 140.961 279.336C141.297 279.272 141.545 279.192 141.705 279.096V277.176L139.977 277.32C139.529 277.352 139.161 277.448 138.873 277.608C138.585 277.768 138.441 278.008 138.441 278.328C138.441 278.648 138.561 278.912 138.801 279.12C139.057 279.312 139.481 279.408 140.073 279.408ZM139.881 269.976C140.745 269.976 141.529 270.064 142.233 270.24C142.953 270.416 143.561 270.688 144.057 271.056C144.569 271.408 144.961 271.864 145.233 272.424C145.505 272.968 145.641 273.616 145.641 274.368V279.744C145.641 280.16 145.521 280.504 145.281 280.776C145.057 281.032 144.785 281.256 144.465 281.448C143.425 282.072 141.961 282.384 140.073 282.384C139.225 282.384 138.457 282.304 137.769 282.144C137.097 281.984 136.513 281.744 136.017 281.424C135.537 281.104 135.161 280.696 134.889 280.2C134.633 279.704 134.505 279.128 134.505 278.472C134.505 277.368 134.833 276.52 135.489 275.928C136.145 275.336 137.161 274.968 138.537 274.824L141.681 274.488V274.32C141.681 273.856 141.473 273.528 141.057 273.336C140.657 273.128 140.073 273.024 139.305 273.024C138.697 273.024 138.105 273.088 137.529 273.216C136.953 273.344 136.433 273.504 135.969 273.696C135.761 273.552 135.585 273.336 135.441 273.048C135.297 272.744 135.225 272.432 135.225 272.112C135.225 271.696 135.321 271.368 135.513 271.128C135.721 270.872 136.033 270.656 136.449 270.48C136.913 270.304 137.457 270.176 138.081 270.096C138.721 270.016 139.321 269.976 139.881 269.976ZM152.696 281.976C152.536 282.024 152.28 282.072 151.928 282.12C151.592 282.168 151.24 282.192 150.872 282.192C150.52 282.192 150.2 282.168 149.912 282.12C149.64 282.072 149.408 281.976 149.216 281.832C149.024 281.688 148.872 281.496 148.76 281.256C148.664 281 148.616 280.672 148.616 280.272V273.072C148.616 272.704 148.68 272.392 148.808 272.136C148.952 271.864 149.152 271.624 149.408 271.416C149.664 271.208 149.976 271.024 150.344 270.864C150.728 270.688 151.136 270.536 151.568 270.408C152 270.28 152.448 270.184 152.912 270.12C153.376 270.04 153.84 270 154.304 270C155.072 270 155.68 270.152 156.128 270.456C156.576 270.744 156.8 271.224 156.8 271.896C156.8 272.12 156.768 272.344 156.704 272.568C156.64 272.776 156.56 272.968 156.464 273.144C156.128 273.144 155.784 273.16 155.432 273.192C155.08 273.224 154.736 273.272 154.4 273.336C154.064 273.4 153.744 273.472 153.44 273.552C153.152 273.616 152.904 273.696 152.696 273.792V281.976ZM158.867 267.096C158.867 266.488 159.067 265.976 159.467 265.56C159.883 265.144 160.427 264.936 161.099 264.936C161.771 264.936 162.307 265.144 162.707 265.56C163.123 265.976 163.331 266.488 163.331 267.096C163.331 267.704 163.123 268.216 162.707 268.632C162.307 269.048 161.771 269.256 161.099 269.256C160.427 269.256 159.883 269.048 159.467 268.632C159.067 268.216 158.867 267.704 158.867 267.096ZM163.139 281.976C162.963 282.008 162.699 282.048 162.347 282.096C162.011 282.16 161.667 282.192 161.315 282.192C160.963 282.192 160.643 282.168 160.355 282.12C160.083 282.072 159.851 281.976 159.659 281.832C159.467 281.688 159.315 281.496 159.203 281.256C159.107 281 159.059 280.672 159.059 280.272V270.504C159.235 270.472 159.491 270.432 159.827 270.384C160.179 270.32 160.531 270.288 160.883 270.288C161.235 270.288 161.547 270.312 161.819 270.36C162.107 270.408 162.347 270.504 162.539 270.648C162.731 270.792 162.875 270.992 162.971 271.248C163.083 271.488 163.139 271.808 163.139 272.208V281.976ZM176.056 278.52C176.056 279.736 175.6 280.688 174.688 281.376C173.776 282.064 172.432 282.408 170.656 282.408C169.984 282.408 169.36 282.36 168.784 282.264C168.208 282.168 167.712 282.024 167.296 281.832C166.896 281.624 166.576 281.368 166.336 281.064C166.112 280.76 166 280.4 166 279.984C166 279.6 166.08 279.28 166.24 279.024C166.4 278.752 166.592 278.528 166.816 278.352C167.28 278.608 167.808 278.84 168.4 279.048C169.008 279.24 169.704 279.336 170.488 279.336C170.984 279.336 171.36 279.264 171.616 279.12C171.888 278.976 172.024 278.784 172.024 278.544C172.024 278.32 171.928 278.144 171.736 278.016C171.544 277.888 171.224 277.784 170.776 277.704L170.056 277.56C168.664 277.288 167.624 276.864 166.936 276.288C166.264 275.696 165.928 274.856 165.928 273.768C165.928 273.176 166.056 272.64 166.312 272.16C166.568 271.68 166.928 271.28 167.392 270.96C167.856 270.64 168.408 270.392 169.048 270.216C169.704 270.04 170.424 269.952 171.208 269.952C171.8 269.952 172.352 270 172.864 270.096C173.392 270.176 173.848 270.304 174.232 270.48C174.616 270.656 174.92 270.888 175.144 271.176C175.368 271.448 175.48 271.776 175.48 272.16C175.48 272.528 175.408 272.848 175.264 273.12C175.136 273.376 174.968 273.592 174.76 273.768C174.632 273.688 174.44 273.608 174.184 273.528C173.928 273.432 173.648 273.352 173.344 273.288C173.04 273.208 172.728 273.144 172.408 273.096C172.104 273.048 171.824 273.024 171.568 273.024C171.04 273.024 170.632 273.088 170.344 273.216C170.056 273.328 169.912 273.512 169.912 273.768C169.912 273.944 169.992 274.088 170.152 274.2C170.312 274.312 170.616 274.416 171.064 274.512L171.808 274.68C173.344 275.032 174.432 275.52 175.072 276.144C175.728 276.752 176.056 277.544 176.056 278.52Z" fill="#262626"/>
<rect x="246" y="253" width="153" height="42" rx="15" stroke="#404040" stroke-width="2"/>
<path d="M266.64 279C266.864 279.064 267.152 279.112 267.504 279.144C267.856 279.16 268.192 279.168 268.512 279.168C269.152 279.168 269.68 279.04 270.096 278.784C270.528 278.512 270.744 278.096 270.744 277.536C270.744 277.008 270.568 276.632 270.216 276.408C269.864 276.184 269.328 276.072 268.608 276.072H266.64V279ZM266.64 273.144H268.392C269.08 273.144 269.576 273.016 269.88 272.76C270.2 272.504 270.36 272.128 270.36 271.632C270.36 271.2 270.176 270.856 269.808 270.6C269.456 270.344 268.92 270.216 268.2 270.216C267.96 270.216 267.68 270.224 267.36 270.24C267.056 270.256 266.816 270.28 266.64 270.312V273.144ZM268.2 282.384C267.928 282.384 267.608 282.376 267.24 282.36C266.872 282.344 266.488 282.312 266.088 282.264C265.704 282.216 265.32 282.152 264.936 282.072C264.552 282.008 264.2 281.912 263.88 281.784C263 281.448 262.56 280.864 262.56 280.032V268.824C262.56 268.488 262.648 268.232 262.824 268.056C263.016 267.864 263.272 267.712 263.592 267.6C264.136 267.408 264.816 267.272 265.632 267.192C266.448 267.096 267.288 267.048 268.152 267.048C270.2 267.048 271.776 267.392 272.88 268.08C273.984 268.768 274.536 269.832 274.536 271.272C274.536 271.992 274.328 272.616 273.912 273.144C273.496 273.656 272.936 274.032 272.232 274.272C273.032 274.496 273.696 274.904 274.224 275.496C274.768 276.088 275.04 276.832 275.04 277.728C275.04 279.312 274.448 280.488 273.264 281.256C272.096 282.008 270.408 282.384 268.2 282.384ZM283.685 282.384C282.741 282.384 281.861 282.256 281.045 282C280.245 281.728 279.541 281.328 278.933 280.8C278.341 280.272 277.869 279.608 277.517 278.808C277.181 278.008 277.013 277.072 277.013 276C277.013 274.944 277.181 274.04 277.517 273.288C277.869 272.52 278.325 271.896 278.885 271.416C279.445 270.92 280.085 270.56 280.805 270.336C281.525 270.096 282.261 269.976 283.013 269.976C283.861 269.976 284.629 270.104 285.317 270.36C286.021 270.616 286.621 270.968 287.117 271.416C287.629 271.864 288.021 272.4 288.293 273.024C288.581 273.648 288.725 274.328 288.725 275.064C288.725 275.608 288.573 276.024 288.269 276.312C287.965 276.6 287.541 276.784 286.997 276.864L281.069 277.752C281.245 278.28 281.605 278.68 282.149 278.952C282.693 279.208 283.317 279.336 284.021 279.336C284.677 279.336 285.293 279.256 285.869 279.096C286.461 278.92 286.941 278.72 287.309 278.496C287.565 278.656 287.781 278.88 287.957 279.168C288.133 279.456 288.221 279.76 288.221 280.08C288.221 280.8 287.885 281.336 287.213 281.688C286.701 281.96 286.125 282.144 285.485 282.24C284.845 282.336 284.245 282.384 283.685 282.384ZM283.013 272.952C282.629 272.952 282.293 273.016 282.005 273.144C281.733 273.272 281.509 273.44 281.333 273.648C281.157 273.84 281.021 274.064 280.925 274.32C280.845 274.56 280.797 274.808 280.781 275.064L284.885 274.392C284.837 274.072 284.661 273.752 284.357 273.432C284.053 273.112 283.605 272.952 283.013 272.952ZM298.561 274.608C298.561 274.112 298.417 273.752 298.129 273.528C297.857 273.288 297.481 273.168 297.001 273.168C296.681 273.168 296.361 273.208 296.041 273.288C295.737 273.368 295.473 273.488 295.249 273.648V281.976C295.089 282.024 294.833 282.072 294.481 282.12C294.145 282.168 293.793 282.192 293.425 282.192C293.073 282.192 292.753 282.168 292.465 282.12C292.193 282.072 291.961 281.976 291.769 281.832C291.577 281.688 291.425 281.496 291.313 281.256C291.217 281 291.169 280.672 291.169 280.272V273.072C291.169 272.64 291.257 272.288 291.433 272.016C291.625 271.744 291.881 271.496 292.201 271.272C292.745 270.888 293.425 270.576 294.241 270.336C295.073 270.096 295.993 269.976 297.001 269.976C298.809 269.976 300.201 270.376 301.177 271.176C302.153 271.96 302.641 273.056 302.641 274.464V281.976C302.481 282.024 302.225 282.072 301.873 282.12C301.537 282.168 301.185 282.192 300.817 282.192C300.465 282.192 300.145 282.168 299.857 282.12C299.585 282.072 299.353 281.976 299.161 281.832C298.969 281.688 298.817 281.496 298.705 281.256C298.609 281 298.561 280.672 298.561 280.272V274.608ZM305.137 276.168C305.137 275.112 305.297 274.2 305.617 273.432C305.937 272.648 306.377 272 306.937 271.488C307.513 270.976 308.177 270.6 308.929 270.36C309.697 270.104 310.521 269.976 311.401 269.976C311.721 269.976 312.033 270.008 312.337 270.072C312.641 270.12 312.889 270.184 313.081 270.264V266.376C313.241 266.328 313.497 266.28 313.849 266.232C314.201 266.168 314.561 266.136 314.929 266.136C315.281 266.136 315.593 266.16 315.865 266.208C316.153 266.256 316.393 266.352 316.585 266.496C316.777 266.64 316.921 266.84 317.017 267.096C317.113 267.336 317.161 267.656 317.161 268.056V279.432C317.161 280.184 316.809 280.784 316.105 281.232C315.641 281.536 315.041 281.8 314.305 282.024C313.569 282.264 312.721 282.384 311.761 282.384C310.721 282.384 309.785 282.24 308.953 281.952C308.137 281.664 307.441 281.248 306.865 280.704C306.305 280.16 305.873 279.512 305.569 278.76C305.281 277.992 305.137 277.128 305.137 276.168ZM311.953 273.168C311.089 273.168 310.425 273.416 309.961 273.912C309.497 274.408 309.265 275.16 309.265 276.168C309.265 277.16 309.481 277.912 309.913 278.424C310.345 278.92 310.969 279.168 311.785 279.168C312.073 279.168 312.329 279.128 312.553 279.048C312.793 278.952 312.977 278.848 313.105 278.736V273.456C312.785 273.264 312.401 273.168 311.953 273.168ZM325.176 279.408C325.448 279.408 325.744 279.384 326.064 279.336C326.4 279.272 326.648 279.192 326.808 279.096V277.176L325.08 277.32C324.632 277.352 324.264 277.448 323.976 277.608C323.688 277.768 323.544 278.008 323.544 278.328C323.544 278.648 323.664 278.912 323.904 279.12C324.16 279.312 324.584 279.408 325.176 279.408ZM324.984 269.976C325.848 269.976 326.632 270.064 327.336 270.24C328.056 270.416 328.664 270.688 329.16 271.056C329.672 271.408 330.064 271.864 330.336 272.424C330.608 272.968 330.744 273.616 330.744 274.368V279.744C330.744 280.16 330.624 280.504 330.384 280.776C330.16 281.032 329.888 281.256 329.568 281.448C328.528 282.072 327.064 282.384 325.176 282.384C324.328 282.384 323.56 282.304 322.872 282.144C322.2 281.984 321.616 281.744 321.12 281.424C320.64 281.104 320.264 280.696 319.992 280.2C319.736 279.704 319.608 279.128 319.608 278.472C319.608 277.368 319.936 276.52 320.592 275.928C321.248 275.336 322.264 274.968 323.64 274.824L326.784 274.488V274.32C326.784 273.856 326.576 273.528 326.16 273.336C325.76 273.128 325.176 273.024 324.408 273.024C323.8 273.024 323.208 273.088 322.632 273.216C322.056 273.344 321.536 273.504 321.072 273.696C320.864 273.552 320.688 273.336 320.544 273.048C320.4 272.744 320.328 272.432 320.328 272.112C320.328 271.696 320.424 271.368 320.616 271.128C320.824 270.872 321.136 270.656 321.552 270.48C322.016 270.304 322.56 270.176 323.184 270.096C323.824 270.016 324.424 269.976 324.984 269.976ZM345.238 281.976C345.078 282.024 344.822 282.072 344.47 282.12C344.134 282.168 343.782 282.192 343.414 282.192C343.062 282.192 342.742 282.168 342.454 282.12C342.182 282.072 341.95 281.976 341.758 281.832C341.566 281.688 341.414 281.496 341.302 281.256C341.206 281 341.158 280.672 341.158 280.272V274.944C341.158 274.288 340.99 273.832 340.654 273.576C340.334 273.304 339.934 273.168 339.454 273.168C339.134 273.168 338.83 273.208 338.542 273.288C338.254 273.368 338.022 273.464 337.846 273.576V281.976C337.686 282.024 337.43 282.072 337.078 282.12C336.742 282.168 336.39 282.192 336.022 282.192C335.67 282.192 335.35 282.168 335.062 282.12C334.79 282.072 334.558 281.976 334.366 281.832C334.174 281.688 334.022 281.496 333.91 281.256C333.814 281 333.766 280.672 333.766 280.272V266.352C333.942 266.32 334.198 266.28 334.534 266.232C334.886 266.168 335.238 266.136 335.59 266.136C335.942 266.136 336.254 266.16 336.526 266.208C336.814 266.256 337.054 266.352 337.246 266.496C337.438 266.64 337.582 266.84 337.678 267.096C337.79 267.336 337.846 267.656 337.846 268.056V270.408C338.054 270.328 338.366 270.24 338.782 270.144C339.214 270.032 339.686 269.976 340.198 269.976C341.782 269.976 343.014 270.376 343.894 271.176C344.79 271.96 345.238 273.136 345.238 274.704V281.976ZM353.229 279.408C353.501 279.408 353.797 279.384 354.117 279.336C354.453 279.272 354.701 279.192 354.861 279.096V277.176L353.133 277.32C352.685 277.352 352.317 277.448 352.029 277.608C351.741 277.768 351.597 278.008 351.597 278.328C351.597 278.648 351.717 278.912 351.957 279.12C352.213 279.312 352.637 279.408 353.229 279.408ZM353.037 269.976C353.901 269.976 354.685 270.064 355.389 270.24C356.109 270.416 356.717 270.688 357.213 271.056C357.725 271.408 358.117 271.864 358.389 272.424C358.661 272.968 358.797 273.616 358.797 274.368V279.744C358.797 280.16 358.677 280.504 358.437 280.776C358.213 281.032 357.941 281.256 357.621 281.448C356.581 282.072 355.117 282.384 353.229 282.384C352.381 282.384 351.613 282.304 350.925 282.144C350.253 281.984 349.669 281.744 349.173 281.424C348.693 281.104 348.317 280.696 348.045 280.2C347.789 279.704 347.661 279.128 347.661 278.472C347.661 277.368 347.989 276.52 348.645 275.928C349.301 275.336 350.317 274.968 351.693 274.824L354.837 274.488V274.32C354.837 273.856 354.629 273.528 354.213 273.336C353.813 273.128 353.229 273.024 352.461 273.024C351.853 273.024 351.261 273.088 350.685 273.216C350.109 273.344 349.589 273.504 349.125 273.696C348.917 273.552 348.741 273.336 348.597 273.048C348.453 272.744 348.381 272.432 348.381 272.112C348.381 271.696 348.477 271.368 348.669 271.128C348.877 270.872 349.189 270.656 349.605 270.48C350.069 270.304 350.613 270.176 351.237 270.096C351.877 270.016 352.477 269.976 353.037 269.976ZM365.852 281.976C365.692 282.024 365.436 282.072 365.084 282.12C364.748 282.168 364.396 282.192 364.028 282.192C363.676 282.192 363.356 282.168 363.068 282.12C362.796 282.072 362.564 281.976 362.372 281.832C362.18 281.688 362.028 281.496 361.916 281.256C361.82 281 361.772 280.672 361.772 280.272V273.072C361.772 272.704 361.836 272.392 361.964 272.136C362.108 271.864 362.308 271.624 362.564 271.416C362.82 271.208 363.132 271.024 363.5 270.864C363.884 270.688 364.292 270.536 364.724 270.408C365.156 270.28 365.604 270.184 366.068 270.12C366.532 270.04 366.996 270 367.46 270C368.228 270 368.836 270.152 369.284 270.456C369.732 270.744 369.956 271.224 369.956 271.896C369.956 272.12 369.924 272.344 369.86 272.568C369.796 272.776 369.716 272.968 369.62 273.144C369.284 273.144 368.94 273.16 368.588 273.192C368.236 273.224 367.892 273.272 367.556 273.336C367.22 273.4 366.9 273.472 366.596 273.552C366.308 273.616 366.06 273.696 365.852 273.792V281.976ZM376.76 279.408C377.032 279.408 377.328 279.384 377.648 279.336C377.984 279.272 378.232 279.192 378.392 279.096V277.176L376.664 277.32C376.216 277.352 375.848 277.448 375.56 277.608C375.272 277.768 375.128 278.008 375.128 278.328C375.128 278.648 375.248 278.912 375.488 279.12C375.744 279.312 376.168 279.408 376.76 279.408ZM376.568 269.976C377.432 269.976 378.216 270.064 378.92 270.24C379.64 270.416 380.248 270.688 380.744 271.056C381.256 271.408 381.648 271.864 381.92 272.424C382.192 272.968 382.328 273.616 382.328 274.368V279.744C382.328 280.16 382.208 280.504 381.968 280.776C381.744 281.032 381.472 281.256 381.152 281.448C380.112 282.072 378.648 282.384 376.76 282.384C375.912 282.384 375.144 282.304 374.456 282.144C373.784 281.984 373.2 281.744 372.704 281.424C372.224 281.104 371.848 280.696 371.576 280.2C371.32 279.704 371.192 279.128 371.192 278.472C371.192 277.368 371.52 276.52 372.176 275.928C372.832 275.336 373.848 274.968 375.224 274.824L378.368 274.488V274.32C378.368 273.856 378.16 273.528 377.744 273.336C377.344 273.128 376.76 273.024 375.992 273.024C375.384 273.024 374.792 273.088 374.216 273.216C373.64 273.344 373.12 273.504 372.656 273.696C372.448 273.552 372.272 273.336 372.128 273.048C371.984 272.744 371.912 272.432 371.912 272.112C371.912 271.696 372.008 271.368 372.2 271.128C372.408 270.872 372.72 270.656 373.136 270.48C373.6 270.304 374.144 270.176 374.768 270.096C375.408 270.016 376.008 269.976 376.568 269.976Z" fill="#262626"/>
<rect x="330" y="364" width="111" height="46" rx="17" fill="white"/>
<rect x="330" y="364" width="111" height="46" rx="17" stroke="black" stroke-width="2"/>
<path d="M352.784 389.6V394.904C352.608 394.952 352.328 395 351.944 395.048C351.56 395.096 351.184 395.12 350.816 395.12C350.448 395.12 350.12 395.088 349.832 395.024C349.56 394.976 349.328 394.88 349.136 394.736C348.944 394.592 348.8 394.392 348.704 394.136C348.608 393.88 348.56 393.544 348.56 393.128V380.456C348.736 380.424 349.016 380.384 349.4 380.336C349.784 380.272 350.152 380.24 350.504 380.24C350.872 380.24 351.192 380.272 351.464 380.336C351.752 380.384 351.992 380.48 352.184 380.624C352.376 380.768 352.52 380.968 352.616 381.224C352.712 381.48 352.76 381.816 352.76 382.232V386.048L357.752 380.312C358.84 380.312 359.616 380.52 360.08 380.936C360.56 381.336 360.8 381.816 360.8 382.376C360.8 382.792 360.696 383.184 360.488 383.552C360.28 383.92 359.944 384.336 359.48 384.8L356.48 387.8C356.88 388.248 357.296 388.712 357.728 389.192C358.176 389.672 358.608 390.144 359.024 390.608C359.456 391.056 359.864 391.488 360.248 391.904C360.648 392.32 360.992 392.68 361.28 392.984C361.28 393.336 361.216 393.648 361.088 393.92C360.96 394.192 360.784 394.424 360.56 394.616C360.352 394.808 360.112 394.952 359.84 395.048C359.568 395.144 359.28 395.192 358.976 395.192C358.32 395.192 357.784 395.032 357.368 394.712C356.952 394.376 356.552 393.984 356.168 393.536L352.784 389.6ZM375.097 389.168C375.097 390.16 374.945 391.048 374.641 391.832C374.337 392.6 373.905 393.248 373.345 393.776C372.801 394.304 372.145 394.704 371.377 394.976C370.609 395.248 369.753 395.384 368.809 395.384C367.865 395.384 367.009 395.24 366.241 394.952C365.473 394.664 364.809 394.256 364.249 393.728C363.705 393.184 363.281 392.528 362.977 391.76C362.673 390.992 362.521 390.128 362.521 389.168C362.521 388.224 362.673 387.368 362.977 386.6C363.281 385.832 363.705 385.184 364.249 384.656C364.809 384.112 365.473 383.696 366.241 383.408C367.009 383.12 367.865 382.976 368.809 382.976C369.753 382.976 370.609 383.128 371.377 383.432C372.145 383.72 372.801 384.136 373.345 384.68C373.905 385.208 374.337 385.856 374.641 386.624C374.945 387.392 375.097 388.24 375.097 389.168ZM366.697 389.168C366.697 390.144 366.881 390.896 367.249 391.424C367.633 391.936 368.161 392.192 368.833 392.192C369.505 392.192 370.017 391.928 370.369 391.4C370.737 390.872 370.921 390.128 370.921 389.168C370.921 388.208 370.737 387.472 370.369 386.96C370.001 386.432 369.481 386.168 368.809 386.168C368.137 386.168 367.617 386.432 367.249 386.96C366.881 387.472 366.697 388.208 366.697 389.168ZM383.159 382.976C383.815 382.976 384.455 383.072 385.079 383.264C385.719 383.44 386.271 383.712 386.735 384.08C387.215 383.76 387.751 383.496 388.343 383.288C388.951 383.08 389.679 382.976 390.527 382.976C391.135 382.976 391.727 383.056 392.303 383.216C392.895 383.376 393.415 383.632 393.863 383.984C394.327 384.32 394.695 384.776 394.967 385.352C395.239 385.912 395.375 386.6 395.375 387.416V394.976C395.215 395.024 394.959 395.072 394.607 395.12C394.271 395.168 393.919 395.192 393.551 395.192C393.199 395.192 392.879 395.168 392.591 395.12C392.319 395.072 392.087 394.976 391.895 394.832C391.703 394.688 391.551 394.496 391.439 394.256C391.343 394 391.295 393.672 391.295 393.272V387.536C391.295 387.056 391.159 386.712 390.887 386.504C390.615 386.28 390.247 386.168 389.783 386.168C389.559 386.168 389.319 386.224 389.063 386.336C388.807 386.432 388.615 386.536 388.487 386.648C388.503 386.712 388.511 386.776 388.511 386.84C388.511 386.888 388.511 386.936 388.511 386.984V394.976C388.335 395.024 388.071 395.072 387.719 395.12C387.383 395.168 387.039 395.192 386.687 395.192C386.335 395.192 386.015 395.168 385.727 395.12C385.455 395.072 385.223 394.976 385.031 394.832C384.839 394.688 384.687 394.496 384.575 394.256C384.479 394 384.431 393.672 384.431 393.272V387.536C384.431 387.056 384.279 386.712 383.975 386.504C383.687 386.28 383.335 386.168 382.919 386.168C382.631 386.168 382.383 386.216 382.175 386.312C381.967 386.392 381.791 386.472 381.647 386.552V394.976C381.487 395.024 381.231 395.072 380.879 395.12C380.543 395.168 380.191 395.192 379.823 395.192C379.471 395.192 379.151 395.168 378.863 395.12C378.591 395.072 378.359 394.976 378.167 394.832C377.975 394.688 377.823 394.496 377.711 394.256C377.615 394 377.567 393.672 377.567 393.272V386.024C377.567 385.592 377.655 385.248 377.831 384.992C378.023 384.736 378.279 384.496 378.599 384.272C379.143 383.888 379.815 383.576 380.615 383.336C381.431 383.096 382.279 382.976 383.159 382.976ZM398.248 380.096C398.248 379.488 398.448 378.976 398.848 378.56C399.264 378.144 399.808 377.936 400.48 377.936C401.152 377.936 401.688 378.144 402.088 378.56C402.504 378.976 402.712 379.488 402.712 380.096C402.712 380.704 402.504 381.216 402.088 381.632C401.688 382.048 401.152 382.256 400.48 382.256C399.808 382.256 399.264 382.048 398.848 381.632C398.448 381.216 398.248 380.704 398.248 380.096ZM402.52 394.976C402.344 395.008 402.08 395.048 401.728 395.096C401.392 395.16 401.048 395.192 400.696 395.192C400.344 395.192 400.024 395.168 399.736 395.12C399.464 395.072 399.232 394.976 399.04 394.832C398.848 394.688 398.696 394.496 398.584 394.256C398.488 394 398.44 393.672 398.44 393.272V383.504C398.616 383.472 398.872 383.432 399.208 383.384C399.56 383.32 399.912 383.288 400.264 383.288C400.616 383.288 400.928 383.312 401.2 383.36C401.488 383.408 401.728 383.504 401.92 383.648C402.112 383.792 402.256 383.992 402.352 384.248C402.464 384.488 402.52 384.808 402.52 385.208V394.976ZM415.438 391.52C415.438 392.736 414.982 393.688 414.07 394.376C413.158 395.064 411.814 395.408 410.038 395.408C409.366 395.408 408.742 395.36 408.166 395.264C407.59 395.168 407.094 395.024 406.678 394.832C406.278 394.624 405.958 394.368 405.718 394.064C405.494 393.76 405.382 393.4 405.382 392.984C405.382 392.6 405.462 392.28 405.622 392.024C405.782 391.752 405.974 391.528 406.198 391.352C406.662 391.608 407.19 391.84 407.782 392.048C408.39 392.24 409.086 392.336 409.87 392.336C410.366 392.336 410.742 392.264 410.998 392.12C411.27 391.976 411.406 391.784 411.406 391.544C411.406 391.32 411.31 391.144 411.118 391.016C410.926 390.888 410.606 390.784 410.158 390.704L409.438 390.56C408.046 390.288 407.006 389.864 406.318 389.288C405.646 388.696 405.31 387.856 405.31 386.768C405.31 386.176 405.438 385.64 405.694 385.16C405.95 384.68 406.31 384.28 406.774 383.96C407.238 383.64 407.79 383.392 408.43 383.216C409.086 383.04 409.806 382.952 410.59 382.952C411.182 382.952 411.734 383 412.246 383.096C412.774 383.176 413.23 383.304 413.614 383.48C413.998 383.656 414.302 383.888 414.526 384.176C414.75 384.448 414.862 384.776 414.862 385.16C414.862 385.528 414.79 385.848 414.646 386.12C414.518 386.376 414.35 386.592 414.142 386.768C414.014 386.688 413.822 386.608 413.566 386.528C413.31 386.432 413.03 386.352 412.726 386.288C412.422 386.208 412.11 386.144 411.79 386.096C411.486 386.048 411.206 386.024 410.95 386.024C410.422 386.024 410.014 386.088 409.726 386.216C409.438 386.328 409.294 386.512 409.294 386.768C409.294 386.944 409.374 387.088 409.534 387.2C409.694 387.312 409.998 387.416 410.446 387.512L411.19 387.68C412.726 388.032 413.814 388.52 414.454 389.144C415.11 389.752 415.438 390.544 415.438 391.52ZM417.794 380.096C417.794 379.488 417.994 378.976 418.394 378.56C418.81 378.144 419.354 377.936 420.026 377.936C420.698 377.936 421.234 378.144 421.634 378.56C422.05 378.976 422.258 379.488 422.258 380.096C422.258 380.704 422.05 381.216 421.634 381.632C421.234 382.048 420.698 382.256 420.026 382.256C419.354 382.256 418.81 382.048 418.394 381.632C417.994 381.216 417.794 380.704 417.794 380.096ZM422.066 394.976C421.89 395.008 421.626 395.048 421.274 395.096C420.938 395.16 420.594 395.192 420.242 395.192C419.89 395.192 419.57 395.168 419.282 395.12C419.01 395.072 418.778 394.976 418.586 394.832C418.394 394.688 418.242 394.496 418.13 394.256C418.034 394 417.986 393.672 417.986 393.272V383.504C418.162 383.472 418.418 383.432 418.754 383.384C419.106 383.32 419.458 383.288 419.81 383.288C420.162 383.288 420.474 383.312 420.746 383.36C421.034 383.408 421.274 383.504 421.466 383.648C421.658 383.792 421.802 383.992 421.898 384.248C422.01 384.488 422.066 384.808 422.066 385.208V394.976Z" fill="black"/>
</svg>
