<svg width="718" height="110" viewBox="0 0 718 110" fill="none" xmlns="http://www.w3.org/2000/svg">
<path d="M200.65 0.265869L229.404 67.588L257.748 0.265869H289.786C289.831 0.265869 290.4 0.834367 290.4 0.879248V108.834C290.4 108.879 289.824 109.447 289.786 109.447H264.733C264.688 109.447 264.12 108.879 264.12 108.834V42.5442L237.631 108.228C237.317 108.647 236.868 108.602 236.419 108.655C231.865 109.201 226.271 108.176 221.589 108.655L194.293 42.1253V109.447H169.03C168.985 109.447 168.417 108.879 168.417 108.834V0.879248C168.417 0.834367 168.993 0.265869 169.03 0.265869H200.657H200.65Z" fill="white"/>
<path d="M26.6984 43.7784H69.0045V0.265869H95.2916V109.455H69.0045V65.5309H26.6984V108.834C26.6984 108.879 26.1225 109.447 26.0852 109.447H0V0.265869H26.0852C26.13 0.265869 26.6984 0.834367 26.6984 0.879248V43.7709V43.7784Z" fill="white"/>
<path d="M568.482 75.7935V108.834C568.482 108.879 567.906 109.447 567.868 109.447H541.783V0.265555C557.002 0.878934 572.856 -0.549789 588.008 0.250597C601.148 0.946259 613.3 5.53164 620.659 16.8792C628.931 29.633 628.422 49.291 619.179 61.394C607.086 77.2297 586.497 75.9655 568.482 75.7935ZM568.482 54.4449H585.114C586.258 54.4449 590.311 52.8516 591.493 52.2008C601.395 46.7477 601.529 29.7078 591.493 24.2696C590.274 23.6114 586.303 22.0181 585.121 22.0181H568.489V54.4449H568.482Z" fill="white"/>
<path d="M435.805 46.6508C456.558 50.3161 477.438 60.3995 493.307 74.1557C503.029 82.5709 512.931 94.3373 519.101 105.64C519.482 106.328 520.514 108.034 520.649 108.617C520.754 109.066 520.357 109.455 520.208 109.455H491.864C483.66 98.3617 474.282 90.2157 462.496 83.1843C453.447 77.791 446.207 74.7316 435.797 72.51C425.387 70.2884 415.269 69.4132 404.582 70.4604C395.159 71.3805 387.262 73.849 378.706 77.4395C378.392 77.5741 377.764 77.5068 377.195 77.7537C361.573 84.6055 348.052 95.4519 338.045 109.253L308.879 109.455C308.64 108.662 309.051 108.348 309.29 107.817C309.702 107.69 309.657 107.345 309.702 106.994C309.717 106.859 309.679 106.717 309.702 106.582C312.708 102.603 315.056 98.1747 317.995 94.1354C326.91 81.8678 339.152 70.6699 352.015 62.6585C357.968 58.9483 364.355 55.7318 370.913 53.2185C378.856 50.174 387.561 47.6083 395.967 46.2394C408.396 44.2197 423.405 44.4591 435.812 46.6508H435.805Z" fill="#9F2C2D"/>
<path d="M672.815 87.6949H718V108.834C718 108.879 717.424 109.447 717.387 109.447H646.737C646.692 109.447 646.124 108.879 646.124 108.834V0.879248C646.124 0.834367 646.7 0.265869 646.737 0.265869H672.202C672.247 0.265869 672.815 0.834367 672.815 0.879248V87.6949Z" fill="white"/>
<path d="M493.315 74.1482C477.438 60.3995 456.558 50.3087 435.812 46.6434V0.258423H482.426C506.806 1.20093 522.242 17.7771 520.417 42.3198C519.243 58.148 508.414 70.1313 493.315 74.1407V74.1482ZM462.511 54.4453H479.143C480.086 54.4453 483.638 53.1063 484.7 52.6126C495.409 47.6158 495.955 29.9325 485.515 24.27C484.296 23.6117 480.325 22.0184 479.143 22.0184H462.511V54.4453Z" fill="white"/>
<path d="M395.967 46.24C387.553 47.6014 378.856 50.1746 370.913 53.2191L362.911 28.1827L352.023 62.6591C339.159 70.6704 326.917 81.8684 318.003 94.1359C315.071 98.1753 312.715 102.604 309.709 106.583L345.427 0.460938H380.374L395.967 46.2475V46.24Z" fill="white"/>
<path d="M118.707 109.455V0.879248C118.707 0.834367 119.283 0.265869 119.32 0.265869H144.784C144.829 0.265869 145.398 0.834367 145.398 0.879248V108.834C145.398 108.879 144.822 109.447 144.784 109.447H118.699L118.707 109.455Z" fill="white"/>
<path d="M404.589 70.46L416.913 109.454H389.19L378.713 77.439C387.268 73.856 395.166 71.38 404.589 70.46Z" fill="white"/>
<path d="M462.511 83.1841L462.533 108.041C462.623 108.46 462.234 109.455 461.898 109.455H435.812V72.5098C446.23 74.7239 453.462 77.7908 462.511 83.1841Z" fill="white"/>
</svg>
