<svg width="1012" height="877" viewBox="0 0 1012 877" fill="none" xmlns="http://www.w3.org/2000/svg">
<path d="M795.867 327.008L992.773 210.928L627.36 0H626.08L260.613 211.568L583.147 401.105L584.24 402.332C571.36 440.634 611.707 475.308 647.813 456.131C675.067 441.647 679.387 403.479 656.133 383.127C639.627 368.697 615.2 368.217 598.213 382.194C595.627 384.328 593.28 387.315 590.613 389.129L472.08 318.153L626.347 226.212L795.84 327.008H795.867ZM626.507 388.142C663.36 388.142 663.28 445.328 626.507 445.328C589.733 445.328 589.733 388.142 626.507 388.142Z" fill="#D9D9D6"/>
<path d="M551.2 456.424V474.668L592.8 498.034V628.623L445.28 544.124L444.32 356.241L87.2266 153.555C99.6266 118.694 68.6666 83.9925 32.5066 94.1548C15.5466 98.9292 1.27993 114.559 0.159932 132.51C-0.0267347 135.578 -0.0534014 139.685 0.159932 142.753C0.746599 151.234 4.6666 159.956 10.0799 166.438C28.3999 188.416 62.0266 187.883 80.1599 166.091L80.8533 166.038L342.587 315.272V330.955L240.827 273.982V322.634L135.2 263.42C134.72 263.127 134.64 262.807 134.667 262.273C134.8 260.006 136.827 255.658 137.12 252.538C139.147 229.786 125.84 208.688 103.333 203.14C68.8266 194.604 38.9066 226.665 49.1199 260.566C59.3599 294.467 105.467 303.349 126.96 275.343H127.76L342.587 397.877V413.561L240.827 356.588V405.239L177.12 369.418C192.827 325.327 139.573 288.519 104.213 320.126C61.4133 358.375 117.947 426.044 163.627 388.489C165.013 387.342 168.56 382.887 169.173 382.514C169.84 382.087 170.427 382.14 171.12 382.487L338.453 477.602L342.613 480.483V496.166L240.853 439.193V530.414L609.493 741.342V489.445L551.253 456.477L551.2 456.424ZM45.0933 166.331C8.23993 166.331 8.31993 109.145 45.0933 109.145C81.8666 109.145 81.8666 166.331 45.0933 166.331ZM92.1866 275.183C55.3333 275.183 55.4133 217.996 92.1866 217.996C128.96 217.996 128.96 275.183 92.1866 275.183ZM134.587 382.22C97.7333 382.22 97.8133 325.034 134.587 325.034C171.36 325.034 171.36 382.22 134.587 382.22Z" fill="#9E2A2B"/>
<path d="M643.36 877V773.616L923.36 611.98L923.76 291.026L1012 240.695V664.792L643.36 877Z" fill="#DE754C"/>
<path d="M896.8 306.63V597.256L643.36 741.929V489.392L684.987 465.093L684.96 367.257L644 343.438V325.194L699.894 356.668L701.574 358.829L701.467 474.535L660 498.994V627.983L808.16 544.124L808.454 356.348L896.8 306.63Z" fill="#DE754C"/>
<path d="M609.44 877L240.8 664.792V562.688L609.44 773.616V877Z" fill="#9E2A2B"/>
</svg>
