<svg width="580" height="927" viewBox="0 0 580 927" fill="none" xmlns="http://www.w3.org/2000/svg">
<path d="M272.717 541.75L231.035 507.25L158.391 408.064L153.627 382.729L207.813 375.182H376.92L436.465 382.729L429.32 405.908L369.775 507.25L298.916 541.75H272.717Z" fill="#E88029"/>
<path d="M343.572 961.239C339.693 957.009 338.583 907.281 338.583 907.281L403.264 893.43C403.264 893.43 411.855 918.025 413.242 927.151C414.629 936.276 412.59 946.465 413.368 953.437C414.146 960.409 379.104 968.139 369.158 967.378C359.212 966.617 347.451 965.468 343.572 961.239Z" fill="url(#paint0_radial_2074_825)"/>
<path d="M168.936 949.824C166.414 944.823 167.274 908.093 167.274 908.093L246.138 898.507C246.138 898.507 247.326 924.28 246.029 933.417C244.731 942.553 239.819 951.904 238.556 958.818C237.293 965.732 195.423 974.089 190.446 969.057C185.469 964.025 171.458 954.825 168.936 949.824Z" fill="url(#paint1_radial_2074_825)"/>
<path d="M144.694 894.831C144.098 889.979 153.03 811.816 153.03 811.816H421.577C421.577 811.816 436.463 911.002 436.463 914.237C436.463 917.471 412.645 928.791 406.096 930.408C399.546 932.025 349.528 935.26 343.573 934.721C337.619 934.182 322.137 923.401 318.565 920.166C314.992 916.932 298.915 906.69 298.915 900.76C298.915 894.831 278.67 863.566 276.883 877.042C275.097 890.518 269.142 897.526 269.142 897.526C269.142 897.526 257.829 921.783 254.852 923.94C251.874 926.096 203.643 930.408 195.902 930.408C188.161 930.408 173.871 922.323 165.534 918.01C157.198 913.698 145.289 899.682 144.694 894.831Z" fill="#313327" stroke="#1D1D1D"/>
<path d="M19.071 536.219C21.1438 533.332 21.7738 529.992 25.312 529.351C29.3393 529.351 84.9884 536.179 112.31 539.593L161.401 713.708L142.908 742.278C142.908 742.278 138.144 753.598 137.549 764.918C136.953 776.238 131.594 754.137 130.999 742.278C130.403 730.418 135.167 712.09 133.38 713.708C131.594 715.325 132.19 715.325 128.86 720.715C125.53 726.106 124.692 742.03 122.31 747.508C120.281 743.195 120.281 743.895 120.281 740.66V728.635V716.242C120.281 708.317 122.067 706.161 123.853 703.466C124.072 703.135 124.247 702.884 124.384 702.697C123.944 701.506 121.368 696.481 120.281 694.841L116.112 688.911L1.1544 574.632C-2.9479 567.947 4.91628 553.728 8.63937 549.296C13.2351 543.826 14.9286 541.989 19.071 536.219Z" fill="url(#paint2_radial_2074_825)"/>
<path d="M65.4969 570.32C85.7421 567.085 92.6997 566.72 105.392 571.937C118.084 577.153 139.183 592.094 139.183 592.094" stroke="#DF5D20" stroke-width="2" stroke-linecap="round"/>
<path d="M560.929 523.284C558.856 520.397 558.226 517.057 554.688 516.416C550.661 516.416 495.012 523.244 467.69 526.658L413.205 722.874L431.698 751.444C431.698 751.444 436.462 762.764 437.058 774.084C437.653 785.404 443.012 763.303 443.607 751.444C444.203 739.585 439.439 721.257 441.226 722.874C443.012 724.491 442.417 724.491 445.746 729.882C449.076 735.272 449.915 751.196 452.296 756.674C454.326 752.361 454.326 753.061 454.326 749.827V737.802V725.409C454.326 717.483 452.539 715.327 450.753 712.632C450.534 712.301 450.359 712.05 450.222 711.863C450.662 710.672 453.238 705.647 454.326 704.007L458.494 698.077L578.846 561.697C582.948 555.012 575.084 540.793 571.361 536.361C566.765 530.891 565.071 529.054 560.929 523.284Z" fill="url(#paint3_radial_2074_825)"/>
<path d="M514.503 557.385C494.258 554.151 487.3 553.786 474.608 559.002C461.916 564.219 440.817 579.16 440.817 579.16" stroke="#DF5D20" stroke-width="2" stroke-linecap="round"/>
<path d="M106.401 445.501C133.449 433.819 166.831 443.859 166.831 443.859L165.608 462.01L166.107 480.592L118.383 529.602C116.944 530.841 114.034 525.972 105.548 539.251C97.0628 552.53 51.2133 526.882 26.2045 530.003C1.19563 533.124 39.0417 494.067 46.1373 482.98C53.2328 471.894 79.3529 457.183 106.401 445.501Z" fill="#313327" stroke="#1D1D1D" stroke-width="1.5"/>
<path d="M135.163 400.392C141.118 405.243 207.808 428.422 214.358 434.891C220.908 441.36 213.167 449.985 220.908 464.539C228.648 479.093 230.435 483.945 228.648 487.179C226.862 490.414 152.431 448.906 145.286 441.899C138.14 434.891 129.209 395.54 135.163 400.392Z" fill="#313327" stroke="#1D1D1D" stroke-width="1.5"/>
<path d="M279.862 542.29C279.862 531.509 228.058 487.72 228.058 487.72L219.722 484.486L182.209 465.08L154.222 448.369L143.504 440.822C143.504 440.822 105.991 507.126 102.418 523.837C98.8458 540.547 109.599 576.251 109.599 576.251C109.599 576.251 125.08 645.25 129.844 656.57C134.608 667.89 146.482 727.725 154.222 741.201C161.963 754.678 141.123 798.88 154.222 812.895C167.322 826.911 260.808 842.543 270.93 837.153C281.053 831.762 278.671 798.88 279.862 788.638C280.4 784.009 280.347 714.788 279.862 650.101C279.377 585.415 279.862 548.199 279.862 542.29Z" fill="#313327" stroke="#1D1D1D" stroke-width="1.5"/>
<path d="M478.68 441.538C451.863 429.429 418.291 438.937 418.291 438.937L419.162 457.105L418.304 475.676L465.071 525.436C466.486 526.698 466.743 534.789 477.717 535.288C497.443 536.185 523.995 517.494 557.228 527.3C590.46 537.107 545.088 491.166 538.209 479.969C531.329 468.771 505.498 453.648 478.68 441.538Z" fill="#313327" stroke="#1D1D1D" stroke-width="1.5"/>
<path d="M438.287 400.392C432.333 405.243 365.642 428.422 359.092 434.891C352.543 441.36 360.283 449.985 352.543 464.539C344.802 479.093 343.015 483.945 344.802 487.179C346.588 490.414 421.019 448.906 428.164 441.899C435.31 434.891 444.242 395.54 438.287 400.392Z" fill="#313327" stroke="#1D1D1D" stroke-width="1.5"/>
<path d="M258.46 562.109C258.46 551.328 345.395 487.72 345.395 487.72L353.731 484.486L391.245 465.08L419.231 448.369L429.949 440.822C429.949 440.822 467.462 507.126 471.035 523.837C474.607 540.547 463.854 576.251 463.854 576.251C463.854 576.251 448.373 645.25 443.609 656.57C438.846 667.89 426.972 727.725 419.231 741.201C411.49 754.678 432.331 798.88 419.231 812.896C406.131 826.911 294.782 842.418 284.659 837.027C274.537 831.637 259.65 797.676 258.46 787.434C257.921 782.805 253.211 725.982 253.696 661.295C254.181 596.609 258.46 568.018 258.46 562.109Z" fill="#313327" stroke="#1D1D1D" stroke-width="1.5"/>
<path d="M368.129 567.084C354.51 568.906 326.366 572.549 322.734 572.549C323.407 577.494 325.256 587.383 327.274 587.383C329.291 587.383 352.997 588.944 364.598 589.725L403.435 587.383L408.479 575.282L368.129 567.084Z" fill="#313327" stroke="#1D1D1D" stroke-width="2"/>
<path d="M330.477 620.988L327.5 589.723L363.822 591.879L401.931 589.723L393.595 620.988L361.441 632.308L330.477 620.988Z" stroke="#1D1D1D" stroke-width="2"/>
<path d="M186.561 567.083C174.181 568.74 148.595 572.052 145.294 572.052C145.905 576.547 147.587 585.536 149.421 585.536C151.255 585.536 172.806 586.956 183.352 587.666L218.658 585.536L223.244 574.536L186.561 567.083Z" fill="#313327" stroke="#1D1D1D" stroke-width="2"/>
<path d="M152.33 616.089L149.623 587.666L182.643 589.626L217.288 587.666L209.709 616.089L180.478 626.38L152.33 616.089Z" stroke="#1D1D1D" stroke-width="2"/>
<path d="M407.289 547.678H325.117L326.177 555.071L350.034 556.303H407.289V547.678Z" fill="#1D1D1D" stroke="#1D1D1D" stroke-width="2"/>
<ellipse cx="267.95" cy="577.868" rx="3.57269" ry="3.23433" fill="#1D1D1D"/>
<ellipse cx="263.191" cy="629.614" rx="3.57269" ry="3.23433" fill="#1D1D1D"/>
<ellipse cx="260.806" cy="680.287" rx="3.57269" ry="3.23433" fill="#1D1D1D"/>
<ellipse cx="264.379" cy="740.661" rx="3.57269" ry="3.23433" fill="#1D1D1D"/>
<ellipse cx="270.335" cy="790.255" rx="3.57269" ry="3.23433" fill="#1D1D1D"/>
<path d="M442.656 385.933C444.998 394.062 354.86 412.295 341.923 442.271L238.306 444.836C240.734 420.285 142.134 404.912 145.452 400.141C149.6 394.177 140.572 396.828 143.012 388.655C145.452 380.482 139.596 390.643 131.545 396.828C123.737 403.012 133.253 393.293 136.668 385.121C138.62 377.611 131.057 390.864 123.249 396.828C115.441 402.791 122.273 393.514 116.173 400.141C111.294 405.442 107.146 406.325 105.682 406.105C109.179 399.994 116.173 385.253 116.173 375.181C108.366 367.936 111.294 357.29 113.734 352.872C115.198 348.97 116.173 341.828 108.366 344.479C96.6544 349.117 84.455 359.057 71.2797 364.579C60.7394 368.997 70.7917 362.738 77.1354 359.057L84.455 352.872L91.5307 330.343C92.7506 326.072 100.168 313.467 120.077 297.211C124.225 295.002 113.246 294.56 97.8744 276.448C84.943 251.709 87.1389 245.966 84.455 239.782C81.7712 233.597 87.1389 203.116 89.0908 208.417C91.0427 213.718 98.6063 227.413 103.974 235.585C109.342 243.758 115.197 239.782 149.6 254.802C154.967 258.115 149.112 250.605 149.6 245.966C150.088 241.328 146.184 229.621 144.232 220.565C142.28 211.509 142.28 199.14 136.424 189.2C130.569 179.261 121.297 177.273 98.6063 166.891C75.9155 156.51 78.1114 159.161 92.0187 160.707C103.145 161.944 118.451 165.345 124.713 166.891C130.813 170.352 141.695 174.755 136.424 164.683C129.86 152.137 119.419 147.267 95.4435 136.086L95.1905 135.968C86.9925 132.788 89.6601 131.992 92.0187 131.992C97.2237 133.318 111.489 138.221 126.909 147.233C133.741 152.313 123.981 142.153 114.222 135.968C104.462 129.784 121.785 136.41 132.277 142.153C143.256 147.454 172.779 169.984 177.17 180.807C179.366 175.285 179.122 171.972 180.83 163.136C182.538 154.301 166.923 128.458 158.871 120.728C152.43 114.543 148.38 107.548 147.16 104.824C148.624 105.929 153.406 109.198 160.823 113.438C172.047 118.74 165.703 119.623 164.239 108.137C160.579 97.756 176.682 120.728 194.006 139.944C207.864 155.317 229.221 185.813 238.167 199.14C236.053 195.532 231.629 183.59 230.848 164.683C229.872 141.048 230.848 172.855 240.363 186.329C237.679 180.807 235.484 164.683 235.484 152.092C235.484 139.502 239.631 131.992 245.975 120.728C252.319 109.463 246.219 125.808 243.047 139.944C239.875 154.08 241.339 159.823 243.047 152.092C244.755 144.362 249.147 131.992 255.246 120.728C261.346 109.463 286.965 73.6801 293.309 65.5075C299.652 57.3349 295.992 66.6119 293.309 80.3065C290.625 94.001 322.831 44.0822 325.027 47.8371C326.784 50.8411 325.759 52.6229 325.027 53.1382C323.319 54.5371 318.976 61.9293 315.267 80.3065C313.706 106.105 306.809 124.335 303.556 130.225C300.954 137.956 294.431 160 289.161 186.329C287.209 201.349 288.185 221.007 295.748 239.782C308.241 199.493 322.262 167.922 327.711 157.173C330.151 151.651 338.056 137.647 350.158 125.808C365.285 111.009 365.529 98.4186 367.725 90.2461C369.921 82.0735 370.897 96.4307 372.849 105.266C374.801 114.101 364.553 123.157 363.333 133.759C362.357 142.241 369.27 126.986 372.849 118.298C373.825 123.452 375.191 140.783 372.849 168.879C373.581 175.064 373.093 179.482 379.436 168.879C385.78 158.277 406.519 137.514 415.059 131.992C423.598 126.47 454.829 109.463 473.616 105.266C492.403 101.069 450.681 120.286 439.213 130.225C427.746 140.165 420.426 153.418 415.059 162.695C409.691 171.972 404.079 186.329 402.127 192.955C400.175 199.582 409.447 183.016 425.794 157.173C431.894 147.896 441.897 140.165 457.024 133.759C472.152 127.354 479.471 125.145 493.379 123.157C507.286 121.169 469.468 142.153 457.024 153.418C444.581 164.683 441.653 186.329 439.213 200.686C436.773 215.043 421.158 232.272 429.942 227.192C438.725 222.111 446.777 221.67 464.588 221.007C478.837 220.477 491.02 205.03 495.331 197.373C497.445 193.029 502.797 184.739 507.286 186.329C507.871 198.345 503.789 206.65 501.674 209.301C498.502 214.086 489.67 229.533 479.715 253.035C471.147 276.995 448.26 291.553 437.103 296.216C441.654 294.831 452.811 298.086 467.272 321.287C478.398 338.957 494.842 353.977 501.674 359.278C468.687 350.619 458.488 344.037 457.512 341.828C455.56 342.049 453.706 345.142 461.904 355.744C470.102 366.346 468.898 391.232 467.272 402.35C458.895 393.514 440.314 377.805 442.656 385.933Z" fill="url(#paint4_radial_2074_825)"/>
<path d="M330.549 280.587C326.298 283.547 324.146 289.96 323.601 292.796L324.827 296.866C324.282 298.469 323.029 301.972 322.375 303.155C321.721 304.339 321.83 307.595 321.966 309.075L321.149 316.474C320.877 318.448 320.413 322.69 320.74 323.874C321.149 325.354 322.784 325.724 326.871 327.574C330.14 329.053 335.204 330.657 337.384 331.027C339.018 331.767 343.514 332.285 348.418 332.877C354.548 333.617 357.818 333.247 361.496 333.247C365.174 333.247 368.147 333.863 370.599 335.713C373.051 337.563 378.364 337.563 383.677 337.193C388.989 336.823 391.441 334.973 397.572 332.753C403.702 330.533 402.067 329.053 410.241 324.614C416.779 321.062 419.504 314.995 420.049 312.405C419.64 312.775 417.515 313.515 412.284 313.515C409.015 313.145 408.606 311.295 410.241 307.965C411.875 305.005 413.919 305.375 417.597 303.895C421.275 302.415 426.588 296.866 429.448 293.536C432.309 290.206 429.448 291.316 421.275 289.466C413.101 287.617 412.284 287.987 402.067 287.987C400.432 286.211 404.11 279.601 406.154 276.517C412.148 269.735 423.564 253.357 421.275 242.11C421.275 238.41 415.962 246.18 412.284 248.03C408.606 249.88 405.745 251.359 400.432 253.949C396.182 256.021 393.212 256.292 392.259 256.169C387.491 256.416 376.729 257.353 371.825 259.129C366.921 259.721 360.246 262.829 357.521 264.308L344.444 271.708C341.583 273.434 334.799 277.627 330.549 280.587Z" fill="url(#paint5_linear_2074_825)"/>
<path d="M324.303 297.36L323.486 294.77L320.625 301.799C320.08 303.649 318.908 307.571 318.581 308.459C318.255 309.347 317.9 313.269 317.764 315.118L317.355 320.298L316.538 329.917L330.433 330.287C329.888 330.041 328.39 329.399 326.755 328.807C325.774 328.511 323.894 327.451 323.077 326.958C322.532 326.711 321.279 325.996 320.625 325.108V320.668V316.968C320.625 315.784 321.17 310.555 321.442 308.089L322.26 303.649C322.587 301.873 323.758 298.716 324.303 297.36Z" fill="#F9753B"/>
<path d="M324.766 302.17C323.458 304.242 322.314 317.339 321.905 323.629C321.781 325.405 321.036 325.109 320.679 324.739C320.543 319.189 320.597 306.906 321.905 302.17C321.905 298.027 324.902 290.085 326.4 286.632C326.945 284.905 329.343 280.86 334.574 278.492C348.06 271.833 350.921 271.833 357.46 269.243C362.691 267.171 373.534 266.407 378.302 266.283C381.98 266.283 390.563 266.801 395.467 268.873C401.597 271.463 402.414 274.053 399.553 273.313C396.693 272.573 387.702 272.203 378.302 272.573C370.783 272.869 371.9 274.423 373.398 275.163C374.352 275.163 377.812 276.05 384.024 279.602C390.236 283.154 393.968 289.961 395.058 292.921C395.739 295.264 397.592 300.617 399.553 303.28C402.006 306.61 409.77 308.09 409.362 309.57C408.953 311.05 405.275 316.969 402.414 320.299C399.553 323.629 394.241 327.329 388.519 330.288C383.942 332.656 377.349 333.001 374.624 332.878C373.943 333.125 370.946 333.766 364.407 334.358C360.484 334.95 351.875 334.605 348.06 334.358C345.881 334.111 340.867 333.47 338.252 332.878C335.636 332.286 331.713 330.905 330.078 330.288C329.67 330.288 327.463 329.548 321.905 326.589C320.679 325.849 321.905 325.109 324.766 326.589C327.626 328.068 330.487 328.808 334.574 330.288C337.843 331.472 343.837 332.508 346.425 332.878C349.15 333.125 356.07 333.47 361.955 332.878C369.311 332.138 370.129 331.028 373.807 330.288C376.749 329.696 380.754 326.095 382.389 324.369C383.751 322.889 386.884 318.893 388.519 314.749C390.563 309.57 389.337 299.211 388.519 296.621C387.702 294.031 385.25 289.961 384.432 288.482C383.779 287.298 379.528 283.795 377.485 282.192C374.215 279.972 369.311 277.752 365.633 277.012C362.595 276.401 359.503 276.642 358.277 277.012C357.051 277.382 353.373 278.862 348.878 281.082C344.382 283.302 339.887 286.262 334.574 289.961C330.324 292.921 327.899 295.634 327.218 296.621C326.809 296.991 325.746 298.619 324.766 302.17Z" fill="url(#paint6_linear_2074_825)"/>
<path d="M328.39 293.666C324.14 296.626 321.987 316.721 321.442 325.107C323.077 327.475 330.161 328.937 333.294 329.924C336.563 331.773 345.718 332.655 354.545 333.247C363.373 333.839 369.939 331.89 372.118 331.027C373.344 330.78 377.022 328.955 380.292 326.587C384.889 323.257 390.509 314.015 390.509 311.055V302.546C390.509 298.846 388.302 289.597 379.475 282.197C367.214 275.908 362.719 275.538 357.406 275.168C352.093 274.798 333.703 289.967 328.39 293.666Z" fill="white"/>
<path d="M344.059 327.944C337.486 326.655 332.747 321.819 331.199 319.562C334.057 322.399 337.629 323.968 339.058 324.398C342.273 324.935 349.274 325.623 351.56 324.076C354.775 323.431 356.919 320.529 358.348 318.918C359.776 317.306 359.776 308.923 359.419 307.634C359.062 306.344 357.633 303.443 356.561 301.831C355.49 300.219 353.704 298.929 350.846 297.64C348.56 296.608 344.178 296.995 342.273 297.317C339.772 297.747 334.271 299.058 332.271 300.864C329.056 302.476 327.984 308.923 327.984 307.956V304.732C327.984 303.12 329.77 299.574 331.199 297.64C332.628 295.705 334.414 293.449 336.558 291.837C338.701 290.225 341.916 288.935 343.702 288.291C345.488 287.646 345.845 287.001 351.918 287.001C356.776 287.001 360.61 288.076 361.92 288.613C363.11 289.258 365.206 290.612 364.063 290.87C362.634 291.192 359.776 292.804 358.348 294.416C357.204 295.705 356.681 299.252 356.561 300.864C357.871 302.476 360.419 306.151 360.134 307.956C361.205 309.246 362.634 309.891 367.992 310.858C373.351 311.825 376.208 306.344 376.208 308.279C376.208 309.826 375.256 313.437 374.779 315.049C373.827 316.553 371.422 320.143 369.421 322.464C367.421 324.785 364.063 326.44 362.634 326.977C361.682 327.3 358.848 328.138 355.133 328.912C351.418 329.685 346.202 328.589 344.059 327.944Z" fill="#F95C55"/>
<path d="M330.845 307.007C328.802 308.857 327.984 310.337 327.984 309.597C328.257 308.117 328.802 304.936 328.802 304.048C328.802 302.938 330.028 301.088 330.436 300.348C330.763 299.756 331.935 298.621 332.48 298.128C332.888 297.512 334.441 295.982 337.384 294.798C339.999 293.023 344.74 292.825 346.783 292.949C348.691 293.195 353.159 293.91 355.774 294.798C359.044 295.908 364.357 302.568 364.765 306.638C365.174 310.707 363.539 316.627 361.905 319.217C360.27 321.806 357.409 323.286 355.366 324.396C353.322 325.506 345.557 326.616 341.062 325.136C336.567 323.656 334.932 322.546 332.888 321.436C330.845 320.326 330.436 319.217 330.028 318.107C329.701 317.219 331.799 318.477 332.888 319.217C333.978 319.587 336.648 320.104 338.61 319.217C339.427 318.847 341.062 318.477 342.697 315.517C344.004 313.149 343.242 310.584 342.697 309.597C341.879 308.734 339.918 306.785 338.61 305.898C336.975 304.788 332.888 305.158 330.845 307.007Z" fill="#743C32"/>
<path d="M251.204 281.086C255.127 283.818 257.114 289.738 257.617 292.356L256.485 296.113C256.988 297.592 258.145 300.825 258.749 301.918C259.352 303.011 259.252 306.016 259.126 307.382L259.88 314.212C260.132 316.034 260.559 319.95 260.258 321.042C259.88 322.408 258.371 322.75 254.599 324.457C251.581 325.823 246.907 327.304 244.895 327.645C243.386 328.328 239.236 328.806 234.71 329.353C229.051 330.036 226.033 329.694 222.638 329.694C219.243 329.694 216.499 330.263 214.235 331.971C211.972 333.678 207.068 333.678 202.164 333.337C197.26 332.995 194.996 331.288 189.338 329.238C183.679 327.189 185.188 325.823 177.644 321.725C171.608 318.447 169.093 312.846 168.59 310.456C168.967 310.797 170.929 311.48 175.758 311.48C178.775 311.139 179.153 309.431 177.644 306.358C176.135 303.626 174.249 303.967 170.854 302.601C167.459 301.235 162.555 296.113 159.914 293.039C157.273 289.965 159.914 290.99 167.459 289.282C175.003 287.575 175.758 287.916 185.188 287.916C186.697 286.277 183.302 280.176 181.416 277.33C175.883 271.069 165.346 255.952 167.459 245.57C167.459 242.155 172.363 249.326 175.758 251.034C179.153 252.741 181.793 254.107 186.697 256.498C190.621 258.41 193.362 258.661 194.242 258.547C198.643 258.775 208.577 259.64 213.104 261.279C217.63 261.826 223.792 264.694 226.307 266.06L238.378 272.89C241.019 274.484 247.281 278.354 251.204 281.086Z" fill="url(#paint7_linear_2074_825)"/>
<path d="M256.969 296.568L257.724 294.178L260.364 300.666C260.867 302.374 261.949 305.994 262.251 306.813C262.552 307.633 262.879 311.253 263.005 312.96L263.382 317.742L264.137 326.621L251.311 326.962C251.814 326.735 253.197 326.143 254.706 325.596C255.611 325.323 257.347 324.344 258.101 323.889C258.604 323.661 259.761 323.001 260.364 322.181V318.083V314.668C260.364 313.575 259.861 308.749 259.61 306.472L258.855 302.374C258.554 300.735 257.472 297.82 256.969 296.568Z" fill="#F9753B"/>
<path d="M256.542 301.009C257.749 302.921 258.805 315.01 259.183 320.816C259.297 322.455 259.985 322.182 260.314 321.841C260.44 316.718 260.39 305.38 259.183 301.009C259.183 297.184 256.416 289.853 255.033 286.666C254.53 285.072 252.317 281.338 247.488 279.152C235.04 273.005 232.399 273.005 226.363 270.615C221.535 268.702 211.526 267.997 207.125 267.883C203.73 267.883 195.808 268.361 191.281 270.273C185.622 272.664 184.868 275.054 187.509 274.371C190.149 273.688 198.448 273.347 207.125 273.688C214.066 273.962 213.035 275.396 211.651 276.079C210.771 276.079 207.577 276.899 201.843 280.177C196.11 283.455 192.664 289.739 191.658 292.471C191.029 294.634 189.319 299.574 187.509 302.033C185.245 305.107 178.078 306.473 178.455 307.839C178.832 309.205 182.227 314.669 184.868 317.742C187.509 320.816 192.413 324.231 197.694 326.963C201.919 329.149 208.005 329.467 210.52 329.354C211.148 329.581 213.915 330.173 219.951 330.72C223.572 331.266 231.519 330.947 235.04 330.72C237.052 330.492 241.679 329.9 244.093 329.354C246.508 328.807 250.129 327.532 251.638 326.963C252.015 326.963 254.052 326.28 259.183 323.548C260.314 322.865 259.183 322.182 256.542 323.548C253.901 324.914 251.261 325.597 247.488 326.963C244.471 328.056 238.938 329.012 236.549 329.354C234.034 329.581 227.646 329.9 222.214 329.354C215.424 328.671 214.669 327.646 211.274 326.963C208.558 326.417 204.861 323.093 203.352 321.499C202.095 320.133 199.203 316.445 197.694 312.62C195.808 307.839 196.939 298.277 197.694 295.886C198.448 293.496 200.712 289.739 201.466 288.373C202.07 287.28 205.993 284.047 207.879 282.567C210.897 280.518 215.424 278.469 218.819 277.786C221.623 277.222 224.477 277.445 225.609 277.786C226.741 278.128 230.136 279.494 234.285 281.543C238.435 283.592 242.584 286.324 247.488 289.739C251.412 292.471 253.65 294.975 254.279 295.886C254.656 296.228 255.637 297.73 256.542 301.009Z" fill="url(#paint8_linear_2074_825)"/>
<path d="M253.197 293.16C257.121 295.893 259.107 314.441 259.61 322.182C258.101 324.368 251.563 325.717 248.671 326.628C245.653 328.335 237.203 329.149 229.055 329.695C220.906 330.242 214.846 328.443 212.834 327.646C211.702 327.419 208.307 325.734 205.289 323.548C201.045 320.475 195.858 311.943 195.858 309.211V301.357C195.858 297.942 197.895 289.404 206.043 282.574C217.36 276.768 221.51 276.427 226.414 276.085C231.318 275.744 248.293 289.745 253.197 293.16Z" fill="white"/>
<path d="M238.736 324.8C244.803 323.61 249.178 319.146 250.607 317.063C247.969 319.682 244.672 321.13 243.353 321.527C240.385 322.022 233.922 322.657 231.812 321.229C228.845 320.634 226.866 317.956 225.547 316.468C224.228 314.98 224.228 307.243 224.558 306.052C224.888 304.862 226.207 302.184 227.196 300.696C228.185 299.208 229.834 298.017 232.472 296.827C234.582 295.875 238.627 296.232 240.385 296.53C242.693 296.926 247.771 298.136 249.617 299.803C252.585 301.291 253.574 307.243 253.574 306.35V303.374C253.574 301.886 251.926 298.613 250.607 296.827C249.288 295.042 247.639 292.959 245.661 291.471C243.682 289.983 240.715 288.792 239.066 288.197C237.418 287.602 237.088 287.007 231.482 287.007C226.998 287.007 223.459 287.999 222.25 288.495C221.151 289.09 219.217 290.34 220.272 290.578C221.591 290.875 224.228 292.363 225.547 293.851C226.602 295.042 227.086 298.315 227.196 299.803C225.987 301.291 223.635 304.683 223.899 306.35C222.909 307.54 221.591 308.135 216.645 309.028C211.699 309.921 209.061 304.862 209.061 306.647C209.061 308.076 209.94 311.409 210.38 312.897C211.259 314.285 213.479 317.598 215.326 319.741C217.172 321.884 220.272 323.411 221.591 323.907C222.47 324.205 225.086 324.979 228.515 325.693C231.944 326.407 236.758 325.395 238.736 324.8Z" fill="#F95C55"/>
<path d="M250.934 305.475C252.82 307.183 253.574 308.549 253.574 307.866C253.323 306.5 252.82 303.563 252.82 302.743C252.82 301.719 251.688 300.011 251.311 299.328C251.009 298.782 249.928 297.734 249.425 297.279C249.047 296.71 247.614 295.298 244.898 294.206C242.484 292.566 238.108 292.384 236.222 292.498C234.461 292.726 230.337 293.386 227.923 294.206C224.905 295.23 220.001 301.377 219.623 305.134C219.246 308.89 220.755 314.354 222.264 316.745C223.773 319.135 226.414 320.501 228.3 321.526C230.186 322.55 237.353 323.575 241.503 322.209C245.652 320.843 247.161 319.818 249.047 318.794C250.934 317.769 251.311 316.745 251.688 315.72C251.99 314.901 250.053 316.062 249.047 316.745C248.042 317.086 245.577 317.564 243.766 316.745C243.012 316.403 241.503 316.062 239.994 313.33C238.787 311.144 239.491 308.776 239.994 307.866C240.748 307.069 242.559 305.27 243.766 304.451C245.275 303.426 249.047 303.768 250.934 305.475Z" fill="#743C32"/>
<path d="M214.881 386.825L210.788 383.584C212.152 384.355 216.415 385.436 222.554 383.584C230.228 381.268 238.925 378.721 241.227 374.784C243.529 370.847 247.11 367.374 247.366 359.038C247.622 350.701 249.413 347.228 256.063 341.902C262.714 336.576 277.294 325.229 282.154 323.145C287.781 323.145 288.549 320.366 294.943 325.229C300.059 329.119 312.252 336.421 317.709 339.586C320.181 340.667 325.229 344.449 325.638 350.933C326.048 357.417 329.39 369.535 331.01 374.784C331.777 376.019 334.693 378.999 340.218 381.036C345.743 383.074 353.093 385.745 356.077 386.825L331.01 510.638L286.007 542.522L241.227 510.638L214.881 386.825Z" fill="#FBD23F"/>
<path d="M275.913 364.5C271.002 371.54 268.684 397.679 270.731 401.924L284.309 516.016L306.352 401.924C307.375 399.609 307.119 373.763 306.352 370.752C305.585 367.742 301.492 362.879 297.399 358.248C294.125 354.543 290.067 351.918 288.447 351.069C286.315 352.613 280.824 357.461 275.913 364.5Z" fill="#FADF5C"/>
<path d="M307.541 347.98C305.306 346.866 302.377 347.516 301.192 347.98C300.768 348.522 300.023 349.838 300.43 350.766C300.938 351.927 302.462 351.463 305.255 351.463C307.49 351.463 307.71 353.785 307.541 354.946L308.811 360.751C309.827 362.144 312.265 364.837 313.891 364.466C314.907 363.073 312.367 358.429 311.097 353.553C309.827 348.677 310.335 349.373 307.541 347.98Z" fill="#C1A540"/>
<path d="M266.019 347.978C268.27 346.867 271.221 347.515 272.414 347.978C272.841 348.519 273.591 349.831 273.182 350.757C272.67 351.915 271.135 351.452 268.322 351.452C266.071 351.452 265.849 353.768 266.019 354.925L264.74 360.715C263.717 362.104 261.262 364.79 259.625 364.42C258.602 363.03 261.159 358.399 262.438 353.536C263.717 348.673 263.206 349.368 266.019 347.978Z" fill="#C1A540"/>
<path d="M257.268 229.641C255.266 243.588 264.698 259.683 273.339 271.187C279.208 276.798 280.704 280.606 300.182 278.383L316.969 266.73C321.702 262.729 326.261 257.066 330.442 252.722C332.538 250.543 332.964 245.011 333.885 242.195C333.885 242.195 339.802 223.082 347.091 209.985C354.381 196.888 369.024 171.446 369.024 171.446C372.495 166.398 376.183 158.914 379.721 154.857C383.26 150.801 390.726 137.295 391.177 132.232C392.131 121.511 389.603 110.622 390.652 99.7249C391.204 93.9938 389.361 88.0529 389.74 82.2921L383.173 50.6884C378.309 25.8905 381.568 59.0233 382.012 63.2255C383.678 78.9892 376.514 93.2668 371.255 107.721C368.334 115.751 364.675 124.386 359.661 131.56C353.552 140.299 346.01 147.083 338.298 154.554C322.169 170.18 299.845 178.265 280.918 190.293C266.267 199.604 259.509 214.032 257.268 229.641Z" fill="url(#paint9_linear_2074_825)"/>
<path d="M326.85 229.641C328.852 243.588 319.42 259.683 310.779 271.187C304.91 276.798 303.415 280.606 283.937 278.383L267.149 266.73C262.416 262.729 257.858 257.066 253.676 252.722C251.58 250.543 251.154 245.011 250.233 242.195C250.233 242.195 244.317 223.082 237.027 209.985C229.737 196.888 215.094 171.446 215.094 171.446C211.624 166.398 207.936 158.914 204.397 154.857C200.859 150.801 193.392 137.295 192.941 132.232C191.987 121.511 194.515 110.622 193.466 99.7249C192.914 93.9938 194.757 88.0529 194.378 82.2921L200.945 50.6884C205.81 25.8905 202.55 59.0233 202.106 63.2255C200.44 78.9892 207.604 93.2668 212.863 107.721C215.784 115.751 219.443 124.386 224.457 131.56C230.566 140.299 238.108 147.083 245.82 154.554C261.95 170.18 284.273 178.265 303.2 190.293C317.851 199.604 324.609 214.032 326.85 229.641Z" fill="url(#paint10_linear_2074_825)"/>
<path d="M246.668 237.274C249.414 252.81 265.178 267.363 278.484 277.218C286.748 281.55 293.603 282.448 313.716 274.462L320.676 269.343C327.204 264.559 333.144 252.795 336.109 246.924L336.123 246.897C337.607 243.957 336.123 232.856 336.123 229.571C336.123 229.571 332.898 206.506 336.123 190.361C339.347 174.216 346.127 142.714 346.127 142.714C348.079 136.301 349.409 127.213 351.782 121.844C354.154 116.475 357.425 99.8412 356.131 94.2797C353.393 82.506 346.861 71.5522 344.163 59.5614C342.744 53.2551 338.683 47.4123 337.068 41.124L318.936 9.11163C305.017 -16.0896 320.138 18.5139 322.089 22.8938C329.407 39.324 326.732 56.6993 326.162 73.7165C325.846 83.1693 324.951 93.4845 322.089 102.622C318.602 113.752 312.892 123.198 307.241 133.43C295.422 154.829 274.314 169.921 258.231 188.266C245.782 202.466 243.595 219.886 246.668 237.274Z" fill="url(#paint11_linear_2074_825)"/>
<path d="M314.315 229.179C312.765 237.946 303.87 246.157 296.362 251.718C291.699 254.162 290.04 256.225 278.691 251.718L270.837 241.942C268.764 238.752 267.126 234.585 265.455 231.277C264.618 229.618 265.455 226.2 265.455 224.347C265.455 224.347 265.658 211.818 263.839 202.708C262.019 193.598 258.194 175.823 258.194 175.823C257.092 172.204 256.342 167.076 255.003 164.046C253.664 161.017 251.819 151.631 252.549 148.493C254.093 141.85 257.779 135.669 259.302 128.903C260.102 125.344 262.394 122.047 263.305 118.499L273.537 100.436C281.391 86.2157 272.858 105.741 271.757 108.213C267.628 117.484 269.138 127.288 269.459 136.89C269.638 142.224 270.142 148.044 271.757 153.2C273.725 159.48 276.947 164.811 280.135 170.584C286.804 182.659 298.715 191.175 307.79 201.526C314.815 209.539 316.049 219.368 314.315 229.179Z" fill="url(#paint12_linear_2074_825)"/>
<path d="M476.962 468.92C469.007 464.722 457.706 457.928 461.349 452.269C464.992 446.611 474.395 445.426 482.35 449.624C490.305 453.821 496.412 460.152 492.769 465.81C489.126 471.469 484.918 473.117 476.962 468.92Z" fill="#1D1D1D"/>
<path d="M87.6354 485.091C95.5908 480.894 106.892 474.1 103.249 468.441C99.6056 462.782 90.2031 461.598 82.2477 465.795C74.2922 469.993 68.1852 476.323 71.8282 481.982C75.4713 487.641 79.6799 489.289 87.6354 485.091Z" fill="#1D1D1D"/>
<defs>
<radialGradient id="paint0_radial_2074_825" cx="0" cy="0" r="1" gradientUnits="userSpaceOnUse" gradientTransform="translate(369.894 906.693) rotate(66.2602) scale(61.1448 81.5445)">
<stop stop-color="#FBD23F"/>
<stop offset="1" stop-color="#F9753B"/>
</radialGradient>
<radialGradient id="paint1_radial_2074_825" cx="0" cy="0" r="1" gradientUnits="userSpaceOnUse" gradientTransform="translate(210.099 903.408) rotate(82.772) scale(60.3302 82.6454)">
<stop stop-color="#FBD23F"/>
<stop offset="1" stop-color="#F9753B"/>
</radialGradient>
<radialGradient id="paint2_radial_2074_825" cx="0" cy="0" r="1" gradientUnits="userSpaceOnUse" gradientTransform="translate(152.327 629.702) rotate(-157.704) scale(164.635 92.2495)">
<stop offset="0.1268" stop-color="#FBC83D"/>
<stop offset="1" stop-color="#F9753B"/>
</radialGradient>
<radialGradient id="paint3_radial_2074_825" cx="0" cy="0" r="1" gradientUnits="userSpaceOnUse" gradientTransform="translate(430.211 630.977) rotate(-31.321) scale(175.328 98.2411)">
<stop stop-color="#FBC83D"/>
<stop offset="1" stop-color="#F9753B"/>
</radialGradient>
<radialGradient id="paint4_radial_2074_825" cx="0" cy="0" r="1" gradientUnits="userSpaceOnUse" gradientTransform="translate(287.254 291.265) rotate(95.2672) scale(213.141 256.005)">
<stop stop-color="#FBC83D"/>
<stop offset="1" stop-color="#DF5D20"/>
</radialGradient>
<linearGradient id="paint5_linear_2074_825" x1="399.503" y1="337.317" x2="382.676" y2="224.308" gradientUnits="userSpaceOnUse">
<stop offset="0.569385" stop-color="#F9753B"/>
<stop offset="1" stop-color="#D77145"/>
</linearGradient>
<linearGradient id="paint6_linear_2074_825" x1="341.879" y1="338.428" x2="334.159" y2="261.675" gradientUnits="userSpaceOnUse">
<stop offset="0.76081" stop-color="#C42C22"/>
<stop offset="0.993711" stop-color="#EBB099"/>
</linearGradient>
<linearGradient id="paint7_linear_2074_825" x1="187.556" y1="333.451" x2="203.087" y2="229.138" gradientUnits="userSpaceOnUse">
<stop offset="0.569385" stop-color="#F9753B"/>
<stop offset="1" stop-color="#D77145"/>
</linearGradient>
<linearGradient id="paint8_linear_2074_825" x1="240.745" y1="334.476" x2="247.872" y2="263.629" gradientUnits="userSpaceOnUse">
<stop offset="0.76081" stop-color="#C42C22"/>
<stop offset="0.993711" stop-color="#EBB099"/>
</linearGradient>
<linearGradient id="paint9_linear_2074_825" x1="370.291" y1="38.7407" x2="303.116" y2="433.22" gradientUnits="userSpaceOnUse">
<stop stop-color="#F47C39"/>
<stop offset="1" stop-color="#B0150C"/>
</linearGradient>
<linearGradient id="paint10_linear_2074_825" x1="213.827" y1="38.7407" x2="274.355" y2="385.695" gradientUnits="userSpaceOnUse">
<stop stop-color="#F47C39"/>
<stop offset="1" stop-color="#B0150C"/>
</linearGradient>
<linearGradient id="paint11_linear_2074_825" x1="300.925" y1="0" x2="300.925" y2="340.982" gradientUnits="userSpaceOnUse">
<stop stop-color="#FFB762"/>
<stop offset="1" stop-color="#FF730E" stop-opacity="0.99"/>
</linearGradient>
<linearGradient id="paint12_linear_2074_825" x1="283.699" y1="95.2944" x2="284.259" y2="296.368" gradientUnits="userSpaceOnUse">
<stop stop-color="#FFB762"/>
<stop offset="1" stop-color="#FF730E" stop-opacity="0.99"/>
</linearGradient>
</defs>
</svg>
