<svg width="1189" height="178" viewBox="0 0 1189 178" fill="none" xmlns="http://www.w3.org/2000/svg">
<mask id="path-1-outside-1_2074_281" maskUnits="userSpaceOnUse" x="0" y="0" width="1189" height="178" fill="black">
<rect fill="white" width="1189" height="178"/>
<path d="M124.328 2.39999H156.568V176H124.328V2.39999ZM34.552 176H2.312V2.39999H34.552V176ZM126.808 101.6H31.824V74.072H126.808V101.6ZM203.085 176V2.39999H235.325V176H203.085ZM282.281 176V2.39999H308.817L384.705 129.128H370.817L445.465 2.39999H472.001L472.249 176H441.745L441.497 50.264H447.945L384.457 156.16H370.073L305.593 50.264H313.033V176H282.281ZM494.588 176L572.708 2.39999H604.452L682.82 176H649.092L581.884 19.512H594.78L527.82 176H494.588ZM530.548 135.824L539.228 110.528H632.972L641.652 135.824H530.548ZM704.898 176V2.39999H776.322C791.698 2.39999 804.842 4.87999 815.754 9.84C826.831 14.8 835.346 21.9093 841.298 31.168C847.25 40.4267 850.226 51.4213 850.226 64.152C850.226 76.8827 847.25 87.8773 841.298 97.136C835.346 106.229 826.831 113.256 815.754 118.216C804.842 123.011 791.698 125.408 776.322 125.408H722.754L737.138 110.776V176H704.898ZM818.482 176L774.586 113.008H809.058L853.202 176H818.482ZM737.138 114.248L722.754 98.872H774.834C789.053 98.872 799.717 95.8133 806.826 89.696C814.101 83.5787 817.738 75.064 817.738 64.152C817.738 53.0747 814.101 44.56 806.826 38.608C799.717 32.656 789.053 29.68 774.834 29.68H722.754L737.138 13.808V114.248ZM886.296 176V2.39999H957.72C973.096 2.39999 986.24 4.87999 997.152 9.84C1008.23 14.8 1016.74 21.9093 1022.7 31.168C1028.65 40.4267 1031.62 51.4213 1031.62 64.152C1031.62 76.8827 1028.65 87.8773 1022.7 97.136C1016.74 106.395 1008.23 113.504 997.152 118.464C986.24 123.424 973.096 125.904 957.72 125.904H904.152L918.536 110.776V176H886.296ZM918.536 114.248L904.152 98.624H956.232C970.451 98.624 981.115 95.648 988.224 89.696C995.499 83.5787 999.136 75.064 999.136 64.152C999.136 53.0747 995.499 44.56 988.224 38.608C981.115 32.656 970.451 29.68 956.232 29.68H904.152L918.536 13.808V114.248ZM1063.82 176V2.39999H1096.06V148.72H1186.83V176H1063.82Z"/>
</mask>
<path d="M124.328 2.39999V0.399986H122.328V2.39999H124.328ZM156.568 2.39999H158.568V0.399986H156.568V2.39999ZM156.568 176V178H158.568V176H156.568ZM124.328 176H122.328V178H124.328V176ZM34.552 176V178H36.552V176H34.552ZM2.312 176H0.312V178H2.312V176ZM2.312 2.39999V0.399986H0.312V2.39999H2.312ZM34.552 2.39999H36.552V0.399986H34.552V2.39999ZM126.808 101.6V103.6H128.808V101.6H126.808ZM31.824 101.6H29.824V103.6H31.824V101.6ZM31.824 74.072V72.072H29.824V74.072H31.824ZM126.808 74.072H128.808V72.072H126.808V74.072ZM124.328 2.39999V4.39999H156.568V2.39999V0.399986H124.328V2.39999ZM156.568 2.39999H154.568V176H156.568H158.568V2.39999H156.568ZM156.568 176V174H124.328V176V178H156.568V176ZM124.328 176H126.328V2.39999H124.328H122.328V176H124.328ZM34.552 176V174H2.312V176V178H34.552V176ZM2.312 176H4.312V2.39999H2.312H0.312V176H2.312ZM2.312 2.39999V4.39999H34.552V2.39999V0.399986H2.312V2.39999ZM34.552 2.39999H32.552V176H34.552H36.552V2.39999H34.552ZM126.808 101.6V99.6H31.824V101.6V103.6H126.808V101.6ZM31.824 101.6H33.824V74.072H31.824H29.824V101.6H31.824ZM31.824 74.072V76.072H126.808V74.072V72.072H31.824V74.072ZM126.808 74.072H124.808V101.6H126.808H128.808V74.072H126.808ZM203.085 176H201.085V178H203.085V176ZM203.085 2.39999V0.399986H201.085V2.39999H203.085ZM235.325 2.39999H237.325V0.399986H235.325V2.39999ZM235.325 176V178H237.325V176H235.325ZM203.085 176H205.085V2.39999H203.085H201.085V176H203.085ZM203.085 2.39999V4.39999H235.325V2.39999V0.399986H203.085V2.39999ZM235.325 2.39999H233.325V176H235.325H237.325V2.39999H235.325ZM235.325 176V174H203.085V176V178H235.325V176ZM282.281 176H280.281V178H282.281V176ZM282.281 2.39999V0.399986H280.281V2.39999H282.281ZM308.817 2.39999L310.533 1.37247L309.95 0.399986H308.817V2.39999ZM384.705 129.128V131.128H388.234L386.421 128.1L384.705 129.128ZM370.817 129.128L369.094 128.113L367.318 131.128H370.817V129.128ZM445.465 2.39999V0.399986H444.322L443.741 1.38492L445.465 2.39999ZM472.001 2.39999L474.001 2.39713L473.998 0.399986H472.001V2.39999ZM472.249 176V178H474.252L474.249 175.997L472.249 176ZM441.745 176L439.745 176.004L439.749 178H441.745V176ZM441.497 50.264V48.264H439.493L439.497 50.2679L441.497 50.264ZM447.945 50.264L449.66 51.2924L451.476 48.264H447.945V50.264ZM384.457 156.16V158.16H385.59L386.172 157.188L384.457 156.16ZM370.073 156.16L368.365 157.2L368.949 158.16H370.073V156.16ZM305.593 50.264V48.264H302.033L303.885 51.3041L305.593 50.264ZM313.033 50.264H315.033V48.264H313.033V50.264ZM313.033 176V178H315.033V176H313.033ZM282.281 176H284.281V2.39999H282.281H280.281V176H282.281ZM282.281 2.39999V4.39999H308.817V2.39999V0.399986H282.281V2.39999ZM308.817 2.39999L307.101 3.4275L382.989 130.156L384.705 129.128L386.421 128.1L310.533 1.37247L308.817 2.39999ZM384.705 129.128V127.128H370.817V129.128V131.128H384.705V129.128ZM370.817 129.128L372.54 130.143L447.188 3.41506L445.465 2.39999L443.741 1.38492L369.094 128.113L370.817 129.128ZM445.465 2.39999V4.39999H472.001V2.39999V0.399986H445.465V2.39999ZM472.001 2.39999L470.001 2.40285L470.249 176.003L472.249 176L474.249 175.997L474.001 2.39713L472.001 2.39999ZM472.249 176V174H441.745V176V178H472.249V176ZM441.745 176L443.745 175.996L443.497 50.26L441.497 50.264L439.497 50.2679L439.745 176.004L441.745 176ZM441.497 50.264V52.264H447.945V50.264V48.264H441.497V50.264ZM447.945 50.264L446.229 49.2356L382.741 155.132L384.457 156.16L386.172 157.188L449.66 51.2924L447.945 50.264ZM384.457 156.16V154.16H370.073V156.16V158.16H384.457V156.16ZM370.073 156.16L371.781 155.12L307.301 49.2238L305.593 50.264L303.885 51.3041L368.365 157.2L370.073 156.16ZM305.593 50.264V52.264H313.033V50.264V48.264H305.593V50.264ZM313.033 50.264H311.033V176H313.033H315.033V50.264H313.033ZM313.033 176V174H282.281V176V178H313.033V176ZM494.588 176L492.764 175.179L491.495 178H494.588V176ZM572.708 2.39999V0.399986H571.415L570.884 1.57926L572.708 2.39999ZM604.452 2.39999L606.275 1.5771L605.744 0.399986H604.452V2.39999ZM682.82 176V178H685.917L684.643 175.177L682.82 176ZM649.092 176L647.254 176.789L647.774 178H649.092V176ZM581.884 19.512V17.512H578.849L580.046 20.3012L581.884 19.512ZM594.78 19.512L596.619 20.2988L597.811 17.512H594.78V19.512ZM527.82 176V178H529.14L529.659 176.787L527.82 176ZM530.548 135.824L528.656 135.175L527.747 137.824H530.548V135.824ZM539.228 110.528V108.528H537.8L537.336 109.879L539.228 110.528ZM632.972 110.528L634.864 109.879L634.4 108.528H632.972V110.528ZM641.652 135.824V137.824H644.453L643.544 135.175L641.652 135.824ZM494.588 176L496.412 176.821L574.532 3.22072L572.708 2.39999L570.884 1.57926L492.764 175.179L494.588 176ZM572.708 2.39999V4.39999H604.452V2.39999V0.399986H572.708V2.39999ZM604.452 2.39999L602.629 3.22289L680.997 176.823L682.82 176L684.643 175.177L606.275 1.5771L604.452 2.39999ZM682.82 176V174H649.092V176V178H682.82V176ZM649.092 176L650.93 175.211L583.722 18.7227L581.884 19.512L580.046 20.3012L647.254 176.789L649.092 176ZM581.884 19.512V21.512H594.78V19.512V17.512H581.884V19.512ZM594.78 19.512L592.941 18.7252L525.981 175.213L527.82 176L529.659 176.787L596.619 20.2988L594.78 19.512ZM527.82 176V174H494.588V176V178H527.82V176ZM530.548 135.824L532.44 136.473L541.12 111.177L539.228 110.528L537.336 109.879L528.656 135.175L530.548 135.824ZM539.228 110.528V112.528H632.972V110.528V108.528H539.228V110.528ZM632.972 110.528L631.08 111.177L639.76 136.473L641.652 135.824L643.544 135.175L634.864 109.879L632.972 110.528ZM641.652 135.824V133.824H530.548V135.824V137.824H641.652V135.824ZM704.898 176H702.898V178H704.898V176ZM704.898 2.39999V0.399986H702.898V2.39999H704.898ZM815.754 9.84L814.926 11.6608L814.937 11.6654L815.754 9.84ZM841.298 31.168L842.98 30.0865L841.298 31.168ZM841.298 97.136L842.971 98.2313L842.976 98.2244L842.98 98.2175L841.298 97.136ZM815.754 118.216L816.559 120.047L816.571 120.041L815.754 118.216ZM722.754 125.408L721.328 124.006L717.983 127.408H722.754V125.408ZM737.138 110.776H739.138V105.889L735.712 109.374L737.138 110.776ZM737.138 176V178H739.138V176H737.138ZM818.482 176L816.841 177.143L817.438 178H818.482V176ZM774.586 113.008V111.008H770.755L772.945 114.151L774.586 113.008ZM809.058 113.008L810.696 111.86L810.099 111.008H809.058V113.008ZM853.202 176V178H857.046L854.84 174.852L853.202 176ZM737.138 114.248L735.677 115.614L739.138 119.314V114.248H737.138ZM722.754 98.872V96.872H718.144L721.293 100.238L722.754 98.872ZM806.826 89.696L805.539 88.1653L805.53 88.1726L805.521 88.18L806.826 89.696ZM806.826 38.608L805.542 40.1415L805.551 40.1488L805.559 40.1559L806.826 38.608ZM722.754 29.68L721.272 28.337L718.242 31.68H722.754V29.68ZM737.138 13.808H739.138V8.62277L735.656 12.465L737.138 13.808ZM704.898 176H706.898V2.39999H704.898H702.898V176H704.898ZM704.898 2.39999V4.39999H776.322V2.39999V0.399986H704.898V2.39999ZM776.322 2.39999V4.39999C791.49 4.39999 804.337 6.84727 814.926 11.6607L815.754 9.84L816.582 8.01926C805.347 2.9127 791.906 0.399986 776.322 0.399986V2.39999ZM815.754 9.84L814.937 11.6654C825.697 16.4836 833.895 23.3507 839.616 32.2495L841.298 31.168L842.98 30.0865C836.797 20.4679 827.965 13.1164 816.571 8.01463L815.754 9.84ZM841.298 31.168L839.616 32.2495C845.329 41.1375 848.226 51.7434 848.226 64.152H850.226H852.226C852.226 51.0993 849.171 39.7158 842.98 30.0865L841.298 31.168ZM850.226 64.152H848.226C848.226 76.5606 845.329 87.1665 839.616 96.0545L841.298 97.136L842.98 98.2175C849.171 88.5882 852.226 77.2047 852.226 64.152H850.226ZM841.298 97.136L839.625 96.0407C833.906 104.777 825.707 111.568 814.937 116.391L815.754 118.216L816.571 120.041C827.956 114.944 836.786 107.681 842.971 98.2313L841.298 97.136ZM815.754 118.216L814.949 116.385C804.353 121.041 791.498 123.408 776.322 123.408V125.408V127.408C791.898 127.408 805.331 124.98 816.558 120.047L815.754 118.216ZM776.322 125.408V123.408H722.754V125.408V127.408H776.322V125.408ZM722.754 125.408L724.18 126.81L738.564 112.178L737.138 110.776L735.712 109.374L721.328 124.006L722.754 125.408ZM737.138 110.776H735.138V176H737.138H739.138V110.776H737.138ZM737.138 176V174H704.898V176V178H737.138V176ZM818.482 176L820.123 174.857L776.227 111.865L774.586 113.008L772.945 114.151L816.841 177.143L818.482 176ZM774.586 113.008V115.008H809.058V113.008V111.008H774.586V113.008ZM809.058 113.008L807.42 114.156L851.564 177.148L853.202 176L854.84 174.852L810.696 111.86L809.058 113.008ZM853.202 176V174H818.482V176V178H853.202V176ZM737.138 114.248L738.599 112.882L724.214 97.5057L722.754 98.872L721.293 100.238L735.677 115.614L737.138 114.248ZM722.754 98.872V100.872H774.834V98.872V96.872H722.754V98.872ZM774.834 98.872V100.872C789.293 100.872 800.511 97.7679 808.13 91.212L806.826 89.696L805.521 88.18C798.922 93.8587 788.812 96.872 774.834 96.872V98.872ZM806.826 89.696L808.113 91.2267C815.909 84.6707 819.738 75.5568 819.738 64.152H817.738H815.738C815.738 74.5712 812.292 82.4866 805.539 88.1653L806.826 89.696ZM817.738 64.152H819.738C819.738 52.594 815.916 43.4615 808.092 37.0601L806.826 38.608L805.559 40.1559C812.285 45.6585 815.738 53.5553 815.738 64.152H817.738ZM806.826 38.608L808.11 37.0745C800.492 30.6968 789.283 27.68 774.834 27.68V29.68V31.68C788.822 31.68 798.941 34.6152 805.542 40.1415L806.826 38.608ZM774.834 29.68V27.68H722.754V29.68V31.68H774.834V29.68ZM722.754 29.68L724.236 31.023L738.62 15.151L737.138 13.808L735.656 12.465L721.272 28.337L722.754 29.68ZM737.138 13.808H735.138V114.248H737.138H739.138V13.808H737.138ZM886.296 176H884.296V178H886.296V176ZM886.296 2.39999V0.399986H884.296V2.39999H886.296ZM997.152 9.84L996.325 11.6608L996.335 11.6654L997.152 9.84ZM1022.7 31.168L1024.38 30.0865L1022.7 31.168ZM1022.7 97.136L1024.38 98.2175L1022.7 97.136ZM997.152 118.464L996.335 116.639L996.325 116.643L997.152 118.464ZM904.152 125.904L902.703 124.526L899.491 127.904H904.152V125.904ZM918.536 110.776H920.536V105.77L917.087 109.398L918.536 110.776ZM918.536 176V178H920.536V176H918.536ZM918.536 114.248L917.065 115.603L920.536 119.373V114.248H918.536ZM904.152 98.624V96.624H899.593L902.681 99.9786L904.152 98.624ZM988.224 89.696L989.508 91.2295L989.512 91.2267L988.224 89.696ZM988.224 38.608L986.94 40.1415L986.949 40.1488L986.958 40.1559L988.224 38.608ZM904.152 29.68L902.67 28.337L899.641 31.68H904.152V29.68ZM918.536 13.808H920.536V8.62277L917.054 12.465L918.536 13.808ZM886.296 176H888.296V2.39999H886.296H884.296V176H886.296ZM886.296 2.39999V4.39999H957.72V2.39999V0.399986H886.296V2.39999ZM957.72 2.39999V4.39999C972.889 4.39999 985.735 6.84727 996.325 11.6607L997.152 9.84L997.98 8.01926C986.746 2.9127 973.304 0.399986 957.72 0.399986V2.39999ZM997.152 9.84L996.335 11.6654C1007.1 16.4836 1015.29 23.3507 1021.01 32.2495L1022.7 31.168L1024.38 30.0865C1018.2 20.4679 1009.36 13.1164 997.97 8.01463L997.152 9.84ZM1022.7 31.168L1021.01 32.2495C1026.73 41.1375 1029.62 51.7434 1029.62 64.152H1031.62H1033.62C1033.62 51.0993 1030.57 39.7158 1024.38 30.0865L1022.7 31.168ZM1031.62 64.152H1029.62C1029.62 76.5606 1026.73 87.1665 1021.01 96.0545L1022.7 97.136L1024.38 98.2175C1030.57 88.5882 1033.62 77.2047 1033.62 64.152H1031.62ZM1022.7 97.136L1021.01 96.0545C1015.29 104.953 1007.1 111.82 996.335 116.639L997.152 118.464L997.97 120.289C1009.36 115.188 1018.2 107.836 1024.38 98.2175L1022.7 97.136ZM997.152 118.464L996.325 116.643C985.735 121.457 972.889 123.904 957.72 123.904V125.904V127.904C973.304 127.904 986.746 125.391 997.98 120.285L997.152 118.464ZM957.72 125.904V123.904H904.152V125.904V127.904H957.72V125.904ZM904.152 125.904L905.602 127.282L919.986 112.154L918.536 110.776L917.087 109.398L902.703 124.526L904.152 125.904ZM918.536 110.776H916.536V176H918.536H920.536V110.776H918.536ZM918.536 176V174H886.296V176V178H918.536V176ZM918.536 114.248L920.008 112.893L905.624 97.2694L904.152 98.624L902.681 99.9786L917.065 115.603L918.536 114.248ZM904.152 98.624V100.624H956.232V98.624V96.624H904.152V98.624ZM956.232 98.624V100.624C970.681 100.624 981.89 97.6072 989.508 91.2295L988.224 89.696L986.94 88.1625C980.34 93.6888 970.221 96.624 956.232 96.624V98.624ZM988.224 89.696L989.512 91.2267C997.308 84.6707 1001.14 75.5568 1001.14 64.152H999.136H997.136C997.136 74.5712 993.69 82.4866 986.937 88.1653L988.224 89.696ZM999.136 64.152H1001.14C1001.14 52.594 997.315 43.4615 989.491 37.0601L988.224 38.608L986.958 40.1559C993.683 45.6585 997.136 53.5553 997.136 64.152H999.136ZM988.224 38.608L989.508 37.0745C981.89 30.6968 970.681 27.68 956.232 27.68V29.68V31.68C970.221 31.68 980.34 34.6152 986.94 40.1415L988.224 38.608ZM956.232 29.68V27.68H904.152V29.68V31.68H956.232V29.68ZM904.152 29.68L905.634 31.023L920.018 15.151L918.536 13.808L917.054 12.465L902.67 28.337L904.152 29.68ZM918.536 13.808H916.536V114.248H918.536H920.536V13.808H918.536ZM1063.82 176H1061.82V178H1063.82V176ZM1063.82 2.39999V0.399986H1061.82V2.39999H1063.82ZM1096.06 2.39999H1098.06V0.399986H1096.06V2.39999ZM1096.06 148.72H1094.06V150.72H1096.06V148.72ZM1186.83 148.72H1188.83V146.72H1186.83V148.72ZM1186.83 176V178H1188.83V176H1186.83ZM1063.82 176H1065.82V2.39999H1063.82H1061.82V176H1063.82ZM1063.82 2.39999V4.39999H1096.06V2.39999V0.399986H1063.82V2.39999ZM1096.06 2.39999H1094.06V148.72H1096.06H1098.06V2.39999H1096.06ZM1096.06 148.72V150.72H1186.83V148.72V146.72H1096.06V148.72ZM1186.83 148.72H1184.83V176H1186.83H1188.83V148.72H1186.83ZM1186.83 176V174H1063.82V176V178H1186.83V176Z" fill="url(#paint0_linear_2074_281)" mask="url(#path-1-outside-1_2074_281)"/>
<defs>
<linearGradient id="paint0_linear_2074_281" x1="541.5" y1="-3.5" x2="541.5" y2="176" gradientUnits="userSpaceOnUse">
<stop offset="0.504808" stop-color="white"/>
<stop offset="0.801807" stop-color="#D9D9D9"/>
</linearGradient>
</defs>
</svg>
