<svg width="263" height="227" viewBox="0 0 263 227" fill="none" xmlns="http://www.w3.org/2000/svg">
<path d="M239.087 158.402V75.2836L262.057 62.2388V172.036L166.676 226.963V199.949" fill="#DE754C"/>
<path d="M73.7598 58.3315L118.43 84.6315L118.45 84.6199L73.7598 58.3315Z" fill="#C6C6C6"/>
<path fill-rule="evenodd" clip-rule="evenodd" d="M73.7584 58.3313L67.4375 54.61L71.1219 52.4859L162.251 0L257.063 54.6099L206.072 84.6311L162.251 58.4651L122.073 82.4559L118.449 84.6198L73.7584 58.3313Z" fill="#D9D9D6"/>
<path d="M157.815 226.965L88.8354 187.24L62.4355 172.036V145.506L157.815 199.98V226.965Z" fill="#9E2A2B"/>
<path fill-rule="evenodd" clip-rule="evenodd" d="M157.815 165.018L157.814 165.017L153.57 162.603L115.224 140.793V92.2194L92.1099 79.0908L88.8356 77.2316L62.4359 62.238V62.2437V66.5033V66.5147L88.8356 81.5083V85.7677L62.4359 70.7742V83.5981L62.4359 87.8576V87.869L88.8355 102.863V107.122L62.4359 92.1284V104.952V109.212V109.223L88.8356 124.217V128.476L62.4359 113.482V137.391L62.471 137.329L115.224 167.451L157.815 191.772V165.018Z" fill="#9E2A2B"/>
<path fill-rule="evenodd" clip-rule="evenodd" d="M209.27 140.792V92.218L232.239 79.1729V154.434L166.676 192.029V175.62V164.819L170.92 162.603L209.27 140.792Z" fill="#DE754C"/>
</svg>
