<svg width="263" height="227" viewBox="0 0 263 227" fill="none" xmlns="http://www.w3.org/2000/svg">
<path d="M73.7598 58.3311L118.43 84.631L118.45 84.6194L73.7598 58.3311Z" fill="#C6C6C6"/>
<path fill-rule="evenodd" clip-rule="evenodd" d="M118.449 84.6198L151.348 103.97C150.916 105.194 150.696 106.483 150.696 107.782C150.691 110.523 151.659 113.178 153.428 115.272C155.197 117.367 157.652 118.765 160.355 119.219C163.059 119.672 165.836 119.151 168.191 117.748C170.547 116.346 172.328 114.153 173.217 111.559C174.107 108.966 174.047 106.142 173.048 103.589C172.05 101.035 170.177 98.9197 167.764 97.6182C165.352 96.3167 162.555 95.9139 159.873 96.4816C157.191 97.0493 154.798 98.5506 153.119 100.718L122.073 82.4559L118.449 84.6198ZM155.115 106.185C154.999 106.709 154.939 107.245 154.939 107.782C154.939 109.652 155.655 111.452 156.941 112.81C158.226 114.168 159.983 114.983 161.851 115.086C163.718 115.188 165.554 114.572 166.981 113.363C168.408 112.154 169.318 110.445 169.524 108.586C169.729 106.727 169.215 104.86 168.086 103.368C166.957 101.877 165.3 100.874 163.456 100.567C161.611 100.26 159.718 100.671 158.167 101.715C156.616 102.76 155.524 104.36 155.115 106.185Z" fill="#D9D9D6"/>
<path d="M157.814 165.016V126.506L153.57 124.11L147.415 120.636L147.039 120.424L142.795 118.027V122.899L147.039 125.298L153.57 128.985V162.602L157.814 165.016Z" fill="#9E2A2B"/>
<path d="M170.92 162.603V128.985L177.428 125.309L177.45 125.299L181.672 122.912V92.5206L177.532 90.1799V90.1746H177.523L177.45 90.134V90.1417L170.979 86.4883L166.735 84.0919V88.9535L170.979 91.3502L177.45 95.0064V120.424L177.428 120.434L170.92 124.11L166.676 126.507V164.819L170.92 162.603Z" fill="#DE754C"/>
</svg>
