<svg width="263" height="227" viewBox="0 0 263 227" fill="none" xmlns="http://www.w3.org/2000/svg">
<path d="M73.7598 58.3311L118.43 84.631L118.45 84.6194L73.7598 58.3311Z" fill="#C6C6C6"/>
<path fill-rule="evenodd" clip-rule="evenodd" d="M115.224 140.793V167.451L62.471 137.329L62.4359 137.39V113.482L88.8356 128.476V124.216L62.4359 109.223V109.211L44.0827 98.7848C42.2459 101.076 39.6134 102.591 36.7096 103.028C33.8059 103.465 30.844 102.792 28.4141 101.143C25.9843 99.4945 24.2648 96.9907 23.5984 94.1309C22.9319 91.271 23.3673 88.265 24.8179 85.7118C26.2684 83.1586 28.6276 81.2456 31.4255 80.354C34.2233 79.4624 37.2544 79.6575 39.9148 80.9006C42.5752 82.1437 44.6696 84.3434 45.7808 87.0615C46.892 89.7797 46.9383 92.8167 45.9106 95.5674L62.4359 104.952V92.1279L88.8355 107.121V102.862L62.4359 87.8685V87.8571L33.1037 71.1979C31.2625 73.4866 28.6265 74.9976 25.7211 75.4298C22.8157 75.8621 19.8541 75.1838 17.4264 73.5303C14.9986 71.8767 13.283 69.3691 12.6213 66.5073C11.9595 63.6454 12.4003 60.6392 13.8558 58.0878C15.3112 55.5363 17.6745 53.6269 20.4748 52.7399C23.275 51.8528 26.3067 52.0534 28.9657 53.3015C31.6248 54.5497 33.7159 56.7538 34.8226 59.4747C35.9294 62.1956 35.9703 65.2336 34.9374 67.9834L62.4359 83.5976V70.7737L88.8356 85.7672V81.5078L62.4359 66.5143V66.5028L20.8749 42.8963C19.0352 45.1908 16.3985 46.708 13.4902 47.1454C10.5819 47.5828 7.61561 46.9083 5.18239 45.2563C2.74916 43.6044 1.02771 41.0963 0.361061 38.2319C-0.305584 35.3674 0.131534 32.357 1.58531 29.8004C3.03908 27.2438 5.40276 25.3289 8.20531 24.4372C11.0079 23.5455 14.0435 23.7425 16.7073 24.989C19.3711 26.2354 21.4675 28.4398 22.5786 31.1628C23.6897 33.8858 23.7341 36.9275 22.7028 39.6818L62.4359 62.2432V62.2376L88.8356 77.2311L92.1099 79.0903L115.224 92.2189V140.793ZM18.9103 37.5293C18.429 39.3387 17.2772 40.8973 15.6888 41.8886C14.1003 42.88 12.1942 43.2298 10.3573 42.8671C8.52033 42.5044 6.89021 41.4563 5.79775 39.9357C4.7053 38.415 4.23236 36.5356 4.47492 34.679C4.71748 32.8224 5.65737 31.1276 7.10383 29.9386C8.55029 28.7497 10.3949 28.1556 12.2634 28.277C14.1319 28.3984 15.8842 29.2261 17.1646 30.5923C18.4451 31.9584 19.1578 33.7606 19.158 35.633C19.1581 36.2731 19.0748 36.9106 18.9103 37.5293ZM31.1477 65.8307C30.6614 67.6377 29.506 69.1921 27.916 70.1786C26.3259 71.1652 24.4202 71.5102 22.5852 71.1436C20.7502 70.777 19.1233 69.7262 18.0344 68.2044C16.9455 66.6826 16.4761 64.8036 16.7213 62.9485C16.9666 61.0934 17.9082 59.401 19.3552 58.2145C20.8022 57.0279 22.6463 56.4361 24.5135 56.559C26.3807 56.6819 28.1313 57.5103 29.4103 58.8762C30.6893 60.2421 31.401 62.0433 31.4011 63.9146C31.4012 64.5616 31.316 65.2059 31.1477 65.8307ZM42.1181 93.4148C41.6343 95.2215 40.4813 96.7765 38.893 97.7642C37.3047 98.752 35.4002 99.0985 33.5658 98.7334C31.7314 98.3684 30.1046 97.3191 29.0154 95.7986C27.9263 94.2781 27.4564 92.4001 27.7012 90.5459C27.9459 88.6916 28.8869 86.9999 30.3333 85.814C31.7796 84.6281 33.6229 84.0368 35.4892 84.1602C37.3555 84.2836 39.105 85.1124 40.3826 86.4784C41.6602 87.8444 42.3703 89.6453 42.3687 91.5157C42.3681 92.1569 42.2839 92.7953 42.1181 93.4148Z" fill="#9E2A2B"/>
</svg>
