<svg width="555" height="914" viewBox="0 0 555 914" fill="none" xmlns="http://www.w3.org/2000/svg">
<path d="M247.717 541.75L206.035 507.25L133.391 408.064L128.627 382.729L182.813 375.182H351.92L411.465 382.729L404.32 405.908L344.775 507.25L273.916 541.75H247.717Z" fill="#E88029"/>
<path d="M318.572 961.239C314.693 957.009 313.583 907.281 313.583 907.281L378.264 893.43C378.264 893.43 386.855 918.025 388.242 927.151C389.629 936.276 387.59 946.465 388.368 953.437C389.146 960.409 354.104 968.139 344.158 967.378C334.212 966.617 322.451 965.468 318.572 961.239Z" fill="url(#paint0_radial_2083_1241)"/>
<path d="M143.936 949.824C141.414 944.823 142.274 908.093 142.274 908.093L221.138 898.507C221.138 898.507 222.326 924.28 221.029 933.417C219.731 942.553 214.819 951.904 213.556 958.818C212.293 965.732 170.423 974.089 165.446 969.057C160.469 964.025 146.458 954.825 143.936 949.824Z" fill="url(#paint1_radial_2083_1241)"/>
<path d="M119.694 894.831C119.098 889.979 128.03 811.816 128.03 811.816H396.577C396.577 811.816 411.463 911.002 411.463 914.237C411.463 917.471 387.645 928.791 381.096 930.408C374.546 932.025 324.528 935.26 318.573 934.721C312.619 934.182 297.137 923.401 293.565 920.166C289.992 916.932 273.915 906.69 273.915 900.76C273.915 894.831 253.67 863.566 251.883 877.042C250.097 890.518 244.142 897.526 244.142 897.526C244.142 897.526 232.829 921.783 229.852 923.94C226.874 926.096 178.643 930.408 170.902 930.408C163.161 930.408 148.871 922.323 140.534 918.01C132.198 913.698 120.289 899.682 119.694 894.831Z" fill="#313327" stroke="#1D1D1D"/>
<path d="M-5.92902 536.219C-3.85621 533.332 -3.22616 529.992 0.311953 529.351C4.33927 529.351 59.9884 536.179 87.3096 539.593L136.401 713.708L117.908 742.278C117.908 742.278 113.144 753.598 112.549 764.918C111.953 776.238 106.594 754.137 105.999 742.278C105.403 730.418 110.167 712.09 108.38 713.708C106.594 715.325 107.19 715.325 103.86 720.715C100.53 726.106 99.6915 742.03 97.3098 747.508C95.2806 743.195 95.2806 743.895 95.2806 740.66V728.635V716.242C95.2806 708.317 97.0669 706.161 98.8532 703.466C99.0725 703.135 99.2469 702.884 99.3841 702.697C98.9437 701.506 96.3677 696.481 95.2806 694.841L91.1124 688.911L-23.8456 574.632C-27.9479 567.947 -20.0837 553.728 -16.3606 549.296C-11.7649 543.826 -10.0714 541.989 -5.92902 536.219Z" fill="url(#paint2_radial_2083_1241)"/>
<path d="M40.4969 570.32C60.7421 567.085 67.6997 566.72 80.3919 571.937C93.0842 577.153 114.183 592.094 114.183 592.094" stroke="#DF5D20" stroke-width="2" stroke-linecap="round"/>
<path d="M535.929 523.284C533.856 520.397 533.226 517.057 529.688 516.416C525.661 516.416 470.012 523.244 442.69 526.658L388.205 722.874L406.698 751.444C406.698 751.444 411.462 762.764 412.058 774.084C412.653 785.404 418.012 763.303 418.607 751.444C419.203 739.585 414.439 721.257 416.226 722.874C418.012 724.491 417.417 724.491 420.746 729.882C424.076 735.272 424.915 751.196 427.296 756.674C429.326 752.361 429.326 753.061 429.326 749.827V737.802V725.409C429.326 717.483 427.539 715.327 425.753 712.632C425.534 712.301 425.359 712.05 425.222 711.863C425.662 710.672 428.238 705.647 429.326 704.007L433.494 698.077L553.846 561.697C557.948 555.012 550.084 540.793 546.361 536.361C541.765 530.891 540.071 529.054 535.929 523.284Z" fill="url(#paint3_radial_2083_1241)"/>
<path d="M489.503 557.385C469.258 554.151 462.3 553.786 449.608 559.002C436.916 564.219 415.817 579.16 415.817 579.16" stroke="#DF5D20" stroke-width="2" stroke-linecap="round"/>
<path d="M81.4007 445.501C108.449 433.819 141.831 443.859 141.831 443.859L140.608 462.01L141.107 480.592L93.3826 529.602C91.9438 530.841 89.0335 525.972 80.5482 539.251C72.0628 552.53 26.2133 526.882 1.20449 530.003C-23.8044 533.124 14.0417 494.067 21.1373 482.98C28.2328 471.894 54.3529 457.183 81.4007 445.501Z" fill="#313327" stroke="#1D1D1D" stroke-width="1.5"/>
<path d="M110.163 400.392C116.118 405.243 182.808 428.422 189.358 434.891C195.908 441.36 188.167 449.985 195.908 464.539C203.648 479.093 205.435 483.945 203.648 487.179C201.862 490.414 127.431 448.906 120.286 441.899C113.14 434.891 104.209 395.54 110.163 400.392Z" fill="#313327" stroke="#1D1D1D" stroke-width="1.5"/>
<path d="M254.862 542.29C254.862 531.509 203.058 487.72 203.058 487.72L194.722 484.486L157.209 465.08L129.222 448.369L118.504 440.822C118.504 440.822 80.9911 507.126 77.4185 523.837C73.8458 540.547 84.5989 576.251 84.5989 576.251C84.5989 576.251 100.08 645.25 104.844 656.57C109.608 667.89 121.482 727.725 129.222 741.201C136.963 754.678 116.123 798.88 129.222 812.895C142.322 826.911 235.808 842.543 245.93 837.153C256.053 831.762 253.671 798.88 254.862 788.638C255.4 784.009 255.347 714.788 254.862 650.101C254.377 585.415 254.862 548.199 254.862 542.29Z" fill="#313327" stroke="#1D1D1D" stroke-width="1.5"/>
<path d="M453.68 441.538C426.863 429.429 393.291 438.937 393.291 438.937L394.162 457.105L393.304 475.676L440.071 525.436C441.486 526.698 441.743 534.789 452.717 535.288C472.443 536.185 498.995 517.494 532.228 527.3C565.46 537.107 520.088 491.166 513.209 479.969C506.329 468.771 480.498 453.648 453.68 441.538Z" fill="#313327" stroke="#1D1D1D" stroke-width="1.5"/>
<path d="M413.287 400.392C407.333 405.243 340.642 428.422 334.092 434.891C327.543 441.36 335.283 449.985 327.543 464.539C319.802 479.093 318.015 483.945 319.802 487.179C321.588 490.414 396.019 448.906 403.164 441.899C410.31 434.891 419.242 395.54 413.287 400.392Z" fill="#313327" stroke="#1D1D1D" stroke-width="1.5"/>
<path d="M233.46 562.109C233.46 551.328 320.395 487.72 320.395 487.72L328.731 484.486L366.245 465.08L394.231 448.369L404.949 440.822C404.949 440.822 442.462 507.126 446.035 523.837C449.607 540.547 438.854 576.251 438.854 576.251C438.854 576.251 423.373 645.25 418.609 656.57C413.846 667.89 401.972 727.725 394.231 741.201C386.49 754.678 407.331 798.88 394.231 812.896C381.131 826.911 269.782 842.418 259.659 837.027C249.537 831.637 234.65 797.676 233.46 787.434C232.921 782.805 228.211 725.982 228.696 661.295C229.181 596.609 233.46 568.018 233.46 562.109Z" fill="#313327" stroke="#1D1D1D" stroke-width="1.5"/>
<path d="M343.129 567.084C329.51 568.906 301.366 572.549 297.734 572.549C298.407 577.494 300.256 587.383 302.274 587.383C304.291 587.383 327.997 588.944 339.598 589.725L378.435 587.383L383.479 575.282L343.129 567.084Z" fill="#313327" stroke="#1D1D1D" stroke-width="2"/>
<path d="M305.477 620.988L302.5 589.723L338.822 591.879L376.931 589.723L368.595 620.988L336.441 632.308L305.477 620.988Z" stroke="#1D1D1D" stroke-width="2"/>
<path d="M161.561 567.083C149.181 568.74 123.595 572.052 120.294 572.052C120.905 576.547 122.587 585.536 124.421 585.536C126.255 585.536 147.806 586.956 158.352 587.666L193.658 585.536L198.244 574.536L161.561 567.083Z" fill="#313327" stroke="#1D1D1D" stroke-width="2"/>
<path d="M127.33 616.089L124.623 587.666L157.643 589.626L192.288 587.666L184.709 616.089L155.478 626.38L127.33 616.089Z" stroke="#1D1D1D" stroke-width="2"/>
<path d="M382.289 547.678H300.117L301.177 555.071L325.034 556.303H382.289V547.678Z" fill="#1D1D1D" stroke="#1D1D1D" stroke-width="2"/>
<ellipse cx="242.95" cy="577.868" rx="3.57269" ry="3.23433" fill="#1D1D1D"/>
<ellipse cx="238.191" cy="629.614" rx="3.57269" ry="3.23433" fill="#1D1D1D"/>
<ellipse cx="235.806" cy="680.287" rx="3.57269" ry="3.23433" fill="#1D1D1D"/>
<ellipse cx="239.379" cy="740.661" rx="3.57269" ry="3.23433" fill="#1D1D1D"/>
<ellipse cx="245.335" cy="790.255" rx="3.57269" ry="3.23433" fill="#1D1D1D"/>
<path d="M417.656 385.933C419.998 394.062 329.86 412.295 316.923 442.271L213.306 444.836C215.734 420.285 117.134 404.912 120.452 400.141C124.6 394.177 115.572 396.828 118.012 388.655C120.452 380.482 114.596 390.643 106.545 396.828C98.7371 403.012 108.253 393.293 111.668 385.121C113.62 377.611 106.057 390.864 98.2491 396.828C90.4415 402.791 97.2731 393.514 91.1734 400.141C86.2937 405.442 82.1459 406.325 80.682 406.105C84.1791 399.994 91.1734 385.253 91.1734 375.181C83.3658 367.936 86.2937 357.29 88.7336 352.872C90.1975 348.97 91.1735 341.828 83.3658 344.479C71.6544 349.117 59.455 359.057 46.2797 364.579C35.7394 368.997 45.7917 362.738 52.1354 359.057L59.455 352.872L66.5307 330.343C67.7506 326.072 75.1679 313.467 95.0773 297.211C99.2251 295.002 88.2456 294.56 72.8744 276.448C59.943 251.709 62.1389 245.966 59.455 239.782C56.7712 233.597 62.1389 203.116 64.0908 208.417C66.0427 213.718 73.6063 227.413 78.9741 235.585C84.3418 243.758 90.1975 239.782 124.6 254.802C129.967 258.115 124.112 250.605 124.6 245.966C125.088 241.328 121.184 229.621 119.232 220.565C117.28 211.509 117.28 199.14 111.424 189.2C105.569 179.261 96.2972 177.273 73.6063 166.891C50.9155 156.51 53.1114 159.161 67.0187 160.707C78.1445 161.944 93.4507 165.345 99.713 166.891C105.813 170.352 116.695 174.755 111.424 164.683C104.86 152.137 94.4187 147.267 70.4435 136.086L70.1905 135.968C61.9925 132.788 64.6601 131.992 67.0187 131.992C72.2237 133.318 86.4889 138.221 101.909 147.233C108.741 152.313 98.9811 142.153 89.2216 135.968C79.462 129.784 96.7852 136.41 107.277 142.153C118.256 147.454 147.779 169.984 152.17 180.807C154.366 175.285 154.122 171.972 155.83 163.136C157.538 154.301 141.923 128.458 133.871 120.728C127.43 114.543 123.38 107.548 122.16 104.824C123.624 105.929 128.406 109.198 135.823 113.438C147.047 118.74 140.703 119.623 139.239 108.137C135.579 97.756 151.682 120.728 169.006 139.944C182.864 155.317 204.221 185.813 213.167 199.14C211.053 195.532 206.629 183.59 205.848 164.683C204.872 141.048 205.848 172.855 215.363 186.329C212.679 180.807 210.484 164.683 210.484 152.092C210.484 139.502 214.631 131.992 220.975 120.728C227.319 109.463 221.219 125.808 218.047 139.944C214.875 154.08 216.339 159.823 218.047 152.092C219.755 144.362 224.147 131.992 230.246 120.728C236.346 109.463 261.965 73.6801 268.309 65.5075C274.652 57.3349 270.992 66.6119 268.309 80.3065C265.625 94.001 297.831 44.0822 300.027 47.8371C301.784 50.8411 300.759 52.6229 300.027 53.1382C298.319 54.5371 293.976 61.9293 290.267 80.3065C288.706 106.105 281.809 124.335 278.556 130.225C275.954 137.956 269.431 160 264.161 186.329C262.209 201.349 263.185 221.007 270.748 239.782C283.241 199.493 297.262 167.922 302.711 157.173C305.151 151.651 313.056 137.647 325.158 125.808C340.285 111.009 340.529 98.4186 342.725 90.2461C344.921 82.0735 345.897 96.4307 347.849 105.266C349.801 114.101 339.553 123.157 338.333 133.759C337.357 142.241 344.27 126.986 347.849 118.298C348.825 123.452 350.191 140.783 347.849 168.879C348.581 175.064 348.093 179.482 354.436 168.879C360.78 158.277 381.519 137.514 390.059 131.992C398.598 126.47 429.829 109.463 448.616 105.266C467.403 101.069 425.681 120.286 414.213 130.225C402.746 140.165 395.426 153.418 390.059 162.695C384.691 171.972 379.079 186.329 377.127 192.955C375.175 199.582 384.447 183.016 400.794 157.173C406.894 147.896 416.897 140.165 432.024 133.759C447.152 127.354 454.471 125.145 468.379 123.157C482.286 121.169 444.468 142.153 432.024 153.418C419.581 164.683 416.653 186.329 414.213 200.686C411.773 215.043 396.158 232.272 404.942 227.192C413.725 222.111 421.777 221.67 439.588 221.007C453.837 220.477 466.02 205.03 470.331 197.373C472.445 193.029 477.797 184.739 482.286 186.329C482.871 198.345 478.789 206.65 476.674 209.301C473.502 214.086 464.67 229.533 454.715 253.035C446.147 276.995 423.26 291.553 412.103 296.216C416.654 294.831 427.811 298.086 442.272 321.287C453.398 338.957 469.842 353.977 476.674 359.278C443.687 350.619 433.488 344.037 432.512 341.828C430.56 342.049 428.706 345.142 436.904 355.744C445.102 366.346 443.898 391.232 442.272 402.35C433.895 393.514 415.314 377.805 417.656 385.933Z" fill="url(#paint4_radial_2083_1241)"/>
<path d="M305.549 280.587C301.298 283.547 299.146 289.96 298.601 292.796L299.827 296.866C299.282 298.469 298.029 301.972 297.375 303.155C296.721 304.339 296.83 307.595 296.966 309.075L296.149 316.474C295.877 318.448 295.413 322.69 295.74 323.874C296.149 325.354 297.784 325.724 301.871 327.574C305.14 329.053 310.204 330.657 312.384 331.027C314.018 331.767 318.514 332.285 323.418 332.877C329.548 333.617 332.818 333.247 336.496 333.247C340.174 333.247 343.147 333.863 345.599 335.713C348.051 337.563 353.364 337.563 358.677 337.193C363.989 336.823 366.441 334.973 372.572 332.753C378.702 330.533 377.067 329.053 385.241 324.614C391.779 321.062 394.504 314.995 395.049 312.405C394.64 312.775 392.515 313.515 387.284 313.515C384.015 313.145 383.606 311.295 385.241 307.965C386.875 305.005 388.919 305.375 392.597 303.895C396.275 302.415 401.588 296.866 404.448 293.536C407.309 290.206 404.448 291.316 396.275 289.466C388.101 287.617 387.284 287.987 377.067 287.987C375.432 286.211 379.11 279.601 381.154 276.517C387.148 269.735 398.564 253.357 396.275 242.11C396.275 238.41 390.962 246.18 387.284 248.03C383.606 249.88 380.745 251.359 375.432 253.949C371.182 256.021 368.212 256.292 367.259 256.169C362.491 256.416 351.729 257.353 346.825 259.129C341.921 259.721 335.246 262.829 332.521 264.308L319.444 271.708C316.583 273.434 309.799 277.627 305.549 280.587Z" fill="url(#paint5_linear_2083_1241)"/>
<path d="M299.303 297.36L298.486 294.77L295.625 301.799C295.08 303.649 293.908 307.571 293.581 308.459C293.255 309.347 292.9 313.269 292.764 315.118L292.355 320.298L291.538 329.917L305.433 330.287C304.888 330.041 303.39 329.399 301.755 328.807C300.774 328.511 298.894 327.451 298.077 326.958C297.532 326.711 296.279 325.996 295.625 325.108V320.668V316.968C295.625 315.784 296.17 310.555 296.442 308.089L297.26 303.649C297.587 301.873 298.758 298.716 299.303 297.36Z" fill="#F9753B"/>
<path d="M299.766 302.17C298.458 304.242 297.314 317.339 296.905 323.629C296.781 325.405 296.036 325.109 295.679 324.739C295.543 319.189 295.597 306.906 296.905 302.17C296.905 298.027 299.902 290.085 301.4 286.632C301.945 284.905 304.343 280.86 309.574 278.492C323.06 271.833 325.921 271.833 332.46 269.243C337.691 267.171 348.534 266.407 353.302 266.283C356.98 266.283 365.563 266.801 370.467 268.873C376.597 271.463 377.414 274.053 374.553 273.313C371.693 272.573 362.702 272.203 353.302 272.573C345.783 272.869 346.9 274.423 348.398 275.163C349.352 275.163 352.812 276.05 359.024 279.602C365.236 283.154 368.968 289.961 370.058 292.921C370.739 295.264 372.592 300.617 374.553 303.28C377.006 306.61 384.77 308.09 384.362 309.57C383.953 311.05 380.275 316.969 377.414 320.299C374.553 323.629 369.241 327.329 363.519 330.288C358.942 332.656 352.349 333.001 349.624 332.878C348.943 333.125 345.946 333.766 339.407 334.358C335.484 334.95 326.875 334.605 323.06 334.358C320.881 334.111 315.867 333.47 313.252 332.878C310.636 332.286 306.713 330.905 305.078 330.288C304.67 330.288 302.463 329.548 296.905 326.589C295.679 325.849 296.905 325.109 299.766 326.589C302.626 328.068 305.487 328.808 309.574 330.288C312.843 331.472 318.837 332.508 321.425 332.878C324.15 333.125 331.07 333.47 336.955 332.878C344.311 332.138 345.129 331.028 348.807 330.288C351.749 329.696 355.754 326.095 357.389 324.369C358.751 322.889 361.884 318.893 363.519 314.749C365.563 309.57 364.337 299.211 363.519 296.621C362.702 294.031 360.25 289.961 359.432 288.482C358.779 287.298 354.528 283.795 352.485 282.192C349.215 279.972 344.311 277.752 340.633 277.012C337.595 276.401 334.503 276.642 333.277 277.012C332.051 277.382 328.373 278.862 323.878 281.082C319.382 283.302 314.887 286.262 309.574 289.961C305.324 292.921 302.899 295.634 302.218 296.621C301.809 296.991 300.746 298.619 299.766 302.17Z" fill="url(#paint6_linear_2083_1241)"/>
<path d="M303.39 293.666C299.14 296.626 296.987 316.721 296.442 325.107C298.077 327.475 305.161 328.937 308.294 329.924C311.563 331.773 320.718 332.655 329.545 333.247C338.373 333.839 344.939 331.89 347.118 331.027C348.344 330.78 352.022 328.955 355.292 326.587C359.889 323.257 365.509 314.015 365.509 311.055V302.546C365.509 298.846 363.302 289.597 354.475 282.197C342.214 275.908 337.719 275.538 332.406 275.168C327.093 274.798 308.703 289.967 303.39 293.666Z" fill="white"/>
<path d="M319.059 327.944C312.486 326.655 307.747 321.819 306.199 319.562C309.057 322.399 312.629 323.968 314.058 324.398C317.273 324.935 324.274 325.623 326.56 324.076C329.775 323.431 331.919 320.529 333.348 318.918C334.776 317.306 334.776 308.923 334.419 307.634C334.062 306.344 332.633 303.443 331.561 301.831C330.49 300.219 328.704 298.929 325.846 297.64C323.56 296.608 319.178 296.995 317.273 297.317C314.772 297.747 309.271 299.058 307.271 300.864C304.056 302.476 302.984 308.923 302.984 307.956V304.732C302.984 303.12 304.77 299.574 306.199 297.64C307.628 295.705 309.414 293.449 311.558 291.837C313.701 290.225 316.916 288.935 318.702 288.291C320.488 287.646 320.845 287.001 326.918 287.001C331.776 287.001 335.61 288.076 336.92 288.613C338.11 289.258 340.206 290.612 339.063 290.87C337.634 291.192 334.776 292.804 333.348 294.416C332.204 295.705 331.681 299.252 331.561 300.864C332.871 302.476 335.419 306.151 335.134 307.956C336.205 309.246 337.634 309.891 342.992 310.858C348.351 311.825 351.208 306.344 351.208 308.279C351.208 309.826 350.256 313.437 349.779 315.049C348.827 316.553 346.422 320.143 344.421 322.464C342.421 324.785 339.063 326.44 337.634 326.977C336.682 327.3 333.848 328.138 330.133 328.912C326.418 329.685 321.202 328.589 319.059 327.944Z" fill="#F95C55"/>
<path d="M305.845 307.007C303.802 308.857 302.984 310.337 302.984 309.597C303.257 308.117 303.802 304.936 303.802 304.048C303.802 302.938 305.028 301.088 305.436 300.348C305.763 299.756 306.935 298.621 307.48 298.128C307.888 297.512 309.441 295.982 312.384 294.798C314.999 293.023 319.74 292.825 321.783 292.949C323.691 293.195 328.159 293.91 330.774 294.798C334.044 295.908 339.357 302.568 339.765 306.638C340.174 310.707 338.539 316.627 336.905 319.217C335.27 321.806 332.409 323.286 330.366 324.396C328.322 325.506 320.557 326.616 316.062 325.136C311.567 323.656 309.932 322.546 307.888 321.436C305.845 320.326 305.436 319.217 305.028 318.107C304.701 317.219 306.799 318.477 307.888 319.217C308.978 319.587 311.648 320.104 313.61 319.217C314.427 318.847 316.062 318.477 317.697 315.517C319.004 313.149 318.242 310.584 317.697 309.597C316.879 308.734 314.918 306.785 313.61 305.898C311.975 304.788 307.888 305.158 305.845 307.007Z" fill="#743C32"/>
<path d="M226.204 281.086C230.127 283.818 232.114 289.738 232.617 292.356L231.485 296.113C231.988 297.592 233.145 300.825 233.749 301.918C234.352 303.011 234.252 306.016 234.126 307.382L234.88 314.212C235.132 316.034 235.559 319.95 235.258 321.042C234.88 322.408 233.371 322.75 229.599 324.457C226.581 325.823 221.907 327.304 219.895 327.645C218.386 328.328 214.236 328.806 209.71 329.353C204.051 330.036 201.033 329.694 197.638 329.694C194.243 329.694 191.499 330.263 189.235 331.971C186.972 333.678 182.068 333.678 177.164 333.337C172.26 332.995 169.996 331.288 164.338 329.238C158.679 327.189 160.188 325.823 152.644 321.725C146.608 318.447 144.093 312.846 143.59 310.456C143.967 310.797 145.929 311.48 150.758 311.48C153.775 311.139 154.153 309.431 152.644 306.358C151.135 303.626 149.249 303.967 145.854 302.601C142.459 301.235 137.555 296.113 134.914 293.039C132.273 289.965 134.914 290.99 142.459 289.282C150.003 287.575 150.758 287.916 160.188 287.916C161.697 286.277 158.302 280.176 156.416 277.33C150.883 271.069 140.346 255.952 142.459 245.57C142.459 242.155 147.363 249.326 150.758 251.034C154.153 252.741 156.793 254.107 161.697 256.498C165.621 258.41 168.362 258.661 169.242 258.547C173.643 258.775 183.577 259.64 188.104 261.279C192.63 261.826 198.792 264.694 201.307 266.06L213.378 272.89C216.019 274.484 222.281 278.354 226.204 281.086Z" fill="url(#paint7_linear_2083_1241)"/>
<path d="M231.969 296.568L232.724 294.178L235.364 300.666C235.867 302.374 236.949 305.994 237.251 306.813C237.552 307.633 237.879 311.253 238.005 312.96L238.382 317.742L239.137 326.621L226.311 326.962C226.814 326.735 228.197 326.143 229.706 325.596C230.611 325.323 232.347 324.344 233.101 323.889C233.604 323.661 234.761 323.001 235.364 322.181V318.083V314.668C235.364 313.575 234.861 308.749 234.61 306.472L233.855 302.374C233.554 300.735 232.472 297.82 231.969 296.568Z" fill="#F9753B"/>
<path d="M231.542 301.009C232.749 302.921 233.805 315.01 234.183 320.816C234.297 322.455 234.985 322.182 235.314 321.841C235.44 316.718 235.39 305.38 234.183 301.009C234.183 297.184 231.416 289.853 230.033 286.666C229.53 285.072 227.317 281.338 222.488 279.152C210.04 273.005 207.399 273.005 201.363 270.615C196.535 268.702 186.526 267.997 182.125 267.883C178.73 267.883 170.808 268.361 166.281 270.273C160.622 272.664 159.868 275.054 162.509 274.371C165.149 273.688 173.448 273.347 182.125 273.688C189.066 273.962 188.035 275.396 186.651 276.079C185.771 276.079 182.577 276.899 176.843 280.177C171.11 283.455 167.664 289.739 166.658 292.471C166.029 294.634 164.319 299.574 162.509 302.033C160.245 305.107 153.078 306.473 153.455 307.839C153.832 309.205 157.227 314.669 159.868 317.742C162.509 320.816 167.413 324.231 172.694 326.963C176.919 329.149 183.005 329.467 185.52 329.354C186.148 329.581 188.915 330.173 194.951 330.72C198.572 331.266 206.519 330.947 210.04 330.72C212.052 330.492 216.679 329.9 219.093 329.354C221.508 328.807 225.129 327.532 226.638 326.963C227.015 326.963 229.052 326.28 234.183 323.548C235.314 322.865 234.183 322.182 231.542 323.548C228.901 324.914 226.261 325.597 222.488 326.963C219.471 328.056 213.938 329.012 211.549 329.354C209.034 329.581 202.646 329.9 197.214 329.354C190.424 328.671 189.669 327.646 186.274 326.963C183.558 326.417 179.861 323.093 178.352 321.499C177.095 320.133 174.203 316.445 172.694 312.62C170.808 307.839 171.939 298.277 172.694 295.886C173.448 293.496 175.712 289.739 176.466 288.373C177.07 287.28 180.993 284.047 182.879 282.567C185.897 280.518 190.424 278.469 193.819 277.786C196.623 277.222 199.477 277.445 200.609 277.786C201.741 278.128 205.136 279.494 209.285 281.543C213.435 283.592 217.584 286.324 222.488 289.739C226.412 292.471 228.65 294.975 229.279 295.886C229.656 296.228 230.637 297.73 231.542 301.009Z" fill="url(#paint8_linear_2083_1241)"/>
<path d="M228.197 293.16C232.121 295.893 234.107 314.441 234.61 322.182C233.101 324.368 226.563 325.717 223.671 326.628C220.653 328.335 212.203 329.149 204.055 329.695C195.906 330.242 189.846 328.443 187.834 327.646C186.702 327.419 183.307 325.734 180.289 323.548C176.045 320.475 170.858 311.943 170.858 309.211V301.357C170.858 297.942 172.895 289.404 181.043 282.574C192.36 276.768 196.51 276.427 201.414 276.085C206.318 275.744 223.293 289.745 228.197 293.16Z" fill="white"/>
<path d="M213.736 324.8C219.803 323.61 224.178 319.146 225.607 317.063C222.969 319.682 219.672 321.13 218.353 321.527C215.385 322.022 208.922 322.657 206.812 321.229C203.845 320.634 201.866 317.956 200.547 316.468C199.228 314.98 199.228 307.243 199.558 306.052C199.888 304.862 201.207 302.184 202.196 300.696C203.185 299.208 204.834 298.017 207.472 296.827C209.582 295.875 213.627 296.232 215.385 296.53C217.693 296.926 222.771 298.136 224.617 299.803C227.585 301.291 228.574 307.243 228.574 306.35V303.374C228.574 301.886 226.926 298.613 225.607 296.827C224.288 295.042 222.639 292.959 220.661 291.471C218.682 289.983 215.715 288.792 214.066 288.197C212.418 287.602 212.088 287.007 206.482 287.007C201.998 287.007 198.459 287.999 197.25 288.495C196.151 289.09 194.217 290.34 195.272 290.578C196.591 290.875 199.228 292.363 200.547 293.851C201.602 295.042 202.086 298.315 202.196 299.803C200.987 301.291 198.635 304.683 198.899 306.35C197.909 307.54 196.591 308.135 191.645 309.028C186.699 309.921 184.061 304.862 184.061 306.647C184.061 308.076 184.94 311.409 185.38 312.897C186.259 314.285 188.479 317.598 190.326 319.741C192.172 321.884 195.272 323.411 196.591 323.907C197.47 324.205 200.086 324.979 203.515 325.693C206.944 326.407 211.758 325.395 213.736 324.8Z" fill="#F95C55"/>
<path d="M225.934 305.475C227.82 307.183 228.574 308.549 228.574 307.866C228.323 306.5 227.82 303.563 227.82 302.743C227.82 301.719 226.688 300.011 226.311 299.328C226.009 298.782 224.928 297.734 224.425 297.279C224.047 296.71 222.614 295.298 219.898 294.206C217.484 292.566 213.108 292.384 211.222 292.498C209.461 292.726 205.337 293.386 202.923 294.206C199.905 295.23 195.001 301.377 194.623 305.134C194.246 308.89 195.755 314.354 197.264 316.745C198.773 319.135 201.414 320.501 203.3 321.526C205.186 322.55 212.353 323.575 216.503 322.209C220.652 320.843 222.161 319.818 224.047 318.794C225.934 317.769 226.311 316.745 226.688 315.72C226.99 314.901 225.053 316.062 224.047 316.745C223.042 317.086 220.577 317.564 218.766 316.745C218.012 316.403 216.503 316.062 214.994 313.33C213.787 311.144 214.491 308.776 214.994 307.866C215.748 307.069 217.559 305.27 218.766 304.451C220.275 303.426 224.047 303.768 225.934 305.475Z" fill="#743C32"/>
<path d="M189.881 386.825L185.788 383.584C187.152 384.355 191.415 385.436 197.554 383.584C205.228 381.268 213.925 378.721 216.227 374.784C218.529 370.847 222.11 367.374 222.366 359.038C222.622 350.701 224.413 347.228 231.063 341.902C237.714 336.576 252.294 325.229 257.154 323.145C262.781 323.145 263.549 320.366 269.943 325.229C275.059 329.119 287.252 336.421 292.709 339.586C295.181 340.667 300.229 344.449 300.638 350.933C301.048 357.417 304.39 369.535 306.01 374.784C306.777 376.019 309.693 378.999 315.218 381.036C320.743 383.074 328.093 385.745 331.077 386.825L306.01 510.638L261.007 542.522L216.227 510.638L189.881 386.825Z" fill="#FBD23F"/>
<path d="M250.913 364.5C246.002 371.54 243.684 397.679 245.731 401.924L259.309 516.016L281.352 401.924C282.375 399.609 282.119 373.763 281.352 370.752C280.585 367.742 276.492 362.879 272.399 358.248C269.125 354.543 265.067 351.918 263.447 351.069C261.315 352.613 255.824 357.461 250.913 364.5Z" fill="#FADF5C"/>
<path d="M282.541 347.98C280.306 346.866 277.377 347.516 276.192 347.98C275.768 348.522 275.023 349.838 275.43 350.766C275.938 351.927 277.462 351.463 280.255 351.463C282.49 351.463 282.71 353.785 282.541 354.946L283.811 360.751C284.827 362.144 287.265 364.837 288.891 364.466C289.907 363.073 287.367 358.429 286.097 353.553C284.827 348.677 285.335 349.373 282.541 347.98Z" fill="#C1A540"/>
<path d="M241.019 347.978C243.27 346.867 246.221 347.515 247.414 347.978C247.841 348.519 248.591 349.831 248.182 350.757C247.67 351.915 246.135 351.452 243.322 351.452C241.071 351.452 240.849 353.768 241.019 354.925L239.74 360.715C238.717 362.104 236.262 364.79 234.625 364.42C233.602 363.03 236.159 358.399 237.438 353.536C238.717 348.673 238.206 349.368 241.019 347.978Z" fill="#C1A540"/>
<path d="M232.268 229.641C230.266 243.588 239.698 259.683 248.339 271.187C254.208 276.798 255.704 280.606 275.182 278.383L291.969 266.73C296.702 262.729 301.261 257.066 305.442 252.722C307.538 250.543 307.964 245.011 308.885 242.195C308.885 242.195 314.802 223.082 322.091 209.985C329.381 196.888 344.024 171.446 344.024 171.446C347.495 166.398 351.183 158.914 354.721 154.857C358.26 150.801 365.726 137.295 366.177 132.232C367.131 121.511 364.603 110.622 365.652 99.7249C366.204 93.9938 364.361 88.0529 364.74 82.2921L358.173 50.6884C353.309 25.8905 356.568 59.0233 357.012 63.2255C358.678 78.9892 351.514 93.2668 346.255 107.721C343.334 115.751 339.675 124.386 334.661 131.56C328.552 140.299 321.01 147.083 313.298 154.554C297.169 170.18 274.845 178.265 255.918 190.293C241.267 199.604 234.509 214.032 232.268 229.641Z" fill="url(#paint9_linear_2083_1241)"/>
<path d="M301.85 229.641C303.852 243.588 294.42 259.683 285.779 271.187C279.91 276.798 278.415 280.606 258.937 278.383L242.149 266.73C237.416 262.729 232.858 257.066 228.676 252.722C226.58 250.543 226.154 245.011 225.233 242.195C225.233 242.195 219.317 223.082 212.027 209.985C204.737 196.888 190.094 171.446 190.094 171.446C186.624 166.398 182.936 158.914 179.397 154.857C175.859 150.801 168.392 137.295 167.941 132.232C166.987 121.511 169.515 110.622 168.466 99.7249C167.914 93.9938 169.757 88.0529 169.378 82.2921L175.945 50.6884C180.81 25.8905 177.55 59.0233 177.106 63.2255C175.44 78.9892 182.604 93.2668 187.863 107.721C190.784 115.751 194.443 124.386 199.457 131.56C205.566 140.299 213.108 147.083 220.82 154.554C236.95 170.18 259.273 178.265 278.2 190.293C292.851 199.604 299.609 214.032 301.85 229.641Z" fill="url(#paint10_linear_2083_1241)"/>
<path d="M221.668 237.274C224.414 252.81 240.178 267.363 253.484 277.218C261.748 281.55 268.603 282.448 288.716 274.462L295.676 269.343C302.204 264.559 308.144 252.795 311.109 246.924L311.123 246.897C312.607 243.957 311.123 232.856 311.123 229.571C311.123 229.571 307.898 206.506 311.123 190.361C314.347 174.216 321.127 142.714 321.127 142.714C323.079 136.301 324.409 127.213 326.782 121.844C329.154 116.475 332.425 99.8412 331.131 94.2797C328.393 82.506 321.861 71.5522 319.163 59.5614C317.744 53.2551 313.683 47.4123 312.068 41.124L293.936 9.11163C280.017 -16.0896 295.138 18.5139 297.089 22.8938C304.407 39.324 301.732 56.6993 301.162 73.7165C300.846 83.1693 299.951 93.4845 297.089 102.622C293.602 113.752 287.892 123.198 282.241 133.43C270.422 154.829 249.314 169.921 233.231 188.266C220.782 202.466 218.595 219.886 221.668 237.274Z" fill="url(#paint11_linear_2083_1241)"/>
<path d="M289.315 229.179C287.765 237.946 278.87 246.157 271.362 251.718C266.699 254.162 265.04 256.225 253.691 251.718L245.837 241.942C243.764 238.752 242.126 234.585 240.455 231.277C239.618 229.618 240.455 226.2 240.455 224.347C240.455 224.347 240.658 211.818 238.839 202.708C237.019 193.598 233.194 175.823 233.194 175.823C232.092 172.204 231.342 167.076 230.003 164.046C228.664 161.017 226.819 151.631 227.549 148.493C229.093 141.85 232.779 135.669 234.302 128.903C235.102 125.344 237.394 122.047 238.305 118.499L248.537 100.436C256.391 86.2157 247.858 105.741 246.757 108.213C242.628 117.484 244.138 127.288 244.459 136.89C244.638 142.224 245.142 148.044 246.757 153.2C248.725 159.48 251.947 164.811 255.135 170.584C261.804 182.659 273.715 191.175 282.79 201.526C289.815 209.539 291.049 219.368 289.315 229.179Z" fill="url(#paint12_linear_2083_1241)"/>
<path d="M451.962 468.92C444.007 464.722 432.706 457.928 436.349 452.269C439.992 446.611 449.395 445.426 457.35 449.624C465.305 453.821 471.412 460.152 467.769 465.81C464.126 471.469 459.918 473.117 451.962 468.92Z" fill="#1D1D1D"/>
<path d="M62.6354 485.091C70.5908 480.894 81.8916 474.1 78.2486 468.441C74.6056 462.782 65.2031 461.598 57.2477 465.795C49.2922 469.993 43.1852 476.323 46.8282 481.982C50.4713 487.641 54.6799 489.289 62.6354 485.091Z" fill="#1D1D1D"/>
<defs>
<radialGradient id="paint0_radial_2083_1241" cx="0" cy="0" r="1" gradientUnits="userSpaceOnUse" gradientTransform="translate(344.894 906.693) rotate(66.2602) scale(61.1448 81.5445)">
<stop stop-color="#FBD23F"/>
<stop offset="1" stop-color="#F9753B"/>
</radialGradient>
<radialGradient id="paint1_radial_2083_1241" cx="0" cy="0" r="1" gradientUnits="userSpaceOnUse" gradientTransform="translate(185.099 903.408) rotate(82.772) scale(60.3302 82.6454)">
<stop stop-color="#FBD23F"/>
<stop offset="1" stop-color="#F9753B"/>
</radialGradient>
<radialGradient id="paint2_radial_2083_1241" cx="0" cy="0" r="1" gradientUnits="userSpaceOnUse" gradientTransform="translate(127.327 629.702) rotate(-157.704) scale(164.635 92.2495)">
<stop offset="0.1268" stop-color="#FBC83D"/>
<stop offset="1" stop-color="#F9753B"/>
</radialGradient>
<radialGradient id="paint3_radial_2083_1241" cx="0" cy="0" r="1" gradientUnits="userSpaceOnUse" gradientTransform="translate(405.211 630.977) rotate(-31.321) scale(175.328 98.2411)">
<stop stop-color="#FBC83D"/>
<stop offset="1" stop-color="#F9753B"/>
</radialGradient>
<radialGradient id="paint4_radial_2083_1241" cx="0" cy="0" r="1" gradientUnits="userSpaceOnUse" gradientTransform="translate(262.254 291.265) rotate(95.2672) scale(213.141 256.005)">
<stop stop-color="#FBC83D"/>
<stop offset="1" stop-color="#DF5D20"/>
</radialGradient>
<linearGradient id="paint5_linear_2083_1241" x1="374.503" y1="337.317" x2="357.676" y2="224.308" gradientUnits="userSpaceOnUse">
<stop offset="0.569385" stop-color="#F9753B"/>
<stop offset="1" stop-color="#D77145"/>
</linearGradient>
<linearGradient id="paint6_linear_2083_1241" x1="316.879" y1="338.428" x2="309.159" y2="261.675" gradientUnits="userSpaceOnUse">
<stop offset="0.76081" stop-color="#C42C22"/>
<stop offset="0.993711" stop-color="#EBB099"/>
</linearGradient>
<linearGradient id="paint7_linear_2083_1241" x1="162.556" y1="333.451" x2="178.087" y2="229.138" gradientUnits="userSpaceOnUse">
<stop offset="0.569385" stop-color="#F9753B"/>
<stop offset="1" stop-color="#D77145"/>
</linearGradient>
<linearGradient id="paint8_linear_2083_1241" x1="215.745" y1="334.476" x2="222.872" y2="263.629" gradientUnits="userSpaceOnUse">
<stop offset="0.76081" stop-color="#C42C22"/>
<stop offset="0.993711" stop-color="#EBB099"/>
</linearGradient>
<linearGradient id="paint9_linear_2083_1241" x1="345.291" y1="38.7407" x2="278.116" y2="433.22" gradientUnits="userSpaceOnUse">
<stop stop-color="#F47C39"/>
<stop offset="1" stop-color="#B0150C"/>
</linearGradient>
<linearGradient id="paint10_linear_2083_1241" x1="188.827" y1="38.7407" x2="249.355" y2="385.695" gradientUnits="userSpaceOnUse">
<stop stop-color="#F47C39"/>
<stop offset="1" stop-color="#B0150C"/>
</linearGradient>
<linearGradient id="paint11_linear_2083_1241" x1="275.925" y1="0" x2="275.925" y2="340.982" gradientUnits="userSpaceOnUse">
<stop stop-color="#FFB762"/>
<stop offset="1" stop-color="#FF730E" stop-opacity="0.99"/>
</linearGradient>
<linearGradient id="paint12_linear_2083_1241" x1="258.699" y1="95.2944" x2="259.259" y2="296.368" gradientUnits="userSpaceOnUse">
<stop stop-color="#FFB762"/>
<stop offset="1" stop-color="#FF730E" stop-opacity="0.99"/>
</linearGradient>
</defs>
</svg>
