<svg width="240" height="420" viewBox="0 0 240 420" fill="none" xmlns="http://www.w3.org/2000/svg">
<path d="M112.849 224.172L95.6013 209.896L65.5415 168.854L63.5703 158.37L85.992 155.248H155.967L180.607 158.37L177.65 167.962L153.011 209.896L123.69 224.172H112.849Z" fill="#E88029"/>
<path d="M142.163 397.753C140.558 396.003 140.099 375.426 140.099 375.426L166.863 369.694C166.863 369.694 170.418 379.871 170.992 383.647C171.566 387.423 170.722 391.64 171.044 394.525C171.366 397.41 156.866 400.608 152.75 400.293C148.634 399.979 143.768 399.503 142.163 397.753Z" fill="url(#paint0_radial_2140_1695)"/>
<path d="M154.633 392.718C159.4 392.635 169.516 392.561 170.876 392.774L170.932 396.405L168.686 398.996L183.901 407.04L185.553 414.09L176.416 417.412L146.797 412.769L141.367 407.164L142.629 400.571L141.336 394.256L154.633 392.718Z" fill="#313327" stroke="#242323"/>
<path d="M69.9009 393.032C68.8573 390.963 69.2132 375.764 69.2132 375.764L101.847 371.798C101.847 371.798 102.338 382.462 101.801 386.243C101.264 390.023 99.232 393.893 98.7094 396.754C98.1868 399.615 80.861 403.073 78.8016 400.991C76.7422 398.909 70.9445 395.101 69.9009 393.032Z" fill="url(#paint1_radial_2140_1695)"/>
<path d="M87.0664 393.574C82.6002 393.737 73.128 394.177 71.8688 394.445L72.04 397.846L74.3013 400.157L60.5571 408.453L59.4447 415.134L68.2001 417.782L95.6334 411.943L100.37 406.424L98.7837 400.317L99.6051 394.342L87.0664 393.574Z" fill="#313327" stroke="#242323"/>
<path d="M59.8712 370.274C59.6248 368.267 63.3207 335.923 63.3207 335.923H174.444C174.444 335.923 180.603 376.966 180.603 378.304C180.603 379.642 170.748 384.327 168.037 384.996C165.327 385.665 144.63 387.003 142.166 386.78C139.702 386.557 133.296 382.096 131.818 380.758C130.339 379.419 123.687 375.181 123.687 372.728C123.687 370.274 115.31 357.337 114.57 362.913C113.831 368.49 111.367 371.389 111.367 371.389C111.367 371.389 106.686 381.427 105.454 382.319C104.222 383.211 84.2641 384.996 81.061 384.996C77.8579 384.996 71.9444 381.65 68.4949 379.866C65.0454 378.081 60.1176 372.282 59.8712 370.274Z" fill="#313327" stroke="#1D1D1D"/>
<path d="M7.89144 221.884C8.74915 220.689 9.00986 219.307 10.4739 219.042C12.1404 219.042 35.1676 221.867 46.4729 223.28L66.7868 295.327L59.1342 307.149C59.1342 307.149 57.163 311.834 56.9166 316.518C56.6702 321.202 54.4527 312.057 54.2063 307.149C53.9599 302.242 55.9311 294.658 55.1919 295.327C54.4527 295.997 54.6991 295.997 53.3212 298.227C51.9434 300.458 51.5965 307.047 50.6109 309.314C49.7713 307.529 49.7713 307.819 49.7713 306.48V301.504V296.376C49.7713 293.097 50.5104 292.205 51.2496 291.089C51.3403 290.952 51.4125 290.849 51.4693 290.771C51.287 290.278 50.2211 288.199 49.7713 287.52L48.0465 285.067L0.477684 237.779C-1.21982 235.013 2.03432 229.129 3.57491 227.295C5.47659 225.032 6.17734 224.271 7.89144 221.884Z" fill="url(#paint2_radial_2140_1695)"/>
<path d="M27.1011 235.994C35.4784 234.655 38.3574 234.504 43.6094 236.663C48.8613 238.822 57.5918 245.004 57.5918 245.004" stroke="#DF5D20" stroke-width="2" stroke-linecap="round"/>
<path d="M232.109 216.531C231.251 215.337 230.99 213.955 229.526 213.689C227.86 213.689 204.832 216.515 193.527 217.928L170.981 299.12L178.634 310.942C178.634 310.942 180.605 315.626 180.851 320.311C181.098 324.995 183.315 315.849 183.562 310.942C183.808 306.035 181.837 298.451 182.576 299.12C183.315 299.789 183.069 299.789 184.447 302.02C185.825 304.251 186.172 310.84 187.157 313.106C187.997 311.322 187.997 311.611 187.997 310.273V305.297V300.169C187.997 296.89 187.258 295.997 186.518 294.882C186.428 294.745 186.356 294.641 186.299 294.564C186.481 294.071 187.547 291.992 187.997 291.313L189.722 288.86L239.522 232.426C241.22 229.66 237.966 223.776 236.425 221.943C234.523 219.679 233.823 218.919 232.109 216.531Z" fill="url(#paint3_radial_2140_1695)"/>
<path d="M212.899 230.642C204.522 229.304 201.643 229.153 196.391 231.311C191.139 233.47 182.408 239.652 182.408 239.652" stroke="#DF5D20" stroke-width="2" stroke-linecap="round"/>
<path d="M44.019 184.344C55.2112 179.51 69.0248 183.664 69.0248 183.664L68.5187 191.175L68.725 198.864L48.977 219.144C48.3817 219.657 47.1774 217.642 43.6662 223.137C40.155 228.632 21.1828 218.018 10.8343 219.31C0.485858 220.601 16.1463 204.44 19.0824 199.852C22.0185 195.265 32.8268 189.177 44.019 184.344Z" fill="#313327" stroke="#1D1D1D" stroke-width="1.5"/>
<path d="M55.924 165.678C58.388 167.686 85.9839 177.277 88.6942 179.954C91.4045 182.631 88.2015 186.199 91.4045 192.222C94.6076 198.245 95.3468 200.252 94.6076 201.59C93.8685 202.929 63.0694 185.753 60.1127 182.854C57.156 179.954 53.4601 163.671 55.924 165.678Z" fill="#313327" stroke="#1D1D1D" stroke-width="1.5"/>
<path d="M115.798 224.394C115.798 219.933 94.3621 201.814 94.3621 201.814L90.9126 200.475L75.3898 192.445L63.8093 185.531L59.3743 182.408C59.3743 182.408 43.8515 209.844 42.3732 216.758C40.8948 223.673 45.3444 238.447 45.3444 238.447C45.3444 238.447 51.7506 266.998 53.7217 271.682C55.6929 276.367 60.6062 301.126 63.8093 306.702C67.0124 312.279 58.3887 330.569 63.8093 336.369C69.23 342.168 107.914 348.637 112.102 346.406C116.291 344.176 115.305 330.569 115.798 326.331C116.021 324.416 115.999 295.773 115.798 269.006C115.598 242.239 115.798 226.839 115.798 224.394Z" fill="#313327" stroke="#1D1D1D" stroke-width="1.5"/>
<path d="M198.071 182.705C186.974 177.694 173.082 181.628 173.082 181.628L173.442 189.146L173.087 196.831L192.439 217.421C193.025 217.943 193.131 221.291 197.672 221.497C205.834 221.869 216.822 214.134 230.573 218.192C244.324 222.25 225.55 203.24 222.703 198.607C219.856 193.973 209.167 187.715 198.071 182.705Z" fill="#313327" stroke="#1D1D1D" stroke-width="1.5"/>
<path d="M181.355 165.678C178.891 167.686 151.295 177.277 148.585 179.954C145.875 182.631 149.078 186.199 145.875 192.222C142.672 198.245 141.932 200.252 142.672 201.59C143.411 202.929 174.21 185.753 177.167 182.854C180.123 179.954 183.819 163.671 181.355 165.678Z" fill="#313327" stroke="#1D1D1D" stroke-width="1.5"/>
<path d="M106.945 232.595C106.945 228.134 142.918 201.814 142.918 201.814L146.367 200.475L161.89 192.445L173.471 185.531L177.906 182.408C177.906 182.408 193.428 209.844 194.907 216.758C196.385 223.673 191.936 238.447 191.936 238.447C191.936 238.447 185.529 266.998 183.558 271.682C181.587 276.367 176.674 301.126 173.471 306.702C170.267 312.279 178.891 330.569 173.471 336.369C168.05 342.168 121.974 348.585 117.786 346.354C113.597 344.124 107.437 330.071 106.945 325.833C106.722 323.918 104.773 300.405 104.973 273.638C105.174 246.871 106.945 235.04 106.945 232.595Z" fill="#313327" stroke="#1D1D1D" stroke-width="1.5"/>
<path d="M152.325 234.655C146.69 235.409 135.044 236.916 133.541 236.916C133.819 238.962 134.585 243.054 135.419 243.054C136.254 243.054 146.064 243.7 150.864 244.023L166.934 243.054L169.022 238.047L152.325 234.655Z" fill="#313327" stroke="#1D1D1D" stroke-width="2"/>
<path d="M136.746 256.96L135.514 244.023L150.544 244.915L166.313 244.023L162.863 256.96L149.558 261.644L136.746 256.96Z" stroke="#1D1D1D" stroke-width="2"/>
<path d="M77.1934 234.655C72.0705 235.341 61.4833 236.711 60.1172 236.711C60.3702 238.571 61.0659 242.291 61.8248 242.291C62.5837 242.291 71.5013 242.878 75.8652 243.172L90.4748 242.291L92.3722 237.739L77.1934 234.655Z" fill="#313327" stroke="#1D1D1D" stroke-width="2"/>
<path d="M63.0301 254.933L61.9102 243.172L75.5737 243.983L89.9093 243.172L86.7734 254.933L74.6778 259.191L63.0301 254.933Z" stroke="#1D1D1D" stroke-width="2"/>
<path d="M168.529 226.624H134.527L134.966 229.683L144.838 230.193H168.529V226.624Z" fill="#1D1D1D" stroke="#1D1D1D" stroke-width="2"/>
<ellipse cx="110.875" cy="239.118" rx="1.47835" ry="1.33834" fill="#1D1D1D"/>
<ellipse cx="108.906" cy="260.529" rx="1.47835" ry="1.33834" fill="#1D1D1D"/>
<ellipse cx="107.916" cy="281.498" rx="1.47835" ry="1.33834" fill="#1D1D1D"/>
<ellipse cx="109.398" cy="306.479" rx="1.47835" ry="1.33834" fill="#1D1D1D"/>
<ellipse cx="111.859" cy="327.001" rx="1.47835" ry="1.33834" fill="#1D1D1D"/>
<path d="M183.174 159.697C184.143 163.06 146.844 170.605 141.491 183.008L98.6152 184.07C99.6201 173.911 58.8199 167.55 60.193 165.575C61.9093 163.108 58.1737 164.204 59.1834 160.823C60.193 157.441 57.7699 161.645 54.4382 164.204C51.2075 166.764 55.1449 162.742 56.5584 159.36C57.3661 156.253 54.2363 161.737 51.0056 164.204C47.7748 166.672 50.6017 162.833 48.0777 165.575C46.0585 167.769 44.3422 168.135 43.7364 168.043C45.1835 165.514 48.0777 159.415 48.0777 155.247C44.847 152.249 46.0585 147.844 47.0681 146.016C47.6739 144.401 48.0777 141.446 44.847 142.543C40.0009 144.462 34.9528 148.575 29.501 150.86C25.1395 152.688 29.2991 150.099 31.924 148.575L34.9528 146.016L37.8807 136.693C38.3855 134.926 41.4547 129.711 49.6931 122.984C51.4094 122.07 46.8662 121.887 40.5057 114.392C35.1548 104.156 36.0634 101.779 34.9528 99.22C33.8423 96.6609 36.0634 84.0479 36.8711 86.2414C37.6788 88.435 40.8085 94.1017 43.0297 97.4835C45.2508 100.865 47.6739 99.22 61.9093 105.435C64.1304 106.806 61.7074 103.699 61.9093 101.779C62.1112 99.8598 60.4958 95.0157 59.6882 91.2683C58.8805 87.521 58.8805 82.4027 56.4574 78.2898C54.0344 74.1768 50.1979 73.3542 40.8085 69.0585C31.4192 64.7628 32.3279 65.8595 38.0826 66.4993C42.6864 67.0112 49.02 68.4187 51.6113 69.0585C54.1353 70.4904 58.6382 72.3123 56.4574 68.1445C53.741 62.953 49.4205 60.9381 39.4998 56.3115L39.3951 56.2627C36.0028 54.9466 37.1067 54.6175 38.0826 54.6175C40.2364 55.1659 46.1393 57.195 52.52 60.924C55.3469 63.0262 51.3084 58.8219 47.27 56.2627C43.2316 53.7035 50.3998 56.4455 54.7411 58.8219C59.2843 61.0154 71.5005 70.3381 73.3178 74.8166C74.2265 72.5316 74.1255 71.1607 74.8322 67.5047C75.5389 63.8488 69.0775 53.1551 65.7458 49.9562C63.0804 47.397 61.4045 44.5027 60.8997 43.3755C61.5054 43.8325 63.4843 45.1852 66.5535 46.94C71.1976 49.1336 68.5727 49.4992 67.9669 44.7465C66.4525 40.4507 73.1159 49.9562 80.2841 57.9079C86.0187 64.2692 94.856 76.8883 98.5579 82.4027C97.6829 80.9098 95.8522 75.9682 95.5291 68.1445C95.1253 58.3649 95.5291 71.5263 99.4666 77.1016C98.356 74.8167 97.4474 68.1445 97.4474 62.9348C97.4474 57.7251 99.1637 54.6175 101.789 49.9562C104.414 45.2949 101.89 52.0584 100.577 57.9079C99.2647 63.7574 99.8704 66.1337 100.577 62.9348C101.284 59.7358 103.101 54.6175 105.625 49.9562C108.149 45.2949 118.75 30.4883 121.375 27.1065C124 23.7248 122.486 27.5635 121.375 33.2303C120.264 38.897 133.591 18.2409 134.5 19.7947C135.227 21.0377 134.803 21.775 134.5 21.9882C133.793 22.5671 131.996 25.6259 130.461 33.2303C129.815 43.9056 126.961 51.449 125.615 53.8863C124.538 57.0853 121.839 66.2069 119.659 77.1016C118.851 83.3168 119.255 91.4511 122.385 99.22C127.554 82.5489 133.356 69.485 135.61 65.0369C136.62 62.752 139.891 56.9573 144.899 52.0584C151.158 45.9347 151.259 40.7249 152.168 37.3432C153.077 33.9614 153.48 39.9023 154.288 43.5583C155.096 47.2142 150.855 50.9616 150.351 55.3487C149.947 58.8584 152.807 52.5458 154.288 48.9508C154.692 51.0834 155.257 58.2552 154.288 69.8811C154.591 72.4403 154.389 74.2682 157.014 69.8811C159.639 65.494 168.221 56.9025 171.754 54.6175C175.288 52.3326 188.211 45.2949 195.985 43.5583C203.759 41.8217 186.495 49.7734 181.749 53.8863C177.004 57.9993 173.975 63.4832 171.754 67.3219C169.533 71.1607 167.211 77.1016 166.403 79.8435C165.596 82.5854 169.432 75.7306 176.197 65.0369C178.721 61.1982 182.86 57.9993 189.119 55.3487C195.379 52.6981 198.408 51.7842 204.163 50.9616C209.917 50.139 194.268 58.8218 189.119 63.4832C183.971 68.1445 182.759 77.1016 181.749 83.0425C180.74 88.9833 174.278 96.1125 177.913 94.0103C181.547 91.9081 184.879 91.7253 192.249 91.4511C198.145 91.2318 203.187 84.84 204.97 81.6716C205.845 79.8741 208.06 76.4436 209.917 77.1016C210.16 82.0737 208.47 85.5103 207.595 86.6071C206.283 88.5874 202.628 94.9792 198.509 104.704C194.963 114.619 185.493 120.643 180.876 122.572C182.759 121.999 187.376 123.346 193.36 132.946C197.964 140.258 204.768 146.473 207.595 148.667C193.945 145.084 189.725 142.36 189.321 141.446C188.514 141.538 187.746 142.817 191.139 147.204C194.531 151.591 194.033 161.889 193.36 166.489C189.894 162.833 182.205 156.333 183.174 159.697Z" fill="url(#paint4_radial_2140_1695)"/>
<path d="M136.781 116.105C135.022 117.33 134.132 119.984 133.906 121.157L134.413 122.841C134.188 123.505 133.669 124.954 133.399 125.444C133.128 125.934 133.173 127.281 133.23 127.894L132.891 130.955C132.779 131.772 132.587 133.527 132.722 134.017C132.891 134.63 133.568 134.783 135.259 135.548C136.612 136.16 138.707 136.824 139.609 136.977C140.286 137.283 142.146 137.498 144.175 137.743C146.712 138.049 148.065 137.896 149.587 137.896C151.109 137.896 152.339 138.151 153.353 138.916C154.368 139.682 156.567 139.682 158.765 139.528C160.963 139.375 161.978 138.61 164.515 137.691C167.051 136.773 166.375 136.16 169.757 134.323C172.463 132.854 173.59 130.343 173.815 129.271C173.646 129.424 172.767 129.731 170.602 129.731C169.25 129.578 169.08 128.812 169.757 127.434C170.433 126.209 171.279 126.363 172.801 125.75C174.323 125.138 176.521 122.841 177.705 121.464C178.889 120.086 177.705 120.545 174.323 119.78C170.941 119.014 170.602 119.167 166.375 119.167C165.698 118.432 167.22 115.697 168.066 114.421C170.546 111.615 175.27 104.838 174.323 100.184C174.323 98.653 172.124 101.868 170.602 102.633C169.08 103.399 167.897 104.011 165.698 105.083C163.94 105.94 162.711 106.052 162.316 106.001C160.343 106.103 155.89 106.491 153.861 107.226C151.831 107.471 149.069 108.757 147.942 109.369L142.531 112.431C141.347 113.146 138.54 114.881 136.781 116.105Z" fill="url(#paint5_linear_2140_1695)"/>
<path d="M134.197 123.046L133.859 121.974L132.675 124.883C132.45 125.648 131.965 127.271 131.83 127.639C131.695 128.006 131.548 129.629 131.492 130.394L131.323 132.537L130.984 136.518L136.734 136.671C136.509 136.569 135.888 136.304 135.212 136.059C134.806 135.936 134.028 135.497 133.69 135.293C133.465 135.191 132.946 134.895 132.675 134.528V132.691V131.16C132.675 130.67 132.901 128.506 133.014 127.485L133.352 125.648C133.487 124.913 133.972 123.607 134.197 123.046Z" fill="#F9753B"/>
<path d="M134.388 125.037C133.847 125.894 133.373 131.314 133.204 133.916C133.153 134.651 132.845 134.529 132.697 134.375C132.64 132.079 132.663 126.996 133.204 125.037C133.204 123.322 134.444 120.036 135.064 118.607C135.29 117.893 136.282 116.219 138.446 115.239C144.027 112.483 145.211 112.483 147.917 111.412C150.081 110.554 154.568 110.238 156.541 110.187C158.063 110.187 161.614 110.401 163.644 111.259C166.18 112.33 166.518 113.402 165.335 113.096C164.151 112.79 160.431 112.636 156.541 112.79C153.429 112.912 153.892 113.555 154.512 113.861C154.906 113.861 156.338 114.229 158.909 115.698C161.479 117.168 163.023 119.985 163.474 121.21C163.756 122.179 164.523 124.394 165.335 125.496C166.349 126.874 169.562 127.486 169.393 128.099C169.224 128.711 167.702 131.161 166.518 132.538C165.335 133.916 163.136 135.447 160.769 136.672C158.875 137.652 156.146 137.795 155.019 137.744C154.737 137.846 153.497 138.111 150.791 138.356C149.168 138.601 145.605 138.458 144.027 138.356C143.125 138.254 141.051 137.988 139.968 137.744C138.886 137.499 137.263 136.927 136.586 136.672C136.417 136.672 135.504 136.366 133.204 135.141C132.697 134.835 133.204 134.529 134.388 135.141C135.572 135.753 136.755 136.06 138.446 136.672C139.799 137.162 142.28 137.59 143.351 137.744C144.478 137.846 147.342 137.988 149.777 137.744C152.821 137.437 153.159 136.978 154.681 136.672C155.898 136.427 157.556 134.937 158.232 134.222C158.796 133.61 160.092 131.957 160.769 130.242C161.614 128.099 161.107 123.812 160.769 122.741C160.431 121.669 159.416 119.985 159.078 119.373C158.807 118.883 157.048 117.433 156.203 116.77C154.85 115.851 152.821 114.933 151.299 114.627C150.041 114.374 148.762 114.474 148.255 114.627C147.747 114.78 146.225 115.392 144.365 116.311C142.505 117.229 140.645 118.454 138.446 119.985C136.688 121.21 135.684 122.332 135.403 122.741C135.233 122.894 134.794 123.567 134.388 125.037Z" fill="url(#paint6_linear_2140_1695)"/>
<path d="M135.89 121.517C134.132 122.742 133.241 131.057 133.016 134.527C133.692 135.507 136.623 136.112 137.92 136.52C139.273 137.286 143.061 137.65 146.713 137.895C150.366 138.14 153.083 137.334 153.985 136.977C154.492 136.875 156.014 136.119 157.367 135.14C159.27 133.762 161.595 129.937 161.595 128.713V125.191C161.595 123.66 160.682 119.833 157.029 116.771C151.956 114.169 150.096 114.016 147.897 113.863C145.699 113.71 138.089 119.986 135.89 121.517Z" fill="white"/>
<path d="M142.374 135.701C139.654 135.168 137.693 133.167 137.053 132.233C138.235 133.407 139.714 134.056 140.305 134.234C141.635 134.456 144.532 134.741 145.478 134.101C146.809 133.834 147.695 132.633 148.287 131.966C148.878 131.299 148.878 127.831 148.73 127.297C148.582 126.763 147.991 125.563 147.548 124.896C147.104 124.229 146.365 123.695 145.183 123.162C144.237 122.735 142.423 122.895 141.635 123.028C140.6 123.206 138.324 123.749 137.496 124.496C136.166 125.163 135.723 127.831 135.723 127.43V126.096C135.723 125.429 136.462 123.962 137.053 123.162C137.644 122.361 138.383 121.427 139.27 120.76C140.157 120.093 141.487 119.56 142.226 119.293C142.965 119.026 143.113 118.759 145.626 118.759C147.636 118.759 149.223 119.204 149.765 119.426C150.258 119.693 151.125 120.253 150.652 120.36C150.06 120.494 148.878 121.161 148.287 121.828C147.814 122.361 147.597 123.829 147.548 124.496C148.09 125.163 149.144 126.683 149.026 127.43C149.469 127.964 150.06 128.231 152.278 128.631C154.495 129.031 155.677 126.763 155.677 127.564C155.677 128.204 155.283 129.698 155.086 130.365C154.692 130.988 153.697 132.473 152.869 133.434C152.041 134.394 150.652 135.079 150.06 135.301C149.666 135.435 148.494 135.781 146.956 136.102C145.419 136.422 143.261 135.968 142.374 135.701Z" fill="#F95C55"/>
<path d="M136.906 127.038C136.061 127.804 135.723 128.416 135.723 128.11C135.835 127.498 136.061 126.181 136.061 125.813C136.061 125.354 136.568 124.589 136.737 124.283C136.873 124.038 137.357 123.568 137.583 123.364C137.752 123.109 138.395 122.476 139.612 121.986C140.694 121.251 142.656 121.17 143.502 121.221C144.291 121.323 146.14 121.619 147.222 121.986C148.575 122.445 150.773 125.201 150.942 126.885C151.111 128.569 150.435 131.019 149.759 132.09C149.082 133.162 147.898 133.774 147.053 134.234C146.207 134.693 142.994 135.152 141.134 134.54C139.274 133.927 138.597 133.468 137.752 133.009C136.906 132.55 136.737 132.09 136.568 131.631C136.433 131.264 137.301 131.784 137.752 132.09C138.203 132.243 139.308 132.458 140.119 132.09C140.458 131.937 141.134 131.784 141.811 130.559C142.352 129.58 142.036 128.518 141.811 128.11C141.472 127.753 140.661 126.946 140.119 126.579C139.443 126.12 137.752 126.273 136.906 127.038Z" fill="#743C32"/>
<path d="M103.953 116.312C105.576 117.443 106.398 119.892 106.607 120.976L106.138 122.53C106.346 123.142 106.825 124.48 107.075 124.932C107.325 125.385 107.283 126.628 107.231 127.193L107.543 130.02C107.647 130.773 107.824 132.394 107.699 132.846C107.543 133.411 106.919 133.552 105.358 134.259C104.109 134.824 102.175 135.437 101.342 135.578C100.718 135.861 99.0008 136.059 97.1277 136.285C94.7862 136.567 93.5375 136.426 92.1326 136.426C90.7277 136.426 89.5921 136.661 88.6555 137.368C87.719 138.074 85.6897 138.074 83.6605 137.933C81.6312 137.792 80.6946 137.085 78.3532 136.237C76.0118 135.389 76.6362 134.824 73.5142 133.129C71.0167 131.772 69.9761 129.454 69.7679 128.465C69.924 128.607 70.7357 128.889 72.7338 128.889C73.9825 128.748 74.1386 128.041 73.5142 126.769C72.8899 125.639 72.1094 125.78 70.7045 125.215C69.2996 124.65 67.2704 122.53 66.1777 121.258C65.0851 119.986 66.1777 120.41 69.2996 119.704C72.4216 118.997 72.7338 119.139 76.6362 119.139C77.2605 118.46 75.8557 115.936 75.0752 114.758C72.7858 112.167 68.4255 105.912 69.2996 101.616C69.2996 100.203 71.3289 103.17 72.7338 103.877C74.1386 104.583 75.2313 105.149 77.2605 106.138C78.8839 106.929 80.0182 107.033 80.3825 106.986C82.2036 107.08 86.3141 107.438 88.1873 108.116C90.0604 108.342 92.61 109.529 93.6506 110.095L98.6457 112.921C99.7383 113.58 102.33 115.182 103.953 116.312Z" fill="url(#paint7_linear_2140_1695)"/>
<path d="M106.339 122.719L106.651 121.729L107.744 124.414C107.952 125.121 108.399 126.619 108.524 126.958C108.649 127.297 108.784 128.795 108.836 129.502L108.992 131.48L109.305 135.154L103.997 135.295C104.206 135.201 104.778 134.956 105.402 134.73C105.777 134.617 106.495 134.212 106.807 134.024C107.015 133.929 107.494 133.656 107.744 133.317V131.621V130.208C107.744 129.756 107.536 127.759 107.432 126.817L107.119 125.121C106.994 124.443 106.547 123.237 106.339 122.719Z" fill="#F9753B"/>
<path d="M106.162 124.556C106.661 125.347 107.098 130.35 107.254 132.752C107.302 133.43 107.586 133.317 107.723 133.176C107.775 131.056 107.754 126.365 107.254 124.556C107.254 122.973 106.11 119.94 105.537 118.621C105.329 117.961 104.414 116.416 102.415 115.512C97.2643 112.968 96.1716 112.968 93.6741 111.979C91.6761 111.188 87.5343 110.896 85.7132 110.849C84.3084 110.849 81.0303 111.046 79.1572 111.838C76.8158 112.827 76.5036 113.816 77.5962 113.534C78.6889 113.251 82.123 113.11 85.7132 113.251C88.5854 113.364 88.1587 113.957 87.5864 114.24C87.2222 114.24 85.9005 114.579 83.5279 115.936C81.1552 117.292 79.7296 119.893 79.3133 121.023C79.0531 121.918 78.3455 123.962 77.5962 124.98C76.6597 126.252 73.6938 126.817 73.8499 127.382C74.006 127.947 75.4109 130.208 76.5036 131.48C77.5962 132.752 79.6255 134.165 81.8108 135.296C83.5591 136.2 86.0775 136.332 87.1181 136.285C87.3782 136.379 88.523 136.624 91.0205 136.85C92.519 137.076 95.8074 136.944 97.2643 136.85C98.0968 136.756 100.012 136.511 101.011 136.285C102.01 136.059 103.508 135.531 104.133 135.296C104.289 135.296 105.132 135.013 107.254 133.883C107.723 133.6 107.254 133.317 106.162 133.883C105.069 134.448 103.976 134.73 102.415 135.296C101.167 135.748 98.8773 136.144 97.8887 136.285C96.8481 136.379 94.2049 136.511 91.9571 136.285C89.1473 136.002 88.8352 135.578 87.4303 135.296C86.3064 135.07 84.7767 133.694 84.1523 133.035C83.632 132.469 82.4352 130.943 81.8108 129.361C81.0304 127.382 81.4986 123.425 81.8108 122.436C82.123 121.447 83.0596 119.893 83.3718 119.327C83.6216 118.875 85.2449 117.537 86.0254 116.925C87.2742 116.077 89.1473 115.229 90.5522 114.947C91.7127 114.713 92.8936 114.805 93.3619 114.947C93.8302 115.088 95.2351 115.653 96.9521 116.501C98.6692 117.349 100.386 118.479 102.415 119.893C104.039 121.023 104.965 122.059 105.225 122.436C105.381 122.578 105.787 123.199 106.162 124.556Z" fill="url(#paint8_linear_2140_1695)"/>
<path d="M104.776 121.308C106.399 122.439 107.222 130.114 107.43 133.317C106.805 134.222 104.1 134.78 102.903 135.157C101.654 135.864 98.1576 136.2 94.7859 136.426C91.4143 136.652 88.9063 135.908 88.0738 135.578C87.6055 135.484 86.2007 134.787 84.9519 133.883C83.1958 132.611 81.0495 129.081 81.0495 127.95V124.7C81.0495 123.287 81.8924 119.754 85.2641 116.928C89.947 114.525 91.664 114.384 93.6933 114.243C95.7225 114.101 102.747 119.895 104.776 121.308Z" fill="white"/>
<path d="M98.7938 134.401C101.304 133.908 103.114 132.061 103.706 131.199C102.614 132.283 101.25 132.882 100.704 133.046C99.476 133.251 96.8018 133.514 95.9286 132.923C94.7006 132.677 93.882 131.569 93.3362 130.953C92.7905 130.337 92.7905 127.136 92.9269 126.643C93.0634 126.15 93.6091 125.042 94.0184 124.427C94.4278 123.811 95.11 123.318 96.2015 122.826C97.0747 122.432 98.7483 122.579 99.476 122.703C100.431 122.867 102.532 123.368 103.296 124.057C104.524 124.673 104.934 127.136 104.934 126.766V125.535C104.934 124.919 104.251 123.565 103.706 122.826C103.16 122.087 102.478 121.225 101.659 120.609C100.84 119.994 99.6125 119.501 98.9303 119.255C98.2481 119.008 98.1116 118.762 95.7922 118.762C93.9366 118.762 92.4721 119.173 91.9719 119.378C91.5171 119.624 90.7166 120.141 91.1532 120.24C91.699 120.363 92.7905 120.979 93.3362 121.594C93.7729 122.087 93.973 123.441 94.0184 124.057C93.5182 124.673 92.5449 126.077 92.6541 126.766C92.2447 127.259 91.699 127.505 89.6524 127.874C87.6058 128.244 86.5143 126.15 86.5143 126.889C86.5143 127.48 86.8781 128.86 87.06 129.475C87.4239 130.05 88.3426 131.421 89.1066 132.307C89.8707 133.194 91.1532 133.826 91.699 134.031C92.0628 134.154 93.1452 134.475 94.5642 134.77C95.9832 135.066 97.9752 134.647 98.7938 134.401Z" fill="#F95C55"/>
<path d="M103.841 126.405C104.621 127.111 104.934 127.676 104.934 127.394C104.83 126.829 104.621 125.613 104.621 125.274C104.621 124.85 104.153 124.144 103.997 123.861C103.872 123.635 103.425 123.202 103.217 123.013C103.06 122.778 102.467 122.194 101.343 121.741C100.344 121.063 98.5337 120.988 97.7532 121.035C97.0248 121.129 95.3181 121.402 94.3191 121.741C93.0703 122.165 91.0411 124.709 90.885 126.263C90.7289 127.818 91.3533 130.079 91.9777 131.068C92.602 132.057 93.6947 132.622 94.4752 133.046C95.2557 133.47 98.2215 133.894 99.9385 133.329C101.656 132.764 102.28 132.34 103.06 131.916C103.841 131.492 103.997 131.068 104.153 130.644C104.278 130.305 103.477 130.785 103.06 131.068C102.644 131.209 101.624 131.407 100.875 131.068C100.563 130.927 99.9385 130.785 99.3142 129.655C98.8147 128.75 99.106 127.771 99.3142 127.394C99.6263 127.064 100.376 126.32 100.875 125.981C101.5 125.557 103.06 125.698 103.841 126.405Z" fill="#743C32"/>
<path d="M88.924 160.066L87.2305 158.724C87.795 159.044 89.559 159.491 92.0993 158.724C95.2747 157.766 98.8734 156.712 99.826 155.083C100.779 153.454 102.26 152.017 102.366 148.567C102.472 145.118 103.213 143.681 105.965 141.477C108.717 139.273 114.75 134.578 116.761 133.715C119.09 133.715 119.407 132.565 122.053 134.578C124.17 136.187 129.215 139.209 131.474 140.519C132.497 140.966 134.585 142.531 134.755 145.214C134.924 147.897 136.307 152.911 136.977 155.083C137.295 155.594 138.502 156.827 140.788 157.67C143.074 158.514 146.115 159.619 147.35 160.066L136.977 211.298L118.355 224.492L99.826 211.298L88.924 160.066Z" fill="#FBD23F"/>
<path d="M114.179 150.829C112.147 153.742 111.188 164.558 112.035 166.314L117.653 213.525L126.774 166.314C127.198 165.356 127.092 154.661 126.774 153.416C126.457 152.17 124.763 150.158 123.07 148.241C121.715 146.708 120.036 145.622 119.365 145.271C118.483 145.91 116.211 147.916 114.179 150.829Z" fill="#FADF5C"/>
<path d="M127.268 143.992C126.343 143.531 125.131 143.8 124.64 143.992C124.465 144.217 124.157 144.761 124.325 145.145C124.535 145.626 125.166 145.434 126.322 145.434C127.247 145.434 127.338 146.394 127.268 146.875L127.793 149.277C128.214 149.853 129.223 150.968 129.895 150.814C130.316 150.238 129.265 148.316 128.739 146.298C128.214 144.281 128.424 144.569 127.268 143.992Z" fill="#C1A540"/>
<path d="M110.084 143.992C111.015 143.532 112.236 143.8 112.73 143.992C112.906 144.215 113.217 144.758 113.047 145.142C112.836 145.621 112.201 145.429 111.036 145.429C110.105 145.429 110.013 146.387 110.084 146.866L109.554 149.262C109.131 149.837 108.115 150.948 107.437 150.795C107.014 150.22 108.073 148.304 108.602 146.291C109.131 144.279 108.919 144.567 110.084 143.992Z" fill="#C1A540"/>
<path d="M106.464 95.0236C105.636 100.795 109.539 107.455 113.114 112.215C115.543 114.537 116.162 116.113 124.221 115.192L131.168 110.371C133.126 108.715 135.013 106.372 136.743 104.574C137.611 103.673 137.787 101.383 138.168 100.218C138.168 100.218 140.616 92.3095 143.632 86.8901C146.649 81.4707 152.708 70.9428 152.708 70.9428C154.144 68.854 155.67 65.7573 157.134 64.0786C158.599 62.3999 161.688 56.8116 161.875 54.7162C162.269 50.2803 161.224 45.7744 161.658 41.2652C161.886 38.8937 161.123 36.4354 161.28 34.0516L158.563 20.9742C156.55 10.7131 157.899 24.4231 158.082 26.162C158.772 32.6849 155.807 38.5929 153.631 44.574C152.422 47.8965 150.909 51.4698 148.834 54.4382C146.306 58.0543 143.185 60.8616 139.994 63.9531C133.32 70.4189 124.082 73.7646 116.25 78.7418C110.188 82.5945 107.392 88.5645 106.464 95.0236Z" fill="url(#paint9_linear_2140_1695)"/>
<path d="M135.256 95.0236C136.085 100.795 132.182 107.455 128.606 112.215C126.178 114.537 125.559 116.113 117.499 115.192L110.553 110.371C108.594 108.715 106.708 106.372 104.978 104.574C104.11 103.673 103.934 101.383 103.553 100.218C103.553 100.218 101.105 92.3095 98.0883 86.8901C95.0718 81.4707 89.0128 70.9428 89.0128 70.9428C87.5766 68.854 86.0505 65.7573 84.5863 64.0786C83.1221 62.3999 80.0325 56.8116 79.846 54.7162C79.4513 50.2803 80.4971 45.7744 80.0631 41.2652C79.8348 38.8937 80.5972 36.4354 80.4406 34.0516L83.1578 20.9742C85.1708 10.7131 83.8221 24.4231 83.6383 26.162C82.9488 32.6849 85.9133 38.5929 88.0894 44.574C89.2982 47.8965 90.8121 51.4698 92.8872 54.4382C95.4149 58.0543 98.5358 60.8616 101.727 63.9531C108.401 70.4189 117.638 73.7646 125.47 78.7418C131.533 82.5945 134.329 88.5645 135.256 95.0236Z" fill="url(#paint10_linear_2140_1695)"/>
<path d="M102.077 98.1822C103.213 104.611 109.736 110.633 115.242 114.711C118.661 116.503 121.498 116.875 129.821 113.57L132.7 111.452C135.402 109.472 137.86 104.605 139.087 102.175L139.092 102.164C139.707 100.948 139.092 96.3542 139.092 94.9949C139.092 94.9949 137.758 85.4506 139.092 78.77C140.427 72.0894 143.232 59.0541 143.232 59.0541C144.04 56.4004 144.59 52.6399 145.572 50.4182C146.553 48.1964 147.907 41.3136 147.372 39.0122C146.239 34.1404 143.536 29.6078 142.419 24.6461C141.832 22.0366 140.152 19.6189 139.483 17.0168L131.98 3.77033C126.221 -6.65776 132.478 7.66091 133.285 9.47328C136.313 16.272 135.206 23.4618 134.971 30.5034C134.84 34.4149 134.47 38.6832 133.285 42.4641C131.842 47.0698 129.48 50.9785 127.141 55.2123C122.251 64.0672 113.516 70.3122 106.861 77.9032C101.71 83.7792 100.805 90.9871 102.077 98.1822Z" fill="url(#paint11_linear_2140_1695)"/>
<path d="M130.071 94.8332C129.43 98.4608 125.749 101.859 122.643 104.16C120.713 105.171 120.027 106.024 115.33 104.16L112.08 100.114C111.223 98.7944 110.545 97.07 109.854 95.7011C109.507 95.0146 109.854 93.6005 109.854 92.8335C109.854 92.8335 109.938 87.6492 109.185 83.8796C108.432 80.11 106.849 72.7546 106.849 72.7546C106.393 71.2573 106.082 69.1353 105.528 67.8817C104.975 66.6281 104.211 62.7443 104.513 61.4458C105.152 58.6968 106.677 56.1392 107.307 53.3395C107.639 51.867 108.587 50.5028 108.964 49.0346L113.198 41.5601C116.448 35.6759 112.917 43.7554 112.461 44.778C110.753 48.6143 111.377 52.6712 111.51 56.6445C111.584 58.8517 111.793 61.2601 112.461 63.3935C113.275 65.9923 114.609 68.1979 115.928 70.5869C118.688 75.5833 123.616 79.1072 127.371 83.3905C130.278 86.7061 130.789 90.7733 130.071 94.8332Z" fill="url(#paint12_linear_2140_1695)"/>
<path d="M197.365 194.035C194.073 192.298 189.397 189.487 190.904 187.145C192.412 184.804 196.302 184.314 199.594 186.05C202.886 187.787 205.413 190.407 203.906 192.748C202.398 195.09 200.657 195.772 197.365 194.035Z" fill="#1D1D1D"/>
<path d="M36.2641 200.727C39.556 198.991 44.2322 196.179 42.7248 193.838C41.2173 191.496 37.3266 191.006 34.0347 192.743C30.7428 194.48 28.2158 197.099 29.7232 199.441C31.2307 201.782 32.9722 202.464 36.2641 200.727Z" fill="#1D1D1D"/>
<defs>
<radialGradient id="paint0_radial_2140_1695" cx="0" cy="0" r="1" gradientUnits="userSpaceOnUse" gradientTransform="translate(153.055 375.182) rotate(66.2602) scale(25.3013 33.7426)">
<stop stop-color="#FBD23F"/>
<stop offset="1" stop-color="#F9753B"/>
</radialGradient>
<radialGradient id="paint1_radial_2140_1695" cx="0" cy="0" r="1" gradientUnits="userSpaceOnUse" gradientTransform="translate(86.9338 373.826) rotate(82.772) scale(24.9642 34.1981)">
<stop stop-color="#FBD23F"/>
<stop offset="1" stop-color="#F9753B"/>
</radialGradient>
<radialGradient id="paint2_radial_2140_1695" cx="0" cy="0" r="1" gradientUnits="userSpaceOnUse" gradientTransform="translate(63.0318 260.566) rotate(-157.704) scale(68.1249 38.1722)">
<stop offset="0.1268" stop-color="#FBC83D"/>
<stop offset="1" stop-color="#F9753B"/>
</radialGradient>
<radialGradient id="paint3_radial_2140_1695" cx="0" cy="0" r="1" gradientUnits="userSpaceOnUse" gradientTransform="translate(178.018 261.094) rotate(-31.3209) scale(72.5496 40.6515)">
<stop stop-color="#FBC83D"/>
<stop offset="1" stop-color="#F9753B"/>
</radialGradient>
<radialGradient id="paint4_radial_2140_1695" cx="0" cy="0" r="1" gradientUnits="userSpaceOnUse" gradientTransform="translate(118.87 120.524) rotate(95.2672) scale(88.1964 105.933)">
<stop stop-color="#FBC83D"/>
<stop offset="1" stop-color="#DF5D20"/>
</radialGradient>
<linearGradient id="paint5_linear_2140_1695" x1="165.314" y1="139.58" x2="158.351" y2="92.8176" gradientUnits="userSpaceOnUse">
<stop offset="0.569385" stop-color="#F9753B"/>
<stop offset="1" stop-color="#D77145"/>
</linearGradient>
<linearGradient id="paint6_linear_2140_1695" x1="141.469" y1="140.04" x2="138.275" y2="108.28" gradientUnits="userSpaceOnUse">
<stop offset="0.76081" stop-color="#C42C22"/>
<stop offset="0.993711" stop-color="#EBB099"/>
</linearGradient>
<linearGradient id="paint7_linear_2140_1695" x1="77.6157" y1="137.98" x2="84.0427" y2="94.8164" gradientUnits="userSpaceOnUse">
<stop offset="0.569385" stop-color="#F9753B"/>
<stop offset="1" stop-color="#D77145"/>
</linearGradient>
<linearGradient id="paint8_linear_2140_1695" x1="99.6252" y1="138.405" x2="102.574" y2="109.088" gradientUnits="userSpaceOnUse">
<stop offset="0.76081" stop-color="#C42C22"/>
<stop offset="0.993711" stop-color="#EBB099"/>
</linearGradient>
<linearGradient id="paint9_linear_2140_1695" x1="153.232" y1="16.0304" x2="125.436" y2="179.263" gradientUnits="userSpaceOnUse">
<stop stop-color="#F47C39"/>
<stop offset="1" stop-color="#B0150C"/>
</linearGradient>
<linearGradient id="paint10_linear_2140_1695" x1="88.4885" y1="16.0304" x2="113.535" y2="159.598" gradientUnits="userSpaceOnUse">
<stop stop-color="#F47C39"/>
<stop offset="1" stop-color="#B0150C"/>
</linearGradient>
<linearGradient id="paint11_linear_2140_1695" x1="124.528" y1="0" x2="124.528" y2="141.096" gradientUnits="userSpaceOnUse">
<stop stop-color="#FFB762"/>
<stop offset="1" stop-color="#FF730E" stop-opacity="0.99"/>
</linearGradient>
<linearGradient id="paint12_linear_2140_1695" x1="117.403" y1="39.4326" x2="117.635" y2="122.635" gradientUnits="userSpaceOnUse">
<stop stop-color="#FFB762"/>
<stop offset="1" stop-color="#FF730E" stop-opacity="0.99"/>
</linearGradient>
</defs>
</svg>
