<svg width="87" height="72" viewBox="0 0 87 72" fill="none" xmlns="http://www.w3.org/2000/svg">
<rect width="13.7302" height="14.7349" transform="matrix(4.37114e-08 -1 -1 -4.37114e-08 87 57.6)" fill="#FFE867"/>
<rect width="14.4" height="14.7349" transform="matrix(4.37114e-08 -1 -1 -4.37114e-08 87 43.8698)" fill="#FFE867"/>
<rect width="14.4" height="14.4" transform="matrix(4.37114e-08 -1 -1 -4.37114e-08 72.2656 43.8698)" fill="#FFE867"/>
<rect width="13.7302" height="13.7302" transform="matrix(4.37114e-08 -1 -1 -4.37114e-08 57.8652 57.6)" fill="#FFE867"/>
<rect width="14.4" height="14.7349" transform="matrix(4.37114e-08 -1 -1 -4.37114e-08 44.1348 72)" fill="#FFE867"/>
<rect width="14.4" height="14.7349" transform="matrix(4.37114e-08 -1 -1 -4.37114e-08 44.1348 43.8698)" fill="#FFE867"/>
<rect width="13.7302" height="14.4" transform="matrix(4.37114e-08 -1 -1 -4.37114e-08 14.665 57.6)" fill="#FFE867"/>
<rect width="14.4" height="14.4" transform="matrix(4.37114e-08 -1 -1 -4.37114e-08 14.665 43.8698)" fill="#FFE867"/>
<rect width="14.7349" height="14.7349" transform="matrix(4.37114e-08 -1 -1 -4.37114e-08 29.4004 29.4697)" fill="#FFE867"/>
<rect width="14.7349" height="14.4" transform="matrix(4.37114e-08 -1 -1 -4.37114e-08 14.665 14.7349)" fill="#FFE867"/>
<rect width="14.7349" height="14.7349" transform="matrix(4.37114e-08 -1 -1 -4.37114e-08 44.1348 14.7349)" fill="#FFE867"/>
<rect width="14.7349" height="13.7302" transform="matrix(4.37114e-08 -1 -1 -4.37114e-08 57.8652 29.4697)" fill="#FFE867"/>
<rect width="14.7349" height="14.7349" transform="matrix(4.37114e-08 -1 -1 -4.37114e-08 85.9951 14.7349)" fill="#FFE867"/>
<rect width="14.7349" height="14.7349" transform="matrix(4.37114e-08 -1 -1 -4.37114e-08 71.2607 14.7349)" fill="#FFE867"/>
</svg>
