<svg width="672" height="575" viewBox="0 0 672 575" fill="none" xmlns="http://www.w3.org/2000/svg">
<rect x="195.168" width="95.3663" height="97.5842" fill="#0C3C90" fill-opacity="0.2"/>
<rect x="290.535" y="97.5841" width="90.9307" height="95.3663" fill="#0C3C90" fill-opacity="0.2"/>
<rect x="381.465" y="97.5841" width="95.3663" height="95.3663" fill="#0C3C90" fill-opacity="0.2"/>
<rect x="476.832" y="97.5841" width="97.5842" height="95.3663" fill="#0C3C90" fill-opacity="0.2"/>
<rect x="574.416" width="97.5842" height="97.5842" fill="#0C3C90" fill-opacity="0.2"/>
<rect x="381.465" y="192.95" width="95.3663" height="97.5842" fill="#0C3C90" fill-opacity="0.2"/>
<rect x="290.535" y="290.535" width="90.9307" height="90.9307" fill="#0C3C90" fill-opacity="0.2"/>
<rect x="381.465" y="381.465" width="95.3663" height="97.5842" fill="#0C3C90" fill-opacity="0.2"/>
<rect x="381.465" y="479.049" width="95.3663" height="95.3663" fill="#0C3C90" fill-opacity="0.2"/>
<rect x="195.168" y="479.049" width="95.3663" height="95.3663" fill="#0C3C90" fill-opacity="0.2"/>
<rect x="97.584" y="479.049" width="97.5842" height="95.3663" fill="#0C3C90" fill-opacity="0.2"/>
<rect y="381.465" width="97.5842" height="97.5842" fill="#0C3C90" fill-opacity="0.2"/>
<rect x="97.584" y="290.535" width="97.5842" height="90.9307" fill="#0C3C90" fill-opacity="0.2"/>
<rect x="97.584" y="192.95" width="97.5842" height="97.5842" fill="#0C3C90" fill-opacity="0.2"/>
<rect width="97.5842" height="97.5842" fill="#0C3C90" fill-opacity="0.2"/>
<rect x="476.832" y="290.535" width="97.5842" height="90.9307" fill="#0C3C90" fill-opacity="0.2"/>
<rect x="574.416" y="192.95" width="97.5842" height="97.5842" fill="#0C3C90" fill-opacity="0.2"/>
</svg>
