<svg width="303" height="259" viewBox="0 0 303 259" fill="none" xmlns="http://www.w3.org/2000/svg">
<rect x="215" y="259" width="43" height="44" transform="rotate(180 215 259)" fill="#808080" fill-opacity="0.08"/>
<rect x="172" y="215" width="41" height="43" transform="rotate(180 172 215)" fill="#808080" fill-opacity="0.08"/>
<rect x="131" y="215" width="43" height="43" transform="rotate(180 131 215)" fill="#808080" fill-opacity="0.08"/>
<rect x="88" y="215" width="44" height="43" transform="rotate(180 88 215)" fill="#808080" fill-opacity="0.08"/>
<rect x="44" y="259" width="44" height="44" transform="rotate(180 44 259)" fill="#808080" fill-opacity="0.08"/>
<rect x="131" y="172" width="43" height="44" transform="rotate(180 131 172)" fill="#808080" fill-opacity="0.08"/>
<rect x="172" y="128" width="41" height="41" transform="rotate(180 172 128)" fill="#808080" fill-opacity="0.08"/>
<rect x="131" y="87" width="43" height="44" transform="rotate(180 131 87)" fill="#808080" fill-opacity="0.08"/>
<rect x="131" y="43" width="43" height="43" transform="rotate(180 131 43)" fill="#808080" fill-opacity="0.08"/>
<rect x="215" y="43" width="43" height="43" transform="rotate(180 215 43)" fill="#808080" fill-opacity="0.08"/>
<rect x="259" y="43" width="44" height="43" transform="rotate(180 259 43)" fill="#808080" fill-opacity="0.08"/>
<rect x="303" y="87" width="44" height="44" transform="rotate(180 303 87)" fill="#808080" fill-opacity="0.08"/>
<rect x="259" y="128" width="44" height="41" transform="rotate(180 259 128)" fill="#808080" fill-opacity="0.08"/>
<rect x="259" y="172" width="44" height="44" transform="rotate(180 259 172)" fill="#808080" fill-opacity="0.08"/>
<rect x="303" y="259" width="44" height="44" transform="rotate(180 303 259)" fill="#808080" fill-opacity="0.08"/>
<rect x="88" y="128" width="44" height="41" transform="rotate(180 88 128)" fill="#808080" fill-opacity="0.08"/>
<rect x="44" y="172" width="44" height="44" transform="rotate(180 44 172)" fill="#808080" fill-opacity="0.08"/>
</svg>
