<svg width="536" height="95" viewBox="0 0 536 95" fill="none" xmlns="http://www.w3.org/2000/svg">
<mask id="path-1-outside-1_2074_551" maskUnits="userSpaceOnUse" x="0" y="0" width="536" height="95" fill="black">
<rect fill="white" width="536" height="95"/>
<path d="M49.816 92L60.824 2.39999H72.472L61.464 92H49.816ZM1.944 70.24V58.592H82.84V70.24H1.944ZM16.536 92L27.672 2.39999H39.32L28.184 92H16.536ZM6.296 35.808V24.16H86.936L87.064 35.808H6.296ZM137.407 92V2.39999H151.103L207.295 71.392H200.511V2.39999H217.023V92H203.327L147.135 23.008H153.919V92H137.407ZM256.392 39.648H300.936V53.344H256.392V39.648ZM257.672 78.048H308.232V92H241.032V2.39999H306.44V16.352H257.672V78.048ZM346.652 92L316.956 2.39999H334.236L360.732 83.424H352.156L379.676 2.39999H395.036L421.788 83.424H413.468L440.604 2.39999H456.476L426.78 92H409.116L384.668 18.912H389.276L364.444 92H346.652ZM497.808 93.28C490.811 93.28 484.112 92.2987 477.712 90.336C471.312 88.288 466.235 85.6853 462.48 82.528L468.24 69.6C471.824 72.416 476.261 74.7627 481.552 76.64C486.843 78.5173 492.261 79.456 497.808 79.456C502.501 79.456 506.299 78.944 509.2 77.92C512.101 76.896 514.235 75.5307 515.6 73.824C516.965 72.032 517.648 70.0267 517.648 67.808C517.648 65.0773 516.667 62.9013 514.704 61.28C512.741 59.5733 510.181 58.2507 507.024 57.312C503.952 56.288 500.496 55.3493 496.656 54.496C492.901 53.6427 489.104 52.6613 485.264 51.552C481.509 50.3573 478.053 48.864 474.896 47.072C471.824 45.1947 469.307 42.72 467.344 39.648C465.381 36.576 464.4 32.6507 464.4 27.872C464.4 23.008 465.68 18.5707 468.24 14.56C470.885 10.464 474.853 7.22133 480.144 4.83199C485.52 2.35733 492.304 1.12 500.496 1.12C505.872 1.12 511.205 1.80266 516.496 3.168C521.787 4.53333 526.395 6.496 530.32 9.056L525.072 21.984C521.061 19.5947 516.923 17.8453 512.656 16.736C508.389 15.5413 504.293 14.944 500.368 14.944C495.76 14.944 492.005 15.4987 489.104 16.608C486.288 17.7173 484.197 19.168 482.832 20.96C481.552 22.752 480.912 24.8 480.912 27.104C480.912 29.8347 481.851 32.0533 483.728 33.76C485.691 35.3813 488.208 36.6613 491.28 37.6C494.437 38.5387 497.936 39.4773 501.776 40.416C505.616 41.2693 509.413 42.2507 513.168 43.36C517.008 44.4693 520.464 45.92 523.536 47.712C526.693 49.504 529.211 51.936 531.088 55.008C533.051 58.08 534.032 61.9627 534.032 66.656C534.032 71.4347 532.709 75.872 530.064 79.968C527.504 83.9787 523.536 87.2213 518.16 89.696C512.784 92.0853 506 93.28 497.808 93.28Z"/>
</mask>
<path d="M49.816 92L48.8235 91.8781L48.6856 93H49.816V92ZM60.824 2.39999V1.39999H59.9393L59.8315 2.27805L60.824 2.39999ZM72.472 2.39999L73.4645 2.52193L73.6024 1.39999H72.472V2.39999ZM61.464 92V93H62.3487L62.4565 92.1219L61.464 92ZM1.944 70.24H0.944V71.24H1.944V70.24ZM1.944 58.592V57.592H0.944V58.592H1.944ZM82.84 58.592H83.84V57.592H82.84V58.592ZM82.84 70.24V71.24H83.84V70.24H82.84ZM16.536 92L15.5436 91.8767L15.404 93H16.536V92ZM27.672 2.39999V1.39999H26.7886L26.6796 2.27666L27.672 2.39999ZM39.32 2.39999L40.3124 2.52333L40.452 1.39999H39.32V2.39999ZM28.184 92V93H29.0674L29.1764 92.1233L28.184 92ZM6.296 35.808H5.296V36.808H6.296V35.808ZM6.296 24.16V23.16H5.296V24.16H6.296ZM86.936 24.16L87.9359 24.149L87.9251 23.16H86.936V24.16ZM87.064 35.808V36.808H88.0751L88.0639 35.797L87.064 35.808ZM49.816 92L50.8085 92.1219L61.8165 2.52193L60.824 2.39999L59.8315 2.27805L48.8235 91.8781L49.816 92ZM60.824 2.39999V3.39999H72.472V2.39999V1.39999H60.824V2.39999ZM72.472 2.39999L71.4795 2.27805L60.4715 91.8781L61.464 92L62.4565 92.1219L73.4645 2.52193L72.472 2.39999ZM61.464 92V91H49.816V92V93H61.464V92ZM1.944 70.24H2.944V58.592H1.944H0.944V70.24H1.944ZM1.944 58.592V59.592H82.84V58.592V57.592H1.944V58.592ZM82.84 58.592H81.84V70.24H82.84H83.84V58.592H82.84ZM82.84 70.24V69.24H1.944V70.24V71.24H82.84V70.24ZM16.536 92L17.5284 92.1233L28.6644 2.52333L27.672 2.39999L26.6796 2.27666L15.5436 91.8767L16.536 92ZM27.672 2.39999V3.39999H39.32V2.39999V1.39999H27.672V2.39999ZM39.32 2.39999L38.3276 2.27666L27.1916 91.8767L28.184 92L29.1764 92.1233L40.3124 2.52333L39.32 2.39999ZM28.184 92V91H16.536V92V93H28.184V92ZM6.296 35.808H7.296V24.16H6.296H5.296V35.808H6.296ZM6.296 24.16V25.16H86.936V24.16V23.16H6.296V24.16ZM86.936 24.16L85.9361 24.171L86.0641 35.819L87.064 35.808L88.0639 35.797L87.9359 24.149L86.936 24.16ZM87.064 35.808V34.808H6.296V35.808V36.808H87.064V35.808ZM137.407 92H136.407V93H137.407V92ZM137.407 2.39999V1.39999H136.407V2.39999H137.407ZM151.103 2.39999L151.878 1.76848L151.578 1.39999H151.103V2.39999ZM207.295 71.392V72.392H209.399L208.07 70.7605L207.295 71.392ZM200.511 71.392H199.511V72.392H200.511V71.392ZM200.511 2.39999V1.39999H199.511V2.39999H200.511ZM217.023 2.39999H218.023V1.39999H217.023V2.39999ZM217.023 92V93H218.023V92H217.023ZM203.327 92L202.552 92.6315L202.852 93H203.327V92ZM147.135 23.008V22.008H145.031L146.36 23.6395L147.135 23.008ZM153.919 23.008H154.919V22.008H153.919V23.008ZM153.919 92V93H154.919V92H153.919ZM137.407 92H138.407V2.39999H137.407H136.407V92H137.407ZM137.407 2.39999V3.39999H151.103V2.39999V1.39999H137.407V2.39999ZM151.103 2.39999L150.328 3.03151L206.52 72.0235L207.295 71.392L208.07 70.7605L151.878 1.76848L151.103 2.39999ZM207.295 71.392V70.392H200.511V71.392V72.392H207.295V71.392ZM200.511 71.392H201.511V2.39999H200.511H199.511V71.392H200.511ZM200.511 2.39999V3.39999H217.023V2.39999V1.39999H200.511V2.39999ZM217.023 2.39999H216.023V92H217.023H218.023V2.39999H217.023ZM217.023 92V91H203.327V92V93H217.023V92ZM203.327 92L204.102 91.3685L147.91 22.3765L147.135 23.008L146.36 23.6395L202.552 92.6315L203.327 92ZM147.135 23.008V24.008H153.919V23.008V22.008H147.135V23.008ZM153.919 23.008H152.919V92H153.919H154.919V23.008H153.919ZM153.919 92V91H137.407V92V93H153.919V92ZM256.392 39.648V38.648H255.392V39.648H256.392ZM300.936 39.648H301.936V38.648H300.936V39.648ZM300.936 53.344V54.344H301.936V53.344H300.936ZM256.392 53.344H255.392V54.344H256.392V53.344ZM257.672 78.048H256.672V79.048H257.672V78.048ZM308.232 78.048H309.232V77.048H308.232V78.048ZM308.232 92V93H309.232V92H308.232ZM241.032 92H240.032V93H241.032V92ZM241.032 2.39999V1.39999H240.032V2.39999H241.032ZM306.44 2.39999H307.44V1.39999H306.44V2.39999ZM306.44 16.352V17.352H307.44V16.352H306.44ZM257.672 16.352V15.352H256.672V16.352H257.672ZM256.392 39.648V40.648H300.936V39.648V38.648H256.392V39.648ZM300.936 39.648H299.936V53.344H300.936H301.936V39.648H300.936ZM300.936 53.344V52.344H256.392V53.344V54.344H300.936V53.344ZM256.392 53.344H257.392V39.648H256.392H255.392V53.344H256.392ZM257.672 78.048V79.048H308.232V78.048V77.048H257.672V78.048ZM308.232 78.048H307.232V92H308.232H309.232V78.048H308.232ZM308.232 92V91H241.032V92V93H308.232V92ZM241.032 92H242.032V2.39999H241.032H240.032V92H241.032ZM241.032 2.39999V3.39999H306.44V2.39999V1.39999H241.032V2.39999ZM306.44 2.39999H305.44V16.352H306.44H307.44V2.39999H306.44ZM306.44 16.352V15.352H257.672V16.352V17.352H306.44V16.352ZM257.672 16.352H256.672V78.048H257.672H258.672V16.352H257.672ZM346.652 92L345.703 92.3146L345.93 93H346.652V92ZM316.956 2.39999V1.39999H315.571L316.007 2.7146L316.956 2.39999ZM334.236 2.39999L335.186 2.08918L334.961 1.39999H334.236V2.39999ZM360.732 83.424V84.424H362.111L361.682 83.1132L360.732 83.424ZM352.156 83.424L351.209 83.1024L350.76 84.424H352.156V83.424ZM379.676 2.39999V1.39999H378.96L378.729 2.07838L379.676 2.39999ZM395.036 2.39999L395.986 2.08647L395.759 1.39999H395.036V2.39999ZM421.788 83.424V84.424H423.171L422.738 83.1105L421.788 83.424ZM413.468 83.424L412.52 83.1064L412.078 84.424H413.468V83.424ZM440.604 2.39999V1.39999H439.884L439.656 2.08242L440.604 2.39999ZM456.476 2.39999L457.425 2.7146L457.861 1.39999H456.476V2.39999ZM426.78 92V93H427.502L427.729 92.3146L426.78 92ZM409.116 92L408.168 92.3172L408.396 93H409.116V92ZM384.668 18.912V17.912H383.279L383.72 19.2292L384.668 18.912ZM389.276 18.912L390.223 19.2337L390.672 17.912H389.276V18.912ZM364.444 92V93H365.16L365.391 92.3217L364.444 92ZM346.652 92L347.601 91.6854L317.905 2.08539L316.956 2.39999L316.007 2.7146L345.703 92.3146L346.652 92ZM316.956 2.39999V3.39999H334.236V2.39999V1.39999H316.956V2.39999ZM334.236 2.39999L333.286 2.71081L359.782 83.7348L360.732 83.424L361.682 83.1132L335.186 2.08918L334.236 2.39999ZM360.732 83.424V82.424H352.156V83.424V84.424H360.732V83.424ZM352.156 83.424L353.103 83.7456L380.623 2.7216L379.676 2.39999L378.729 2.07838L351.209 83.1024L352.156 83.424ZM379.676 2.39999V3.39999H395.036V2.39999V1.39999H379.676V2.39999ZM395.036 2.39999L394.086 2.71352L420.838 83.7375L421.788 83.424L422.738 83.1105L395.986 2.08647L395.036 2.39999ZM421.788 83.424V82.424H413.468V83.424V84.424H421.788V83.424ZM413.468 83.424L414.416 83.7416L441.552 2.71757L440.604 2.39999L439.656 2.08242L412.52 83.1064L413.468 83.424ZM440.604 2.39999V3.39999H456.476V2.39999V1.39999H440.604V2.39999ZM456.476 2.39999L455.527 2.08539L425.831 91.6854L426.78 92L427.729 92.3146L457.425 2.7146L456.476 2.39999ZM426.78 92V91H409.116V92V93H426.78V92ZM409.116 92L410.064 91.6828L385.616 18.5948L384.668 18.912L383.72 19.2292L408.168 92.3172L409.116 92ZM384.668 18.912V19.912H389.276V18.912V17.912H384.668V18.912ZM389.276 18.912L388.329 18.5903L363.497 91.6783L364.444 92L365.391 92.3217L390.223 19.2337L389.276 18.912ZM364.444 92V91H346.652V92V93H364.444V92ZM477.712 90.336L477.407 91.2885L477.419 91.2921L477.712 90.336ZM462.48 82.528L461.567 82.121L461.26 82.8088L461.836 83.2934L462.48 82.528ZM468.24 69.6L468.858 68.8137L467.849 68.0209L467.327 69.193L468.24 69.6ZM481.552 76.64L481.886 75.6976L481.552 76.64ZM509.2 77.92L508.867 76.977V76.977L509.2 77.92ZM515.6 73.824L516.381 74.4487L516.388 74.4395L516.395 74.43L515.6 73.824ZM514.704 61.28L514.048 62.0346L514.057 62.0429L514.067 62.051L514.704 61.28ZM507.024 57.312L506.708 58.2607L506.723 58.2659L506.739 58.2705L507.024 57.312ZM496.656 54.496L496.434 55.4711L496.439 55.4722L496.656 54.496ZM485.264 51.552L484.961 52.5049L484.974 52.509L484.986 52.5127L485.264 51.552ZM474.896 47.072L474.375 47.9253L474.388 47.9337L474.402 47.9417L474.896 47.072ZM467.344 39.648L466.501 40.1864L467.344 39.648ZM468.24 14.56L467.4 14.0175L467.397 14.022L468.24 14.56ZM480.144 4.83199L480.556 5.74339L480.562 5.74038L480.144 4.83199ZM516.496 3.168L516.246 4.13628H516.246L516.496 3.168ZM530.32 9.056L531.247 9.43213L531.557 8.66856L530.866 8.21839L530.32 9.056ZM525.072 21.984L524.56 22.8431L525.561 23.4391L525.999 22.3601L525.072 21.984ZM512.656 16.736L512.386 17.699L512.395 17.7015L512.404 17.7038L512.656 16.736ZM489.104 16.608L488.747 15.6739L488.737 15.6776L489.104 16.608ZM482.832 20.96L482.037 20.354L482.027 20.3662L482.018 20.3788L482.832 20.96ZM483.728 33.76L483.055 34.4999L483.073 34.5159L483.091 34.531L483.728 33.76ZM491.28 37.6L490.988 38.5564L490.995 38.5585L491.28 37.6ZM501.776 40.416L501.539 41.3874L501.549 41.3899L501.559 41.3922L501.776 40.416ZM513.168 43.36L512.885 44.319L512.89 44.3207L513.168 43.36ZM523.536 47.712L523.032 48.5758L523.042 48.5817L523.536 47.712ZM531.088 55.008L530.235 55.5294L530.24 55.538L530.245 55.5464L531.088 55.008ZM530.064 79.968L529.224 79.4255L529.221 79.43L530.064 79.968ZM518.16 89.696L518.566 90.6099L518.578 90.6044L518.16 89.696ZM497.808 93.28V92.28C490.906 92.28 484.306 91.3122 478.005 89.3799L477.712 90.336L477.419 91.2921C483.918 93.2852 490.716 94.28 497.808 94.28V93.28ZM477.712 90.336L478.017 89.3836C471.698 87.3615 466.749 84.8113 463.124 81.7626L462.48 82.528L461.836 83.2934C465.72 86.5593 470.926 89.2145 477.407 91.2884L477.712 90.336ZM462.48 82.528L463.393 82.935L469.153 70.007L468.24 69.6L467.327 69.193L461.567 82.121L462.48 82.528ZM468.24 69.6L467.622 70.3863C471.309 73.2829 475.847 75.6769 481.218 77.5824L481.552 76.64L481.886 75.6976C476.675 73.8485 472.339 71.5491 468.858 68.8137L468.24 69.6ZM481.552 76.64L481.218 77.5824C486.614 79.4974 492.146 80.456 497.808 80.456V79.456V78.456C492.377 78.456 487.071 77.5373 481.886 75.6976L481.552 76.64ZM497.808 79.456V80.456C502.562 80.456 506.484 79.9391 509.533 78.863L509.2 77.92L508.867 76.977C506.113 77.9489 502.441 78.456 497.808 78.456V79.456ZM509.2 77.92L509.533 78.863C512.542 77.801 514.861 76.3491 516.381 74.4487L515.6 73.824L514.819 73.1993C513.609 74.7122 511.661 75.991 508.867 76.977L509.2 77.92ZM515.6 73.824L516.395 74.43C517.891 72.4668 518.648 70.2492 518.648 67.808H517.648H516.648C516.648 69.8041 516.039 71.5972 514.805 73.218L515.6 73.824ZM517.648 67.808H518.648C518.648 64.8038 517.552 62.3356 515.341 60.509L514.704 61.28L514.067 62.051C515.781 63.4671 516.648 65.3509 516.648 67.808H517.648ZM514.704 61.28L515.36 60.5254C513.265 58.7036 510.568 57.3223 507.309 56.3535L507.024 57.312L506.739 58.2705C509.795 59.179 512.218 60.4431 514.048 62.0346L514.704 61.28ZM507.024 57.312L507.34 56.3633C504.23 55.3264 500.74 54.3791 496.873 53.5198L496.656 54.496L496.439 55.4722C500.252 56.3196 503.674 57.2496 506.708 58.2607L507.024 57.312ZM496.656 54.496L496.878 53.5209C493.142 52.672 489.364 51.6955 485.542 50.5913L485.264 51.552L484.986 52.5127C488.844 53.6272 492.66 54.6134 496.434 55.4711L496.656 54.496ZM485.264 51.552L485.567 50.5991C481.873 49.4237 478.482 47.9573 475.39 46.2023L474.896 47.072L474.402 47.9417C477.625 49.7707 481.146 51.291 484.961 52.5049L485.264 51.552ZM474.896 47.072L475.417 46.2187C472.477 44.4216 470.069 42.0553 468.187 39.1096L467.344 39.648L466.501 40.1864C468.545 43.3847 471.171 45.9677 474.375 47.9253L474.896 47.072ZM467.344 39.648L468.187 39.1096C466.354 36.2413 465.4 32.5181 465.4 27.872H464.4H463.4C463.4 32.7832 464.409 36.9107 466.501 40.1864L467.344 39.648ZM464.4 27.872H465.4C465.4 23.1942 466.628 18.9443 469.083 15.098L468.24 14.56L467.397 14.022C464.732 18.1971 463.4 22.8218 463.4 27.872H464.4ZM468.24 14.56L469.08 15.1025C471.603 11.1967 475.406 8.06882 480.556 5.74336L480.144 4.83199L479.732 3.92062C474.3 6.37383 470.168 9.73124 467.4 14.0175L468.24 14.56ZM480.144 4.83199L480.562 5.74038C485.767 3.34459 492.396 2.12 500.496 2.12V1.12V0.119995C492.212 0.119995 485.273 1.37007 479.726 3.92361L480.144 4.83199ZM500.496 1.12V2.12C505.786 2.12 511.036 2.79166 516.246 4.13628L516.496 3.168L516.746 2.19972C511.375 0.813671 505.958 0.119995 500.496 0.119995V1.12ZM516.496 3.168L516.246 4.13628C521.449 5.47886 525.953 7.40191 529.774 9.89361L530.32 9.056L530.866 8.21839C526.836 5.59009 522.125 3.5878 516.746 2.19972L516.496 3.168ZM530.32 9.056L529.393 8.67987L524.145 21.6079L525.072 21.984L525.999 22.3601L531.247 9.43213L530.32 9.056ZM525.072 21.984L525.584 21.1249C521.497 18.6901 517.271 16.9026 512.908 15.7682L512.656 16.736L512.404 17.7038C516.574 18.788 520.626 20.4993 524.56 22.8431L525.072 21.984ZM512.656 16.736L512.926 15.773C508.582 14.5569 504.395 13.944 500.368 13.944V14.944V15.944C504.191 15.944 508.196 16.5258 512.386 17.699L512.656 16.736ZM500.368 14.944V13.944C495.691 13.944 491.803 14.5053 488.747 15.6739L489.104 16.608L489.461 17.542C492.207 16.492 495.829 15.944 500.368 15.944V14.944ZM489.104 16.608L488.737 15.6776C485.808 16.8316 483.544 18.375 482.037 20.354L482.832 20.96L483.627 21.566C484.85 19.961 486.768 18.6031 489.471 17.5384L489.104 16.608ZM482.832 20.96L482.018 20.3788C480.611 22.3485 479.912 24.6018 479.912 27.104H480.912H481.912C481.912 24.9982 482.493 23.1555 483.646 21.5412L482.832 20.96ZM480.912 27.104H479.912C479.912 30.0923 480.952 32.5881 483.055 34.4999L483.728 33.76L484.401 33.0201C482.749 31.5186 481.912 29.577 481.912 27.104H480.912ZM483.728 33.76L483.091 34.531C485.178 36.255 487.822 37.5889 490.988 38.5564L491.28 37.6L491.572 36.6436C488.594 35.7338 486.203 34.5076 484.365 32.989L483.728 33.76ZM491.28 37.6L490.995 38.5585C494.171 39.5027 497.686 40.4456 501.539 41.3874L501.776 40.416L502.013 39.4446C498.186 38.5091 494.704 37.5746 491.565 36.6415L491.28 37.6ZM501.776 40.416L501.559 41.3922C505.377 42.2406 509.152 43.2162 512.885 44.319L513.168 43.36L513.451 42.401C509.675 41.2851 505.855 40.2981 501.993 39.4398L501.776 40.416ZM513.168 43.36L512.89 44.3207C516.661 45.41 520.039 46.83 523.032 48.5758L523.536 47.712L524.04 46.8482C520.889 45.0099 517.355 43.5287 513.446 42.3993L513.168 43.36ZM523.536 47.712L523.042 48.5817C526.054 50.2907 528.447 52.6034 530.235 55.5294L531.088 55.008L531.941 54.4865C529.975 51.2686 527.333 48.7173 524.03 46.8423L523.536 47.712ZM531.088 55.008L530.245 55.5464C532.08 58.4174 533.032 62.0993 533.032 66.656H534.032H535.032C535.032 61.826 534.022 57.7426 531.931 54.4696L531.088 55.008ZM534.032 66.656H533.032C533.032 71.2381 531.767 75.4877 529.224 79.4255L530.064 79.968L530.904 80.5105C533.652 76.2563 535.032 71.6312 535.032 66.656H534.032ZM530.064 79.968L529.221 79.43C526.787 83.2437 522.986 86.3736 517.742 88.7876L518.16 89.696L518.578 90.6044C524.086 88.0691 528.221 84.7137 530.907 80.506L530.064 79.968ZM518.16 89.696L517.754 88.7822C512.546 91.097 505.911 92.28 497.808 92.28V93.28V94.28C506.089 94.28 513.023 93.0737 518.566 90.6098L518.16 89.696Z" fill="white" mask="url(#path-1-outside-1_2074_551)"/>
</svg>
