<svg width="534" height="93" viewBox="0 0 534 93" fill="none" xmlns="http://www.w3.org/2000/svg">
<path d="M48.816 91L59.824 1.39999H71.472L60.464 91H48.816ZM0.944 69.24V57.592H81.84V69.24H0.944ZM15.536 91L26.672 1.39999H38.32L27.184 91H15.536ZM5.296 34.808V23.16H85.936L86.064 34.808H5.296ZM136.407 91V1.39999H150.103L206.295 70.392H199.511V1.39999H216.023V91H202.327L146.135 22.008H152.919V91H136.407ZM255.392 38.648H299.936V52.344H255.392V38.648ZM256.672 77.048H307.232V91H240.032V1.39999H305.44V15.352H256.672V77.048ZM345.652 91L315.956 1.39999H333.236L359.732 82.424H351.156L378.676 1.39999H394.036L420.788 82.424H412.468L439.604 1.39999H455.476L425.78 91H408.116L383.668 17.912H388.276L363.444 91H345.652ZM496.808 92.28C489.811 92.28 483.112 91.2987 476.712 89.336C470.312 87.288 465.235 84.6853 461.48 81.528L467.24 68.6C470.824 71.416 475.261 73.7627 480.552 75.64C485.843 77.5173 491.261 78.456 496.808 78.456C501.501 78.456 505.299 77.944 508.2 76.92C511.101 75.896 513.235 74.5307 514.6 72.824C515.965 71.032 516.648 69.0267 516.648 66.808C516.648 64.0773 515.667 61.9013 513.704 60.28C511.741 58.5733 509.181 57.2507 506.024 56.312C502.952 55.288 499.496 54.3493 495.656 53.496C491.901 52.6427 488.104 51.6613 484.264 50.552C480.509 49.3573 477.053 47.864 473.896 46.072C470.824 44.1947 468.307 41.72 466.344 38.648C464.381 35.576 463.4 31.6507 463.4 26.872C463.4 22.008 464.68 17.5707 467.24 13.56C469.885 9.46399 473.853 6.22133 479.144 3.83199C484.52 1.35733 491.304 0.119995 499.496 0.119995C504.872 0.119995 510.205 0.802663 515.496 2.168C520.787 3.53333 525.395 5.496 529.32 8.056L524.072 20.984C520.061 18.5947 515.923 16.8453 511.656 15.736C507.389 14.5413 503.293 13.944 499.368 13.944C494.76 13.944 491.005 14.4987 488.104 15.608C485.288 16.7173 483.197 18.168 481.832 19.96C480.552 21.752 479.912 23.8 479.912 26.104C479.912 28.8347 480.851 31.0533 482.728 32.76C484.691 34.3813 487.208 35.6613 490.28 36.6C493.437 37.5387 496.936 38.4773 500.776 39.416C504.616 40.2693 508.413 41.2507 512.168 42.36C516.008 43.4693 519.464 44.92 522.536 46.712C525.693 48.504 528.211 50.936 530.088 54.008C532.051 57.08 533.032 60.9627 533.032 65.656C533.032 70.4347 531.709 74.872 529.064 78.968C526.504 82.9787 522.536 86.2213 517.16 88.696C511.784 91.0853 505 92.28 496.808 92.28Z" fill="white"/>
</svg>
