<svg width="306" height="337" viewBox="0 0 306 337" fill="none" xmlns="http://www.w3.org/2000/svg">
<path opacity="0.75" d="M-83.1584 73.7359C-83.1584 73.7359 -63.1152 79.9156 -49.9617 81.7304C-31.0262 84.3429 -18.9476 85.7895 -2.06154 81.2634C23.8402 74.3207 20.8803 42.5017 35.1533 25.3926C45.9601 12.4382 60.6377 6.10122 83.477 11.6014C112.313 18.5457 141.185 38.0216 149.934 59.7474C157.802 79.2824 150.882 99.8475 133.404 113.947C102.748 138.677 64.1534 130.176 44.3173 160.938C33.6987 177.406 27.6774 193.952 44.665 210.455C64.1623 229.397 93.1963 224.744 121.078 219.906C155.866 213.87 156.824 198.11 178.912 178.754C198.397 161.678 224.674 151.006 255.049 162.71C279.216 172.022 290.899 187.156 294.17 206.511C306.919 281.93 227.031 306.437 193.597 309.668L-2.06155 327" stroke="#D4CB8D" stroke-width="19.2086"/>
</svg>
