<svg width="300" height="286" viewBox="0 0 300 286" fill="none" xmlns="http://www.w3.org/2000/svg">
<path opacity="0.094" fill-rule="evenodd" clip-rule="evenodd" d="M149.463 0.53635C149.404 0.53635 149.343 0.53635 149.284 0.53635C149.225 0.53635 149.164 0.53635 149.105 0.53635C149.225 -0.178783 149.343 -0.178783 149.463 0.53635Z" fill="#42AACD"/>
<path opacity="0.992" fill-rule="evenodd" clip-rule="evenodd" d="M149.107 0.535156C149.166 0.535156 149.227 0.535156 149.286 0.535156C150.979 6.12535 153.303 11.4293 156.258 16.4469C157.692 19.0778 159.301 21.5808 161.086 23.9558C162.028 25.4332 163.1 26.804 164.304 28.0678C165.308 29.4889 166.44 30.8 167.701 32.001C168.957 33.4375 170.329 34.7486 171.813 35.9343C174.157 38.1885 176.69 40.2149 179.411 42.0129C179.372 41.6398 179.402 41.2822 179.5 40.9402C180.173 40.5896 180.798 40.1723 181.378 39.6887C181.649 38.7669 181.978 37.873 182.361 37.007C182.323 36.9022 182.264 36.8128 182.182 36.7388C182.635 36.0104 183.171 35.355 183.791 34.7722C184.353 34.6647 184.889 34.4859 185.4 34.2358C185.18 33.9694 185.18 33.7012 185.4 33.4313C189.847 35.9225 194.375 38.2765 198.988 40.4932C187.576 45.8367 177.207 52.6902 167.879 61.0533C160.982 67.8279 154.755 75.1282 149.196 82.9543C145.512 78.0295 141.698 73.2023 137.754 68.4728C127.023 56.5667 114.36 47.2999 99.7623 40.672C99.5245 40.5528 99.5245 40.4337 99.7623 40.3144C111.174 35.0816 121.842 28.7051 131.765 21.1846C139.006 15.4734 144.786 8.59024 149.107 0.535156ZM159.477 41.119C156.468 43.1651 153.727 45.5489 151.252 48.2703C150.602 48.9819 149.945 49.697 149.286 50.4157C148.626 49.697 147.97 48.9819 147.319 48.2703C146.484 47.3168 145.59 46.4229 144.637 45.5886C143.742 44.6928 142.787 43.8585 141.777 43.0856C140.86 42.4173 139.905 41.7915 138.916 41.2084C140.248 40.4385 141.5 39.5743 142.671 38.616C145.158 36.845 147.362 34.7591 149.286 32.3586C150.732 34.0738 152.282 35.7126 153.934 37.2751C155.715 38.6714 157.562 39.9526 159.477 41.119Z" fill="#FECC28"/>
<path opacity="0.971" fill-rule="evenodd" clip-rule="evenodd" d="M149.287 0.535156C149.346 0.535156 149.407 0.535156 149.466 0.535156C152.114 5.56773 155.391 10.1566 159.299 14.3015C159.097 14.5927 158.859 14.8609 158.584 15.106C157.787 15.5165 157.012 15.9634 156.26 16.4469C153.304 11.4293 150.98 6.12535 149.287 0.535156Z" fill="#CF9B07"/>
<path opacity="0.981" fill-rule="evenodd" clip-rule="evenodd" d="M159.297 14.3047C161.275 16.2822 163.3 18.1891 165.376 20.0258C164.398 21.0337 163.445 22.0766 162.515 23.1545C162.013 23.391 161.536 23.6592 161.085 23.959C159.301 21.584 157.692 19.0811 156.258 16.4501C157.01 15.9667 157.785 15.5197 158.582 15.1092C158.857 14.8641 159.095 14.5959 159.297 14.3047Z" fill="#DCA70F"/>
<path opacity="0.987" fill-rule="evenodd" clip-rule="evenodd" d="M165.377 20.0273C166.684 20.9781 167.935 21.9911 169.131 23.0667C168.715 23.782 168.296 24.4971 167.88 25.2121C166.594 26.0722 165.402 27.0258 164.304 28.0726C163.101 26.8088 162.028 25.438 161.086 23.9606C161.536 23.6608 162.014 23.3926 162.516 23.1561C163.446 22.0782 164.399 21.0353 165.377 20.0273Z" fill="#E4AF15"/>
<path opacity="0.988" fill-rule="evenodd" clip-rule="evenodd" d="M169.13 23.0615C170.419 23.9138 171.67 24.8077 172.884 25.7433C172.489 26.4089 171.983 27.0048 171.365 27.5311C170.721 29.4911 169.498 30.9809 167.7 32.0007C166.439 30.7996 165.308 29.4886 164.303 28.0675C165.4 27.0207 166.593 26.067 167.878 25.2069C168.295 24.492 168.713 23.7768 169.13 23.0615Z" fill="#EBB619"/>
<path opacity="0.99" fill-rule="evenodd" clip-rule="evenodd" d="M172.884 25.7451C174.434 26.7583 175.982 27.7713 177.532 28.7844C176.962 29.2368 176.397 29.7134 175.834 30.2147C175.383 31.4086 174.817 32.5408 174.135 33.6116C173.612 34.0246 173.016 34.2629 172.348 34.3267C172.221 34.8799 172.042 35.4162 171.811 35.9358C170.327 34.7501 168.956 33.4391 167.699 32.0025C169.498 30.9828 170.721 29.493 171.364 27.533C171.983 27.0066 172.489 26.4107 172.884 25.7451Z" fill="#F1BC1D"/>
<path opacity="0.99" fill-rule="evenodd" clip-rule="evenodd" d="M177.534 28.7842C180.097 30.4238 182.718 31.9731 185.4 33.4325C185.18 33.7025 185.18 33.9707 185.4 34.2371C184.889 34.4872 184.352 34.666 183.791 34.7734C183.171 35.3563 182.634 36.0117 182.182 36.74C182.264 36.8141 182.323 36.9034 182.361 37.0082C181.978 37.8742 181.649 38.7682 181.377 39.69C180.798 40.1736 180.172 40.5909 179.5 40.9414C179.402 41.2835 179.372 41.641 179.411 42.0141C176.69 40.2161 174.156 38.1898 171.812 35.9355C172.043 35.416 172.222 34.8796 172.349 34.3265C173.018 34.2626 173.613 34.0243 174.137 33.6113C174.818 32.5406 175.385 31.4084 175.835 30.2144C176.398 29.7131 176.963 29.2365 177.534 28.7842Z" fill="#F7C322"/>
<path opacity="0.999" fill-rule="evenodd" clip-rule="evenodd" d="M137.307 40.9415C137.464 40.9181 137.582 40.9776 137.665 41.1203C137.091 42.2514 136.554 43.3838 136.056 44.5171C133.912 43.2376 131.648 42.1948 129.262 41.3884C131.96 41.5783 134.641 41.4294 137.307 40.9415Z" fill="#D59F0A"/>
<path opacity="0.976" fill-rule="evenodd" clip-rule="evenodd" d="M142.67 38.6182C141.499 39.5764 140.247 40.4407 138.915 41.2105C139.904 41.7937 140.859 42.4195 141.776 43.0877C140.809 44.2452 139.975 45.4967 139.273 46.8422C138.136 46.1546 137.063 45.3799 136.055 44.518C136.553 43.3847 137.09 42.2523 137.664 41.1211C137.582 40.9785 137.464 40.9189 137.306 40.9423C139.178 40.3772 140.966 39.6025 142.67 38.6182Z" fill="#E2AA12"/>
<path opacity="0.98" fill-rule="evenodd" clip-rule="evenodd" d="M141.776 43.0859C142.787 43.8588 143.741 44.6932 144.637 45.5889C143.816 46.3831 143.071 47.277 142.402 48.2707C142.248 48.5544 142.129 48.8524 142.045 49.1646C141.925 49.0301 141.776 48.9704 141.598 48.9858C140.818 48.2656 140.044 47.5505 139.273 46.8404C139.976 45.4949 140.809 44.2434 141.776 43.0859Z" fill="#EDB61A"/>
<path opacity="0.988" fill-rule="evenodd" clip-rule="evenodd" d="M159.475 41.12C159.607 41.0966 159.727 41.1265 159.832 41.2094C156.003 44.8593 152.933 49.0607 150.625 53.8136C150.004 55.3186 149.527 56.8682 149.195 58.462C148.699 57.5495 148.133 56.6854 147.496 55.8697C148.049 54.6918 148.882 53.7681 149.999 53.0985C150.248 52.3044 150.634 51.5892 151.161 50.9531C151.217 50.5855 151.306 50.228 151.429 49.8804C151.283 49.3197 151.224 48.7834 151.251 48.2714C153.725 45.5499 156.466 43.1662 159.475 41.12Z" fill="#FED32D"/>
<path opacity="0.987" fill-rule="evenodd" clip-rule="evenodd" d="M144.635 45.5938C145.588 46.4281 146.482 47.322 147.317 48.2755C146.927 49.1726 146.36 49.9473 145.618 50.5997C145.563 51.285 145.236 51.7618 144.635 52.0299C143.559 51.0727 142.545 50.0596 141.596 48.9906C141.774 48.9753 141.923 49.035 142.043 49.1694C142.127 48.8573 142.246 48.5592 142.4 48.2755C143.069 47.2818 143.814 46.3879 144.635 45.5938Z" fill="#F8C322"/>
<path opacity="0.993" fill-rule="evenodd" clip-rule="evenodd" d="M38.7983 172.888C42.1391 169.428 44.9996 165.615 47.38 161.446C48.8581 159.265 50.1096 156.94 51.1344 154.473C52.0214 152.768 52.7365 150.98 53.2799 149.11C53.9303 147.754 54.4069 146.324 54.7101 144.819C55.3507 142.972 55.8274 141.064 56.1404 139.098C56.5591 137.843 56.7975 136.53 56.8556 135.165C57.2426 133.48 57.4811 131.753 57.5707 129.98C57.684 128.971 57.7438 127.958 57.7495 126.94C57.927 125.364 57.9867 123.755 57.9283 122.113C57.9283 121.457 57.9283 120.803 57.9283 120.147C57.9234 118.951 57.8637 117.76 57.7495 116.571C57.7193 115.734 57.6597 114.899 57.5707 114.068C57.4348 112.997 57.3156 111.924 57.2131 110.85C57.0676 109.652 56.8888 108.461 56.6768 107.274C56.466 105.954 56.1978 104.643 55.8722 103.341C55.7719 103.248 55.6527 103.188 55.5147 103.162C54.0701 103.607 52.6101 103.816 51.1344 103.788C50.5795 104.142 49.9836 104.41 49.3466 104.593C49.2418 104.555 49.1524 104.495 49.0784 104.414C48.2163 104.785 47.3821 105.202 46.5754 105.665C46.5159 105.606 46.4562 105.546 46.3966 105.486C45.4255 105.782 44.4422 106.02 43.4467 106.202C42.1712 101.988 40.5622 97.9059 38.6195 93.955C43.1188 94.7044 47.648 95.3005 52.2071 95.7428C56.1924 96.0928 60.1852 96.242 64.1857 96.1898C70.1695 113.834 71.9271 131.891 69.4599 150.361C69.2226 152.144 68.8948 153.901 68.4766 155.635C84.0273 156.724 98.4481 153.207 111.743 145.087C121.429 139.157 129.712 131.648 136.594 122.56C128.06 102.699 113.101 90.8997 91.7186 87.1612C86.9182 86.4137 82.0911 86.1752 77.237 86.4461C68.3664 87.3237 59.4869 87.443 50.5981 86.8036C47.1382 86.5564 43.7413 85.9603 40.4073 85.0158C34.1132 82.5952 29.7925 78.2151 27.4454 71.8752C25.2249 65.5685 24.3011 59.0727 24.6743 52.3878C26.9041 59.0548 30.8373 64.4779 36.4741 68.6571C37.6444 69.6154 38.8959 70.4796 40.2286 71.2495C41.3558 71.9621 42.5478 72.5283 43.8043 72.9479C45.8345 74.0617 47.98 74.7769 50.2405 75.0933C50.8325 73.1682 51.19 71.291 51.3132 69.4616C51.8063 67.6559 52.1639 65.8382 52.3859 64.0088C53.7567 64.128 55.1272 64.2471 56.498 64.3663C56.5436 64.6231 56.6031 64.8912 56.6768 65.1708C56.3448 67.0951 55.9277 69.002 55.4253 70.8919C55.6328 72.6292 55.5136 74.417 55.0677 76.2554C56.7579 76.6761 58.4863 76.9443 60.2525 77.0599C61.4401 77.1872 62.6319 77.2469 63.8282 77.2387C65.318 77.2387 66.808 77.2387 68.2978 77.2387C69.4461 77.2907 70.5784 77.2312 71.6947 77.0599C72.9212 77.0353 74.1137 76.9162 75.2704 76.7024C76.3252 76.7344 77.3389 76.6151 78.3097 76.3448C79.4182 76.3176 80.4909 76.1986 81.5279 75.9872C82.5738 75.9307 83.5875 75.8117 84.5672 75.6297C85.4182 75.6787 86.2532 75.6191 87.0702 75.4509C89.5732 75.4509 92.0762 75.4509 94.5792 75.4509C95.2353 75.4509 95.8897 75.4509 96.5458 75.4509C97.5595 75.4974 98.5732 75.5569 99.5852 75.6297C100.476 75.7285 101.369 75.7883 102.267 75.8085C103.509 76.0053 104.761 76.1841 106.021 76.3448C106.849 76.5027 107.684 76.6219 108.524 76.7024C110.552 77.1558 112.577 77.6324 114.603 78.1326C115.905 78.5265 117.215 78.8841 118.536 79.2053C120.93 80.0238 123.313 80.9177 125.688 81.8871C129.297 83.4534 132.753 85.3008 136.057 87.4294C140.947 90.5293 145.358 94.2242 149.287 98.5139C161.228 81.3279 177.498 70.4519 198.096 65.886C204.662 64.4516 211.308 63.7066 218.03 63.6512C223.953 64.0815 229.882 64.3796 235.819 64.5451C243.357 64.6459 250.746 63.6626 257.989 61.5952C264.209 59.8429 269.542 56.6547 273.99 52.0303C275.989 58.9166 275.69 65.7104 273.096 72.4116C270.765 77.9728 267.666 83.0383 263.799 87.6082C259.937 93.6058 256.987 100.042 254.949 106.917C247.144 107.096 239.336 107.155 231.528 107.096C233.109 100.297 235.315 93.712 238.144 87.34C232.59 87.2418 227.048 86.9438 221.517 86.4461C208.024 85.6775 195.509 88.7763 183.972 95.7428C176.137 100.955 169.908 107.66 165.289 115.856C160.737 126.399 154.837 136.053 147.589 144.819C117.174 176.478 80.9111 185.833 38.7983 172.888Z" fill="#002175"/>
<path opacity="0.988" fill-rule="evenodd" clip-rule="evenodd" d="M40.0473 61.327C40.0432 61.7609 39.9538 62.178 39.7791 62.5785C38.6106 64.4402 37.6273 66.4068 36.8292 68.4783C36.7475 68.621 36.6282 68.6805 36.4716 68.6571C30.8349 64.4779 26.9016 59.0548 24.6718 52.3878C24.6484 52.2557 24.6782 52.1365 24.7612 52.0303C27.9596 55.5841 31.8035 58.236 36.2928 59.9861C37.5146 60.5225 38.7661 60.9694 40.0473 61.327Z" fill="#000F63"/>
<path opacity="0.994" fill-rule="evenodd" clip-rule="evenodd" d="M40.0484 61.3213C42.0799 62.0527 44.1658 62.589 46.3058 62.9303C46.2794 63.6027 46.1006 64.2285 45.7695 64.8076C45.9386 65.3183 45.9386 65.8547 45.7695 66.4166C45.6266 66.8829 45.4478 67.3595 45.2331 67.8469C45.2487 68.3005 45.2487 68.7474 45.2331 69.1878C44.8913 70.514 44.4146 71.7655 43.8028 72.9422C42.5463 72.5226 41.3544 71.9564 40.2271 71.2438C38.8945 70.4739 37.643 69.6097 36.4727 68.6514C36.6293 68.6748 36.7485 68.6153 36.8302 68.4726C37.6283 66.4011 38.6116 64.4344 39.7802 62.5728C39.9549 62.1723 40.0442 61.7552 40.0484 61.3213Z" fill="#00166A"/>
<path opacity="0.993" fill-rule="evenodd" clip-rule="evenodd" d="M46.3057 62.9287C48.3061 63.4012 50.3323 63.7588 52.3844 64.0014C52.1624 65.8309 51.8048 67.6486 51.3117 69.4543C51.1885 71.2836 50.831 73.1608 50.239 75.086C47.9784 74.7695 45.833 74.0544 43.8027 72.9406C44.4145 71.7638 44.8912 70.5123 45.233 69.1861C45.2486 68.7458 45.2486 68.2988 45.233 67.8453C45.4477 67.3579 45.6265 66.8813 45.7694 66.415C45.9385 65.8531 45.9385 65.3167 45.7694 64.8059C46.1005 64.2269 46.2793 63.6011 46.3057 62.9287Z" fill="#001C70"/>
<path opacity="0.991" fill-rule="evenodd" clip-rule="evenodd" d="M77.9492 63.6465C78.8431 63.6465 79.7371 63.6465 80.631 63.6465C80.8259 67.6407 80.9457 71.7527 80.9886 75.9825C81.1673 75.9825 81.3461 75.9825 81.5249 75.9825C80.488 76.1939 79.4153 76.3129 78.3068 76.3401C78.2943 73.825 78.2943 71.3817 78.3068 69.01C78.3014 68.7366 78.1816 68.528 77.9492 68.3842C78.1691 66.8442 78.1691 65.265 77.9492 63.6465Z" fill="#034D9F"/>
<path opacity="0.99" fill-rule="evenodd" clip-rule="evenodd" d="M80.6309 63.6502C81.7375 63.5925 82.8102 63.652 83.849 63.829C83.9956 65.7533 83.9956 67.7497 83.849 69.8183C84.0796 71.6878 84.169 73.565 84.1172 75.4499C84.237 75.5844 84.3853 75.6441 84.5641 75.6287C83.5844 75.8107 82.5707 75.9298 81.5248 75.9863C81.346 75.9863 81.1672 75.9863 80.9884 75.9863C80.9455 71.7564 80.8257 67.6444 80.6309 63.6502Z" fill="#0353A5"/>
<path opacity="0.996" fill-rule="evenodd" clip-rule="evenodd" d="M77.9496 63.6465C78.1696 65.265 78.1696 66.8442 77.9496 68.3842C78.1821 68.528 78.3019 68.7366 78.3072 69.01C78.2947 71.3817 78.2947 73.825 78.3072 76.3401C77.3364 76.6104 76.3227 76.7297 75.2679 76.6977C75.1391 76.3301 75.0212 75.9427 74.9103 75.5356C75.0372 74.0803 75.0962 72.5905 75.0891 71.066C74.9568 68.6884 74.778 66.3343 74.5527 64.0041C75.6844 63.8848 76.8179 63.7657 77.9496 63.6465Z" fill="#02479A"/>
<path opacity="0.993" fill-rule="evenodd" clip-rule="evenodd" d="M83.8496 63.8258C84.9974 63.7738 86.1309 63.8333 87.2465 64.0046C87.1786 67.8089 87.1196 71.6231 87.0677 75.4467C86.2507 75.615 85.4158 75.6745 84.5647 75.6255C84.386 75.6409 84.2376 75.5812 84.1178 75.4467C84.1696 73.5618 84.0802 71.6846 83.8496 69.8151C83.9962 67.7465 83.9962 65.7501 83.8496 63.8258Z" fill="#0359AB"/>
<path opacity="0.993" fill-rule="evenodd" clip-rule="evenodd" d="M74.5532 64.0049C74.7784 66.3351 74.9572 68.6892 75.0895 71.0668C75.0967 72.5913 75.0377 74.0811 74.9107 75.5364C75.0216 75.9435 75.1396 76.3309 75.2683 76.6985C74.1116 76.9123 72.9191 77.0314 71.6926 77.0561C71.7909 72.7209 71.6122 68.4301 71.1562 64.1837C72.2897 64.1359 73.4215 64.0764 74.5532 64.0049Z" fill="#014194"/>
<path opacity="0.992" fill-rule="evenodd" clip-rule="evenodd" d="M87.2471 64.0052C88.5362 63.9977 89.7877 64.117 91.0016 64.3628C90.8461 65.8894 90.6673 67.4389 90.4653 69.0111C90.5994 71.0251 90.6584 73.111 90.6441 75.2686C91.7168 75.2686 92.7895 75.2686 93.8622 75.2686C94.1482 75.2207 94.386 75.2804 94.5773 75.4473C92.0743 75.4473 89.5713 75.4473 87.0684 75.4473C87.1202 71.6237 87.1792 67.8095 87.2471 64.0052Z" fill="#045FB1"/>
<path opacity="0.992" fill-rule="evenodd" clip-rule="evenodd" d="M71.1547 64.1836C71.6106 68.4301 71.7894 72.7209 71.6911 77.056C70.5747 77.2273 69.4425 77.2868 68.2942 77.2348C68.2411 74.9101 68.2411 72.6454 68.2942 70.441C67.9949 68.3966 67.8161 66.3703 67.7578 64.3624C68.9006 64.4073 70.0329 64.3477 71.1547 64.1836Z" fill="#013B8E"/>
<path opacity="0.993" fill-rule="evenodd" clip-rule="evenodd" d="M91.0032 64.3613C92.201 64.4302 93.3917 64.5494 94.5789 64.7189C94.4072 66.0192 94.2284 67.3005 94.0425 68.5627C94.1945 69.0385 94.1337 69.5748 93.8637 70.1718C93.8923 71.7941 93.8923 73.4925 93.8637 75.2671C92.791 75.2671 91.7183 75.2671 90.6456 75.2671C90.6599 73.1096 90.6009 71.0237 90.4668 69.0097C90.6688 67.4375 90.8476 65.888 91.0032 64.3613Z" fill="#0466B8"/>
<path opacity="0.998" fill-rule="evenodd" clip-rule="evenodd" d="M56.4967 64.3613C57.7475 64.4318 58.999 64.4913 60.2512 64.5401C60.239 65.9185 60.239 67.2594 60.2512 68.5627C60.1319 68.8011 60.0128 69.0396 59.8936 69.2779C59.9531 70.291 60.0128 71.304 60.0724 72.3172C59.7706 73.8147 59.5918 75.3343 59.536 76.8762C59.8219 76.8282 60.0602 76.888 60.2512 77.0549C58.485 76.9393 56.7566 76.6711 55.0664 76.2504C55.5123 74.412 55.6315 72.6242 55.424 70.8869C55.9264 68.997 56.3435 67.0901 56.6755 65.1659C56.6018 64.8862 56.5423 64.6181 56.4967 64.3613Z" fill="#00287C"/>
<path opacity="0.993" fill-rule="evenodd" clip-rule="evenodd" d="M60.2503 64.54C61.4423 64.54 62.634 64.54 63.826 64.54C63.9941 68.6873 63.9941 72.9184 63.826 77.2337C62.6297 77.2419 61.438 77.1822 60.2503 77.0549C60.0594 76.8879 59.821 76.8282 59.5352 76.8761C59.5909 75.3343 59.7697 73.8146 60.0715 72.3171C60.012 71.3039 59.9523 70.291 59.8927 69.2778C60.012 69.0395 60.131 68.801 60.2503 68.5627C60.2381 67.2593 60.2381 65.9185 60.2503 64.54Z" fill="#002E82"/>
<path opacity="0.995" fill-rule="evenodd" clip-rule="evenodd" d="M67.7594 64.3613C67.8177 66.3692 67.9965 68.3956 68.2958 70.44C68.2427 72.6444 68.2427 74.909 68.2958 77.2337C66.806 77.2337 65.316 77.2337 63.8262 77.2337C63.9942 72.9184 63.9942 68.6873 63.8262 64.5401C65.1528 64.5932 66.464 64.5337 67.7594 64.3613Z" fill="#003488"/>
<path opacity="0.992" fill-rule="evenodd" clip-rule="evenodd" d="M94.5784 64.7227C95.5313 64.9014 96.4861 65.0802 97.439 65.259C97.414 65.9269 97.414 66.5527 97.439 67.1362C97.2602 68.1494 97.0814 69.1624 96.9026 70.1755C96.9616 70.3543 97.0224 70.5331 97.0814 70.7119C96.9616 70.9502 96.8436 71.1887 96.7238 71.427C96.7828 71.6058 96.8436 71.7846 96.9026 71.9634C96.8186 73.0329 96.6398 74.1056 96.3663 75.1815C96.4664 75.25 96.5254 75.3393 96.5451 75.4497C95.8889 75.4497 95.2346 75.4497 94.5784 75.4497C94.3871 75.2827 94.1493 75.223 93.8633 75.2709C93.8919 73.4963 93.8919 71.7978 93.8633 70.1755C94.1332 69.5786 94.194 69.0422 94.0421 68.5665C94.228 67.3043 94.4068 66.0229 94.5784 64.7227Z" fill="#056DBE"/>
<path opacity="0.995" fill-rule="evenodd" clip-rule="evenodd" d="M97.4399 65.2578C98.5859 65.4514 99.7194 65.6898 100.837 65.9729C100.41 68.1514 99.9929 70.3265 99.5853 72.4985C99.5031 73.5192 99.5031 74.5621 99.5853 75.6272C98.5734 75.5545 97.5597 75.4949 96.546 75.4485C96.5263 75.3382 96.4673 75.2488 96.3672 75.1803C96.6407 74.1044 96.8195 73.0317 96.9035 71.9622C96.8445 71.7834 96.7838 71.6046 96.7248 71.4258C96.8445 71.1875 96.9625 70.949 97.0823 70.7107C97.0233 70.5319 96.9625 70.3531 96.9035 70.1744C97.0823 69.1612 97.2611 68.1482 97.4399 67.135C97.4149 66.5515 97.4149 65.9257 97.4399 65.2578Z" fill="#0673C4"/>
<path opacity="0.991" fill-rule="evenodd" clip-rule="evenodd" d="M100.837 65.9678C101.772 66.1267 102.666 66.365 103.518 66.6829C103.386 67.9541 103.089 69.2354 102.624 70.5267C102.707 70.6008 102.766 70.6902 102.803 70.7949C102.639 72.5134 102.46 74.182 102.267 75.8009C101.369 75.7807 100.475 75.7209 99.5851 75.6221C99.5029 74.5569 99.5029 73.514 99.5851 72.4934C99.9927 70.3213 100.409 68.1462 100.837 65.9678Z" fill="#0679CA"/>
<path opacity="0.99" fill-rule="evenodd" clip-rule="evenodd" d="M103.517 66.6855C104.778 66.9466 106.029 67.2446 107.272 67.5795C106.903 68.7256 106.546 69.8877 106.199 71.0657C106 72.6612 105.763 74.3596 105.484 76.1611C105.714 76.1187 105.893 76.1782 106.02 76.3398C104.76 76.1791 103.508 76.0003 102.266 75.8035C102.459 74.1846 102.637 72.516 102.802 70.7976C102.764 70.6928 102.705 70.6034 102.623 70.5294C103.088 69.238 103.385 67.9567 103.517 66.6855Z" fill="#077FCF"/>
<path opacity="0.99" fill-rule="evenodd" clip-rule="evenodd" d="M107.27 67.5791C108.25 67.9052 109.203 68.2628 110.131 68.6518C109.929 69.0977 109.75 69.5446 109.594 69.9927C109.419 71.3625 109.151 72.7629 108.79 74.1941C108.642 75.0231 108.552 75.8575 108.522 76.6971C107.681 76.6166 106.847 76.4974 106.019 76.3395C105.892 76.1779 105.713 76.1183 105.482 76.1607C105.761 74.3593 105.999 72.6608 106.198 71.0654C106.544 69.8874 106.902 68.7253 107.27 67.5791Z" fill="#0786D5"/>
<path opacity="0.989" fill-rule="evenodd" clip-rule="evenodd" d="M110.131 68.6514C112.358 69.3136 114.504 70.148 116.567 71.1543C115.862 73.0782 115.206 75.015 114.6 76.9648C114.688 77.3272 114.688 77.7144 114.6 78.1269C112.575 77.6266 110.549 77.15 108.521 76.6966C108.552 75.857 108.641 75.0227 108.79 74.1936C109.151 72.7625 109.419 71.3621 109.594 69.9922C109.75 69.5442 109.929 69.0973 110.131 68.6514Z" fill="#0990DD"/>
<path opacity="0.985" fill-rule="evenodd" clip-rule="evenodd" d="M116.568 71.1592C118.016 71.675 119.388 72.3304 120.68 73.1258C119.913 75.192 119.198 77.2181 118.535 79.2044C117.214 78.8832 115.903 78.5256 114.602 78.1317C114.689 77.7193 114.689 77.332 114.602 76.9696C115.208 75.0198 115.864 73.0831 116.568 71.1592Z" fill="#0A98E4"/>
<path opacity="0.982" fill-rule="evenodd" clip-rule="evenodd" d="M120.679 73.124C123.271 74.3294 125.713 75.7596 128.009 77.4148C127.419 78.372 126.852 79.2659 126.31 80.0966C126.048 80.679 125.84 81.2751 125.685 81.8844C123.31 80.915 120.927 80.0211 118.533 79.2027C119.196 77.2164 119.912 75.1902 120.679 73.124Z" fill="#0BA2EC"/>
<path opacity="0.998" fill-rule="evenodd" clip-rule="evenodd" d="M128.01 77.416C131.485 79.5786 134.703 82.0815 137.664 84.9249C137.316 85.1423 137.047 85.4402 136.86 85.8188C136.608 86.3684 136.339 86.9048 136.055 87.4279C132.751 85.2993 129.295 83.4519 125.686 81.8856C125.841 81.2763 126.048 80.6802 126.311 80.0978C126.853 79.2671 127.42 78.3732 128.01 77.416Z" fill="#0CADF4"/>
<path opacity="0.957" fill-rule="evenodd" clip-rule="evenodd" d="M137.666 84.9199C142.198 88.913 146.07 93.4422 149.287 98.5075C145.357 94.2177 140.946 90.5228 136.057 87.4229C136.341 86.8998 136.609 86.3634 136.861 85.8138C137.049 85.4352 137.317 85.1373 137.666 84.9199Z" fill="#0DB8FA"/>
<path opacity="0.994" fill-rule="evenodd" clip-rule="evenodd" d="M56.6734 107.274C56.001 107.069 55.3753 107.188 54.7962 107.632C53.9371 107.504 53.0729 107.533 52.2038 107.721C49.6824 108.452 47.1197 109.017 44.5161 109.42C44.1944 108.336 43.8369 107.263 43.4434 106.201C44.4388 106.02 45.4222 105.782 46.3933 105.486C46.4528 105.546 46.5126 105.606 46.5721 105.665C47.3788 105.202 48.213 104.785 49.0751 104.414C49.1491 104.495 49.2385 104.555 49.3433 104.592C49.9803 104.41 50.5762 104.142 51.1311 103.788C52.6068 103.815 54.0668 103.607 55.5113 103.162C55.6494 103.188 55.7686 103.248 55.8689 103.341C56.1945 104.643 56.4627 105.954 56.6734 107.274Z" fill="#00287B"/>
<path opacity="0.993" fill-rule="evenodd" clip-rule="evenodd" d="M56.675 107.273C56.887 108.46 57.0658 109.651 57.2113 110.849C55.6775 111.018 54.1875 111.197 52.7417 111.385C52.3378 111.379 51.9506 111.319 51.5796 111.206C49.6147 111.826 47.5587 112.302 45.4115 112.636C45.0475 111.601 44.7496 110.528 44.5176 109.418C47.1212 109.016 49.6839 108.451 52.2053 107.72C53.0744 107.532 53.9387 107.502 54.7977 107.63C55.3768 107.187 56.0025 107.068 56.675 107.273Z" fill="#002E81"/>
<path opacity="0.994" fill-rule="evenodd" clip-rule="evenodd" d="M57.2119 110.842C57.3144 111.916 57.4336 112.989 57.5695 114.06C57.4025 113.869 57.3428 113.631 57.3907 113.345C54.4211 113.724 51.501 114.053 48.6302 114.328C47.7313 114.609 46.8374 114.818 45.9485 114.954C45.6592 114.226 45.4804 113.45 45.4121 112.63C47.5593 112.295 49.6153 111.82 51.5802 111.199C51.9512 111.312 52.3384 111.373 52.7423 111.378C54.1881 111.19 55.6781 111.012 57.2119 110.842Z" fill="#013386"/>
<path opacity="0.992" fill-rule="evenodd" clip-rule="evenodd" d="M57.5702 114.061C57.6593 114.892 57.7188 115.727 57.749 116.564C56.5708 116.619 55.4087 116.56 54.2627 116.385C53.0017 116.651 51.7204 116.83 50.4188 116.921C49.839 116.823 49.2728 116.943 48.7204 117.279C48.6464 117.197 48.557 117.138 48.4522 117.1C47.8061 117.336 47.1507 117.515 46.4856 117.637C46.1963 116.785 46.0175 115.892 45.9492 114.955C46.8381 114.819 47.7321 114.61 48.631 114.329C51.5017 114.054 54.4218 113.725 57.3915 113.346C57.3435 113.632 57.4033 113.87 57.5702 114.061Z" fill="#01398C"/>
<path opacity="0.996" fill-rule="evenodd" clip-rule="evenodd" d="M187.544 115.319C209.297 115.26 231.05 115.319 252.801 115.498C249.883 128.567 249.972 141.618 253.069 154.651C253.788 157.612 254.771 160.472 256.019 163.233C252.688 164.499 249.291 165.571 245.828 166.451C244.062 166.959 242.274 167.377 240.464 167.702C239.764 167.906 239.048 168.056 238.319 168.149C238.119 168.3 237.999 168.509 237.961 168.775C238.112 169.181 238.112 169.567 237.961 169.937C238.344 170.574 238.464 171.169 238.319 171.725C238.809 173.676 239.106 175.612 239.213 177.536C237.434 177.802 235.646 177.981 233.849 178.072C233.562 175.787 233.263 173.611 232.955 171.546C233.014 171.368 233.075 171.189 233.134 171.01C232.993 170.459 232.904 169.894 232.866 169.312C231.831 169.093 230.789 169.093 229.737 169.312C227.74 169.387 225.774 169.506 223.837 169.669C222.407 169.669 220.977 169.669 219.547 169.669C217.873 169.696 216.205 169.637 214.541 169.49C213.046 169.421 211.557 169.301 210.071 169.133C208.521 168.954 206.973 168.775 205.423 168.596C204.021 168.323 202.591 168.085 201.132 167.881C200.173 167.665 199.219 167.427 198.271 167.166C196.886 166.937 195.514 166.639 194.159 166.272C192.48 165.832 190.811 165.355 189.153 164.842C187.172 164.222 185.206 163.565 183.253 162.875C180.829 162.021 178.444 161.066 176.102 160.015C173.518 158.872 170.955 157.68 168.414 156.439C163.403 153.875 158.635 150.956 154.111 147.679C156.074 145.074 158.07 142.392 160.101 139.634C162.529 136.029 164.824 132.334 166.984 128.549C175.381 137.785 185.275 144.965 196.662 150.092C207.35 154.675 218.494 156.552 230.095 155.724C229.047 149.806 228.391 143.847 228.128 137.846C228.246 137.615 228.305 137.347 228.307 137.041C228.087 134.69 227.908 132.336 227.771 129.979C225.455 130.235 223.131 130.353 220.798 130.337C219.666 130.337 218.533 130.337 217.401 130.337C216.42 130.171 215.406 130.051 214.362 129.979C213.479 129.793 212.585 129.673 211.68 129.622C211.344 129.471 210.986 129.412 210.607 129.443C209.687 129.153 208.734 128.915 207.747 128.728C206.926 128.454 206.091 128.216 205.244 128.013C204.45 127.648 203.615 127.351 202.741 127.119C201.96 126.67 201.126 126.312 200.238 126.046C199.474 125.604 198.7 125.157 197.914 124.705C197.656 124.566 197.417 124.596 197.199 124.794C196.632 125.81 196.065 126.822 195.5 127.834C194.595 128.699 193.85 129.593 193.265 130.516C192.498 129.82 191.814 129.046 191.209 128.191C190.832 127.614 190.503 127.019 190.226 126.404C190.8 126.026 191.336 125.61 191.835 125.152C192.128 124.585 192.516 124.228 192.997 124.079C193.408 123.525 193.794 122.96 194.159 122.381C192.416 120.997 190.778 119.477 189.243 117.822C188.629 117.008 188.063 116.174 187.544 115.319Z" fill="#002175"/>
<path opacity="0.993" fill-rule="evenodd" clip-rule="evenodd" d="M57.7459 116.567C57.8601 117.756 57.9198 118.947 57.9247 120.143C57.7954 119.837 57.5569 119.659 57.2095 119.607C56.177 119.939 55.1342 119.998 54.0808 119.786C52.2658 119.914 50.4481 120.093 48.6278 120.322C48.0575 120.115 47.4616 119.997 46.84 119.964C46.6288 119.206 46.5096 118.43 46.4824 117.64C47.1475 117.519 47.8029 117.34 48.4491 117.104C48.5538 117.141 48.6432 117.2 48.7172 117.283C49.2697 116.946 49.8359 116.827 50.4157 116.925C51.7172 116.834 52.9986 116.655 54.2596 116.389C55.4056 116.564 56.5677 116.623 57.7459 116.567Z" fill="#024093"/>
<path opacity="0.992" fill-rule="evenodd" clip-rule="evenodd" d="M57.9265 120.144C57.9265 120.8 57.9265 121.454 57.9265 122.11C56.1931 122.209 54.465 122.329 52.7417 122.468C52.4546 122.364 52.1567 122.305 51.8478 122.289C50.6892 122.577 49.5271 122.638 48.3615 122.468C47.9955 122.666 47.6082 122.786 47.1994 122.826C47.0635 121.874 46.9442 120.921 46.8418 119.965C47.4634 119.997 48.0593 120.115 48.6296 120.323C50.4499 120.094 52.2676 119.915 54.0826 119.786C55.136 119.999 56.1788 119.94 57.2113 119.607C57.5587 119.659 57.7972 119.838 57.9265 120.144Z" fill="#024799"/>
<path opacity="0.98" fill-rule="evenodd" clip-rule="evenodd" d="M187.544 115.315C188.062 116.17 188.629 117.005 189.242 117.818C190.778 119.474 192.416 120.994 194.159 122.377C193.794 122.957 193.408 123.522 192.997 124.076C192.516 124.224 192.128 124.582 191.835 125.149C191.336 125.606 190.8 126.023 190.226 126.4C188.146 122.973 187.253 119.277 187.544 115.315Z" fill="#001267"/>
<path opacity="0.993" fill-rule="evenodd" clip-rule="evenodd" d="M57.9244 122.112C57.9828 123.754 57.9231 125.363 57.7456 126.939C57.8033 126.273 57.7436 125.618 57.5668 124.973C57.425 124.896 57.2759 124.837 57.1198 124.794C53.9559 125.037 50.7674 125.275 47.5548 125.509C47.4356 124.615 47.3165 123.721 47.1973 122.827C47.6061 122.788 47.9934 122.668 48.3594 122.47C49.525 122.64 50.6871 122.579 51.8457 122.291C52.1546 122.307 52.4525 122.366 52.7396 122.47C54.4629 122.33 56.191 122.211 57.9244 122.112Z" fill="#034D9F"/>
<path opacity="0.988" fill-rule="evenodd" clip-rule="evenodd" d="M200.238 126.042C199.575 127.042 199.01 128.114 198.54 129.26C197.673 130.521 196.809 131.772 195.947 133.015C195.27 132.546 194.614 132.04 193.981 131.495C193.718 131.179 193.48 130.85 193.266 130.512C193.85 129.589 194.596 128.695 195.5 127.83C196.065 126.818 196.632 125.806 197.199 124.791C197.417 124.592 197.657 124.562 197.914 124.701C198.701 125.154 199.475 125.601 200.238 126.042Z" fill="#002C7F"/>
<path opacity="0.987" fill-rule="evenodd" clip-rule="evenodd" d="M200.24 126.044C201.129 126.31 201.962 126.668 202.743 127.117C201.567 129.865 200.433 132.607 199.346 135.341C198.114 134.697 196.983 133.921 195.949 133.016C196.811 131.774 197.674 130.522 198.542 129.262C199.012 128.116 199.577 127.043 200.24 126.044Z" fill="#01398B"/>
<path opacity="0.993" fill-rule="evenodd" clip-rule="evenodd" d="M57.7474 126.935C57.7417 127.953 57.6819 128.966 57.5686 129.975C56.9169 129.885 56.2912 129.707 55.6914 129.438C53.0797 129.537 50.4873 129.537 47.9142 129.438C47.7497 128.135 47.6305 126.825 47.5566 125.505C50.7692 125.271 53.9577 125.033 57.1216 124.79C57.2777 124.833 57.4268 124.892 57.5686 124.969C57.7454 125.614 57.8051 126.269 57.7474 126.935Z" fill="#0458A9"/>
<path opacity="0.99" fill-rule="evenodd" clip-rule="evenodd" d="M202.743 127.116C203.617 127.349 204.452 127.645 205.246 128.01C204.182 130.831 203.229 133.692 202.385 136.592C201.328 136.279 200.315 135.862 199.346 135.34C200.433 132.607 201.566 129.864 202.743 127.116Z" fill="#024597"/>
<path opacity="0.988" fill-rule="evenodd" clip-rule="evenodd" d="M205.245 128.008C206.093 128.212 206.928 128.449 207.748 128.723C207.076 131.589 206.361 134.51 205.603 137.483C204.496 137.296 203.424 136.999 202.385 136.589C203.229 133.69 204.182 130.829 205.245 128.008Z" fill="#0252A3"/>
<path opacity="0.992" fill-rule="evenodd" clip-rule="evenodd" d="M207.747 128.728C208.734 128.915 209.687 129.153 210.608 129.443C210.384 129.457 210.236 129.575 210.161 129.8C209.671 131.062 209.463 132.343 209.535 133.644C209.26 134.999 208.961 136.401 208.641 137.845C207.618 137.794 206.606 137.674 205.602 137.488C206.36 134.515 207.075 131.593 207.747 128.728Z" fill="#035CAD"/>
<path opacity="0.994" fill-rule="evenodd" clip-rule="evenodd" d="M210.609 129.438C210.988 129.408 211.346 129.467 211.682 129.617C211.235 131.155 211.056 132.764 211.146 134.444C210.709 135.53 210.47 136.661 210.43 137.841C209.835 137.841 209.238 137.841 208.643 137.841C208.963 136.397 209.261 134.995 209.537 133.64C209.465 132.338 209.672 131.058 210.162 129.796C210.237 129.571 210.386 129.453 210.609 129.438Z" fill="#0467B6"/>
<path opacity="0.994" fill-rule="evenodd" clip-rule="evenodd" d="M211.681 129.613C212.586 129.665 213.48 129.785 214.363 129.971C214.072 132.426 213.714 134.87 213.29 137.301C213.403 137.465 213.462 137.644 213.469 137.837C212.455 137.837 211.443 137.837 210.43 137.837C210.469 136.657 210.709 135.526 211.145 134.44C211.055 132.76 211.234 131.151 211.681 129.613Z" fill="#0571C0"/>
<path opacity="0.993" fill-rule="evenodd" clip-rule="evenodd" d="M214.362 129.973C215.406 130.044 216.42 130.164 217.401 130.33C217.058 132.871 216.879 135.374 216.865 137.839C215.733 137.839 214.6 137.839 213.468 137.839C213.461 137.646 213.402 137.467 213.289 137.303C213.713 134.871 214.07 132.427 214.362 129.973Z" fill="#077DCB"/>
<path opacity="0.994" fill-rule="evenodd" clip-rule="evenodd" d="M217.404 130.334C218.535 130.334 219.669 130.334 220.8 130.334C220.756 130.987 220.756 131.612 220.8 132.211C220.681 132.51 220.563 132.807 220.443 133.105C220.62 134.464 220.65 135.864 220.532 137.307C220.441 137.491 220.352 137.669 220.264 137.843C219.132 137.843 217.999 137.843 216.867 137.843C216.881 135.377 217.06 132.874 217.404 130.334Z" fill="#088AD8"/>
<path opacity="0.994" fill-rule="evenodd" clip-rule="evenodd" d="M228.13 137.839C225.507 137.839 222.886 137.839 220.264 137.839C220.351 137.666 220.441 137.487 220.532 137.303C220.65 135.86 220.619 134.46 220.442 133.101C220.562 132.803 220.68 132.506 220.8 132.207C220.755 131.609 220.755 130.983 220.8 130.33C223.133 130.346 225.457 130.228 227.773 129.973C227.91 132.329 228.089 134.684 228.309 137.035C228.307 137.34 228.248 137.608 228.13 137.839Z" fill="#0A97E4"/>
<path opacity="0.988" fill-rule="evenodd" clip-rule="evenodd" d="M47.9141 129.437C50.4871 129.535 53.0795 129.535 55.6912 129.437C56.291 129.705 56.9168 129.883 57.5685 129.973C57.4789 131.746 57.2404 133.473 56.8533 135.158C56.2964 134.834 55.6706 134.596 54.9761 134.442C54.3076 134.625 53.6522 134.566 53.0094 134.264C52.6297 134.364 52.2423 134.425 51.8473 134.442C50.4939 134.23 49.1829 134.11 47.9141 134.085C47.9141 132.535 47.9141 130.987 47.9141 129.437Z" fill="#0565B5"/>
<path opacity="0.985" fill-rule="evenodd" clip-rule="evenodd" d="M47.9141 134.087C49.1829 134.112 50.4939 134.232 51.8473 134.444C52.2423 134.427 52.6297 134.366 53.0094 134.266C53.6522 134.568 54.3076 134.627 54.9761 134.444C55.6706 134.598 56.2964 134.836 56.8533 135.16C56.7952 136.526 56.5569 137.838 56.1382 139.093C54.9457 139.023 53.7539 138.934 52.5625 138.825C51.0333 138.401 49.4838 138.074 47.9141 137.841C47.9141 136.59 47.9141 135.338 47.9141 134.087Z" fill="#0671C0"/>
<path opacity="0.992" fill-rule="evenodd" clip-rule="evenodd" d="M47.9142 137.842C49.4839 138.074 51.0335 138.401 52.5626 138.825C53.754 138.934 54.9458 139.024 56.1383 139.093C55.8253 141.06 55.3486 142.968 54.708 144.814C54.7384 144.578 54.6789 144.369 54.5293 144.189C53.8399 143.994 53.1544 143.785 52.4732 143.563C52.2687 143.636 52.0601 143.695 51.8475 143.742C51.4674 143.511 51.0503 143.363 50.596 143.295C49.5651 143.239 48.5519 143.091 47.5566 142.848C47.7578 141.187 47.8768 139.519 47.9142 137.842Z" fill="#077DCC"/>
<path opacity="0.987" fill-rule="evenodd" clip-rule="evenodd" d="M47.5559 142.849C48.5512 143.092 49.5644 143.24 50.5952 143.296C51.0495 143.364 51.4666 143.512 51.8467 143.743C52.0593 143.696 52.2679 143.637 52.4725 143.564C53.1536 143.785 53.8391 143.995 54.5285 144.19C54.6781 144.37 54.7377 144.579 54.7073 144.815C54.4041 146.321 53.9274 147.751 53.277 149.106C52.6511 148.849 52.0253 148.552 51.3998 148.212C51.3257 148.294 51.2364 148.353 51.1316 148.391C49.7542 148.092 48.3835 147.853 47.0195 147.676C47.2636 146.074 47.4424 144.465 47.5559 142.849Z" fill="#088AD8"/>
<path opacity="0.988" fill-rule="evenodd" clip-rule="evenodd" d="M47.0209 147.678C48.3848 147.855 49.7556 148.094 51.1329 148.393C51.2377 148.355 51.3271 148.296 51.4011 148.214C52.0267 148.554 52.6524 148.851 53.2784 149.108C52.735 150.978 52.0199 152.766 51.1329 154.472C51.1383 154.293 51.0489 154.175 50.8648 154.114C49.2535 153.683 47.6742 153.208 46.127 152.684C46.425 151.016 46.7228 149.346 47.0209 147.678Z" fill="#0996E2"/>
<path opacity="0.961" fill-rule="evenodd" clip-rule="evenodd" d="M154.111 147.678C158.635 150.955 163.403 153.874 168.414 156.438C167.808 157.164 167.272 157.938 166.805 158.762C162.251 155.462 158.021 151.767 154.111 147.678Z" fill="#0EBDFA"/>
<path opacity="0.981" fill-rule="evenodd" clip-rule="evenodd" d="M46.1278 152.682C47.675 153.205 49.2544 153.681 50.8656 154.112C51.0498 154.173 51.1392 154.291 51.1338 154.469C50.109 156.937 48.8575 159.261 47.3793 161.442C46.1824 161.111 45.0501 160.634 43.9824 160.012C44.842 157.612 45.5572 155.169 46.1278 152.682Z" fill="#0BA2EE"/>
<path opacity="0.973" fill-rule="evenodd" clip-rule="evenodd" d="M168.418 156.435C170.958 157.675 173.522 158.868 176.105 160.01C175.912 161.432 175.555 162.862 175.033 164.301C172.161 162.628 169.421 160.781 166.809 158.759C167.275 157.935 167.812 157.16 168.418 156.435Z" fill="#0DB3F6"/>
<path opacity="0.982" fill-rule="evenodd" clip-rule="evenodd" d="M176.104 160.009C178.446 161.06 180.831 162.015 183.255 162.869C182.676 164.611 182.081 166.279 181.468 167.875C179.206 166.863 177.06 165.673 175.031 164.3C175.553 162.86 175.911 161.43 176.104 160.009Z" fill="#0BA7EF"/>
<path opacity="0.987" fill-rule="evenodd" clip-rule="evenodd" d="M183.257 162.87C185.209 163.56 187.176 164.216 189.157 164.837C188.985 165.741 188.686 166.605 188.263 167.429C188.322 167.488 188.382 167.549 188.441 167.608C187.876 168.564 187.399 169.548 187.011 170.558C185.683 170.043 184.372 169.476 183.078 168.859C182.47 168.616 181.934 168.289 181.469 167.876C182.082 166.28 182.677 164.611 183.257 162.87Z" fill="#0A9AE6"/>
<path opacity="0.992" fill-rule="evenodd" clip-rule="evenodd" d="M256.02 163.229C257.25 166.343 258.53 169.443 259.864 172.525C259.998 172.729 259.967 172.908 259.774 173.062C255.478 174.075 251.187 175.089 246.902 176.101C246.512 173.205 246.094 170.255 245.65 167.251C245.67 166.967 245.729 166.699 245.829 166.447C249.292 165.567 252.689 164.494 256.02 163.229Z" fill="#000E62"/>
<path opacity="0.987" fill-rule="evenodd" clip-rule="evenodd" d="M189.153 164.836C190.811 165.349 192.48 165.826 194.159 166.266C193.444 168.413 192.729 170.559 192.014 172.702C190.292 172.078 188.624 171.363 187.008 170.557C187.396 169.547 187.873 168.564 188.438 167.607C188.379 167.548 188.318 167.487 188.259 167.428C188.683 166.604 188.982 165.741 189.153 164.836Z" fill="#088DDB"/>
<path opacity="0.916" fill-rule="evenodd" clip-rule="evenodd" d="M43.9797 160.009C45.0474 160.631 46.1796 161.108 47.3766 161.439C44.9963 165.608 42.1357 169.422 38.7949 172.881C40.5232 168.59 42.2514 164.3 43.9797 160.009Z" fill="#0CAEF8"/>
<path opacity="0.991" fill-rule="evenodd" clip-rule="evenodd" d="M245.83 166.447C245.73 166.699 245.671 166.968 245.652 167.252C246.095 170.255 246.513 173.205 246.903 176.102C245.242 176.445 243.574 176.743 241.897 176.995C241.649 174.285 241.171 171.575 240.467 168.861C240.526 168.802 240.587 168.741 240.646 168.682C240.324 168.378 240.265 168.051 240.467 167.699C242.276 167.373 244.064 166.955 245.83 166.447Z" fill="#001569"/>
<path opacity="0.989" fill-rule="evenodd" clip-rule="evenodd" d="M194.161 166.269C195.516 166.635 196.888 166.934 198.273 167.162C197.735 169.553 197.199 171.936 196.664 174.314C195.116 173.777 193.566 173.241 192.016 172.705C192.731 170.561 193.446 168.416 194.161 166.269Z" fill="#0782D2"/>
<path opacity="0.991" fill-rule="evenodd" clip-rule="evenodd" d="M240.466 167.696C240.264 168.048 240.323 168.376 240.645 168.68C240.586 168.739 240.525 168.799 240.466 168.858C241.17 171.572 241.648 174.283 241.896 176.993C241.017 177.222 240.123 177.401 239.214 177.529C239.107 175.606 238.81 173.669 238.32 171.719C238.465 171.163 238.345 170.568 237.963 169.931C238.113 169.561 238.113 169.175 237.963 168.769C238 168.503 238.12 168.293 238.32 168.143C239.05 168.05 239.765 167.9 240.466 167.696Z" fill="#001A6E"/>
<path opacity="0.988" fill-rule="evenodd" clip-rule="evenodd" d="M201.133 167.875C202.591 168.079 204.022 168.317 205.423 168.59C204.878 171.186 204.461 173.75 204.172 176.278C202.613 175.958 201.065 175.6 199.523 175.205C200.119 172.829 200.655 170.387 201.133 167.875Z" fill="#056FC1"/>
<path opacity="0.99" fill-rule="evenodd" clip-rule="evenodd" d="M205.423 168.593C206.973 168.772 208.522 168.95 210.072 169.129C209.746 171.773 209.389 174.514 208.999 177.353C207.386 177.015 205.777 176.658 204.172 176.28C204.462 173.752 204.878 171.189 205.423 168.593Z" fill="#0462B5"/>
<path opacity="0.99" fill-rule="evenodd" clip-rule="evenodd" d="M233.85 178.07C232.751 178.256 231.619 178.376 230.453 178.428C230.427 177.74 230.427 177.053 230.453 176.372C230.164 175.374 230.105 174.48 230.275 173.69C229.972 172.807 229.913 171.974 230.096 171.187C229.903 170.533 229.785 169.907 229.738 169.31C230.79 169.092 231.832 169.092 232.867 169.31C232.905 169.893 232.994 170.458 233.135 171.009C233.076 171.187 233.015 171.366 232.956 171.545C233.264 173.61 233.562 175.786 233.85 178.07Z" fill="#00277B"/>
<path opacity="0.991" fill-rule="evenodd" clip-rule="evenodd" d="M210.073 169.128C211.558 169.296 213.048 169.416 214.542 169.485C214.596 169.602 214.657 169.721 214.721 169.843C214.517 171.025 214.278 172.246 214.006 173.508C214.065 173.687 214.126 173.866 214.185 174.044C213.974 175.232 213.795 176.424 213.648 177.62C213.749 177.688 213.808 177.777 213.827 177.888C212.213 177.76 210.604 177.581 209 177.352C209.39 174.513 209.747 171.772 210.073 169.128Z" fill="#0356A9"/>
<path opacity="0.988" fill-rule="evenodd" clip-rule="evenodd" d="M229.738 169.308C229.784 169.905 229.902 170.53 230.095 171.185C229.913 171.971 229.972 172.805 230.274 173.688C230.104 174.478 230.163 175.372 230.453 176.37C230.426 177.051 230.426 177.737 230.453 178.426C228.787 178.538 227.119 178.597 225.447 178.604C225.488 175.622 225.488 172.642 225.447 169.665C224.911 169.665 224.374 169.665 223.838 169.665C225.774 169.502 227.741 169.383 229.738 169.308Z" fill="#003185"/>
<path opacity="0.991" fill-rule="evenodd" clip-rule="evenodd" d="M214.542 169.486C216.207 169.633 217.875 169.692 219.548 169.665C219.425 172.61 219.246 175.531 219.012 178.425C217.249 178.334 215.52 178.156 213.827 177.889C213.808 177.778 213.749 177.689 213.648 177.621C213.795 176.425 213.974 175.232 214.185 174.045C214.126 173.867 214.065 173.688 214.006 173.509C214.278 172.247 214.517 171.026 214.721 169.844C214.657 169.722 214.596 169.603 214.542 169.486Z" fill="#02499D"/>
<path opacity="0.989" fill-rule="evenodd" clip-rule="evenodd" d="M219.548 169.664C220.978 169.664 222.409 169.664 223.839 169.664C224.375 169.664 224.912 169.664 225.448 169.664C225.489 172.641 225.489 175.621 225.448 178.603C223.301 178.618 221.155 178.557 219.012 178.424C219.246 175.53 219.425 172.609 219.548 169.664Z" fill="#013C8F"/>
<path opacity="0.992" fill-rule="evenodd" clip-rule="evenodd" d="M191.658 181.464C186.354 182.796 181.228 184.583 176.283 186.827C174.228 187.551 172.262 188.445 170.383 189.509C168.568 190.267 166.841 191.161 165.198 192.191C163.476 193.052 161.808 194.005 160.192 195.051C159.232 195.709 158.279 196.365 157.331 197.018C156.638 197.452 155.982 197.93 155.365 198.448C154.65 198.984 153.935 199.521 153.219 200.057C152.452 200.586 151.737 201.182 151.074 201.845C150.536 202.355 149.969 202.83 149.375 203.275C148.957 203.064 148.628 202.766 148.392 202.381C147.439 201.309 146.426 200.295 145.353 199.342C144.697 198.568 143.982 197.853 143.207 197.197C142.499 196.542 141.784 195.888 141.062 195.23C140.039 194.147 138.906 193.194 137.665 192.369C136.875 191.52 135.981 190.805 134.983 190.224C134.025 189.386 133.013 188.611 131.944 187.9C130.746 186.942 129.495 186.048 128.189 185.218C127.094 184.46 125.962 183.745 124.793 183.073C123.791 182.452 122.778 181.827 121.753 181.196C121.439 181.052 121.14 181.083 120.859 181.285C119.658 183.377 118.465 185.463 117.284 187.542C113.867 185.445 110.409 183.389 106.914 181.374C115.397 178.204 123.563 174.361 131.408 169.843C137.729 174.048 143.719 178.696 149.375 183.788C155.032 178.696 161.022 174.048 167.343 169.843C175.183 174.359 183.348 178.203 191.837 181.374C191.796 181.446 191.737 181.476 191.658 181.464Z" fill="#002175"/>
<path opacity="0.959" fill-rule="evenodd" clip-rule="evenodd" d="M198.271 167.165C199.219 167.426 200.173 167.664 201.132 167.88C200.654 170.392 200.118 172.834 199.523 175.21C198.589 174.858 197.635 174.56 196.662 174.316C197.197 171.939 197.733 169.555 198.271 167.165Z" fill="#067ACA"/>
<path opacity="0.989" fill-rule="evenodd" clip-rule="evenodd" d="M124.79 183.073C124.467 183.35 124.138 183.649 123.807 183.967C122.841 185.41 121.948 186.899 121.125 188.437C120.835 188.841 120.508 189.198 120.142 189.509C119.119 188.939 118.166 188.285 117.281 187.543C118.463 185.464 119.656 183.377 120.857 181.285C121.138 181.083 121.436 181.053 121.751 181.196C122.775 181.827 123.789 182.453 124.79 183.073Z" fill="#002D80"/>
<path opacity="0.966" fill-rule="evenodd" clip-rule="evenodd" d="M191.657 181.466C187.014 184.085 182.485 186.887 178.069 189.869C177.152 189.05 176.557 188.036 176.281 186.829C181.226 184.586 186.352 182.798 191.657 181.466Z" fill="#10D0FD"/>
<path opacity="0.99" fill-rule="evenodd" clip-rule="evenodd" d="M124.793 183.077C125.962 183.749 127.094 184.465 128.19 185.223C126.76 187.241 125.24 189.208 123.631 191.122C123.49 191.344 123.4 191.584 123.363 191.838C122.22 191.147 121.148 190.373 120.145 189.513C120.511 189.202 120.838 188.845 121.128 188.441C121.95 186.903 122.844 185.414 123.81 183.971C124.14 183.653 124.469 183.354 124.793 183.077Z" fill="#01378A"/>
<path opacity="0.987" fill-rule="evenodd" clip-rule="evenodd" d="M128.189 185.219C129.494 186.048 130.745 186.942 131.943 187.9C130.232 190.069 128.564 192.274 126.937 194.515C125.675 193.706 124.482 192.812 123.361 191.834C123.399 191.58 123.488 191.34 123.63 191.119C125.239 189.204 126.758 187.237 128.189 185.219Z" fill="#024497"/>
<path opacity="0.979" fill-rule="evenodd" clip-rule="evenodd" d="M176.283 186.824C176.558 188.031 177.153 189.045 178.071 189.864C176.528 190.993 174.978 192.125 173.422 193.26C172.45 191.971 171.438 190.72 170.383 189.506C172.262 188.442 174.228 187.548 176.283 186.824Z" fill="#0FCAFC"/>
<path opacity="0.992" fill-rule="evenodd" clip-rule="evenodd" d="M131.943 187.901C133.013 188.613 134.025 189.387 134.983 190.226C134.005 191.922 132.812 193.47 131.407 194.874C130.928 195.594 130.452 196.31 129.977 197.019C128.924 196.226 127.91 195.392 126.938 194.516C128.564 192.274 130.233 190.07 131.943 187.901Z" fill="#0352A4"/>
<path opacity="0.984" fill-rule="evenodd" clip-rule="evenodd" d="M170.38 189.513C171.435 190.727 172.447 191.978 173.419 193.267C171.687 194.76 169.899 196.19 168.056 197.558C167.764 197.356 167.496 197.118 167.251 196.843C166.443 195.339 165.757 193.789 165.195 192.194C166.838 191.165 168.565 190.271 170.38 189.513Z" fill="#0EC1FA"/>
<path opacity="0.99" fill-rule="evenodd" clip-rule="evenodd" d="M134.984 190.223C135.982 190.804 136.876 191.519 137.666 192.368C136.763 193.51 135.9 194.703 135.074 195.944C134.048 196.881 133.123 197.892 132.303 198.983C131.471 198.389 130.695 197.733 129.979 197.016C130.454 196.307 130.93 195.592 131.409 194.871C132.814 193.468 134.007 191.919 134.984 190.223Z" fill="#045EAF"/>
<path opacity="0.987" fill-rule="evenodd" clip-rule="evenodd" d="M165.197 192.19C165.759 193.785 166.445 195.335 167.253 196.839C167.498 197.114 167.767 197.352 168.058 197.554C166.635 198.804 165.205 200.055 163.767 201.308C162.839 199.572 161.797 197.904 160.638 196.302C160.486 195.882 160.338 195.464 160.191 195.051C161.808 194.005 163.476 193.052 165.197 192.19Z" fill="#0DB9F6"/>
<path opacity="0.988" fill-rule="evenodd" clip-rule="evenodd" d="M137.664 192.373C138.905 193.197 140.039 194.15 141.061 195.234C140.514 195.287 140.067 195.525 139.72 195.949C138.229 197.826 136.71 199.675 135.161 201.491C134.151 200.719 133.196 199.884 132.301 198.988C133.121 197.897 134.046 196.886 135.072 195.949C135.898 194.708 136.761 193.515 137.664 192.373Z" fill="#056BBB"/>
<path opacity="0.983" fill-rule="evenodd" clip-rule="evenodd" d="M141.062 195.229C141.784 195.887 142.499 196.542 143.207 197.196C142.909 197.464 142.58 197.704 142.224 197.911C140.797 200.021 139.278 202.047 137.665 203.99C136.771 203.216 135.936 202.381 135.162 201.487C136.71 199.67 138.23 197.822 139.721 195.945C140.068 195.521 140.515 195.283 141.062 195.229Z" fill="#0677C6"/>
<path opacity="0.99" fill-rule="evenodd" clip-rule="evenodd" d="M157.332 197.016C158.308 199.326 159.381 201.589 160.55 203.809C160.632 203.952 160.75 204.011 160.908 203.988C159.949 205.005 158.996 206.019 158.047 207.027C157.738 206.936 157.677 206.788 157.868 206.581C157.419 205.433 157.003 204.21 156.617 202.915C156.654 202.81 156.713 202.721 156.796 202.647C155.912 201.398 155.435 199.996 155.365 198.446C155.982 197.927 156.638 197.45 157.332 197.016Z" fill="#0BABF0"/>
<path opacity="0.973" fill-rule="evenodd" clip-rule="evenodd" d="M160.193 195.053C160.339 195.466 160.488 195.884 160.64 196.304C161.798 197.906 162.84 199.574 163.768 201.31C162.928 202.331 161.973 203.225 160.908 203.992C160.75 204.015 160.632 203.956 160.55 203.813C159.381 201.593 158.308 199.329 157.332 197.019C158.28 196.367 159.233 195.711 160.193 195.053Z" fill="#0CB1F3"/>
<path opacity="0.989" fill-rule="evenodd" clip-rule="evenodd" d="M155.364 198.448C155.434 199.998 155.911 201.4 156.794 202.65C156.712 202.723 156.653 202.812 156.616 202.918C157.002 204.212 157.418 205.435 157.867 206.583C157.676 206.79 157.737 206.939 158.046 207.03C156.752 208.374 155.5 209.746 154.291 211.142C154.123 209.973 153.945 208.839 153.755 207.745C153.964 207.493 153.903 207.286 153.576 207.119C153.635 207.06 153.696 206.999 153.755 206.94C153.41 206.313 153.41 205.718 153.755 205.153C153.714 204.496 153.714 203.84 153.755 203.186C153.557 202.086 153.378 201.044 153.219 200.057C153.934 199.521 154.649 198.985 155.364 198.448Z" fill="#0BA4EC"/>
<path opacity="0.981" fill-rule="evenodd" clip-rule="evenodd" d="M143.206 197.198C143.981 197.854 144.696 198.57 145.352 199.344C144.209 202.167 142.659 204.73 140.703 207.031C139.649 206.044 138.635 205.033 137.664 203.992C139.277 202.049 140.796 200.023 142.223 197.913C142.579 197.706 142.908 197.466 143.206 197.198Z" fill="#0884D3"/>
<path opacity="0.981" fill-rule="evenodd" clip-rule="evenodd" d="M153.219 200.056C153.378 201.043 153.557 202.085 153.756 203.184C153.714 203.839 153.714 204.495 153.756 205.151C153.41 205.716 153.41 206.311 153.756 206.939C153.697 206.998 153.636 207.059 153.577 207.118C153.904 207.284 153.965 207.491 153.756 207.743C153.945 208.838 154.124 209.971 154.292 211.14C152.624 213.196 150.984 215.283 149.375 217.398C148.705 216.59 148.079 215.756 147.498 214.895C148.671 212.635 149.626 210.132 150.359 207.386C150.357 205.537 150.595 203.689 151.074 201.843C151.737 201.18 152.452 200.585 153.219 200.056Z" fill="#0A9FE9"/>
<path opacity="0.987" fill-rule="evenodd" clip-rule="evenodd" d="M145.352 199.346C146.424 200.299 147.438 201.312 148.391 202.385C147.406 204.466 146.542 206.552 145.798 208.642C145.248 209.381 144.681 210.096 144.1 210.788C142.927 209.577 141.796 208.326 140.703 207.033C142.659 204.732 144.209 202.169 145.352 199.346Z" fill="#0990DD"/>
<path opacity="0.989" fill-rule="evenodd" clip-rule="evenodd" d="M151.072 201.844C150.593 203.689 150.355 205.537 150.357 207.386C149.624 210.132 148.669 212.635 147.497 214.895C146.324 213.565 145.192 212.194 144.1 210.783C144.681 210.091 145.247 209.376 145.798 208.638C146.542 206.548 147.405 204.461 148.39 202.38C148.626 202.764 148.955 203.063 149.374 203.274C149.967 202.829 150.534 202.353 151.072 201.844Z" fill="#0A99E4"/>
<path opacity="0.984" fill-rule="evenodd" clip-rule="evenodd" d="M155.722 234.922C164.759 234.069 172.478 236.812 178.874 243.146C184.442 249.742 186.408 257.311 184.774 265.852C182.625 274.855 177.231 281.023 168.594 284.356C158.729 287.535 149.67 286.044 141.419 279.886C133.83 272.848 131.117 264.236 133.284 254.052C135.734 244.988 141.424 238.998 150.358 236.084C152.146 235.577 153.934 235.19 155.722 234.922ZM156.616 244.398C163.324 243.717 168.598 246.1 172.438 251.549C175.873 258.053 175.574 264.37 171.544 270.5C167.309 275.388 161.976 277.265 155.543 276.132C147.503 273.958 143.332 268.684 143.028 260.309C143.518 251.506 148.047 246.203 156.616 244.398Z" fill="#002075"/>
<path opacity="0.988" fill-rule="evenodd" clip-rule="evenodd" d="M0 235.639C6.6154 235.609 13.2304 235.639 19.8451 235.729C28.4191 236.481 35.0043 240.443 39.6009 247.618C43.1585 254.719 43.6949 262.049 41.2099 269.608C38.1314 277.096 32.6785 281.951 24.8511 284.179C23.2031 284.592 21.5343 284.891 19.8451 285.073C13.2304 285.162 6.6154 285.193 0 285.162C0 268.655 0 252.146 0 235.639ZM10.3695 244.757C13.5943 244.686 16.8124 244.775 20.0239 245.025C26.4502 246.327 30.4133 250.171 31.9131 256.557C32.9318 261.77 31.9188 266.538 28.8738 270.86C26.4856 273.499 23.5356 275.138 20.0239 275.776C16.8124 276.027 13.5943 276.116 10.3695 276.044C10.3695 265.616 10.3695 255.186 10.3695 244.757Z" fill="#002075"/>
<path opacity="0.989" fill-rule="evenodd" clip-rule="evenodd" d="M48.9883 235.638C60.1325 235.638 71.2774 235.638 82.4211 235.638C82.4211 238.677 82.4211 241.716 82.4211 244.756C74.7333 244.756 67.0456 244.756 59.3578 244.756C59.3578 248.39 59.3578 252.027 59.3578 255.661C66.6285 255.661 73.8984 255.661 81.1696 255.661C81.1696 258.701 81.1696 261.74 81.1696 264.779C73.8984 264.779 66.6285 264.779 59.3578 264.779C59.3578 268.534 59.3578 272.288 59.3578 276.043C67.0456 276.043 74.7333 276.043 82.4211 276.043C82.4211 279.082 82.4211 282.121 82.4211 285.161C71.2774 285.161 60.1325 285.161 48.9883 285.161C48.9883 268.654 48.9883 252.145 48.9883 235.638Z" fill="#002075"/>
<path opacity="0.986" fill-rule="evenodd" clip-rule="evenodd" d="M85.2793 235.638C89.2126 235.638 93.1458 235.638 97.0791 235.638C100.712 248.296 104.436 260.928 108.253 273.54C112.07 260.928 115.794 248.296 119.427 235.638C123.36 235.638 127.294 235.638 131.227 235.638C126.103 252.145 120.977 268.652 115.852 285.161C110.787 285.161 105.72 285.161 100.655 285.161C95.529 268.652 90.4033 252.145 85.2793 235.638Z" fill="#002075"/>
<path opacity="0.989" fill-rule="evenodd" clip-rule="evenodd" d="M191.479 235.639C199.345 235.609 207.212 235.639 215.078 235.729C219.716 236.126 223.56 238.064 226.61 241.539C229.324 245.626 230.218 250.096 229.292 254.948C228.299 259.797 225.587 263.311 221.157 265.496C224.897 271.963 228.592 278.458 232.241 284.984C228.308 285.221 224.375 285.221 220.442 284.984C217.165 279.143 213.886 273.304 210.609 267.463C207.691 267.284 204.771 267.225 201.848 267.284C201.848 273.243 201.848 279.203 201.848 285.162C198.392 285.162 194.934 285.162 191.479 285.162C191.479 268.655 191.479 252.146 191.479 235.639ZM201.848 244.757C205.722 244.727 209.597 244.757 213.469 244.847C217.054 245.542 218.961 247.716 219.19 251.372C218.77 255.577 216.446 257.812 212.218 258.077C208.762 258.166 205.306 258.196 201.848 258.166C201.848 253.696 201.848 249.227 201.848 244.757Z" fill="#002075"/>
<path opacity="0.996" fill-rule="evenodd" clip-rule="evenodd" d="M237.783 235.638C241.239 235.638 244.697 235.638 248.153 235.638C248.153 252.145 248.153 268.654 248.153 285.161C244.697 285.161 241.239 285.161 237.783 285.161C237.783 268.654 237.783 252.145 237.783 235.638Z" fill="#002075"/>
<path opacity="0.986" fill-rule="evenodd" clip-rule="evenodd" d="M269.249 235.638C273.898 235.638 278.546 235.638 283.194 235.638C288.758 252.093 294.361 268.541 300 284.982C296.306 285.191 292.611 285.22 288.915 285.071C287.718 281.805 286.645 278.497 285.697 275.149C279.379 275.09 273.063 275.149 266.746 275.328C265.638 278.535 264.565 281.753 263.528 284.982C259.834 285.161 256.141 285.22 252.443 285.161C257.975 268.627 263.576 252.12 269.249 235.638ZM276.043 246.543C276.154 246.563 276.243 246.622 276.311 246.722C278.392 253.144 280.507 259.552 282.658 265.941C278.365 266.09 274.075 266.061 269.786 265.852C271.943 259.436 274.03 252.999 276.043 246.543Z" fill="#002075"/>
<path opacity="0.959" fill-rule="evenodd" clip-rule="evenodd" d="M158.76 252.799C160.811 256.249 163.612 258.961 167.163 260.933C163.723 263.091 160.982 265.922 158.939 269.426C156.926 265.923 154.185 263.122 150.715 261.023C153.12 259.544 155.295 257.756 157.24 255.659C157.891 254.776 158.397 253.821 158.76 252.799Z" fill="#002075"/>
</svg>
