<svg width="300" height="286" viewBox="0 0 300 286" fill="none" xmlns="http://www.w3.org/2000/svg">
<path opacity="0.984" fill-rule="evenodd" clip-rule="evenodd" d="M146.034 112.524C156.995 111.49 166.356 114.816 174.115 122.498C180.867 130.498 183.253 139.679 181.271 150.037C178.664 160.957 172.122 168.438 161.647 172.48C149.681 176.335 138.694 174.527 128.687 167.059C119.482 158.522 116.193 148.077 118.821 135.726C121.791 124.732 128.693 117.468 139.529 113.933C141.697 113.317 143.866 112.849 146.034 112.524ZM147.118 124.016C155.254 123.19 161.651 126.081 166.309 132.69C170.474 140.578 170.112 148.239 165.225 155.675C160.088 161.603 153.619 163.88 145.817 162.505C136.066 159.868 131.007 153.472 130.639 143.315C131.233 132.638 136.725 126.206 147.118 124.016Z" fill="#002075"/>
<path opacity="0.959" fill-rule="evenodd" clip-rule="evenodd" d="M149.721 134.205C152.208 138.39 155.606 141.679 159.912 144.071C155.74 146.688 152.416 150.121 149.938 154.371C147.496 150.123 144.172 146.725 139.963 144.18C142.879 142.386 145.518 140.218 147.878 137.674C148.667 136.603 149.281 135.445 149.721 134.205Z" fill="#002075"/>
</svg>
