<svg width="300" height="287" viewBox="0 0 300 287" fill="none" xmlns="http://www.w3.org/2000/svg">
<path opacity="0.992" fill-rule="evenodd" clip-rule="evenodd" d="M192.744 178.621C187.44 179.953 182.314 181.741 177.369 183.984C175.314 184.708 173.348 185.602 171.469 186.666C169.654 187.424 167.927 188.318 166.284 189.348C164.562 190.21 162.894 191.163 161.278 192.208C160.318 192.866 159.365 193.523 158.417 194.175C157.724 194.61 157.068 195.087 156.451 195.605C155.736 196.142 155.02 196.678 154.305 197.214C153.538 197.744 152.823 198.339 152.16 199.002C151.622 199.512 151.055 199.987 150.461 200.432C150.043 200.222 149.714 199.923 149.478 199.539C148.525 198.466 147.511 197.452 146.439 196.499C145.783 195.725 145.067 195.01 144.293 194.354C143.585 193.699 142.87 193.045 142.148 192.387C141.125 191.304 139.992 190.351 138.751 189.527C137.961 188.677 137.067 187.962 136.069 187.381C135.111 186.543 134.099 185.769 133.03 185.057C131.832 184.099 130.581 183.205 129.275 182.375C128.179 181.617 127.048 180.902 125.878 180.23C124.877 179.61 123.864 178.984 122.839 178.353C122.524 178.21 122.226 178.24 121.945 178.442C120.744 180.534 119.551 182.62 118.37 184.7C114.953 182.602 111.495 180.546 108 178.532C116.483 175.362 124.648 171.518 132.494 167C138.815 171.205 144.805 175.853 150.461 180.945C156.118 175.853 162.107 171.205 168.429 167C176.269 171.516 184.434 175.36 192.923 178.532C192.882 178.603 192.823 178.633 192.744 178.621Z" fill="#002175"/>
<path opacity="0.989" fill-rule="evenodd" clip-rule="evenodd" d="M125.876 180.23C125.553 180.508 125.224 180.806 124.893 181.124C123.927 182.567 123.033 184.056 122.211 185.594C121.921 185.998 121.594 186.356 121.228 186.667C120.205 186.096 119.252 185.442 118.367 184.7C119.549 182.621 120.741 180.534 121.943 178.443C122.224 178.241 122.522 178.21 122.837 178.353C123.861 178.984 124.875 179.61 125.876 180.23Z" fill="#002D80"/>
<path opacity="0.966" fill-rule="evenodd" clip-rule="evenodd" d="M192.743 178.623C188.1 181.242 183.571 184.044 179.155 187.026C178.238 186.207 177.643 185.193 177.367 183.987C182.312 181.743 187.438 179.955 192.743 178.623Z" fill="#10D0FD"/>
<path opacity="0.99" fill-rule="evenodd" clip-rule="evenodd" d="M125.879 180.234C127.048 180.907 128.18 181.622 129.276 182.38C127.846 184.398 126.326 186.365 124.717 188.28C124.576 188.501 124.486 188.741 124.449 188.995C123.306 188.305 122.233 187.531 121.23 186.671C121.597 186.359 121.924 186.002 122.214 185.598C123.036 184.06 123.93 182.571 124.896 181.128C125.226 180.81 125.555 180.511 125.879 180.234Z" fill="#01378A"/>
<path opacity="0.987" fill-rule="evenodd" clip-rule="evenodd" d="M129.274 182.376C130.58 183.206 131.831 184.099 133.029 185.058C131.318 187.226 129.65 189.431 128.023 191.673C126.761 190.863 125.568 189.969 124.447 188.991C124.485 188.737 124.574 188.498 124.715 188.276C126.325 186.361 127.844 184.394 129.274 182.376Z" fill="#024497"/>
<path opacity="0.979" fill-rule="evenodd" clip-rule="evenodd" d="M177.369 183.981C177.644 185.188 178.239 186.202 179.157 187.021C177.614 188.151 176.064 189.282 174.508 190.418C173.536 189.129 172.524 187.877 171.469 186.663C173.348 185.599 175.314 184.706 177.369 183.981Z" fill="#0FCAFC"/>
<path opacity="0.992" fill-rule="evenodd" clip-rule="evenodd" d="M133.029 185.059C134.099 185.77 135.11 186.544 136.069 187.383C135.091 189.079 133.898 190.628 132.493 192.031C132.014 192.752 131.538 193.467 131.063 194.177C130.01 193.383 128.996 192.55 128.023 191.674C129.65 189.432 131.318 187.227 133.029 185.059Z" fill="#0352A4"/>
<path opacity="0.984" fill-rule="evenodd" clip-rule="evenodd" d="M171.466 186.67C172.521 187.884 173.533 189.135 174.505 190.424C172.773 191.917 170.985 193.347 169.142 194.715C168.85 194.513 168.582 194.275 168.337 194C167.529 192.496 166.843 190.946 166.281 189.352C167.924 188.322 169.651 187.428 171.466 186.67Z" fill="#0EC1FA"/>
<path opacity="0.99" fill-rule="evenodd" clip-rule="evenodd" d="M136.07 187.38C137.068 187.961 137.962 188.676 138.752 189.525C137.849 190.668 136.986 191.86 136.16 193.101C135.134 194.038 134.209 195.05 133.389 196.14C132.557 195.547 131.781 194.891 131.064 194.174C131.54 193.464 132.016 192.749 132.495 192.028C133.9 190.625 135.092 189.077 136.07 187.38Z" fill="#045EAF"/>
<path opacity="0.987" fill-rule="evenodd" clip-rule="evenodd" d="M166.283 189.348C166.845 190.942 167.531 192.492 168.339 193.996C168.584 194.271 168.852 194.509 169.144 194.711C167.721 195.961 166.29 197.212 164.853 198.466C163.925 196.73 162.883 195.062 161.724 193.46C161.572 193.04 161.424 192.621 161.277 192.208C162.894 191.162 164.562 190.209 166.283 189.348Z" fill="#0DB9F6"/>
<path opacity="0.988" fill-rule="evenodd" clip-rule="evenodd" d="M138.75 189.53C139.991 190.354 141.125 191.307 142.147 192.391C141.6 192.444 141.153 192.682 140.806 193.106C139.315 194.983 137.796 196.832 136.247 198.648C135.237 197.876 134.282 197.041 133.387 196.145C134.207 195.055 135.132 194.043 136.158 193.106C136.984 191.865 137.847 190.673 138.75 189.53Z" fill="#056BBB"/>
<path opacity="0.983" fill-rule="evenodd" clip-rule="evenodd" d="M142.148 192.387C142.87 193.045 143.585 193.699 144.293 194.353C143.995 194.622 143.666 194.861 143.31 195.068C141.883 197.178 140.364 199.204 138.751 201.147C137.857 200.373 137.022 199.538 136.248 198.644C137.796 196.828 139.316 194.979 140.807 193.102C141.154 192.678 141.601 192.44 142.148 192.387Z" fill="#0677C6"/>
<path opacity="0.99" fill-rule="evenodd" clip-rule="evenodd" d="M158.418 194.173C159.394 196.483 160.467 198.746 161.636 200.967C161.718 201.11 161.836 201.169 161.994 201.145C161.035 202.163 160.082 203.176 159.133 204.185C158.824 204.094 158.763 203.945 158.954 203.738C158.505 202.59 158.089 201.367 157.703 200.073C157.74 199.967 157.799 199.878 157.881 199.805C156.998 198.555 156.521 197.153 156.451 195.603C157.068 195.085 157.724 194.607 158.418 194.173Z" fill="#0BABF0"/>
<path opacity="0.973" fill-rule="evenodd" clip-rule="evenodd" d="M161.279 192.21C161.425 192.623 161.574 193.041 161.725 193.461C162.884 195.063 163.926 196.731 164.854 198.467C164.014 199.488 163.059 200.382 161.994 201.149C161.836 201.172 161.718 201.113 161.636 200.97C160.467 198.75 159.394 196.486 158.418 194.177C159.366 193.524 160.318 192.868 161.279 192.21Z" fill="#0CB1F3"/>
<path opacity="0.989" fill-rule="evenodd" clip-rule="evenodd" d="M156.45 195.605C156.52 197.156 156.997 198.557 157.88 199.807C157.798 199.88 157.739 199.97 157.702 200.075C158.088 201.369 158.504 202.592 158.953 203.74C158.762 203.947 158.823 204.096 159.132 204.187C157.837 205.532 156.586 206.903 155.377 208.299C155.209 207.13 155.031 205.996 154.841 204.902C155.05 204.65 154.989 204.443 154.662 204.276C154.721 204.217 154.782 204.157 154.841 204.098C154.496 203.47 154.496 202.875 154.841 202.31C154.8 201.654 154.8 200.998 154.841 200.343C154.643 199.244 154.464 198.201 154.305 197.215C155.02 196.678 155.735 196.142 156.45 195.605Z" fill="#0BA4EC"/>
<path opacity="0.981" fill-rule="evenodd" clip-rule="evenodd" d="M144.292 194.355C145.066 195.012 145.782 195.727 146.438 196.501C145.295 199.324 143.745 201.888 141.789 204.189C140.735 203.202 139.721 202.19 138.75 201.149C140.363 199.206 141.882 197.18 143.309 195.071C143.665 194.863 143.994 194.624 144.292 194.355Z" fill="#0884D3"/>
<path opacity="0.981" fill-rule="evenodd" clip-rule="evenodd" d="M154.305 197.213C154.464 198.2 154.643 199.242 154.841 200.342C154.8 200.996 154.8 201.652 154.841 202.308C154.496 202.873 154.496 203.469 154.841 204.096C154.782 204.155 154.722 204.216 154.663 204.275C154.99 204.441 155.051 204.648 154.841 204.901C155.031 205.995 155.21 207.128 155.378 208.297C153.71 210.353 152.07 212.44 150.461 214.555C149.791 213.747 149.165 212.914 148.584 212.052C149.757 209.792 150.712 207.289 151.445 204.543C151.443 202.694 151.681 200.846 152.16 199.001C152.823 198.337 153.538 197.742 154.305 197.213Z" fill="#0A9FE9"/>
<path opacity="0.987" fill-rule="evenodd" clip-rule="evenodd" d="M146.437 196.503C147.51 197.456 148.524 198.47 149.477 199.542C148.492 201.623 147.628 203.71 146.884 205.8C146.334 206.538 145.767 207.253 145.186 207.945C144.013 206.735 142.881 205.483 141.789 204.191C143.745 201.89 145.295 199.326 146.437 196.503Z" fill="#0990DD"/>
<path opacity="0.989" fill-rule="evenodd" clip-rule="evenodd" d="M152.158 199.001C151.679 200.846 151.441 202.695 151.443 204.543C150.71 207.289 149.755 209.792 148.582 212.052C147.41 210.722 146.278 209.351 145.186 207.94C145.767 207.248 146.333 206.533 146.884 205.795C147.628 203.705 148.491 201.618 149.476 199.537C149.712 199.922 150.041 200.22 150.46 200.431C151.053 199.986 151.62 199.511 152.158 199.001Z" fill="#0A99E4"/>
</svg>
