<svg width="300" height="286" viewBox="0 0 300 286" fill="none" xmlns="http://www.w3.org/2000/svg">
<path opacity="0.992" fill-rule="evenodd" clip-rule="evenodd" d="M149.523 4.02148C149.582 4.02148 149.643 4.02148 149.702 4.02148C151.395 9.61168 153.719 14.9156 156.674 19.9332C158.108 22.5642 159.717 25.0671 161.502 27.4421C162.444 28.9196 163.516 30.2903 164.72 31.5541C165.724 32.9753 166.856 34.2863 168.117 35.4873C169.373 36.9239 170.745 38.2349 172.229 39.4206C174.573 41.6749 177.106 43.7012 179.827 45.4992C179.788 45.1261 179.818 44.7685 179.916 44.4265C180.589 44.0759 181.214 43.6586 181.794 43.175C182.065 42.2532 182.394 41.3593 182.777 40.4933C182.739 40.3885 182.68 40.2991 182.598 40.2251C183.051 39.4967 183.587 38.8413 184.207 38.2585C184.769 38.151 185.305 37.9723 185.816 37.7221C185.596 37.4558 185.596 37.1876 185.816 36.9176C190.263 39.4088 194.791 41.7628 199.404 43.9796C187.992 49.323 177.623 56.1765 168.295 64.5396C161.398 71.3143 155.171 78.6145 149.612 86.4406C145.928 81.5158 142.114 76.6887 138.17 71.9591C127.439 60.0531 114.776 50.7862 100.178 44.1583C99.9406 44.0391 99.9406 43.92 100.178 43.8008C111.59 38.568 122.258 32.1915 132.181 24.671C139.422 18.9597 145.202 12.0766 149.523 4.02148ZM159.893 44.6053C156.884 46.6515 154.143 49.0352 151.668 51.7566C151.018 52.4682 150.361 53.1833 149.702 53.902C149.042 53.1833 148.386 52.4682 147.735 51.7566C146.9 50.8032 146.006 49.9093 145.053 49.0749C144.158 48.1792 143.203 47.3448 142.193 46.5719C141.276 45.9036 140.321 45.2779 139.332 44.6947C140.664 43.9248 141.916 43.0606 143.087 42.1023C145.574 40.3313 147.778 38.2454 149.702 35.8449C151.148 37.5602 152.698 39.1989 154.35 40.7615C156.131 42.1578 157.978 43.4389 159.893 44.6053Z" fill="#FECC28"/>
<path opacity="0.971" fill-rule="evenodd" clip-rule="evenodd" d="M149.703 4.02148C149.762 4.02148 149.823 4.02148 149.882 4.02148C152.53 9.05406 155.807 13.6429 159.715 17.7878C159.513 18.079 159.275 18.3472 159 18.5923C158.203 19.0028 157.428 19.4498 156.676 19.9332C153.72 14.9156 151.396 9.61168 149.703 4.02148Z" fill="#CF9B07"/>
<path opacity="0.981" fill-rule="evenodd" clip-rule="evenodd" d="M159.713 17.791C161.691 19.7685 163.716 21.6754 165.792 23.5121C164.814 24.5201 163.861 25.5629 162.931 26.6408C162.429 26.8773 161.952 27.1455 161.501 27.4453C159.717 25.0704 158.108 22.5674 156.674 19.9364C157.427 19.453 158.201 19.006 158.998 18.5955C159.273 18.3504 159.511 18.0823 159.713 17.791Z" fill="#DCA70F"/>
<path opacity="0.987" fill-rule="evenodd" clip-rule="evenodd" d="M165.791 23.5137C167.098 24.4644 168.349 25.4774 169.545 26.553C169.129 27.2683 168.71 27.9834 168.294 28.6984C167.008 29.5585 165.816 30.5121 164.718 31.5589C163.515 30.2951 162.442 28.9244 161.5 27.4469C161.951 27.1471 162.428 26.8789 162.93 26.6424C163.86 25.5645 164.813 24.5217 165.791 23.5137Z" fill="#E4AF15"/>
<path opacity="0.988" fill-rule="evenodd" clip-rule="evenodd" d="M169.546 26.5479C170.835 27.4001 172.086 28.294 173.3 29.2296C172.905 29.8952 172.399 30.4911 171.781 31.0174C171.137 32.9774 169.914 34.4672 168.116 35.487C166.855 34.286 165.724 32.9749 164.719 31.5538C165.816 30.507 167.009 29.5534 168.294 28.6933C168.711 27.9783 169.129 27.2632 169.546 26.5479Z" fill="#EBB619"/>
<path opacity="0.99" fill-rule="evenodd" clip-rule="evenodd" d="M173.302 29.2314C174.852 30.2446 176.4 31.2576 177.95 32.2708C177.38 32.7231 176.815 33.1997 176.252 33.701C175.801 34.8949 175.235 36.0272 174.553 37.0979C174.03 37.5109 173.434 37.7492 172.766 37.813C172.639 38.3662 172.46 38.9025 172.229 39.4221C170.745 38.2364 169.374 36.9254 168.117 35.4889C169.916 34.4691 171.139 32.9793 171.782 31.0193C172.401 30.4929 172.907 29.8971 173.302 29.2314Z" fill="#F1BC1D"/>
<path opacity="0.99" fill-rule="evenodd" clip-rule="evenodd" d="M177.95 32.2705C180.513 33.9101 183.134 35.4595 185.816 36.9189C185.596 37.1888 185.596 37.457 185.816 37.7234C185.305 37.9735 184.768 38.1523 184.207 38.2597C183.587 38.8426 183.05 39.498 182.598 40.2264C182.68 40.3004 182.739 40.3898 182.777 40.4945C182.394 41.3606 182.065 42.2545 181.794 43.1763C181.214 43.6599 180.589 44.0772 179.916 44.4278C179.818 44.7698 179.788 45.1274 179.827 45.5005C177.106 43.7024 174.572 41.6761 172.229 39.4218C172.459 38.9023 172.638 38.3659 172.765 37.8128C173.434 37.749 174.029 37.5106 174.553 37.0977C175.234 36.0269 175.801 34.8947 176.251 33.7008C176.814 33.1995 177.379 32.7228 177.95 32.2705Z" fill="#F7C322"/>
<path opacity="0.999" fill-rule="evenodd" clip-rule="evenodd" d="M137.723 44.4278C137.88 44.4044 137.998 44.4639 138.081 44.6066C137.507 45.7378 136.97 46.8702 136.472 48.0035C134.328 46.7239 132.065 45.6811 129.678 44.8748C132.376 45.0646 135.057 44.9157 137.723 44.4278Z" fill="#D59F0A"/>
<path opacity="0.976" fill-rule="evenodd" clip-rule="evenodd" d="M143.086 42.1045C141.915 43.0628 140.663 43.927 139.331 44.6969C140.32 45.28 141.275 45.9058 142.192 46.5741C141.225 47.7315 140.391 48.983 139.689 50.3285C138.552 49.6409 137.479 48.8663 136.471 48.0043C136.97 46.871 137.506 45.7386 138.08 44.6075C137.998 44.4648 137.88 44.4053 137.722 44.4287C139.594 43.8635 141.382 43.0889 143.086 42.1045Z" fill="#E2AA12"/>
<path opacity="0.98" fill-rule="evenodd" clip-rule="evenodd" d="M142.194 46.5723C143.205 47.3451 144.159 48.1795 145.055 49.0752C144.234 49.8694 143.489 50.7633 142.82 51.757C142.666 52.0407 142.547 52.3387 142.463 52.6509C142.343 52.5165 142.194 52.4567 142.016 52.4721C141.236 51.752 140.462 51.0368 139.691 50.3267C140.394 48.9812 141.227 47.7297 142.194 46.5723Z" fill="#EDB61A"/>
<path opacity="0.988" fill-rule="evenodd" clip-rule="evenodd" d="M159.893 44.6064C160.025 44.5829 160.145 44.6128 160.25 44.6957C156.421 48.3456 153.351 52.547 151.043 57.3C150.422 58.805 149.945 60.3545 149.613 61.9483C149.117 61.0358 148.551 60.1718 147.914 59.356C148.467 58.1782 149.3 57.2544 150.417 56.5848C150.666 55.7907 151.052 55.0756 151.579 54.4394C151.635 54.0719 151.724 53.7143 151.847 53.3667C151.701 52.8061 151.642 52.2697 151.669 51.7577C154.143 49.0362 156.884 46.6525 159.893 44.6064Z" fill="#FED32D"/>
<path opacity="0.987" fill-rule="evenodd" clip-rule="evenodd" d="M145.051 49.0801C146.004 49.9145 146.898 50.8084 147.733 51.7618C147.343 52.659 146.776 53.4336 146.034 54.086C145.979 54.7713 145.652 55.2481 145.051 55.5163C143.975 54.5591 142.961 53.5459 142.012 52.477C142.191 52.4616 142.339 52.5213 142.459 52.6557C142.543 52.3436 142.662 52.0456 142.816 51.7618C143.485 50.7682 144.23 49.8742 145.051 49.0801Z" fill="#F8C322"/>
</svg>
