<svg width="300" height="286" viewBox="0 0 300 286" fill="none" xmlns="http://www.w3.org/2000/svg">
<path opacity="0.993" fill-rule="evenodd" clip-rule="evenodd" d="M39.2045 200.877C42.5453 197.418 45.4059 193.604 47.7862 189.435C49.2644 187.254 50.5159 184.93 51.5407 182.462C52.4276 180.757 53.1428 178.969 53.6861 177.099C54.3365 175.744 54.8132 174.313 55.1164 172.808C55.757 170.961 56.2336 169.054 56.5467 167.087C56.9654 165.832 57.2037 164.52 57.2618 163.154C57.6489 161.47 57.8874 159.743 57.9769 157.969C58.0903 156.961 58.15 155.947 58.1557 154.93C58.3333 153.353 58.393 151.744 58.3345 150.103C58.3345 149.446 58.3345 148.792 58.3345 148.136C58.3297 146.94 58.27 145.749 58.1557 144.56C58.1255 143.724 58.066 142.889 57.9769 142.057C57.8411 140.986 57.7218 139.914 57.6194 138.839C57.4738 137.641 57.2951 136.451 57.083 135.264C56.8722 133.943 56.6041 132.632 56.2785 131.33C56.1782 131.237 56.0589 131.177 55.9209 131.152C54.4763 131.596 53.0164 131.805 51.5407 131.777C50.9857 132.131 50.3898 132.399 49.7528 132.582C49.6481 132.544 49.5587 132.485 49.4847 132.403C48.6226 132.774 47.7883 133.192 46.9817 133.655C46.9221 133.595 46.8624 133.535 46.8029 133.476C45.8317 133.771 44.8484 134.01 43.8529 134.191C42.5775 129.977 40.9684 125.895 39.0257 121.944C43.525 122.694 48.0542 123.29 52.6134 123.732C56.5987 124.082 60.5915 124.231 64.592 124.179C70.5757 141.823 72.3334 159.88 69.8661 178.35C69.6289 180.133 69.301 181.89 68.8828 183.624C84.4335 184.713 98.8543 181.197 112.149 173.076C121.835 167.146 130.118 159.637 137 150.55C128.466 130.689 113.508 118.889 92.1249 115.15C87.3245 114.403 82.4973 114.164 77.6433 114.435C68.7727 115.313 59.8932 115.432 51.0043 114.793C47.5445 114.546 44.1476 113.95 40.8136 113.005C34.5195 110.585 30.1988 106.204 27.8517 99.8645C25.6312 93.5577 24.7074 87.062 25.0805 80.3771C27.3103 87.0441 31.2436 92.4671 36.8803 96.6464C38.0506 97.6047 39.3021 98.4689 40.6348 99.2387C41.762 99.9514 42.954 100.518 44.2105 100.937C46.2408 102.051 48.3862 102.766 50.6468 103.083C51.2387 101.157 51.5963 99.2802 51.7195 97.4509C52.2126 95.6452 52.5701 93.8275 52.7922 91.998C54.1629 92.1173 55.5335 92.2363 56.9042 92.3556C56.9498 92.6123 57.0094 92.8805 57.083 93.1601C56.751 95.0843 56.3339 96.9913 55.8315 98.8812C56.0391 100.618 55.9198 102.406 55.474 104.245C57.1642 104.665 58.8925 104.934 60.6587 105.049C61.8464 105.176 63.0382 105.236 64.2344 105.228C65.7242 105.228 67.2142 105.228 68.704 105.228C69.8524 105.28 70.9846 105.22 72.101 105.049C73.3274 105.025 74.5199 104.905 75.6767 104.692C76.7315 104.724 77.7452 104.604 78.716 104.334C79.8245 104.307 80.8972 104.188 81.9341 103.976C82.98 103.92 83.9937 103.801 84.9735 103.619C85.8245 103.668 86.6594 103.608 87.4765 103.44C89.9795 103.44 92.4824 103.44 94.9854 103.44C95.6416 103.44 96.2959 103.44 96.9521 103.44C97.9658 103.487 98.9795 103.546 99.9914 103.619C100.882 103.718 101.776 103.778 102.673 103.798C103.916 103.995 105.167 104.173 106.428 104.334C107.255 104.492 108.09 104.611 108.931 104.692C110.958 105.145 112.984 105.622 115.009 106.122C116.311 106.516 117.621 106.873 118.943 107.195C121.337 108.013 123.72 108.907 126.094 109.876C129.704 111.443 133.16 113.29 136.464 115.419C141.353 118.519 145.764 122.213 149.694 126.503C161.635 109.317 177.904 98.4412 198.502 93.8752C205.069 92.4409 211.714 91.6959 218.436 91.6404C224.36 92.0708 230.288 92.3688 236.226 92.5344C243.763 92.6352 251.152 91.6519 258.395 89.5844C264.615 87.8322 269.948 84.6439 274.396 80.0195C276.395 86.9059 276.096 93.6997 273.502 100.401C271.171 105.962 268.073 111.028 264.205 115.597C260.344 121.595 257.394 128.031 255.356 134.906C247.55 135.085 239.742 135.144 231.935 135.085C233.515 128.287 235.721 121.701 238.55 115.329C232.997 115.231 227.454 114.933 221.923 114.435C208.43 113.667 195.915 116.766 184.378 123.732C176.544 128.944 170.315 135.649 165.695 143.845C161.143 154.388 155.243 164.042 147.995 172.808C117.58 204.467 81.3173 213.823 39.2045 200.877Z" fill="#002175"/>
<path opacity="0.988" fill-rule="evenodd" clip-rule="evenodd" d="M40.4535 89.3163C40.4494 89.7502 40.36 90.1673 40.1854 90.5677C39.0168 92.4294 38.0335 94.396 37.2354 96.4676C37.1537 96.6103 37.0345 96.6698 36.8778 96.6464C31.2411 92.4671 27.3078 87.0441 25.078 80.3771C25.0546 80.245 25.0845 80.1257 25.1674 80.0195C28.3659 83.5734 32.2098 86.2253 36.6991 87.9754C37.9209 88.5117 39.1724 88.9587 40.4535 89.3163Z" fill="#000F63"/>
<path opacity="0.994" fill-rule="evenodd" clip-rule="evenodd" d="M40.4546 89.3105C42.4861 90.0419 44.572 90.5783 46.7121 90.9196C46.6856 91.592 46.5068 92.2177 46.1757 92.7968C46.3449 93.3076 46.3449 93.844 46.1757 94.4059C46.0329 94.8721 45.8541 95.3488 45.6394 95.8361C45.6549 96.2897 45.6549 96.7367 45.6394 97.177C45.2975 98.5032 44.8209 99.7547 44.2091 100.931C42.9526 100.512 41.7606 99.9457 40.6334 99.233C39.3007 98.4632 38.0492 97.5989 36.8789 96.6407C37.0355 96.6641 37.1548 96.6045 37.2365 96.4619C38.0346 94.3903 39.0179 92.4237 40.1864 90.562C40.3611 90.1616 40.4505 89.7445 40.4546 89.3105Z" fill="#00166A"/>
<path opacity="0.993" fill-rule="evenodd" clip-rule="evenodd" d="M46.712 90.918C48.7124 91.3905 50.7386 91.7481 52.7907 91.9907C52.5686 93.8202 52.211 95.6378 51.718 97.4436C51.5948 99.2729 51.2372 101.15 50.6452 103.075C48.3847 102.759 46.2393 102.044 44.209 100.93C44.8208 99.7531 45.2974 98.5016 45.6393 97.1754C45.6548 96.735 45.6548 96.2881 45.6393 95.8345C45.854 95.3471 46.0328 94.8705 46.1756 94.4042C46.3447 93.8423 46.3447 93.306 46.1756 92.7952C46.5067 92.2161 46.6855 91.5904 46.712 90.918Z" fill="#001C70"/>
<path opacity="0.991" fill-rule="evenodd" clip-rule="evenodd" d="M78.3555 91.6357C79.2494 91.6357 80.1433 91.6357 81.0372 91.6357C81.2321 95.6299 81.3519 99.742 81.3948 103.972C81.5736 103.972 81.7524 103.972 81.9312 103.972C80.8942 104.183 79.8215 104.302 78.713 104.329C78.7005 101.814 78.7005 99.371 78.713 96.9992C78.7077 96.7259 78.5879 96.5172 78.3555 96.3735C78.5754 94.8335 78.5754 93.2543 78.3555 91.6357Z" fill="#034D9F"/>
<path opacity="0.99" fill-rule="evenodd" clip-rule="evenodd" d="M81.0371 91.6395C82.1438 91.5817 83.2165 91.6413 84.2552 91.8183C84.4018 93.7425 84.4018 95.739 84.2552 97.8075C84.4859 99.677 84.5753 101.554 84.5234 103.439C84.6432 103.574 84.7916 103.633 84.9704 103.618C83.9906 103.8 82.9769 103.919 81.931 103.976C81.7522 103.976 81.5735 103.976 81.3947 103.976C81.3518 99.7457 81.232 95.6337 81.0371 91.6395Z" fill="#0353A5"/>
<path opacity="0.996" fill-rule="evenodd" clip-rule="evenodd" d="M78.3559 91.6357C78.5758 93.2543 78.5758 94.8335 78.3559 96.3735C78.5883 96.5172 78.7081 96.7259 78.7135 96.9992C78.701 99.371 78.701 101.814 78.7135 104.329C77.7427 104.6 76.729 104.719 75.6741 104.687C75.5454 104.319 75.4274 103.932 75.3166 103.525C75.4435 102.07 75.5025 100.58 75.4953 99.0552C75.363 96.6776 75.1843 94.3236 74.959 91.9933C76.0907 91.8741 77.2242 91.755 78.3559 91.6357Z" fill="#02479A"/>
<path opacity="0.993" fill-rule="evenodd" clip-rule="evenodd" d="M84.2578 91.8151C85.4056 91.763 86.5391 91.8226 87.6547 91.9939C87.5868 95.7982 87.5278 99.6123 87.4759 103.436C86.6589 103.604 85.824 103.664 84.973 103.615C84.7942 103.63 84.6458 103.57 84.526 103.436C84.5778 101.551 84.4884 99.6738 84.2578 97.8043C84.4044 95.7358 84.4044 93.7393 84.2578 91.8151Z" fill="#0359AB"/>
<path opacity="0.993" fill-rule="evenodd" clip-rule="evenodd" d="M74.9594 91.9941C75.1847 94.3244 75.3635 96.6784 75.4958 99.0561C75.5029 100.581 75.4439 102.07 75.317 103.526C75.4278 103.933 75.5458 104.32 75.6746 104.688C74.5178 104.902 73.3253 105.021 72.0989 105.045C72.1972 100.71 72.0184 96.4194 71.5625 92.1729C72.696 92.1252 73.8277 92.0657 74.9594 91.9941Z" fill="#014194"/>
<path opacity="0.992" fill-rule="evenodd" clip-rule="evenodd" d="M87.6553 91.9945C88.9444 91.987 90.1959 92.1062 91.4098 92.352C91.2543 93.8787 91.0755 95.4282 90.8735 97.0004C91.0076 99.0144 91.0666 101.1 91.0523 103.258C92.125 103.258 93.1977 103.258 94.2704 103.258C94.5564 103.21 94.7942 103.27 94.9855 103.437C92.4825 103.437 89.9796 103.437 87.4766 103.437C87.5284 99.613 87.5874 95.7988 87.6553 91.9945Z" fill="#045FB1"/>
<path opacity="0.992" fill-rule="evenodd" clip-rule="evenodd" d="M71.561 92.1729C72.0169 96.4193 72.1957 100.71 72.0973 105.045C70.981 105.217 69.8488 105.276 68.7004 105.224C68.6473 102.899 68.6473 100.635 68.7004 98.4303C68.4011 96.3859 68.2223 94.3596 68.1641 92.3516C69.3069 92.3965 70.4391 92.337 71.561 92.1729Z" fill="#013B8E"/>
<path opacity="0.993" fill-rule="evenodd" clip-rule="evenodd" d="M91.4094 92.3506C92.6073 92.4194 93.798 92.5387 94.9851 92.7082C94.8135 94.0084 94.6347 95.2898 94.4487 96.552C94.6007 97.0277 94.5399 97.5641 94.27 98.161C94.2986 99.7833 94.2986 101.482 94.27 103.256C93.1973 103.256 92.1245 103.256 91.0518 103.256C91.0661 101.099 91.0071 99.0129 90.873 96.999C91.0751 95.4267 91.2539 93.8772 91.4094 92.3506Z" fill="#0466B8"/>
<path opacity="0.998" fill-rule="evenodd" clip-rule="evenodd" d="M56.9029 92.3506C58.1537 92.421 59.4052 92.4806 60.6574 92.5294C60.6453 93.9078 60.6453 95.2487 60.6574 96.552C60.5382 96.7903 60.4191 97.0288 60.2999 97.2671C60.3594 98.2803 60.4191 99.2933 60.4786 100.306C60.1768 101.804 59.9981 103.324 59.9423 104.865C60.2282 104.818 60.4665 104.877 60.6574 105.044C58.8912 104.929 57.1629 104.66 55.4727 104.24C55.9185 102.401 56.0378 100.613 55.8302 98.8762C56.3326 96.9863 56.7497 95.0794 57.0817 93.1551C57.0081 92.8755 56.9485 92.6073 56.9029 92.3506Z" fill="#00287C"/>
<path opacity="0.993" fill-rule="evenodd" clip-rule="evenodd" d="M60.6565 92.5293C61.8485 92.5293 63.0403 92.5293 64.2322 92.5293C64.4003 96.6765 64.4003 100.908 64.2322 105.223C63.036 105.231 61.8442 105.171 60.6565 105.044C60.4656 104.877 60.2273 104.817 59.9414 104.865C59.9972 103.324 60.176 101.804 60.4778 100.306C60.4182 99.2932 60.3585 98.2802 60.299 97.2671C60.4182 97.0287 60.5373 96.7902 60.6565 96.5519C60.6444 95.2486 60.6444 93.9077 60.6565 92.5293Z" fill="#002E82"/>
<path opacity="0.995" fill-rule="evenodd" clip-rule="evenodd" d="M68.1657 92.3506C68.224 94.3585 68.4028 96.3848 68.702 98.4292C68.6489 100.634 68.6489 102.898 68.702 105.223C67.2122 105.223 65.7222 105.223 64.2324 105.223C64.4005 100.908 64.4005 96.6766 64.2324 92.5294C65.559 92.5825 66.8702 92.5229 68.1657 92.3506Z" fill="#003488"/>
<path opacity="0.992" fill-rule="evenodd" clip-rule="evenodd" d="M94.9847 92.7119C95.9376 92.8907 96.8923 93.0695 97.8452 93.2483C97.8202 93.9162 97.8202 94.5419 97.8452 95.1255C97.6664 96.1387 97.4877 97.1516 97.3089 98.1648C97.3679 98.3436 97.4287 98.5224 97.4877 98.7012C97.3679 98.9395 97.2499 99.178 97.1301 99.4163C97.1891 99.5951 97.2499 99.7739 97.3089 99.9526C97.2248 101.022 97.0461 102.095 96.7725 103.171C96.8726 103.239 96.9316 103.329 96.9513 103.439C96.2952 103.439 95.6408 103.439 94.9847 103.439C94.7934 103.272 94.5556 103.212 94.2695 103.26C94.2981 101.486 94.2981 99.7871 94.2695 98.1648C94.5395 97.5678 94.6003 97.0315 94.4483 96.5558C94.6343 95.2935 94.813 94.0122 94.9847 92.7119Z" fill="#056DBE"/>
<path opacity="0.995" fill-rule="evenodd" clip-rule="evenodd" d="M97.8461 93.2471C98.9922 93.4407 100.126 93.679 101.243 93.9622C100.816 96.1407 100.399 98.3158 99.9916 100.488C99.9093 101.508 99.9093 102.551 99.9916 103.617C98.9796 103.544 97.9659 103.484 96.9522 103.438C96.9326 103.327 96.8736 103.238 96.7734 103.17C97.047 102.094 97.2258 101.021 97.3098 99.9514C97.2508 99.7727 97.19 99.5939 97.131 99.4151C97.2508 99.1768 97.3688 98.9383 97.4886 98.7C97.4296 98.5212 97.3688 98.3424 97.3098 98.1636C97.4886 97.1504 97.6674 96.1375 97.8461 95.1243C97.8211 94.5407 97.8211 93.915 97.8461 93.2471Z" fill="#0673C4"/>
<path opacity="0.991" fill-rule="evenodd" clip-rule="evenodd" d="M101.243 93.957C102.178 94.116 103.072 94.3543 103.925 94.6722C103.792 95.9433 103.496 97.2247 103.031 98.516C103.113 98.59 103.172 98.6794 103.209 98.7842C103.045 100.503 102.866 102.171 102.673 103.79C101.776 103.77 100.882 103.71 99.9914 103.611C99.9091 102.546 99.9091 101.503 99.9914 100.483C100.399 98.3106 100.816 96.1355 101.243 93.957Z" fill="#0679CA"/>
<path opacity="0.99" fill-rule="evenodd" clip-rule="evenodd" d="M103.923 94.6748C105.184 94.9358 106.435 95.2339 107.678 95.5687C107.31 96.7149 106.952 97.877 106.605 99.055C106.407 100.65 106.169 102.349 105.89 104.15C106.121 104.108 106.299 104.167 106.426 104.329C105.166 104.168 103.914 103.99 102.672 103.793C102.865 102.174 103.044 100.505 103.208 98.7868C103.171 98.6821 103.112 98.5927 103.029 98.5186C103.494 97.2273 103.791 95.946 103.923 94.6748Z" fill="#077FCF"/>
<path opacity="0.99" fill-rule="evenodd" clip-rule="evenodd" d="M107.677 95.5684C108.656 95.8945 109.609 96.252 110.537 96.6411C110.335 97.0869 110.156 97.5339 110.001 97.9819C109.826 99.3518 109.557 100.752 109.196 102.183C109.048 103.012 108.958 103.847 108.928 104.686C108.088 104.606 107.253 104.487 106.425 104.329C106.298 104.167 106.119 104.108 105.889 104.15C106.168 102.349 106.405 100.65 106.604 99.0546C106.951 97.8766 107.308 96.7145 107.677 95.5684Z" fill="#0786D5"/>
<path opacity="0.989" fill-rule="evenodd" clip-rule="evenodd" d="M110.537 96.6406C112.764 97.3028 114.91 98.1372 116.973 99.1436C116.269 101.067 115.613 103.004 115.006 104.954C115.094 105.316 115.094 105.704 115.006 106.116C112.981 105.616 110.955 105.139 108.928 104.686C108.958 103.846 109.048 103.012 109.196 102.183C109.557 100.752 109.825 99.3513 110 97.9815C110.156 97.5335 110.335 97.0865 110.537 96.6406Z" fill="#0990DD"/>
<path opacity="0.985" fill-rule="evenodd" clip-rule="evenodd" d="M116.974 99.1484C118.423 99.6642 119.794 100.32 121.087 101.115C120.32 103.181 119.604 105.207 118.941 107.194C117.62 106.872 116.309 106.515 115.008 106.121C115.095 105.709 115.095 105.321 115.008 104.959C115.614 103.009 116.27 101.072 116.974 99.1484Z" fill="#0A98E4"/>
<path opacity="0.982" fill-rule="evenodd" clip-rule="evenodd" d="M121.085 101.113C123.677 102.319 126.119 103.749 128.415 105.404C127.825 106.361 127.258 107.255 126.717 108.086C126.454 108.668 126.246 109.264 126.091 109.874C123.717 108.904 121.333 108.01 118.939 107.192C119.603 105.206 120.318 103.179 121.085 101.113Z" fill="#0BA2EC"/>
<path opacity="0.998" fill-rule="evenodd" clip-rule="evenodd" d="M128.416 105.405C131.892 107.568 135.11 110.071 138.07 112.914C137.722 113.132 137.454 113.429 137.266 113.808C137.014 114.358 136.746 114.894 136.461 115.417C133.157 113.289 129.701 111.441 126.092 109.875C126.247 109.266 126.455 108.669 126.718 108.087C127.259 107.256 127.826 106.362 128.416 105.405Z" fill="#0CADF4"/>
<path opacity="0.957" fill-rule="evenodd" clip-rule="evenodd" d="M138.074 112.909C142.606 116.902 146.479 121.431 149.695 126.497C145.765 122.207 141.355 118.512 136.465 115.412C136.749 114.889 137.017 114.353 137.269 113.803C137.457 113.424 137.725 113.127 138.074 112.909Z" fill="#0DB8FA"/>
<path opacity="0.994" fill-rule="evenodd" clip-rule="evenodd" d="M57.0797 135.263C56.4073 135.059 55.7815 135.178 55.2025 135.621C54.3434 135.493 53.4791 135.523 52.6101 135.71C50.0887 136.442 47.526 137.007 44.9223 137.409C44.6007 136.325 44.2431 135.252 43.8496 134.191C44.8451 134.009 45.8284 133.771 46.7996 133.476C46.8591 133.535 46.9188 133.595 46.9783 133.654C47.785 133.191 48.6192 132.774 49.4813 132.403C49.5554 132.485 49.6447 132.544 49.7495 132.582C50.3865 132.399 50.9824 132.131 51.5374 131.777C53.0131 131.805 54.473 131.596 55.9176 131.151C56.0556 131.177 56.1749 131.237 56.2752 131.33C56.6007 132.632 56.8689 133.943 57.0797 135.263Z" fill="#00287B"/>
<path opacity="0.993" fill-rule="evenodd" clip-rule="evenodd" d="M57.0812 135.262C57.2932 136.449 57.472 137.64 57.6176 138.838C56.0838 139.008 54.5938 139.186 53.1479 139.374C52.7441 139.369 52.3568 139.308 51.9858 139.195C50.021 139.816 47.965 140.291 45.8178 140.626C45.4537 139.59 45.1559 138.518 44.9238 137.407C47.5275 137.005 50.0902 136.44 52.6116 135.709C53.4807 135.521 54.3449 135.491 55.204 135.62C55.783 135.176 56.4088 135.057 57.0812 135.262Z" fill="#002E81"/>
<path opacity="0.994" fill-rule="evenodd" clip-rule="evenodd" d="M57.6182 138.831C57.7206 139.906 57.8399 140.978 57.9757 142.049C57.8088 141.858 57.749 141.62 57.797 141.334C54.8273 141.713 51.9072 142.042 49.0365 142.317C48.1376 142.598 47.2436 142.807 46.3547 142.943C46.0654 142.215 45.8867 141.44 45.8184 140.619C47.9656 140.285 50.0216 139.809 51.9864 139.189C52.3574 139.301 52.7447 139.362 53.1485 139.367C54.5944 139.18 56.0844 139.001 57.6182 138.831Z" fill="#013386"/>
<path opacity="0.992" fill-rule="evenodd" clip-rule="evenodd" d="M57.9765 142.05C58.0655 142.881 58.1251 143.716 58.1553 144.553C56.9771 144.608 55.815 144.549 54.669 144.374C53.408 144.641 52.1266 144.819 50.8251 144.911C50.2453 144.812 49.6791 144.932 49.1266 145.268C49.0526 145.186 48.9632 145.127 48.8585 145.089C48.2123 145.325 47.5569 145.504 46.8918 145.626C46.6025 144.775 46.4238 143.881 46.3555 142.944C47.2444 142.808 48.1383 142.599 49.0372 142.318C51.908 142.043 54.8281 141.714 57.7977 141.335C57.7498 141.621 57.8095 141.859 57.9765 142.05Z" fill="#01398C"/>
<path opacity="0.996" fill-rule="evenodd" clip-rule="evenodd" d="M187.95 143.308C209.703 143.249 231.456 143.308 253.207 143.487C250.289 156.556 250.379 169.607 253.475 182.641C254.194 185.601 255.177 188.462 256.425 191.222C253.094 192.488 249.697 193.561 246.234 194.44C244.468 194.948 242.68 195.366 240.871 195.692C240.17 195.896 239.455 196.046 238.725 196.139C238.525 196.289 238.405 196.498 238.368 196.764C238.518 197.17 238.518 197.556 238.368 197.927C238.75 198.563 238.87 199.158 238.725 199.714C239.215 201.665 239.512 203.601 239.619 205.525C237.84 205.791 236.052 205.97 234.256 206.061C233.968 203.776 233.669 201.601 233.362 199.536C233.421 199.357 233.482 199.178 233.541 198.999C233.399 198.449 233.31 197.884 233.272 197.301C232.237 197.083 231.195 197.083 230.144 197.301C228.147 197.376 226.18 197.496 224.244 197.658C222.813 197.658 221.383 197.658 219.953 197.658C218.279 197.685 216.611 197.626 214.947 197.48C213.452 197.41 211.963 197.29 210.477 197.122C208.927 196.943 207.379 196.764 205.829 196.586C204.427 196.312 202.997 196.074 201.538 195.871C200.58 195.654 199.625 195.416 198.677 195.155C197.292 194.927 195.921 194.628 194.565 194.261C192.887 193.822 191.217 193.344 189.559 192.831C187.578 192.211 185.612 191.555 183.66 190.865C181.235 190.01 178.85 189.055 176.508 188.004C173.925 186.862 171.361 185.669 168.82 184.428C163.809 181.865 159.041 178.945 154.518 175.668C156.481 173.063 158.476 170.381 160.507 167.623C162.935 164.018 165.23 160.323 167.39 156.538C175.788 165.774 185.682 172.954 197.068 178.082C207.756 182.664 218.9 184.541 230.501 183.713C229.454 177.796 228.797 171.837 228.535 165.835C228.653 165.604 228.712 165.336 228.713 165.03C228.493 162.679 228.315 160.325 228.177 157.968C225.862 158.224 223.538 158.342 221.204 158.326C220.073 158.326 218.939 158.326 217.807 158.326C216.826 158.16 215.812 158.04 214.768 157.968C213.885 157.783 212.991 157.663 212.086 157.611C211.75 157.461 211.393 157.402 211.014 157.432C210.093 157.142 209.14 156.905 208.153 156.717C207.332 156.443 206.498 156.206 205.65 156.002C204.856 155.637 204.021 155.34 203.147 155.108C202.366 154.659 201.533 154.302 200.644 154.035C199.881 153.594 199.107 153.147 198.32 152.694C198.062 152.555 197.823 152.585 197.605 152.784C197.038 153.799 196.471 154.811 195.906 155.823C195.002 156.688 194.256 157.582 193.671 158.505C192.904 157.809 192.22 157.035 191.615 156.181C191.238 155.603 190.909 155.008 190.632 154.393C191.206 154.016 191.742 153.599 192.241 153.141C192.534 152.575 192.922 152.217 193.403 152.069C193.815 151.514 194.201 150.949 194.565 150.37C192.822 148.986 191.185 147.467 189.649 145.811C189.036 144.998 188.469 144.163 187.95 143.308Z" fill="#002175"/>
<path opacity="0.993" fill-rule="evenodd" clip-rule="evenodd" d="M58.1521 144.557C58.2664 145.746 58.3261 146.936 58.3309 148.132C58.2016 147.827 57.9631 147.648 57.6158 147.596C56.5833 147.929 55.5404 147.988 54.487 147.775C52.672 147.904 50.8543 148.082 49.0341 148.311C48.4638 148.104 47.8679 147.986 47.2462 147.954C47.0351 147.196 46.9158 146.42 46.8887 145.629C47.5538 145.508 48.2092 145.329 48.8553 145.093C48.9601 145.131 49.0495 145.19 49.1235 145.272C49.6759 144.936 50.2421 144.816 50.8219 144.914C52.1235 144.823 53.4048 144.644 54.6658 144.378C55.8118 144.553 56.9739 144.612 58.1521 144.557Z" fill="#024093"/>
<path opacity="0.992" fill-rule="evenodd" clip-rule="evenodd" d="M58.3347 148.133C58.3347 148.789 58.3347 149.444 58.3347 150.1C56.6013 150.198 54.8732 150.318 53.1499 150.457C52.8628 150.354 52.5649 150.295 52.256 150.278C51.0975 150.566 49.9353 150.627 48.7697 150.457C48.4037 150.656 48.0165 150.775 47.6076 150.815C47.4717 149.864 47.3524 148.911 47.25 147.954C47.8716 147.986 48.4675 148.104 49.0378 148.312C50.8581 148.083 52.6758 147.904 54.4908 147.775C55.5442 147.988 56.587 147.929 57.6195 147.597C57.9669 147.649 58.2054 147.827 58.3347 148.133Z" fill="#024799"/>
<path opacity="0.98" fill-rule="evenodd" clip-rule="evenodd" d="M187.952 143.305C188.471 144.159 189.037 144.994 189.651 145.808C191.186 147.463 192.824 148.983 194.567 150.367C194.202 150.946 193.816 151.511 193.405 152.065C192.924 152.213 192.536 152.571 192.243 153.138C191.744 153.595 191.208 154.012 190.634 154.389C188.555 150.962 187.661 147.267 187.952 143.305Z" fill="#001267"/>
<path opacity="0.993" fill-rule="evenodd" clip-rule="evenodd" d="M58.3306 150.102C58.3891 151.743 58.3294 153.352 58.1518 154.929C58.2096 154.262 58.1499 153.608 57.973 152.962C57.8313 152.885 57.6822 152.826 57.5261 152.783C54.3621 153.026 51.1737 153.264 47.9611 153.498C47.8418 152.605 47.7228 151.711 47.6035 150.817C48.0124 150.777 48.3996 150.658 48.7656 150.459C49.9313 150.629 51.0934 150.568 52.2519 150.28C52.5609 150.296 52.8587 150.355 53.1458 150.459C54.8692 150.32 56.5973 150.2 58.3306 150.102Z" fill="#034D9F"/>
<path opacity="0.988" fill-rule="evenodd" clip-rule="evenodd" d="M200.644 154.031C199.981 155.031 199.416 156.103 198.946 157.249C198.079 158.51 197.215 159.761 196.354 161.004C195.676 160.536 195.02 160.03 194.387 159.484C194.124 159.168 193.886 158.839 193.672 158.501C194.257 157.578 195.002 156.685 195.907 155.819C196.472 154.807 197.038 153.795 197.605 152.78C197.823 152.581 198.063 152.551 198.32 152.69C199.107 153.143 199.881 153.59 200.644 154.031Z" fill="#002C7F"/>
<path opacity="0.987" fill-rule="evenodd" clip-rule="evenodd" d="M200.646 154.033C201.535 154.3 202.368 154.657 203.149 155.106C201.973 157.854 200.839 160.596 199.752 163.33C198.521 162.686 197.389 161.91 196.355 161.006C197.217 159.763 198.081 158.512 198.948 157.251C199.418 156.105 199.983 155.033 200.646 154.033Z" fill="#01398B"/>
<path opacity="0.993" fill-rule="evenodd" clip-rule="evenodd" d="M58.1536 154.925C58.1479 155.942 58.0882 156.956 57.9748 157.964C57.3232 157.875 56.6974 157.696 56.0976 157.428C53.4859 157.526 50.8935 157.526 48.3205 157.428C48.156 156.124 48.0367 154.814 47.9629 153.494C51.1755 153.26 54.3639 153.022 57.5279 152.779C57.684 152.822 57.8331 152.881 57.9748 152.958C58.1517 153.603 58.2114 154.258 58.1536 154.925Z" fill="#0458A9"/>
<path opacity="0.99" fill-rule="evenodd" clip-rule="evenodd" d="M203.149 155.105C204.023 155.338 204.858 155.635 205.652 155.999C204.588 158.821 203.635 161.681 202.791 164.581C201.735 164.268 200.721 163.852 199.752 163.33C200.839 160.596 201.972 157.853 203.149 155.105Z" fill="#024597"/>
<path opacity="0.988" fill-rule="evenodd" clip-rule="evenodd" d="M205.652 155.997C206.499 156.201 207.334 156.439 208.155 156.712C207.482 159.578 206.767 162.499 206.009 165.473C204.902 165.285 203.83 164.988 202.791 164.579C203.635 161.679 204.588 158.818 205.652 155.997Z" fill="#0252A3"/>
<path opacity="0.992" fill-rule="evenodd" clip-rule="evenodd" d="M208.153 156.717C209.14 156.905 210.093 157.142 211.014 157.432C210.79 157.446 210.642 157.564 210.567 157.789C210.077 159.052 209.87 160.332 209.941 161.633C209.666 162.989 209.367 164.39 209.047 165.835C208.025 165.783 207.013 165.663 206.008 165.477C206.766 162.504 207.481 159.583 208.153 156.717Z" fill="#035CAD"/>
<path opacity="0.994" fill-rule="evenodd" clip-rule="evenodd" d="M211.015 157.428C211.394 157.397 211.752 157.456 212.088 157.606C211.641 159.144 211.462 160.753 211.552 162.434C211.116 163.519 210.876 164.651 210.837 165.83C210.241 165.83 209.644 165.83 209.049 165.83C209.369 164.386 209.667 162.984 209.943 161.629C209.871 160.328 210.079 159.047 210.569 157.785C210.644 157.56 210.792 157.442 211.015 157.428Z" fill="#0467B6"/>
<path opacity="0.994" fill-rule="evenodd" clip-rule="evenodd" d="M212.087 157.603C212.992 157.654 213.886 157.774 214.769 157.96C214.478 160.415 214.12 162.859 213.696 165.29C213.809 165.455 213.868 165.633 213.875 165.827C212.862 165.827 211.85 165.827 210.836 165.827C210.875 164.647 211.115 163.515 211.551 162.43C211.462 160.749 211.64 159.14 212.087 157.603Z" fill="#0571C0"/>
<path opacity="0.993" fill-rule="evenodd" clip-rule="evenodd" d="M214.768 157.962C215.812 158.033 216.826 158.153 217.807 158.319C217.464 160.86 217.285 163.363 217.271 165.828C216.139 165.828 215.006 165.828 213.874 165.828C213.867 165.635 213.808 165.457 213.695 165.292C214.119 162.861 214.477 160.417 214.768 157.962Z" fill="#077DCB"/>
<path opacity="0.994" fill-rule="evenodd" clip-rule="evenodd" d="M217.81 158.323C218.942 158.323 220.075 158.323 221.207 158.323C221.162 158.976 221.162 159.602 221.207 160.2C221.087 160.499 220.969 160.796 220.849 161.094C221.026 162.453 221.057 163.853 220.939 165.296C220.847 165.48 220.758 165.659 220.67 165.832C219.539 165.832 218.405 165.832 217.273 165.832C217.288 163.367 217.467 160.864 217.81 158.323Z" fill="#088AD8"/>
<path opacity="0.994" fill-rule="evenodd" clip-rule="evenodd" d="M228.536 165.828C225.914 165.828 223.293 165.828 220.67 165.828C220.758 165.655 220.847 165.476 220.938 165.292C221.056 163.849 221.026 162.449 220.849 161.091C220.968 160.792 221.086 160.495 221.206 160.197C221.162 159.598 221.162 158.972 221.206 158.319C223.539 158.336 225.864 158.218 228.179 157.962C228.317 160.318 228.495 162.673 228.715 165.024C228.713 165.33 228.654 165.598 228.536 165.828Z" fill="#0A97E4"/>
<path opacity="0.988" fill-rule="evenodd" clip-rule="evenodd" d="M48.3203 157.426C50.8934 157.524 53.4858 157.524 56.0975 157.426C56.6973 157.694 57.323 157.873 57.9747 157.962C57.8851 159.736 57.6466 161.463 57.2596 163.147C56.7026 162.823 56.0769 162.585 55.3823 162.432C54.7138 162.614 54.0584 162.555 53.4157 162.253C53.0359 162.353 52.6485 162.414 52.2536 162.432C50.9002 162.219 49.5891 162.099 48.3203 162.074C48.3203 160.524 48.3203 158.976 48.3203 157.426Z" fill="#0565B5"/>
<path opacity="0.985" fill-rule="evenodd" clip-rule="evenodd" d="M48.3203 162.076C49.5891 162.101 50.9002 162.221 52.2536 162.434C52.6485 162.416 53.0359 162.355 53.4157 162.255C54.0584 162.557 54.7138 162.616 55.3823 162.434C56.0769 162.587 56.7026 162.825 57.2596 163.149C57.2015 164.515 56.9631 165.827 56.5444 167.082C55.3519 167.012 54.1601 166.923 52.9687 166.814C51.4396 166.39 49.89 166.063 48.3203 165.831C48.3203 164.579 48.3203 163.328 48.3203 162.076Z" fill="#0671C0"/>
<path opacity="0.992" fill-rule="evenodd" clip-rule="evenodd" d="M48.3224 165.831C49.8921 166.063 51.4417 166.391 52.9708 166.814C54.1622 166.923 55.354 167.013 56.5465 167.083C56.2335 169.049 55.7568 170.957 55.1162 172.804C55.1466 172.568 55.0871 172.358 54.9375 172.178C54.2481 171.983 53.5626 171.774 52.8814 171.552C52.6769 171.625 52.4683 171.684 52.2557 171.731C51.8756 171.5 51.4585 171.352 51.0042 171.284C49.9733 171.229 48.9601 171.08 47.9648 170.837C48.166 169.176 48.285 167.508 48.3224 165.831Z" fill="#077DCC"/>
<path opacity="0.987" fill-rule="evenodd" clip-rule="evenodd" d="M47.9621 170.838C48.9574 171.081 49.9706 171.229 51.0015 171.285C51.4558 171.353 51.8729 171.501 52.253 171.732C52.4656 171.685 52.6742 171.626 52.8787 171.553C53.5599 171.775 54.2454 171.984 54.9347 172.179C55.0844 172.359 55.1439 172.569 55.1135 172.805C54.8103 174.31 54.3337 175.74 53.6833 177.095C53.0573 176.838 52.4316 176.541 51.806 176.201C51.732 176.284 51.6426 176.343 51.5378 176.38C50.1605 176.082 48.7897 175.842 47.4258 175.665C47.6698 174.063 47.8486 172.454 47.9621 170.838Z" fill="#088AD8"/>
<path opacity="0.988" fill-rule="evenodd" clip-rule="evenodd" d="M47.4271 175.667C48.7911 175.844 50.1618 176.084 51.5392 176.382C51.6439 176.345 51.7333 176.286 51.8074 176.203C52.4329 176.543 53.0587 176.84 53.6846 177.097C53.1413 178.967 52.4261 180.755 51.5392 182.461C51.5445 182.282 51.4552 182.164 51.271 182.103C49.6598 181.672 48.0804 181.197 46.5332 180.673C46.8312 179.005 47.1291 177.335 47.4271 175.667Z" fill="#0996E2"/>
<path opacity="0.961" fill-rule="evenodd" clip-rule="evenodd" d="M154.518 175.667C159.041 178.944 163.809 181.864 168.82 184.427C168.214 185.153 167.678 185.927 167.211 186.752C162.658 183.451 158.428 179.756 154.518 175.667Z" fill="#0EBDFA"/>
<path opacity="0.981" fill-rule="evenodd" clip-rule="evenodd" d="M46.5341 180.671C48.0813 181.195 49.6607 181.67 51.2719 182.101C51.456 182.162 51.5454 182.28 51.5401 182.459C50.5153 184.926 49.2638 187.25 47.7856 189.431C46.5886 189.101 45.4564 188.623 44.3887 188.001C45.2483 185.602 45.9634 183.158 46.5341 180.671Z" fill="#0BA2EE"/>
<path opacity="0.973" fill-rule="evenodd" clip-rule="evenodd" d="M168.824 184.424C171.364 185.665 173.928 186.857 176.512 187.999C176.319 189.421 175.961 190.851 175.439 192.29C172.568 190.617 169.827 188.77 167.215 186.748C167.681 185.924 168.218 185.15 168.824 184.424Z" fill="#0DB3F6"/>
<path opacity="0.982" fill-rule="evenodd" clip-rule="evenodd" d="M176.51 187.998C178.852 189.049 181.237 190.004 183.662 190.859C183.082 192.6 182.487 194.268 181.874 195.865C179.612 194.853 177.467 193.662 175.438 192.289C175.96 190.85 176.317 189.419 176.51 187.998Z" fill="#0BA7EF"/>
<path opacity="0.987" fill-rule="evenodd" clip-rule="evenodd" d="M183.663 190.859C185.615 191.549 187.582 192.206 189.563 192.826C189.391 193.731 189.093 194.594 188.669 195.418C188.728 195.477 188.789 195.538 188.848 195.597C188.283 196.554 187.805 197.537 187.417 198.547C186.089 198.032 184.778 197.465 183.484 196.849C182.876 196.605 182.34 196.278 181.875 195.865C182.488 194.269 183.084 192.601 183.663 190.859Z" fill="#0A9AE6"/>
<path opacity="0.992" fill-rule="evenodd" clip-rule="evenodd" d="M256.426 191.218C257.656 194.332 258.936 197.432 260.27 200.515C260.404 200.718 260.374 200.897 260.181 201.051C255.884 202.065 251.594 203.078 247.308 204.09C246.918 201.194 246.5 198.244 246.057 195.24C246.076 194.956 246.135 194.688 246.235 194.436C249.698 193.556 253.095 192.484 256.426 191.218Z" fill="#000E62"/>
<path opacity="0.987" fill-rule="evenodd" clip-rule="evenodd" d="M189.559 192.825C191.217 193.338 192.887 193.816 194.565 194.255C193.85 196.403 193.135 198.548 192.42 200.692C190.698 200.068 189.03 199.353 187.414 198.546C187.802 197.536 188.279 196.553 188.844 195.596C188.785 195.537 188.725 195.477 188.666 195.418C189.089 194.593 189.388 193.73 189.559 192.825Z" fill="#088DDB"/>
<path opacity="0.916" fill-rule="evenodd" clip-rule="evenodd" d="M44.3859 187.998C45.4536 188.62 46.5859 189.098 47.7829 189.428C45.4025 193.598 42.5419 197.411 39.2012 200.87C40.9295 196.58 42.6576 192.289 44.3859 187.998Z" fill="#0CAEF8"/>
<path opacity="0.991" fill-rule="evenodd" clip-rule="evenodd" d="M246.237 194.437C246.136 194.689 246.077 194.957 246.058 195.241C246.501 198.245 246.92 201.195 247.309 204.091C245.648 204.434 243.98 204.733 242.303 204.985C242.055 202.274 241.577 199.564 240.873 196.85C240.932 196.791 240.993 196.73 241.052 196.671C240.73 196.367 240.671 196.04 240.873 195.688C242.682 195.363 244.47 194.944 246.237 194.437Z" fill="#001569"/>
<path opacity="0.989" fill-rule="evenodd" clip-rule="evenodd" d="M194.567 194.258C195.922 194.624 197.294 194.923 198.679 195.152C198.141 197.542 197.605 199.925 197.07 202.303C195.522 201.767 193.972 201.23 192.422 200.694C193.137 198.55 193.852 196.405 194.567 194.258Z" fill="#0782D2"/>
<path opacity="0.991" fill-rule="evenodd" clip-rule="evenodd" d="M240.872 195.686C240.67 196.038 240.729 196.365 241.051 196.669C240.992 196.728 240.931 196.789 240.872 196.848C241.577 199.562 242.054 202.272 242.302 204.982C241.423 205.211 240.529 205.39 239.621 205.519C239.513 203.595 239.217 201.659 238.727 199.708C238.872 199.152 238.752 198.557 238.369 197.92C238.519 197.55 238.519 197.164 238.369 196.758C238.407 196.492 238.526 196.283 238.727 196.133C239.456 196.04 240.171 195.889 240.872 195.686Z" fill="#001A6E"/>
<path opacity="0.988" fill-rule="evenodd" clip-rule="evenodd" d="M201.539 195.864C202.998 196.068 204.428 196.306 205.83 196.579C205.284 199.175 204.868 201.739 204.578 204.267C203.019 203.947 201.471 203.589 199.93 203.194C200.525 200.818 201.061 198.376 201.539 195.864Z" fill="#056FC1"/>
<path opacity="0.99" fill-rule="evenodd" clip-rule="evenodd" d="M205.83 196.582C207.38 196.761 208.928 196.94 210.478 197.118C210.153 199.763 209.795 202.503 209.405 205.342C207.793 205.005 206.184 204.647 204.578 204.27C204.868 201.742 205.284 199.178 205.83 196.582Z" fill="#0462B5"/>
<path opacity="0.99" fill-rule="evenodd" clip-rule="evenodd" d="M234.257 206.06C233.157 206.246 232.025 206.365 230.86 206.417C230.833 205.729 230.833 205.042 230.86 204.361C230.57 203.364 230.511 202.47 230.681 201.68C230.379 200.796 230.32 199.963 230.502 199.177C230.309 198.522 230.191 197.896 230.145 197.299C231.196 197.081 232.238 197.081 233.273 197.299C233.311 197.882 233.4 198.447 233.541 198.998C233.482 199.177 233.422 199.355 233.363 199.534C233.67 201.599 233.969 203.775 234.257 206.06Z" fill="#00277B"/>
<path opacity="0.991" fill-rule="evenodd" clip-rule="evenodd" d="M210.479 197.117C211.965 197.285 213.454 197.405 214.949 197.475C215.002 197.591 215.063 197.711 215.127 197.832C214.924 199.014 214.684 200.235 214.412 201.497C214.471 201.676 214.532 201.855 214.591 202.034C214.38 203.221 214.201 204.413 214.055 205.609C214.155 205.677 214.214 205.767 214.233 205.878C212.619 205.749 211.01 205.57 209.406 205.341C209.796 202.502 210.154 199.761 210.479 197.117Z" fill="#0356A9"/>
<path opacity="0.988" fill-rule="evenodd" clip-rule="evenodd" d="M230.144 197.297C230.191 197.894 230.309 198.52 230.502 199.174C230.319 199.961 230.378 200.794 230.68 201.677C230.511 202.467 230.57 203.361 230.859 204.359C230.832 205.04 230.832 205.727 230.859 206.415C229.193 206.527 227.525 206.586 225.853 206.594C225.894 203.612 225.894 200.631 225.853 197.654C225.317 197.654 224.78 197.654 224.244 197.654C226.18 197.492 228.147 197.372 230.144 197.297Z" fill="#003185"/>
<path opacity="0.991" fill-rule="evenodd" clip-rule="evenodd" d="M214.949 197.476C216.613 197.622 218.281 197.681 219.955 197.654C219.831 200.599 219.652 203.52 219.418 206.415C217.655 206.324 215.927 206.145 214.233 205.878C214.214 205.768 214.155 205.678 214.055 205.61C214.201 204.414 214.38 203.222 214.591 202.035C214.532 201.856 214.471 201.677 214.412 201.498C214.684 200.236 214.924 199.015 215.127 197.833C215.063 197.712 215.002 197.592 214.949 197.476Z" fill="#02499D"/>
<path opacity="0.989" fill-rule="evenodd" clip-rule="evenodd" d="M219.954 197.653C221.385 197.653 222.815 197.653 224.245 197.653C224.782 197.653 225.318 197.653 225.854 197.653C225.895 200.63 225.895 203.61 225.854 206.592C223.707 206.607 221.562 206.546 219.418 206.414C219.652 203.519 219.831 200.598 219.954 197.653Z" fill="#013C8F"/>
<path opacity="0.959" fill-rule="evenodd" clip-rule="evenodd" d="M198.677 195.154C199.625 195.415 200.58 195.653 201.538 195.869C201.061 198.381 200.524 200.824 199.929 203.2C198.996 202.847 198.041 202.549 197.068 202.306C197.603 199.928 198.139 197.545 198.677 195.154Z" fill="#067ACA"/>
</svg>
